<svg xmlns="http://www.w3.org/2000/svg" width="300" height="300" viewBox="0 0 300 300"><defs><style>.c1,.c2{fill:#5c8687;fill-rule:evenodd}.c2{fill:#f15f12}</style></defs><path class="c1" d="M165.51 0a8.385 8.385 0 11-8.233 8.383A8.309 8.309 0 01165.51 0z"/><path class="c1" d="M151.097 1.635a4.37 4.37 0 11-4.291 4.369 4.33 4.33 0 014.291-4.369z"/><path class="c1" d="M178.95 1.635a4.37 4.37 0 11-4.291 4.369 4.33 4.33 0 014.291-4.369z"/><path class="c1" d="M144.866 10.954a4.371 4.371 0 11-4.292 4.366 4.331 4.331 0 014.292-4.37z"/><path class="c1" d="M140.683 2.184a3.653 3.653 0 11-3.588 3.653 3.621 3.621 0 013.588-3.653z"/><path class="c1" d="M172.814 17.092a3.654 3.654 0 11-3.588 3.653 3.621 3.621 0 013.588-3.653z"/><path class="c1" d="M189.739 4.314a3.653 3.653 0 11-3.588 3.653 3.619 3.619 0 013.588-3.653z"/><path class="c1" d="M86.679 16.123a3.654 3.654 0 11-3.588 3.654 3.622 3.622 0 013.588-3.654z"/><path class="c1" d="M105.887 19.222a3.653 3.653 0 11-3.588 3.653 3.62 3.62 0 013.588-3.653z"/><path class="c1" d="M103.606 31.225a3.654 3.654 0 11-3.588 3.654 3.621 3.621 0 013.588-3.654z"/><path class="c1" d="M95.239 34.714a3.654 3.654 0 11-3.588 3.653 3.621 3.621 0 013.588-3.653z"/><path class="c1" d="M139.732 45.166a3.653 3.653 0 11-3.588 3.653 3.621 3.621 0 013.588-3.653z"/><path class="c1" d="M155.322 48.651a3.653 3.653 0 11-3.588 3.653 3.621 3.621 0 013.588-3.653z"/><path class="c1" d="M172.056 65.3a3.654 3.654 0 11-3.588 3.654 3.62 3.62 0 013.588-3.654z"/><path class="c1" d="M209.514 56.394a3.654 3.654 0 11-3.588 3.652 3.622 3.622 0 013.588-3.654z"/><path class="c1" d="M262.352 54.636a3.654 3.654 0 11-3.588 3.654 3.622 3.622 0 013.588-3.654z"/><path class="c1" d="M276.339 75.912a3.654 3.654 0 11-3.588 3.653 3.621 3.621 0 013.588-3.653z"/><path class="c1" d="M252.855 91.384a3.654 3.654 0 11-3.588 3.654 3.62 3.62 0 013.588-3.654z"/><path class="c1" d="M281.347 116.352a3.653 3.653 0 11-3.588 3.653 3.621 3.621 0 013.588-3.653z"/><path class="c1" d="M262.698 117.231a3.654 3.654 0 11-3.588 3.653 3.621 3.621 0 013.588-3.653z"/><path class="c1" d="M192.764 137.802a3.654 3.654 0 11-3.588 3.654 3.622 3.622 0 013.588-3.654z"/><path class="c1" d="M202.434 168.92a3.653 3.653 0 11-3.587 3.653 3.62 3.62 0 013.587-3.653z"/><path class="c1" d="M195.872 159.428a3.654 3.654 0 11-3.587 3.656 3.622 3.622 0 013.587-3.654z"/><path class="c1" d="M154.257 167.341a3.654 3.654 0 11-3.588 3.653 3.621 3.621 0 013.588-3.653z"/><path class="c1" d="M176.015 173.495a3.653 3.653 0 11-3.588 3.653 3.621 3.621 0 013.588-3.653z"/><path class="c1" d="M153.566 144.484a3.653 3.653 0 11-3.588 3.653 3.62 3.62 0 013.588-3.653z"/><path class="c1" d="M148.56 152.571a3.654 3.654 0 11-3.587 3.654 3.622 3.622 0 013.587-3.654z"/><path class="c1" d="M247.335 149.23a3.654 3.654 0 11-3.588 3.654 3.621 3.621 0 013.588-3.654z"/><path class="c1" d="M275.476 172.968a3.653 3.653 0 11-3.588 3.653 3.621 3.621 0 013.588-3.653z"/><path class="c1" d="M276.339 164a3.654 3.654 0 11-3.588 3.654 3.622 3.622 0 013.588-3.654z"/><path class="c1" d="M294.124 176.309a3.653 3.653 0 11-3.588 3.653 3.62 3.62 0 013.588-3.653z"/><path class="c1" d="M253.718 197.582a3.654 3.654 0 11-3.588 3.653 3.621 3.621 0 013.588-3.653z"/><path class="c1" d="M213.658 186.853a3.653 3.653 0 11-3.588 3.653 3.62 3.62 0 013.588-3.653z"/><path class="c1" d="M234.033 214.462a3.654 3.654 0 11-3.588 3.654 3.622 3.622 0 013.588-3.654z"/><path class="c1" d="M260.625 221.671a3.653 3.653 0 11-3.588 3.653 3.621 3.621 0 013.588-3.653z"/><path class="c1" d="M162.028 217.803a3.654 3.654 0 11-3.587 3.654 3.622 3.622 0 013.587-3.654z"/><path class="c1" d="M218.32 236.441a3.653 3.653 0 11-3.588 3.653 3.62 3.62 0 013.588-3.653z"/><path class="c1" d="M195.181 232.567a3.654 3.654 0 11-3.587 3.653 3.621 3.621 0 013.587-3.653z"/><path class="c1" d="M177.051 248.221a3.653 3.653 0 11-3.583 3.649 3.621 3.621 0 013.588-3.653z"/><path class="c1" d="M127.665 179.825a3.653 3.653 0 11-3.588 3.653 3.621 3.621 0 013.588-3.653z"/><path class="c1" d="M57.386 152.044a3.654 3.654 0 11-3.588 3.654 3.622 3.622 0 013.588-3.654z"/><path class="c1" d="M25.614 171.21a3.653 3.653 0 11-3.588 3.653 3.62 3.62 0 013.588-3.653z"/><path class="c1" d="M39.946 160.834a3.654 3.654 0 11-3.587 3.654 3.622 3.622 0 013.587-3.654z"/><path class="c1" d="M17.152 148.176a3.653 3.653 0 11-3.588 3.653 3.619 3.619 0 013.588-3.653z"/><path class="c1" d="M53.07 199.517a3.654 3.654 0 11-3.587 3.653 3.621 3.621 0 013.587-3.653z"/><path class="c1" d="M54.106 216.572a3.653 3.653 0 11-3.588 3.653 3.621 3.621 0 013.588-3.653z"/><path class="c1" d="M136.99 226.945a3.654 3.654 0 11-3.588 3.654 3.621 3.621 0 013.588-3.654z"/><path class="c1" d="M129.219 231.276a3.016 3.016 0 11-2.96 3.016 2.99 2.99 0 012.96-3.016z"/><path class="c1" d="M139.235 208.485a3.653 3.653 0 11-3.588 3.653 3.62 3.62 0 013.588-3.653z"/><path class="c1" d="M78.625 214.287a3.653 3.653 0 11-3.587 3.653 3.62 3.62 0 013.587-3.653z"/><path class="c1" d="M145.796 172.075a3.139 3.139 0 11-3.082 3.138 3.11 3.11 0 013.082-3.138z"/><path class="c1" d="M181.712 210.934a3.139 3.139 0 11-3.081 3.137 3.111 3.111 0 013.081-3.137z"/><path class="c1" d="M59.631 169.087a3.138 3.138 0 11-3.081 3.138 3.111 3.111 0 013.081-3.138z"/><path class="c1" d="M114.887 132.691a3.139 3.139 0 11-3.082 3.138 3.11 3.11 0 013.082-3.138z"/><path class="c1" d="M90.486 62.784a3.654 3.654 0 11-3.588 3.653 3.621 3.621 0 013.588-3.653z"/><path class="c1" d="M65.197 28.321a3.654 3.654 0 11-3.587 3.651 3.621 3.621 0 013.588-3.654z"/><path class="c1" d="M69.57 75.95a3.653 3.653 0 11-3.588 3.653 3.62 3.62 0 013.588-3.653z"/><path class="c1" d="M64.437 82.34a3.654 3.654 0 11-3.587 3.654 3.622 3.622 0 013.587-3.654z"/><path class="c1" d="M67.098 95.31a3.654 3.654 0 11-3.588 3.654 3.622 3.622 0 013.588-3.654z"/><path class="c1" d="M34.013 85.243a3.654 3.654 0 11-3.588 3.654 3.622 3.622 0 013.588-3.654z"/><path class="c1" d="M36.676 116.027a3.654 3.654 0 11-3.583 3.653 3.621 3.621 0 013.587-3.653z"/><path class="c1" d="M34.584 124.352a3.653 3.653 0 11-3.588 3.653 3.621 3.621 0 013.588-3.653z"/><path class="c1" d="M92.577 101.892a3.653 3.653 0 11-3.588 3.653 3.62 3.62 0 013.588-3.653z"/><path class="c1" d="M119.768 110.415a3.654 3.654 0 11-3.588 3.653 3.621 3.621 0 013.588-3.653z"/><path class="c1" d="M132.886 110.219a3.653 3.653 0 11-3.588 3.653 3.62 3.62 0 013.588-3.653z"/><path class="c1" d="M155.578 14.921a4.37 4.37 0 11-4.292 4.369 4.33 4.33 0 014.292-4.369z"/><path class="c1" d="M209.135 23.25a4.37 4.37 0 11-4.292 4.37 4.332 4.332 0 014.292-4.37z"/><path class="c1" d="M146.959 68.553a4.371 4.371 0 11-4.292 4.37 4.332 4.332 0 014.292-4.37z"/><path class="c1" d="M216.34 16.309a4.371 4.371 0 11-4.291 4.37 4.331 4.331 0 014.291-4.37z"/><path class="c1" d="M178.169 41.494a4.371 4.371 0 11-4.291 4.369 4.331 4.331 0 014.291-4.369z"/><path class="c1" d="M100.852 10.558a4.37 4.37 0 11-4.291 4.37 4.332 4.332 0 014.291-4.37z"/><path class="c1" d="M71.833 66.084a4.37 4.37 0 11-4.291 4.37 4.331 4.331 0 014.291-4.37z"/><path class="c1" d="M51.189 97.218a4.371 4.371 0 11-4.292 4.37 4.331 4.331 0 014.292-4.37z"/><path class="c1" d="M26.261 127.163a4.371 4.371 0 11-4.292 4.37 4.331 4.331 0 014.292-4.37z"/><path class="c1" d="M27.624 143.027a4.37 4.37 0 11-4.292 4.37 4.332 4.332 0 014.292-4.37z"/><path class="c1" d="M77.286 150.959a4.371 4.371 0 11-4.291 4.37 4.331 4.331 0 014.291-4.37z"/><path class="c1" d="M118.963 178.921a4.37 4.37 0 11-4.292 4.37 4.332 4.332 0 014.292-4.37z"/><path class="c1" d="M48.657 188.241a4.37 4.37 0 11-4.291 4.37 4.331 4.331 0 014.291-4.37z"/><path class="c1" d="M41.841 196.372a4.371 4.371 0 11-4.291 4.37 4.331 4.331 0 014.291-4.37z"/><path class="c1" d="M12.238 183.68a4.371 4.371 0 11-4.292 4.37 4.332 4.332 0 014.292-4.37z"/><path class="c1" d="M97.346 214.616a4.371 4.371 0 11-4.292 4.37 4.332 4.332 0 014.292-4.37z"/><path class="c1" d="M88.387 230.481a4.371 4.371 0 11-4.291 4.37 4.331 4.331 0 014.291-4.37z"/><path class="c1" d="M45.541 244.362a4.37 4.37 0 11-4.291 4.37 4.331 4.331 0 014.291-4.37z"/><path class="c1" d="M102.993 250.906a4.371 4.371 0 11-4.291 4.37 4.331 4.331 0 014.291-4.37z"/><path class="c1" d="M141.165 217.986a4.371 4.371 0 11-4.291 4.37 4.332 4.332 0 014.291-4.37z"/><path class="c1" d="M142.334 262.405a4.371 4.371 0 11-4.291 4.37 4.331 4.331 0 014.291-4.37z"/><path class="c1" d="M146.615 272.126a4.37 4.37 0 11-4.291 4.369 4.33 4.33 0 014.291-4.369z"/><path class="c1" d="M156.941 274.703a4.371 4.371 0 11-4.292 4.37 4.332 4.332 0 014.292-4.37z"/><path class="c1" d="M66.964 233.257a4.371 4.371 0 11-4.292 4.37 4.331 4.331 0 014.292-4.37z"/><path class="c1" d="M172.521 270.931a4.371 4.371 0 11-4.292 4.37 4.331 4.331 0 014.292-4.37z"/><path class="c1" d="M178.363 219.177a4.371 4.371 0 11-4.292 4.37 4.331 4.331 0 014.292-4.37z"/><path class="c1" d="M205.818 230.185a5.143 5.143 0 11-5.049 5.142 5.1 5.1 0 015.049-5.142z"/><path class="c1" d="M199.266 266.728a5.143 5.143 0 11-5.051 5.142 5.1 5.1 0 015.051-5.142z"/><path class="c1" d="M205.507 255.925a5.143 5.143 0 11-5.049 5.142 5.1 5.1 0 015.049-5.142z"/><path class="c1" d="M243.578 256.188a3.608 3.608 0 11-3.542 3.607 3.576 3.576 0 013.542-3.607z"/><path class="c1" d="M228.703 253.021a3.608 3.608 0 11-3.542 3.607 3.576 3.576 0 013.542-3.607z"/><path class="c1" d="M189.489 274.091a3.608 3.608 0 11-3.542 3.607 3.576 3.576 0 013.542-3.607z"/><path class="c1" d="M181.409 274.291a3.608 3.608 0 11-3.542 3.607 3.576 3.576 0 013.542-3.607z"/><path class="c1" d="M259.051 242.187a3.608 3.608 0 11-3.542 3.607 3.576 3.576 0 013.542-3.607z"/><path class="c1" d="M142.784 252.62a3.608 3.608 0 11-3.542 3.607 3.575 3.575 0 013.542-3.607z"/><path class="c1" d="M154.805 266.064a3.608 3.608 0 11-3.542 3.607 3.576 3.576 0 013.542-3.607z"/><path class="c1" d="M132.538 265.663a3.608 3.608 0 11-3.542 3.607 3.576 3.576 0 013.542-3.607z"/><path class="c1" d="M95.293 257.637a3.608 3.608 0 11-3.542 3.607 3.576 3.576 0 013.542-3.607z"/><path class="c1" d="M94.899 266.465a3.608 3.608 0 11-3.542 3.609 3.576 3.576 0 013.542-3.609z"/><path class="c1" d="M79.726 270.881a3.608 3.608 0 11-3.542 3.607 3.575 3.575 0 013.542-3.607z"/><path class="c1" d="M56.098 224.846a2.24 2.24 0 11-2.2 2.239 2.219 2.219 0 012.2-2.239z"/><path class="c1" d="M64.946 252.004a2.11 2.11 0 11-2.071 2.109 2.091 2.091 0 012.071-2.109z"/><path class="c1" d="M79.457 225.927a2.241 2.241 0 11-2.2 2.24 2.22 2.22 0 012.2-2.24z"/><path class="c1" d="M80.164 254.759a2.24 2.24 0 11-2.2 2.24 2.22 2.22 0 012.2-2.24z"/><path class="c1" d="M158.002 294.527a2.737 2.737 0 11-2.686 2.735 2.711 2.711 0 012.686-2.735z"/><path class="c1" d="M163.549 271.023a2.736 2.736 0 11-2.687 2.736 2.712 2.712 0 012.687-2.736z"/><path class="c1" d="M185.2 248.431a2.736 2.736 0 11-2.687 2.736 2.712 2.712 0 012.687-2.736z"/><path class="c1" d="M207.568 267.38a2.736 2.736 0 11-2.687 2.736 2.711 2.711 0 012.687-2.736z"/><path class="c1" d="M210.252 240.232a2.736 2.736 0 11-2.687 2.736 2.711 2.711 0 012.687-2.736z"/><path class="c1" d="M204.346 216.364a2.736 2.736 0 11-2.686 2.735 2.711 2.711 0 012.686-2.735z"/><path class="c1" d="M205.062 223.79a2.233 2.233 0 11-2.192 2.233 2.213 2.213 0 012.192-2.233z"/><path class="c1" d="M197.723 258.954a2.233 2.233 0 11-2.193 2.233 2.213 2.213 0 012.193-2.233z"/><path class="c1" d="M236.379 255.128a2.233 2.233 0 11-2.2 2.233 2.213 2.213 0 012.193-2.233z"/><path class="c1" d="M235.481 248.934a2.233 2.233 0 11-2.193 2.233 2.213 2.213 0 012.193-2.233z"/><path class="c1" d="M234.764 238.183a2.234 2.234 0 11-2.193 2.234 2.214 2.214 0 012.193-2.234z"/><path class="c1" d="M214.545 229.438a2.233 2.233 0 11-2.193 2.233 2.213 2.213 0 012.193-2.233z"/><path class="c1" d="M228.861 270.841a2.554 2.554 0 11-2.508 2.553 2.531 2.531 0 012.508-2.553z"/><path class="c1" d="M220.451 275.761a2.554 2.554 0 11-2.509 2.553 2.53 2.53 0 012.509-2.553z"/><path class="c1" d="M248.007 231.851a2.554 2.554 0 11-2.508 2.553 2.53 2.53 0 012.508-2.553z"/><path class="c1" d="M264.876 237.499a2.554 2.554 0 11-2.506 2.553 2.531 2.531 0 012.506-2.553z"/><path class="c1" d="M161.867 202.253a2.554 2.554 0 11-2.508 2.553 2.531 2.531 0 012.508-2.553z"/><path class="c1" d="M197.978 181.749a2.554 2.554 0 11-2.508 2.553 2.531 2.531 0 012.508-2.553z"/><path class="c1" d="M253.229 207.337a2.554 2.554 0 11-2.509 2.553 2.529 2.529 0 012.509-2.553z"/><path class="c1" d="M231.427 209.909a1.844 1.844 0 11-1.811 1.845 1.828 1.828 0 011.811-1.845z"/><path class="c1" d="M240.746 190.592a1.844 1.844 0 11-1.811 1.845 1.829 1.829 0 011.811-1.845z"/><path class="c1" d="M246.738 181.611a1.845 1.845 0 11-1.811 1.845 1.828 1.828 0 011.811-1.845z"/><path class="c1" d="M239.15 165.85a1.844 1.844 0 11-1.811 1.845 1.828 1.828 0 011.811-1.845z"/><path class="c1" d="M222.353 167.85a1.844 1.844 0 11-1.812 1.845 1.829 1.829 0 011.812-1.845z"/><path class="c1" d="M174.142 156.965a1.845 1.845 0 11-1.812 1.845 1.829 1.829 0 011.812-1.845z"/><path class="c1" d="M170.433 134.308a1.844 1.844 0 11-1.813 1.846 1.829 1.829 0 011.812-1.845z"/><path class="c1" d="M137.553 105.196a1.844 1.844 0 11-1.811 1.843 1.828 1.828 0 011.811-1.843z"/><path class="c1" d="M136.363 131.639a1.845 1.845 0 11-1.811 1.845 1.828 1.828 0 011.811-1.845z"/><path class="c1" d="M49.687 172.638a1.65 1.65 0 11-1.621 1.651 1.635 1.635 0 011.621-1.651z"/><path class="c1" d="M39.918 208.301a1.65 1.65 0 11-1.62 1.649 1.634 1.634 0 011.62-1.649z"/><path class="c1" d="M15.616 159.054a1.649 1.649 0 11-1.62 1.649 1.634 1.634 0 011.62-1.649z"/><path class="c1" d="M23.955 194.472a1.65 1.65 0 11-1.62 1.649 1.636 1.636 0 011.62-1.649z"/><path class="c1" d="M126.356 114.348a2.4 2.4 0 11-2.353 2.4 2.376 2.376 0 012.353-2.4z"/><path class="c1" d="M64.887 176.695a2.4 2.4 0 11-2.353 2.4 2.376 2.376 0 012.353-2.4z"/><path class="c1" d="M74.176 98.579a2.4 2.4 0 11-2.353 2.4 2.376 2.376 0 012.353-2.4z"/><path class="c1" d="M34.867 110.71a2.4 2.4 0 11-2.353 2.4 2.375 2.375 0 012.353-2.4z"/><path class="c1" d="M22.716 105.858a2.4 2.4 0 11-2.353 2.4 2.374 2.374 0 012.353-2.4z"/><path class="c1" d="M27.005 137.152a2.4 2.4 0 11-2.353 2.4 2.375 2.375 0 012.353-2.4z"/><path class="c1" d="M25.336 73.106a2.4 2.4 0 11-2.353 2.4 2.376 2.376 0 012.353-2.4z"/><path class="c1" d="M49.162 153.406a2.4 2.4 0 11-2.353 2.4 2.375 2.375 0 012.353-2.4z"/><path class="c1" d="M40.347 188.582a2.4 2.4 0 11-2.353 2.4 2.376 2.376 0 012.353-2.4z"/><path class="c1" d="M16.283 204.837a2.4 2.4 0 11-2.353 2.4 2.376 2.376 0 012.353-2.4z"/><path class="c1" d="M138.507 138.122a2.4 2.4 0 11-2.353 2.4 2.375 2.375 0 012.353-2.4z"/><path class="c1" d="M141.842 154.619a2.4 2.4 0 11-2.353 2.4 2.376 2.376 0 012.353-2.4z"/><path class="c1" d="M149.705 140.276a1.941 1.941 0 11-1.906 1.942 1.925 1.925 0 011.906-1.942z"/><path class="c1" d="M134.456 146.099a1.941 1.941 0 11-1.9 1.94 1.924 1.924 0 011.9-1.94z"/><path class="c1" d="M119.685 152.407a1.941 1.941 0 11-1.906 1.94 1.924 1.924 0 011.906-1.94z"/><path class="c1" d="M103.245 169.389a1.941 1.941 0 11-1.906 1.94 1.924 1.924 0 011.906-1.94z"/><path class="c1" d="M113.487 186.37a1.941 1.941 0 11-1.906 1.94 1.923 1.923 0 011.906-1.94z"/><path class="c1" d="M111.108 137.85a1.941 1.941 0 11-1.906 1.94 1.924 1.924 0 011.906-1.94z"/><path class="c1" d="M58.693 132.271a1.941 1.941 0 11-1.906 1.94 1.923 1.923 0 011.906-1.94z"/><path class="c1" d="M60.836 159.927a1.941 1.941 0 11-1.9 1.94 1.924 1.924 0 011.9-1.94z"/><path class="c1" d="M43.92 98.792a1.941 1.941 0 11-1.906 1.94 1.924 1.924 0 011.906-1.94z"/><path class="c1" d="M290.198 97.878a1.845 1.845 0 11-1.812 1.845 1.829 1.829 0 011.812-1.845z"/><path class="c1" d="M175.45 132.309a1.844 1.844 0 11-1.811 1.845 1.829 1.829 0 011.811-1.845z"/><path class="c1" d="M200.756 110.318a1.844 1.844 0 11-1.811 1.845 1.829 1.829 0 011.811-1.845z"/><path class="c1" d="M236.096 137.64a1.844 1.844 0 11-1.811 1.845 1.828 1.828 0 011.811-1.845z"/><path class="c1" d="M267.947 148.969a1.844 1.844 0 11-1.812 1.845 1.829 1.829 0 011.812-1.845z"/><path class="c1" d="M279.29 126.755a1.844 1.844 0 11-1.811 1.845 1.829 1.829 0 011.811-1.845z"/><path class="c1" d="M292.38 107.209a1.844 1.844 0 11-1.811 1.843 1.827 1.827 0 011.811-1.843z"/><path class="c1" d="M275.582 94.543a1.844 1.844 0 11-1.811 1.843 1.827 1.827 0 011.811-1.843z"/><path class="c1" d="M234.374 66.191a1.844 1.844 0 11-1.811 1.843 1.827 1.827 0 011.811-1.843z"/><path class="c1" d="M195.047 92.248a1.844 1.844 0 11-1.811 1.843 1.828 1.828 0 011.811-1.843z"/><path class="c1" d="M198.999 77.302a1.845 1.845 0 11-1.812 1.845 1.829 1.829 0 011.812-1.845z"/><path class="c1" d="M199.188 47.413a1.845 1.845 0 11-1.811 1.845 1.829 1.829 0 011.811-1.845z"/><path class="c1" d="M175.478 11.586a1.844 1.844 0 11-1.811 1.843 1.826 1.826 0 011.811-1.843z"/><path class="c1" d="M164.376 17.333a1.844 1.844 0 11-1.809 1.845 1.829 1.829 0 011.809-1.845z"/><path class="c1" d="M131.261 43.581a1.845 1.845 0 11-1.811 1.845 1.829 1.829 0 011.811-1.845z"/><path class="c1" d="M104.729 26.721a1.844 1.844 0 11-1.811 1.845 1.828 1.828 0 011.811-1.845z"/><path class="c1" d="M77.634 46.456a1.844 1.844 0 11-1.812 1.843 1.827 1.827 0 011.812-1.843z"/><path class="c1" d="M47.152 65.999a1.844 1.844 0 11-1.811 1.845 1.829 1.829 0 011.811-1.845z"/><path class="c1" d="M64.463 71.227a1.981 1.981 0 11-1.945 1.98 1.962 1.962 0 011.945-1.98z"/><path class="c1" d="M100.402 55.077a1.845 1.845 0 11-1.811 1.845 1.829 1.829 0 011.811-1.845z"/><path class="c1" d="M127.12 82.093a1.844 1.844 0 11-1.811 1.845 1.829 1.829 0 011.811-1.845z"/><path class="c1" d="M117.337 49.13a2.235 2.235 0 11-2.195 2.236 2.216 2.216 0 012.195-2.236z"/><path class="c1" d="M208.219 32.852a1.844 1.844 0 11-1.811 1.845 1.829 1.829 0 011.811-1.845z"/><path class="c1" d="M182.629 84.966a1.844 1.844 0 11-1.812 1.845 1.829 1.829 0 011.812-1.845z"/><path class="c1" d="M142.738 85.733a1.844 1.844 0 11-1.811 1.843 1.828 1.828 0 011.811-1.843z"/><path class="c1" d="M170.21 60.059a1.844 1.844 0 11-1.811 1.845 1.829 1.829 0 011.811-1.845z"/><path class="c1" d="M160.237 45.498a1.844 1.844 0 11-1.811 1.845 1.828 1.828 0 011.811-1.845z"/><path class="c1" d="M256.953 70.811a1.439 1.439 0 11-1.414 1.439 1.427 1.427 0 011.414-1.439z"/><path class="c1" d="M142.173 67.361a.864.864 0 11-.848.864.858.858 0 01.848-.864z"/><path class="c1" d="M227.976 53.95a1.439 1.439 0 11-1.413 1.439 1.427 1.427 0 011.413-1.439z"/><path class="c1" d="M171.716 27.7a1.439 1.439 0 11-1.413 1.439 1.428 1.428 0 011.413-1.439z"/><path class="c1" d="M126.556 33.065a1.439 1.439 0 11-1.413 1.439 1.426 1.426 0 011.413-1.439z"/><path class="c1" d="M135.589 62.189a1.439 1.439 0 11-1.413 1.439 1.427 1.427 0 011.413-1.439z"/><path class="c1" d="M151.77 56.058a1.439 1.439 0 11-1.414 1.439 1.425 1.425 0 011.414-1.439z"/><path class="c1" d="M272.572 84.396a1.844 1.844 0 11-1.811 1.845 1.829 1.829 0 011.811-1.845z"/><path class="c1" d="M260.528 94.769a1.844 1.844 0 11-1.805 1.845 1.828 1.828 0 011.809-1.843z"/><path class="c1" d="M212.318 124.599a2.224 2.224 0 11-2.184 2.224 2.2 2.2 0 012.184-2.224z"/><path class="c1" d="M269.909 100.387a2.224 2.224 0 11-2.183 2.224 2.2 2.2 0 012.183-2.224z"/><path class="c1" d="M198.784 40.418a2.223 2.223 0 11-2.183 2.222 2.2 2.2 0 012.183-2.222z"/><path class="c1" d="M259.557 88.265a2.659 2.659 0 11-2.612 2.658 2.635 2.635 0 012.612-2.658z"/><path class="c1" d="M246.39 45.538a2.66 2.66 0 11-2.611 2.659 2.635 2.635 0 012.611-2.659z"/><path class="c1" d="M251.471 41.514a2.659 2.659 0 11-2.611 2.659 2.636 2.636 0 012.611-2.659z"/><path class="c1" d="M217.412 25.612a2.659 2.659 0 11-2.611 2.659 2.635 2.635 0 012.611-2.659z"/><path class="c1" d="M136.691 11.625a2.659 2.659 0 11-2.613 2.659 2.635 2.635 0 012.612-2.659z"/><path class="c1" d="M147.792 48.413a2.659 2.659 0 11-2.611 2.658 2.635 2.635 0 012.611-2.658z"/><path class="c1" d="M89.44 80.409a3.021 3.021 0 11-2.966 3.019 2.994 2.994 0 012.966-3.019z"/><path class="c1" d="M124.439 86.54a3.021 3.021 0 11-2.966 3.021 2.994 2.994 0 012.966-3.021z"/><path class="c1" d="M58.957 51.67a3.021 3.021 0 11-2.966 3.019 2.993 2.993 0 012.966-3.019z"/><path class="c1" d="M154.752 24.655a2.659 2.659 0 11-2.612 2.659 2.635 2.635 0 012.612-2.659z"/><path class="c1" d="M112.793 35.81a2.233 2.233 0 11-2.193 2.233 2.213 2.213 0 012.193-2.233z"/><path class="c1" d="M93.224 14.542a2.233 2.233 0 11-2.193 2.233 2.213 2.213 0 012.193-2.233z"/><path class="c1" d="M88.897 32.363a2.234 2.234 0 11-2.193 2.233 2.214 2.214 0 012.193-2.233z"/><path class="c1" d="M94.537 43.856a2.234 2.234 0 11-2.193 2.233 2.213 2.213 0 012.193-2.233z"/><path class="c1" d="M67.442 53.971a2.659 2.659 0 11-2.611 2.658 2.634 2.634 0 012.611-2.658z"/><path class="c1" d="M56.157 36.92a2.659 2.659 0 11-2.611 2.658 2.635 2.635 0 012.611-2.658z"/><path class="c1" d="M32.453 79.256a2.659 2.659 0 11-2.612 2.658 2.634 2.634 0 012.612-2.658z"/><path class="c1" d="M40.915 79.256a2.659 2.659 0 11-2.611 2.658 2.634 2.634 0 012.611-2.658z"/><path class="c1" d="M191.07 21.588a2.659 2.659 0 11-2.611 2.659 2.635 2.635 0 012.611-2.659z"/><path class="c1" d="M216.283 32.126a2.66 2.66 0 11-2.611 2.662 2.636 2.636 0 012.611-2.659z"/><path class="c1" d="M233.971 41.514a2.659 2.659 0 11-2.611 2.659 2.635 2.635 0 012.611-2.659z"/><path class="c1" d="M218.544 85.577a2.659 2.659 0 11-2.611 2.659 2.636 2.636 0 012.611-2.659z"/><path class="c1" d="M221.551 103.784a2.659 2.659 0 11-2.611 2.658 2.635 2.635 0 012.611-2.658z"/><path class="c1" d="M210.263 98.993a2.66 2.66 0 11-2.611 2.659 2.635 2.635 0 012.611-2.659z"/><path class="c1" d="M163.033 74.661a2.66 2.66 0 11-2.611 2.659 2.636 2.636 0 012.611-2.659z"/><path class="c1" d="M154.752 73.895a2.659 2.659 0 11-2.612 2.658 2.635 2.635 0 012.612-2.658z"/><path class="c1" d="M143.276 79.067a2.659 2.659 0 11-2.611 2.659 2.635 2.635 0 012.611-2.659z"/><path class="c1" d="M228.702 62.59a2.659 2.659 0 11-2.611 2.659 2.635 2.635 0 012.611-2.659z"/><path class="c1" d="M287.58 93.5a2.224 2.224 0 11-2.184 2.224 2.2 2.2 0 012.184-2.224z"/><path class="c1" d="M261.402 159.853a1.844 1.844 0 11-1.811 1.843 1.827 1.827 0 011.811-1.843z"/><path class="c1" d="M281.254 172.07a1.845 1.845 0 11-1.811 1.845 1.829 1.829 0 011.811-1.845z"/><path class="c1" d="M257.555 187.88a1.844 1.844 0 11-1.811 1.843 1.828 1.828 0 011.811-1.843z"/><path class="c1" d="M271.201 198.193a2.038 2.038 0 11-2 2.039 2.02 2.02 0 012-2.039z"/><path class="c1" d="M273.531 204.124a2.547 2.547 0 11-2.5 2.546 2.524 2.524 0 012.5-2.546z"/><path class="c1" d="M278.025 195.468a2.9 2.9 0 11-2.849 2.9 2.874 2.874 0 012.849-2.9z"/><path class="c1" d="M280.848 188.011a2.393 2.393 0 11-2.349 2.393 2.371 2.371 0 012.349-2.393z"/><path class="c1" d="M296.124 153.136a2.393 2.393 0 11-2.349 2.393 2.371 2.371 0 012.349-2.393z"/><path class="c1" d="M297.65 138.031a2.393 2.393 0 11-2.35 2.393 2.372 2.372 0 012.35-2.393z"/><path class="c1" d="M260.129 138.698a2.392 2.392 0 11-2.349 2.392 2.371 2.371 0 012.349-2.392z"/><path class="c1" d="M240.059 145.692a2.732 2.732 0 11-2.683 2.731 2.707 2.707 0 012.683-2.731z"/><path class="c1" d="M187.921 145.467a2.732 2.732 0 11-2.683 2.731 2.707 2.707 0 012.683-2.731z"/><path class="c1" d="M195.12 131.25a2.732 2.732 0 11-2.683 2.731 2.707 2.707 0 012.683-2.731z"/><path class="c1" d="M189.449 106.594a2.732 2.732 0 11-2.683 2.731 2.708 2.708 0 012.683-2.731z"/><path class="c1" d="M162.833 145.467a2.287 2.287 0 11-2.246 2.286 2.266 2.266 0 012.246-2.286z"/><path class="c1" d="M292.004 185.146a3.055 3.055 0 11-3 3.054 3.026 3.026 0 013-3.054z"/><path class="c1" d="M259.553 193.442a2.554 2.554 0 11-2.508 2.553 2.53 2.53 0 012.508-2.553z"/><path class="c1" d="M185.797 183.998a.867.867 0 11-.851.867.86.86 0 01.851-.867z"/><path class="c1" d="M88.889 121.892a1.172 1.172 0 11-1.151 1.172 1.162 1.162 0 011.151-1.172z"/><path class="c1" d="M132.778 188.612a1.223 1.223 0 11-1.2 1.223 1.212 1.212 0 011.2-1.223z"/><path class="c1" d="M114.91 173.081a1.223 1.223 0 11-1.2 1.223 1.212 1.212 0 011.2-1.223z"/><path class="c1" d="M53.918 196.128a1.224 1.224 0 11-1.2 1.223 1.213 1.213 0 011.2-1.223z"/><path class="c1" d="M170.529 219.963a2.233 2.233 0 11-2.193 2.233 2.213 2.213 0 012.193-2.233z"/><path class="c1" d="M123.288 228.527a2.233 2.233 0 11-2.193 2.233 2.213 2.213 0 012.193-2.233z"/><path class="c1" d="M123.111 213.768a2.234 2.234 0 11-2.195 2.233 2.214 2.214 0 012.195-2.233z"/><path class="c1" d="M134.025 215.955a1.686 1.686 0 11-1.657 1.686 1.672 1.672 0 011.657-1.686z"/><path class="c1" d="M95.375 235.997a1.687 1.687 0 11-1.657 1.686 1.672 1.672 0 011.657-1.686z"/><path class="c1" d="M116.436 246.109a2.24 2.24 0 11-2.2 2.239 2.218 2.218 0 012.2-2.239z"/><path class="c1" d="M122.46 255.478a2.24 2.24 0 11-2.2 2.24 2.22 2.22 0 012.2-2.24z"/><path class="c1" d="M126.351 280.339a2.24 2.24 0 11-2.2 2.24 2.22 2.22 0 012.2-2.24z"/><path class="c1" d="M111.664 289.892a2.24 2.24 0 11-2.2 2.24 2.22 2.22 0 012.2-2.24z"/><path class="c1" d="M160.15 250.252a2.24 2.24 0 11-2.2 2.24 2.22 2.22 0 012.2-2.24z"/><path class="c1" d="M160.504 237.82a2.24 2.24 0 11-2.2 2.239 2.219 2.219 0 012.2-2.239z"/><path class="c1" d="M21.591 216.918a2.24 2.24 0 11-2.2 2.239 2.219 2.219 0 012.2-2.239z"/><path class="c1" d="M52.912 242.324a2.241 2.241 0 11-2.2 2.24 2.221 2.221 0 012.2-2.24z"/><path class="c1" d="M47.604 221.621a2.762 2.762 0 11-2.712 2.762 2.737 2.737 0 012.712-2.762z"/><path class="c1" d="M240.099 230.084a4.371 4.371 0 11-4.291 4.37 4.331 4.331 0 014.291-4.37z"/><path class="c1" d="M268.729 228.101a4.371 4.371 0 11-4.291 4.37 4.331 4.331 0 014.291-4.37z"/><path class="c1" d="M259.966 211.047a4.371 4.371 0 11-4.291 4.37 4.332 4.332 0 014.291-4.37z"/><path class="c1" d="M282.752 202.322a4.37 4.37 0 11-4.292 4.369 4.331 4.331 0 014.292-4.369z"/><path class="c1" d="M287.231 191.612a4.371 4.371 0 11-4.291 4.37 4.331 4.331 0 014.291-4.37z"/><path class="c1" d="M284.699 177.735a4.371 4.371 0 11-4.292 4.37 4.332 4.332 0 014.292-4.37z"/><path class="c1" d="M279.83 151.157a4.371 4.371 0 11-4.291 4.37 4.331 4.331 0 014.291-4.37z"/><path class="c1" d="M272.234 120.817a4.37 4.37 0 11-4.292 4.369 4.332 4.332 0 014.292-4.369z"/><path class="c1" d="M270.872 110.504a4.371 4.371 0 11-4.292 4.37 4.331 4.331 0 014.292-4.37z"/><path class="c1" d="M290.932 112.487a4.371 4.371 0 11-4.292 4.37 4.331 4.331 0 014.292-4.37z"/><path class="c1" d="M268.535 89.682a4.371 4.371 0 11-4.292 4.37 4.332 4.332 0 014.292-4.37z"/><path class="c1" d="M242.243 66.282a4.37 4.37 0 11-4.292 4.37 4.331 4.331 0 014.292-4.37z"/><path class="c1" d="M265.029 80.362a4.37 4.37 0 11-4.292 4.37 4.332 4.332 0 014.292-4.37z"/><path class="c1" d="M253.343 47.681a5.521 5.521 0 11-5.421 5.519 5.472 5.472 0 015.421-5.519z"/><path class="c1" d="M242.437 34.79a5.522 5.522 0 11-5.421 5.521 5.473 5.473 0 015.421-5.521z"/><path class="c1" d="M224.91 41.929a5.522 5.522 0 11-5.421 5.521 5.472 5.472 0 015.421-5.521z"/><path class="c1" d="M220.82 54.026a5.521 5.521 0 11-5.422 5.521 5.472 5.472 0 015.422-5.521z"/><path class="c1" d="M251.785 60.173a5.521 5.521 0 11-5.421 5.521 5.472 5.472 0 015.421-5.521z"/><path class="c1" d="M280.804 84.17a5.521 5.521 0 11-5.421 5.519 5.471 5.471 0 015.421-5.519z"/><path class="c1" d="M218.872 91.507a5.521 5.521 0 11-5.422 5.519 5.471 5.471 0 015.422-5.519z"/><path class="c1" d="M191.023 78.814a5.521 5.521 0 11-5.421 5.521 5.472 5.472 0 015.421-5.521z"/><path class="c1" d="M198.228 53.036a5.521 5.521 0 11-5.421 5.519 5.471 5.471 0 015.421-5.519z"/><path class="c1" d="M190.827 40.742a5.521 5.521 0 11-5.421 5.519 5.472 5.472 0 015.421-5.519z"/><path class="c1" d="M183.817 11.196a5.521 5.521 0 11-5.423 5.521 5.471 5.471 0 015.423-5.521z"/><path class="c1" d="M164.341 21.9a5.522 5.522 0 11-5.422 5.519 5.473 5.473 0 015.421-5.521z"/><path class="c1" d="M136.491 33.402a5.521 5.521 0 11-5.421 5.521 5.473 5.473 0 015.421-5.521z"/><path class="c1" d="M144.866 20.909a5.521 5.521 0 11-5.421 5.519 5.471 5.471 0 015.421-5.519z"/><path class="c1" d="M129.285 2.863a5.521 5.521 0 11-5.421 5.519 5.472 5.472 0 015.421-5.519z"/><path class="c1" d="M114.678 23.136a6.071 6.071 0 11-5.96 6.069 6.015 6.015 0 015.96-6.069z"/><path class="c1" d="M101.709 59.95a5.8 5.8 0 11-5.7 5.8 5.748 5.748 0 015.7-5.8z"/><path class="c1" d="M134.155 83.773a5.521 5.521 0 11-5.422 5.519 5.472 5.472 0 015.422-5.519z"/><path class="c1" d="M152.656 79.41a5.521 5.521 0 11-5.422 5.519 5.471 5.471 0 015.422-5.519z"/><path class="c1" d="M199.539 97.29a6 6 0 11-5.894 6 5.949 5.949 0 015.894-6z"/><path class="c1" d="M168.02 46.359a5.864 5.864 0 11-5.759 5.863 5.812 5.812 0 015.759-5.863z"/><path class="c1" d="M168.055 33.506a5.9 5.9 0 11-5.794 5.9 5.85 5.85 0 015.794-5.9z"/><path class="c1" d="M199.318 26.586a5.9 5.9 0 11-5.8 5.9 5.85 5.85 0 015.8-5.9z"/><path class="c1" d="M85.076 38.009a6.071 6.071 0 11-5.96 6.069 6.015 6.015 0 015.96-6.069z"/><path class="c1" d="M62.484 58.786a5.521 5.521 0 11-5.421 5.525 5.472 5.472 0 015.421-5.521z"/><path class="c1" d="M50.8 55.018a5.521 5.521 0 11-5.421 5.519 5.471 5.471 0 015.421-5.519z"/><path class="c1" d="M50.994 42.723a5.521 5.521 0 11-5.421 5.521 5.473 5.473 0 015.421-5.521z"/><path class="c1" d="M25.676 112.924a5.521 5.521 0 11-5.421 5.519 5.471 5.471 0 015.421-5.519z"/><path class="c1" d="M44.567 104.991a5.522 5.522 0 11-5.421 5.521 5.472 5.472 0 015.421-5.521z"/><path class="c1" d="M143.461 109.165a6.039 6.039 0 11-5.928 6.037 5.984 5.984 0 015.928-6.037z"/><path class="c1" d="M57.811 87.937a5.521 5.521 0 11-5.422 5.521 5.472 5.472 0 015.422-5.521z"/><path class="c1" d="M119.743 119.666a5.521 5.521 0 11-5.421 5.519 5.471 5.471 0 015.421-5.519z"/><path class="c1" d="M67.354 133.746a5.521 5.521 0 11-5.421 5.52 5.471 5.471 0 015.421-5.52z"/><path class="c1" d="M112.861 55.337a4.843 4.843 0 11-4.757 4.842 4.8 4.8 0 014.757-4.842z"/><path class="c1" d="M17.886 135.531a5.521 5.521 0 11-5.421 5.521 5.472 5.472 0 015.421-5.521z"/><path class="c1" d="M5.422 139.298A5.521 5.521 0 110 144.819a5.472 5.472 0 015.422-5.521z"/><path class="c1" d="M7.176 152.783a5.521 5.521 0 11-5.421 5.521 5.472 5.472 0 015.421-5.521z"/><path class="c1" d="M66.964 145.644a5.521 5.521 0 11-5.421 5.521 5.472 5.472 0 015.421-5.521z"/><path class="c1" d="M114.095 142.273a5.521 5.521 0 11-5.422 5.519 5.471 5.471 0 015.422-5.519z"/><path class="c1" d="M143.113 142.67a5.521 5.521 0 11-5.421 5.52 5.472 5.472 0 015.421-5.52z"/><path class="c1" d="M144.671 160.319a5.521 5.521 0 11-5.421 5.521 5.471 5.471 0 015.421-5.521z"/><path class="c1" d="M73.391 177.77a5.521 5.521 0 11-5.421 5.521 5.473 5.473 0 015.421-5.521z"/><path class="c1" d="M16.134 192.445a5.521 5.521 0 11-5.421 5.519 5.471 5.471 0 015.421-5.519z"/><path class="c1" d="M31.909 188.875a5.521 5.521 0 11-5.421 5.521 5.472 5.472 0 015.421-5.521z"/><path class="c1" d="M47.878 205.93a5.521 5.521 0 11-5.421 5.519 5.472 5.472 0 015.421-5.519z"/><path class="c1" d="M23.738 179.016a6.022 6.022 0 11-5.913 6.021 5.967 5.967 0 015.913-6.021z"/><path class="c1" d="M13.461 105.044a6.022 6.022 0 11-5.912 6.021 5.968 5.968 0 015.912-6.021z"/><path class="c1" d="M17.561 92.232a6.022 6.022 0 11-5.912 6.022 5.969 5.969 0 015.912-6.022z"/><path class="c1" d="M23.499 80.138a6.022 6.022 0 11-5.913 6.021 5.967 5.967 0 015.913-6.021z"/><path class="c1" d="M44.987 85.323a6.022 6.022 0 11-5.913 6.021 5.968 5.968 0 015.913-6.021z"/><path class="c1" d="M87.681 110.285a5.1 5.1 0 11-5.008 5.1 5.053 5.053 0 015.008-5.1z"/><path class="c1" d="M39.699 214.259a5.521 5.521 0 11-5.426 5.521 5.472 5.472 0 015.421-5.521z"/><path class="c1" d="M28.403 219.018a5.521 5.521 0 11-5.421 5.516 5.471 5.471 0 015.421-5.519z"/><path class="c1" d="M54.889 229.727a5.521 5.521 0 11-5.421 5.521 5.473 5.473 0 015.421-5.521z"/><path class="c1" d="M77.675 232.305a5.521 5.521 0 11-5.421 5.521 5.471 5.471 0 015.421-5.521z"/><path class="c1" d="M86.83 218.621a5.521 5.521 0 11-5.422 5.521 5.472 5.472 0 015.422-5.521z"/><path class="c1" d="M98.9 223.778a5.521 5.521 0 11-5.421 5.519 5.471 5.471 0 015.421-5.519z"/><path class="c1" d="M117.016 203.947a5.521 5.521 0 11-5.421 5.519 5.471 5.471 0 015.421-5.519z"/><path class="c1" d="M128.117 218.423a5.521 5.521 0 11-5.421 5.521 5.472 5.472 0 015.421-5.521z"/><path class="c1" d="M120.522 233.098a5.521 5.521 0 11-5.421 5.52 5.471 5.471 0 015.421-5.52z"/><path class="c1" d="M107.915 174.226a5.943 5.943 0 11-5.836 5.941 5.889 5.889 0 015.836-5.941z"/><path class="c1" d="M123.74 167.123a5.943 5.943 0 11-5.835 5.943 5.89 5.89 0 015.835-5.943z"/><path class="c1" d="M138.494 176.684a5.943 5.943 0 11-5.837 5.941 5.89 5.89 0 015.837-5.941z"/><path class="c1" d="M55.34 176.137a5.944 5.944 0 11-5.836 5.943 5.889 5.889 0 015.836-5.943z"/><path class="c1" d="M51.316 159.749a5.943 5.943 0 11-5.836 5.943 5.889 5.889 0 015.836-5.943z"/><path class="c1" d="M131.52 252.341a5.944 5.944 0 11-5.835 5.943 5.89 5.89 0 015.835-5.943z"/><path class="c1" d="M169.073 206.455a5.943 5.943 0 11-5.836 5.943 5.889 5.889 0 015.836-5.943z"/><path class="c1" d="M168.307 224.92a5.943 5.943 0 11-5.836 5.943 5.889 5.889 0 015.836-5.943z"/><path class="c1" d="M265.355 166.408a5.943 5.943 0 11-5.836 5.943 5.889 5.889 0 015.836-5.943z"/><path class="c1" d="M258.459 145.344a5.943 5.943 0 11-5.836 5.938 5.889 5.889 0 015.836-5.943z"/><path class="c1" d="M184.141 128.441a5.943 5.943 0 11-5.836 5.941 5.889 5.889 0 015.836-5.941z"/><path class="c1" d="M161.156 132.081a5.944 5.944 0 11-5.835 5.943 5.889 5.889 0 015.835-5.943z"/><path class="c1" d="M132.553 118.299a5.943 5.943 0 11-5.836 5.943 5.89 5.89 0 015.836-5.943z"/><path class="c1" d="M79.177 137.803a5.943 5.943 0 11-5.836 5.941 5.888 5.888 0 015.836-5.941z"/><path class="c1" d="M39.592 146.645a5.943 5.943 0 11-5.836 5.941 5.889 5.889 0 015.836-5.941z"/><path class="c1" d="M36.782 133.122a5.943 5.943 0 11-5.836 5.943 5.891 5.891 0 015.836-5.943z"/><path class="c1" d="M63.343 121.16a5.943 5.943 0 11-5.836 5.941 5.89 5.89 0 015.836-5.941z"/><path class="c1" d="M206.616 155.746a5.943 5.943 0 11-5.835 5.941 5.89 5.89 0 015.835-5.941z"/><path class="c1" d="M289.872 140.664a5.943 5.943 0 11-5.837 5.941 5.89 5.89 0 015.837-5.941z"/><path class="c1" d="M262.545 126.755a5.288 5.288 0 11-5.192 5.287 5.24 5.24 0 015.192-5.287z"/><path class="c1" d="M252.329 116.873a5.288 5.288 0 11-5.192 5.287 5.24 5.24 0 015.192-5.287z"/><path class="c1" d="M236.24 152.241a5.287 5.287 0 11-5.192 5.287 5.239 5.239 0 015.192-5.287z"/><path class="c1" d="M230.622 163.682a5.287 5.287 0 11-5.193 5.287 5.24 5.24 0 015.193-5.287z"/><path class="c1" d="M213.766 166.283a5.288 5.288 0 11-5.193 5.287 5.241 5.241 0 015.193-5.287z"/><path class="c1" d="M206.616 177.726a5.287 5.287 0 11-5.192 5.286 5.239 5.239 0 015.192-5.286z"/><path class="c1" d="M239.82 172.784a5.288 5.288 0 11-5.193 5.287 5.241 5.241 0 015.193-5.287z"/><path class="c1" d="M254.883 175.905a5.288 5.288 0 11-5.192 5.287 5.242 5.242 0 015.192-5.287z"/><path class="c1" d="M269.441 154.06a5.288 5.288 0 11-5.192 5.287 5.24 5.24 0 015.192-5.287z"/><path class="c1" d="M167.03 240.001a5.943 5.943 0 11-5.835 5.943 5.891 5.891 0 015.835-5.943z"/><path class="c1" d="M197.932 279.012a5.944 5.944 0 11-5.836 5.943 5.891 5.891 0 015.836-5.943z"/><path class="c1" d="M215.298 245.205a5.943 5.943 0 11-5.836 5.941 5.888 5.888 0 015.836-5.941z"/><path class="c1" d="M228.067 240.261a5.943 5.943 0 11-5.836 5.943 5.891 5.891 0 015.836-5.943z"/><path class="c1" d="M235.474 261.2a5.288 5.288 0 11-5.192 5.287 5.24 5.24 0 015.192-5.287z"/><path class="c1" d="M212.999 216.74a5.287 5.287 0 11-5.192 5.287 5.241 5.241 0 015.192-5.287z"/><path class="c1" d="M223.981 210.491a5.287 5.287 0 11-5.192 5.287 5.241 5.241 0 015.192-5.287z"/><path class="c1" d="M249.01 186.567a5.287 5.287 0 11-5.193 5.286 5.24 5.24 0 015.193-5.286z"/><path class="c1" d="M263.567 199.051a5.287 5.287 0 11-5.192 5.286 5.239 5.239 0 015.192-5.286z"/><path class="c1" d="M257.437 229.734a5.288 5.288 0 11-5.192 5.287 5.24 5.24 0 015.192-5.287z"/><path class="c1" d="M152.983 241.437a5.287 5.287 0 11-5.192 5.287 5.241 5.241 0 015.192-5.287z"/><path class="c1" d="M151.962 254.438a5.288 5.288 0 11-5.192 5.287 5.242 5.242 0 015.192-5.287z"/><path class="c1" d="M183.826 284.025a5.944 5.944 0 11-5.836 5.943 5.889 5.889 0 015.836-5.943z"/><path class="c1" d="M210.382 273.919a5.943 5.943 0 11-5.836 5.943 5.891 5.891 0 015.836-5.943z"/><path class="c1" d="M113.9 251.738a5.522 5.522 0 11-5.421 5.521 5.472 5.472 0 015.421-5.521z"/><path class="c1" d="M73.78 244.204a5.521 5.521 0 11-5.421 5.519 5.472 5.472 0 015.421-5.519z"/><path class="c1" d="M61.901 240.832a5.522 5.522 0 11-5.421 5.521 5.473 5.473 0 015.421-5.521z"/><path class="c1" d="M55.279 250.748a5.521 5.521 0 11-5.421 5.521 5.472 5.472 0 015.421-5.521z"/><path class="c1" d="M85.728 259.739a5.521 5.521 0 11-5.421 5.519 5.471 5.471 0 015.421-5.519z"/><path class="c1" d="M104.606 260.978a5.522 5.522 0 11-5.421 5.521 5.473 5.473 0 015.421-5.521z"/><path class="c1" d="M119.222 281.907a5.521 5.521 0 11-5.422 5.521 5.472 5.472 0 015.422-5.521z"/><path class="c1" d="M131.706 286.712a5.522 5.522 0 11-5.422 5.521 5.473 5.473 0 015.422-5.521z"/><path class="c1" d="M134.293 274.776a5.521 5.521 0 11-5.421 5.519 5.472 5.472 0 015.421-5.519z"/><path class="c1" d="M124.549 244.218a4.3 4.3 0 11-4.22 4.3 4.259 4.259 0 014.22-4.3z"/><path class="c1" d="M89.686 273.396a5.971 5.971 0 11-5.862 5.971 5.917 5.917 0 015.862-5.971z"/><path class="c1" d="M96.177 21.153a6.07 6.07 0 11-5.96 6.069 6.016 6.016 0 015.96-6.069z"/><path class="c1" d="M122.079 36.026a6.071 6.071 0 11-5.96 6.069 6.015 6.015 0 015.96-6.069z"/><path class="c1" d="M143.308 54.118a6.225 6.225 0 11-6.113 6.224 6.169 6.169 0 016.113-6.224z"/><path class="c1" d="M83.129 69.494a5.521 5.521 0 11-5.421 5.521 5.471 5.471 0 015.421-5.521z"/><path class="c1" d="M204.655 126.369a4.371 4.371 0 11-4.291 4.37 4.331 4.331 0 014.291-4.37z"/><path class="c1" d="M231.531 142.63a4.371 4.371 0 11-4.292 4.37 4.331 4.331 0 014.292-4.37z"/><path class="c1" d="M135.128 167.022a4.371 4.371 0 11-4.292 4.37 4.332 4.332 0 014.292-4.37z"/><path class="c1" d="M92.644 50.67a4.74 4.74 0 11-4.655 4.739 4.7 4.7 0 014.655-4.739z"/><path class="c1" d="M95.204 72.034a4.37 4.37 0 11-4.292 4.369 4.33 4.33 0 014.292-4.369z"/><path class="c1" d="M40.868 52.206a4.371 4.371 0 11-4.292 4.37 4.331 4.331 0 014.292-4.37z"/><path class="c1" d="M201.251 8.467a8.384 8.384 0 11-8.232 8.383 8.309 8.309 0 018.234-8.383z"/><path class="c1" d="M182.33 24.327a8.385 8.385 0 11-8.233 8.383 8.31 8.31 0 018.233-8.383z"/><path class="c1" d="M152.322 30.846a8.385 8.385 0 11-8.233 8.384 8.31 8.31 0 018.233-8.384z"/><path class="c1" d="M129.96 15.569a8.385 8.385 0 11-8.233 8.383 8.31 8.31 0 018.233-8.383z"/><path class="c1" d="M115.339 4.865a8.385 8.385 0 11-8.233 8.383 8.31 8.31 0 018.233-8.383z"/><path class="c1" d="M78.356 21.34a8.385 8.385 0 11-8.231 8.383 8.308 8.308 0 018.231-8.383z"/><path class="c1" d="M67.011 36.254a8.385 8.385 0 11-8.233 8.383 8.31 8.31 0 018.233-8.383z"/><path class="c1" d="M79.182 51.377a8.385 8.385 0 11-8.233 8.383 8.309 8.309 0 018.233-8.383z"/><path class="c1" d="M77.945 81.625a8.384 8.384 0 11-8.233 8.383 8.309 8.309 0 018.233-8.383z"/><path class="c1" d="M53.603 68.392a8.385 8.385 0 11-8.233 8.383 8.31 8.31 0 018.233-8.383z"/><path class="c1" d="M36.48 62.3a8.384 8.384 0 11-8.233 8.383A8.308 8.308 0 0136.48 62.3z"/><path class="c1" d="M32.767 93.387a8.385 8.385 0 11-8.233 8.384 8.31 8.31 0 018.233-8.384z"/><path class="c1" d="M12.726 118.571a8.384 8.384 0 11-8.234 8.383 8.31 8.31 0 018.234-8.383z"/><path class="c1" d="M52.597 135.071a8.384 8.384 0 11-8.234 8.383 8.309 8.309 0 018.234-8.383z"/><path class="c1" d="M26.811 153.487a8.384 8.384 0 11-8.233 8.383 8.308 8.308 0 018.233-8.383z"/><path class="c1" d="M12.256 165.348a8.385 8.385 0 11-8.233 8.383 8.309 8.309 0 018.233-8.383z"/><path class="c1" d="M39.076 170.006a8.385 8.385 0 11-8.234 8.383 8.31 8.31 0 018.234-8.383z"/><path class="c1" d="M28.475 200.706a8.385 8.385 0 11-8.233 8.384 8.31 8.31 0 018.233-8.384z"/><path class="c1" d="M64.864 187.367a8.385 8.385 0 11-8.233 8.384 8.31 8.31 0 018.233-8.384z"/><path class="c1" d="M40.12 225.69a8.385 8.385 0 11-8.233 8.384 8.31 8.31 0 018.233-8.384z"/><path class="c1" d="M67.983 216.375a8.384 8.384 0 11-8.233 8.383 8.309 8.309 0 018.233-8.383z"/><path class="c1" d="M113.307 215.316a8.385 8.385 0 11-8.231 8.384 8.311 8.311 0 018.231-8.384z"/><path class="c1" d="M152.613 222.939a8.385 8.385 0 11-8.233 8.383 8.309 8.309 0 018.233-8.383z"/><path class="c1" d="M181.51 230.348a8.385 8.385 0 11-8.233 8.384 8.31 8.31 0 018.233-8.384z"/><path class="c1" d="M198.561 240.511a8.385 8.385 0 11-8.233 8.384 8.31 8.31 0 018.233-8.384z"/><path class="c1" d="M186.298 255.756a8.385 8.385 0 11-8.233 8.384 8.31 8.31 0 018.233-8.384z"/><path class="c1" d="M219.775 257.662a8.385 8.385 0 11-8.233 8.383 8.308 8.308 0 018.233-8.383z"/><path class="c1" d="M227.053 221.88a8.384 8.384 0 11-8.233 8.383 8.308 8.308 0 018.233-8.383z"/><path class="c1" d="M247.223 213.834a8.385 8.385 0 11-8.233 8.383 8.309 8.309 0 018.233-8.383z"/><path class="c1" d="M246.184 238.183a8.385 8.385 0 11-8.233 8.383 8.31 8.31 0 018.233-8.383z"/><path class="c1" d="M167.376 253.216a8.384 8.384 0 11-8.233 8.383 8.31 8.31 0 018.233-8.383z"/><path class="c1" d="M147.409 282.434a8.384 8.384 0 11-8.233 8.383 8.309 8.309 0 018.233-8.383z"/><path class="c1" d="M167.792 281.588a8.384 8.384 0 11-8.233 8.383 8.309 8.309 0 018.233-8.383z"/><path class="c1" d="M106.45 233.525a8.384 8.384 0 11-8.233 8.383 8.309 8.309 0 018.233-8.383z"/><path class="c1" d="M89.399 241.148a8.384 8.384 0 11-8.233 8.383 8.308 8.308 0 018.233-8.383z"/><path class="c1" d="M70.477 255.756a8.385 8.385 0 11-8.233 8.384 8.309 8.309 0 018.233-8.384z"/><path class="c1" d="M104.995 273.33a8.385 8.385 0 11-8.233 8.383 8.31 8.31 0 018.233-8.383z"/><path class="c1" d="M120.175 263.378a8.385 8.385 0 11-8.233 8.383 8.31 8.31 0 018.233-8.383z"/><path class="c1" d="M138.265 235.006a8.385 8.385 0 11-8.233 8.383 8.31 8.31 0 018.233-8.383z"/><path class="c1" d="M47.692 117.702a8.385 8.385 0 11-8.234 8.383 8.31 8.31 0 018.234-8.383z"/><path class="c1" d="M79.886 119.873a8.385 8.385 0 11-8.233 8.384 8.31 8.31 0 018.233-8.384z"/><path class="c1" d="M126.579 130.729a8.385 8.385 0 11-8.231 8.381 8.309 8.309 0 018.233-8.383z"/><path class="c1" d="M130.53 150.419a8.385 8.385 0 11-8.234 8.383 8.31 8.31 0 018.234-8.383z"/><path class="c1" d="M112.023 155.078a8.384 8.384 0 11-8.233 8.383 8.308 8.308 0 018.233-8.383z"/><path class="c1" d="M71.684 159.524a8.384 8.384 0 11-8.233 8.383 8.31 8.31 0 018.233-8.383z"/><path class="c1" d="M105.161 187.896a8.384 8.384 0 11-8.233 8.383 8.308 8.308 0 018.233-8.383z"/><path class="c1" d="M123.667 187.473a8.384 8.384 0 11-8.233 8.383 8.308 8.308 0 018.233-8.383z"/><path class="c1" d="M152.155 204.197a8.384 8.384 0 11-8.234 8.383 8.31 8.31 0 018.234-8.383z"/><path class="c1" d="M193.326 215.208a8.385 8.385 0 11-8.233 8.383 8.31 8.31 0 018.233-8.383z"/><path class="c1" d="M127.005 94.689a8.385 8.385 0 11-8.233 8.384 8.31 8.31 0 018.233-8.384z"/><path class="c1" d="M59.585 103.261a8.384 8.384 0 11-8.234 8.383 8.309 8.309 0 018.234-8.383z"/><path class="c1" d="M106.591 39.096a8.385 8.385 0 11-8.233 8.384 8.31 8.31 0 018.233-8.384z"/><path class="c1" d="M127.974 48.186a8.385 8.385 0 11-8.233 8.384 8.311 8.311 0 018.233-8.384z"/><path class="c1" d="M159.115 56.854a8.384 8.384 0 11-8.233 8.383 8.31 8.31 0 018.233-8.383z"/><path class="c1" d="M181.745 50.513a8.384 8.384 0 11-8.233 8.383 8.309 8.309 0 018.233-8.383z"/><path class="c1" d="M210.394 37.194a8.385 8.385 0 11-8.233 8.383 8.31 8.31 0 018.233-8.383z"/><path class="c1" d="M229.282 24.089a8.384 8.384 0 11-8.233 8.383 8.308 8.308 0 018.233-8.383z"/><path class="c1" d="M238.421 47.976a8.384 8.384 0 11-8.233 8.383 8.309 8.309 0 018.233-8.383z"/><path class="c1" d="M267.485 62.139a8.385 8.385 0 11-8.233 8.384 8.31 8.31 0 018.233-8.384z"/><path class="c1" d="M251.708 73.342a8.385 8.385 0 11-8.233 8.384 8.31 8.31 0 018.233-8.384z"/><path class="c1" d="M205.412 80.742a8.384 8.384 0 11-8.233 8.384 8.31 8.31 0 018.233-8.384z"/><path class="c1" d="M184.651 89.198a8.384 8.384 0 11-8.233 8.383 8.309 8.309 0 018.233-8.383z"/><path class="c1" d="M211.64 106.533a8.384 8.384 0 11-8.233 8.383 8.308 8.308 0 018.233-8.383z"/><path class="c1" d="M247.196 128.34a8.385 8.385 0 11-8.233 8.383 8.308 8.308 0 018.233-8.383z"/><path class="c1" d="M275.06 132.998a8.384 8.384 0 11-8.233 8.383 8.309 8.309 0 018.233-8.383z"/><path class="c1" d="M290.239 158.19a8.385 8.385 0 11-8.233 8.383 8.309 8.309 0 018.233-8.383z"/><path class="c1" d="M268.821 179.794a8.385 8.385 0 11-8.233 8.384 8.31 8.31 0 018.233-8.384z"/><path class="c1" d="M250.94 157.559a8.385 8.385 0 11-8.233 8.383 8.308 8.308 0 018.233-8.383z"/><path class="c1" d="M224.116 174.285a8.385 8.385 0 11-8.233 8.384 8.31 8.31 0 018.233-8.384z"/><path class="c1" d="M189.391 166.875a8.384 8.384 0 11-8.233 8.383 8.309 8.309 0 018.233-8.383z"/><path class="c1" d="M241.167 196.729a8.384 8.384 0 11-8.233 8.383 8.309 8.309 0 018.233-8.383z"/><path class="c1" d="M161.319 151.206a8.385 8.385 0 11-8.233 8.384 8.309 8.309 0 018.233-8.384z"/><path class="c1" d="M274.849 210.703a8.384 8.384 0 11-8.233 8.383 8.309 8.309 0 018.233-8.383z"/><path class="c1" d="M290.239 122.412a8.384 8.384 0 11-8.233 8.383 8.309 8.309 0 018.233-8.383z"/><path class="c1" d="M194.381 112.672a8.384 8.384 0 11-8.233 8.383 8.309 8.309 0 018.233-8.383z"/><path class="c1" d="M221.62 148.243a8.385 8.385 0 11-8.233 8.383 8.309 8.309 0 018.233-8.383z"/><path class="c1" d="M175.875 138.93a8.385 8.385 0 11-8.233 8.383 8.31 8.31 0 018.233-8.383z"/><path class="c1" d="M146.972 122.619a8.384 8.384 0 11-8.234 8.383 8.309 8.309 0 018.234-8.383z"/><path class="c1" d="M259.181 99.133a8.385 8.385 0 11-8.234 8.383 8.309 8.309 0 018.234-8.383z"/><path class="c1" d="M281.606 97.653a8.385 8.385 0 11-8.237 8.383 8.31 8.31 0 018.233-8.383z"/><path class="c1" d="M133.373 65.521a8.385 8.385 0 11-8.234 8.384 8.31 8.31 0 018.234-8.384z"/><path class="c1" d="M146.036 90.255a8.384 8.384 0 11-8.233 8.383 8.309 8.309 0 018.233-8.383z"/><path class="c2" d="M110.544 71.361a8.375 8.375 0 11-8.224 8.373 8.3 8.3 0 018.224-8.373z"/><path class="c2" d="M167.796 81.205a8.375 8.375 0 11-8.223 8.374 8.3 8.3 0 018.223-8.374z"/><path class="c2" d="M224.23 67.846a8.5 8.5 0 11-8.343 8.495 8.419 8.419 0 018.343-8.495z"/><path class="c2" d="M236.944 79.622a5.346 5.346 0 11-5.249 5.346 5.3 5.3 0 015.249-5.346z"/><path class="c2" d="M245.316 107.084a5.346 5.346 0 11-5.249 5.345 5.3 5.3 0 015.249-5.345z"/><path class="c2" d="M227.809 110.074a5.345 5.345 0 11-5.25 5.345 5.3 5.3 0 015.25-5.345z"/><path class="c2" d="M208.452 68.881a5.346 5.346 0 11-5.25 5.346 5.3 5.3 0 015.25-5.346z"/><path class="c2" d="M195.512 65.891a5.346 5.346 0 11-5.249 5.346 5.3 5.3 0 015.249-5.346z"/><path class="c2" d="M183.357 69.15a5.676 5.676 0 11-5.574 5.675 5.626 5.626 0 015.574-5.675z"/><path class="c2" d="M171.199 98.745a5.346 5.346 0 11-5.25 5.345 5.3 5.3 0 015.25-5.345z"/><path class="c2" d="M180.541 107.835a5.346 5.346 0 11-5.249 5.345 5.3 5.3 0 015.249-5.345z"/><path class="c2" d="M156.459 112.913a5.345 5.345 0 11-5.251 5.345 5.3 5.3 0 015.251-5.345z"/><path class="c2" d="M104.562 88.387a5.346 5.346 0 11-5.249 5.345 5.3 5.3 0 015.249-5.345z"/><path class="c2" d="M92.724 89.232a5.346 5.346 0 11-5.25 5.346 5.3 5.3 0 015.25-5.346z"/><path class="c2" d="M83.174 98.11a5.347 5.347 0 11-5.249 5.346 5.3 5.3 0 015.249-5.346z"/><path class="c2" d="M102.896 100.014a5.346 5.346 0 11-5.249 5.345 5.3 5.3 0 015.249-5.345z"/><path class="c2" d="M93.139 137.43a5.346 5.346 0 11-5.249 5.345 5.3 5.3 0 015.249-5.345z"/><path class="c2" d="M88.779 148.422a5.346 5.346 0 11-5.249 5.346 5.3 5.3 0 015.249-5.346z"/><path class="c2" d="M100.613 147.577a5.346 5.346 0 11-5.25 5.346 5.3 5.3 0 015.25-5.346z"/><path class="c2" d="M176.388 161.106a5.346 5.346 0 11-5.249 5.346 5.3 5.3 0 015.249-5.346z"/><path class="c2" d="M186.354 153.708a5.346 5.346 0 11-5.249 5.345 5.3 5.3 0 015.249-5.345z"/><path class="c2" d="M166.424 168.717a5.345 5.345 0 11-5.249 5.345 5.3 5.3 0 015.249-5.345z"/><path class="c2" d="M156.336 194.199a4.363 4.363 0 11-4.285 4.363 4.324 4.324 0 014.285-4.363z"/><path class="c2" d="M182.924 200.938a4.363 4.363 0 11-4.283 4.363 4.323 4.323 0 014.283-4.363z"/><path class="c2" d="M192.241 204.837a4.363 4.363 0 11-4.285 4.363 4.324 4.324 0 014.285-4.363z"/><path class="c2" d="M204.243 189.666a3.73 3.73 0 11-3.663 3.729 3.7 3.7 0 013.663-3.729z"/><path class="c2" d="M194.533 147.688a3.73 3.73 0 11-3.663 3.731 3.7 3.7 0 013.663-3.731z"/><path class="c2" d="M104.388 137.884a4.394 4.394 0 11-4.314 4.394 4.355 4.355 0 014.314-4.394z"/><path class="c2" d="M110.577 109.242a4.394 4.394 0 11-4.316 4.394 4.354 4.354 0 014.316-4.394z"/><path class="c2" d="M115.813 88.268a4.573 4.573 0 11-4.489 4.571 4.531 4.531 0 014.489-4.571z"/><path class="c2" d="M160.27 97.79a4.394 4.394 0 11-4.314 4.394 4.354 4.354 0 014.314-4.394z"/><path class="c2" d="M120.326 64.02a4.751 4.751 0 11-4.665 4.751 4.709 4.709 0 014.665-4.751z"/><path class="c2" d="M97.85 82.354a3.625 3.625 0 11-3.559 3.625 3.592 3.592 0 013.559-3.625z"/><path class="c2" d="M93.162 119.822a3.008 3.008 0 11-2.953 3.007 2.981 2.981 0 012.953-3.007z"/><path class="c2" d="M78.914 111.229a2.435 2.435 0 11-2.392 2.434 2.412 2.412 0 012.392-2.434z"/><path class="c2" d="M122.224 76.098a2.435 2.435 0 11-2.392 2.434 2.413 2.413 0 012.392-2.434z"/><path class="c2" d="M182.79 121.157a3.008 3.008 0 11-2.953 3.007 2.981 2.981 0 012.953-3.007z"/><path class="c2" d="M72.725 113.329a3.007 3.007 0 11-2.953 3.007 2.98 2.98 0 012.953-3.007z"/><path class="c2" d="M153.545 106.742a2.72 2.72 0 11-2.672 2.721 2.7 2.7 0 012.672-2.721z"/><path class="c2" d="M236.951 113.319a2.721 2.721 0 11-2.672 2.725 2.7 2.7 0 012.672-2.721z"/><path class="c2" d="M236.028 71.98a2.721 2.721 0 11-2.672 2.721 2.7 2.7 0 012.672-2.721z"/><path class="c2" d="M204.841 64.124a2.121 2.121 0 11-2.083 2.121 2.1 2.1 0 012.083-2.121z"/><path class="c2" d="M157.29 92.086a1.912 1.912 0 11-1.879 1.911 1.894 1.894 0 011.879-1.911z"/><path class="c2" d="M213.574 78.932a1.913 1.913 0 11-1.879 1.912 1.9 1.9 0 011.879-1.912z"/><path class="c2" d="M236.456 128.728a1.912 1.912 0 11-1.877 1.911 1.895 1.895 0 011.877-1.911z"/><path class="c2" d="M120.352 83.304a1.912 1.912 0 11-1.879 1.912 1.894 1.894 0 011.879-1.912z"/><path class="c2" d="M111.538 66.121a1.912 1.912 0 11-1.877 1.912 1.9 1.9 0 011.877-1.912z"/><path class="c2" d="M110.039 97.813a1.913 1.913 0 11-1.879 1.912 1.9 1.9 0 011.879-1.912z"/><path class="c2" d="M103.664 114.616a1.912 1.912 0 11-1.879 1.911 1.894 1.894 0 011.879-1.911z"/><path class="c2" d="M171.727 110.224a1.913 1.913 0 11-1.877 1.912 1.895 1.895 0 011.877-1.912z"/><path class="c2" d="M158.789 125.688a2.1 2.1 0 11-2.065 2.1 2.085 2.085 0 012.065-2.1z"/><path class="c2" d="M178.665 80.395a2.721 2.721 0 11-2.672 2.721 2.7 2.7 0 012.672-2.721z"/><path class="c2" d="M173.039 74.858a2.721 2.721 0 11-2.672 2.721 2.7 2.7 0 012.672-2.721z"/><path class="c2" d="M215.483 63.9a2.968 2.968 0 11-2.915 2.968 2.942 2.942 0 012.915-2.968z"/><path class="c2" d="M247.039 99.226a2.969 2.969 0 11-2.915 2.968 2.941 2.941 0 012.915-2.968z"/><path class="c2" d="M113.788 101.256a3.625 3.625 0 11-3.559 3.625 3.592 3.592 0 013.559-3.625z"/><path class="c2" d="M97.85 110.803a3.625 3.625 0 11-3.559 3.625 3.592 3.592 0 013.559-3.625z"/><path class="c2" d="M73.475 104.692a3.625 3.625 0 11-3.559 3.625 3.592 3.592 0 013.559-3.625z"/><path class="c2" d="M92.601 129.322a3.625 3.625 0 11-3.56 3.625 3.592 3.592 0 013.56-3.625z"/><path class="c2" d="M163.574 107.748a3.723 3.723 0 11-3.656 3.722 3.688 3.688 0 013.656-3.722z"/><path class="c2" d="M222.073 120.708a3.724 3.724 0 11-3.657 3.723 3.69 3.69 0 013.657-3.723z"/><path class="c2" d="M230.93 121.277a3.723 3.723 0 11-3.657 3.722 3.69 3.69 0 013.657-3.722z"/><path class="c2" d="M220.596 139.504a3.723 3.723 0 11-3.656 3.723 3.691 3.691 0 013.656-3.723z"/><path class="c2" d="M244.771 89.896a3.724 3.724 0 11-3.657 3.723 3.69 3.69 0 013.657-3.723z"/><path class="c2" d="M241.449 119.283a4.59 4.59 0 11-4.508 4.589 4.55 4.55 0 014.508-4.589z"/><path class="c2" d="M227.609 85.951a3.723 3.723 0 11-3.656 3.722 3.689 3.689 0 013.656-3.722z"/><path class="c2" d="M233.855 188.752a3.73 3.73 0 11-3.663 3.729 3.7 3.7 0 013.663-3.729z"/><path class="c2" d="M238.084 184.636a2.364 2.364 0 11-2.322 2.364 2.343 2.343 0 012.322-2.364z"/><path class="c2" d="M216.806 209.305a2.364 2.364 0 11-2.321 2.364 2.343 2.343 0 012.321-2.364z"/><path class="c2" d="M168.351 180.458a3.017 3.017 0 11-2.962 3.016 2.99 2.99 0 012.962-3.016z"/><path class="c2" d="M91.765 192.026a3.017 3.017 0 11-2.962 3.016 2.989 2.989 0 012.962-3.016z"/><path class="c2" d="M95.058 184.939a3.017 3.017 0 11-2.962 3.016 2.989 2.989 0 012.962-3.016z"/><path class="c2" d="M84.985 159.993a3.708 3.708 0 11-3.641 3.707 3.674 3.674 0 013.641-3.707z"/><path class="c2" d="M180.657 182.156a3.017 3.017 0 11-2.962 3.016 2.99 2.99 0 012.962-3.016z"/><path class="c2" d="M174.504 181.373a1.972 1.972 0 11-1.936 1.973 1.955 1.955 0 011.936-1.973z"/><path class="c2" d="M199.606 154.511a1.972 1.972 0 11-1.937 1.973 1.955 1.955 0 011.937-1.973z"/><path class="c2" d="M98.833 172.418a1.972 1.972 0 11-1.936 1.973 1.955 1.955 0 011.936-1.973z"/><path class="c2" d="M88.024 186.783a1.972 1.972 0 11-1.936 1.971 1.954 1.954 0 011.936-1.971z"/><path class="c2" d="M76.664 198.755a2.318 2.318 0 11-2.275 2.317 2.3 2.3 0 012.275-2.317z"/><path class="c2" d="M98.833 179a2.666 2.666 0 11-2.618 2.665A2.642 2.642 0 0198.833 179z"/><path class="c2" d="M210.909 194.556a1.972 1.972 0 11-1.936 1.971 1.955 1.955 0 011.936-1.971z"/><path class="c2" d="M95.63 158.777a5.346 5.346 0 11-5.249 5.346 5.3 5.3 0 015.249-5.346z"/><path class="c2" d="M80.06 187.953a5.346 5.346 0 11-5.249 5.345 5.3 5.3 0 015.249-5.345z"/><path class="c2" d="M73.416 203.808a5.346 5.346 0 11-5.249 5.345 5.3 5.3 0 015.249-5.345z"/><path class="c2" d="M60.545 204.865a5.346 5.346 0 11-5.253 5.345 5.3 5.3 0 015.249-5.345z"/><path class="c2" d="M104.562 205.5a5.345 5.345 0 11-5.249 5.345 5.3 5.3 0 015.249-5.345z"/><path class="c2" d="M129.678 204.019a5.346 5.346 0 11-5.249 5.345 5.3 5.3 0 015.249-5.345z"/><path class="c2" d="M216.872 128.128a5.346 5.346 0 11-5.249 5.345 5.3 5.3 0 015.249-5.345z"/><path class="c2" d="M228.707 129.609a5.346 5.346 0 11-5.251 5.345 5.3 5.3 0 015.251-5.345z"/><path class="c2" d="M234.248 93.161a8.375 8.375 0 11-8.223 8.374 8.3 8.3 0 018.223-8.374z"/><path class="c2" d="M206.833 136.918a8.375 8.375 0 11-8.226 8.37 8.3 8.3 0 018.224-8.374z"/><path class="c2" d="M170.22 114.626a8.375 8.375 0 11-8.224 8.373 8.3 8.3 0 018.224-8.373z"/><path class="c2" d="M104.76 119.325a8.375 8.375 0 11-8.223 8.373 8.3 8.3 0 018.223-8.373z"/><path class="c2" d="M87.482 168.523a8.375 8.375 0 11-8.223 8.374 8.3 8.3 0 018.223-8.374z"/><path class="c2" d="M88.441 199.15a8.375 8.375 0 11-8.223 8.374 8.3 8.3 0 018.223-8.374z"/><path class="c2" d="M141.878 189.375a8.375 8.375 0 11-8.224 8.374 8.3 8.3 0 018.224-8.374z"/><path class="c2" d="M155.64 175.691a8.375 8.375 0 11-8.223 8.373 8.3 8.3 0 018.223-8.373z"/><path class="c2" d="M172.275 187.746a8.375 8.375 0 11-8.224 8.373 8.3 8.3 0 018.224-8.373z"/><path class="c2" d="M190.514 185.465a8.375 8.375 0 11-8.224 8.374 8.3 8.3 0 018.224-8.374z"/><path class="c2" d="M205.729 198.498a8.554 8.554 0 11-8.4 8.552 8.478 8.478 0 018.4-8.552z"/><path class="c2" d="M224.046 192.503a8.7 8.7 0 11-8.542 8.7 8.621 8.621 0 018.542-8.7z"/></svg>
