<svg xmlns="http://www.w3.org/2000/svg" width="300" height="300" viewBox="0 0 300 300"><defs><style>.a{fill:#006027}.a,.b,.c,.d,.e,.f,.g,.h{fill-rule:evenodd}.b{fill:#4f9d53}.c{fill:#d87c63}.d{fill:#c95c45}.e{fill:#ffd300}.f{fill:#ffa100}.g{fill:#ad3123}.h{fill:#208545}</style></defs><path class="a" d="M207.461 46.32a2.733 2.733 0 11-2.665 2.733 2.7 2.7 0 012.665-2.733z"/><path class="a" d="M189.211 54.101a3.229 3.229 0 11-3.15 3.228 3.189 3.189 0 013.15-3.228z"/><path class="a" d="M153.833 78.934a3.229 3.229 0 11-3.149 3.228 3.189 3.189 0 013.149-3.228z"/><path class="a" d="M171.12 71.485a4.885 4.885 0 11-4.765 4.883 4.824 4.824 0 014.765-4.883z"/><path class="a" d="M137.848 56.75a4.885 4.885 0 11-4.764 4.883 4.825 4.825 0 014.764-4.883z"/><path class="a" d="M192.442 61.385a3.892 3.892 0 11-3.8 3.891 3.844 3.844 0 013.8-3.891z"/><path class="a" d="M124.281 73.967a6.21 6.21 0 11-6.058 6.207 6.133 6.133 0 016.058-6.207z"/><path class="a" d="M119.358 121.497a5.893 5.893 0 11-5.749 5.891 5.822 5.822 0 015.749-5.891z"/><path class="a" d="M108.058 122.272a3.48 3.48 0 11-3.4 3.479 3.438 3.438 0 013.4-3.479z"/><path class="a" d="M122 113.143a1.653 1.653 0 11-1.612 1.652 1.632 1.632 0 011.612-1.652z"/><path class="a" d="M123.558 133.064a2.272 2.272 0 11-2.215 2.271 2.243 2.243 0 012.215-2.271z"/><path class="a" d="M148.802 113.828a4.622 4.622 0 11-4.508 4.62 4.565 4.565 0 014.508-4.62z"/><path class="a" d="M151.139 123.412a4.965 4.965 0 11-4.842 4.964 4.9 4.9 0 014.842-4.964z"/><path class="a" d="M180.754 131.857a5.42 5.42 0 11-5.287 5.42 5.353 5.353 0 015.287-5.42z"/><path class="a" d="M178.636 153.307a4.622 4.622 0 11-4.508 4.621 4.566 4.566 0 014.508-4.621z"/><path class="a" d="M173.21 150.57a1.653 1.653 0 11-1.613 1.652 1.632 1.632 0 011.613-1.652z"/><path class="a" d="M194.891 153.079a3.481 3.481 0 11-3.4 3.481 3.438 3.438 0 013.4-3.481z"/><path class="a" d="M192.219 179.78a3.481 3.481 0 11-3.4 3.479 3.439 3.439 0 013.4-3.479z"/><path class="a" d="M109.058 194.385a4.965 4.965 0 11-4.842 4.964 4.9 4.9 0 014.842-4.964z"/><path class="a" d="M108.946 180.008a4.166 4.166 0 11-4.061 4.164 4.116 4.116 0 014.061-4.164z"/><path class="a" d="M89.354 181.378a4.166 4.166 0 11-4.063 4.164 4.114 4.114 0 014.063-4.164z"/><path class="a" d="M179.666 192.855a2.728 2.728 0 11-2.661 2.727 2.694 2.694 0 012.661-2.727z"/><path class="a" d="M182.755 200.091a5.42 5.42 0 11-5.287 5.42 5.353 5.353 0 015.287-5.42z"/><path class="a" d="M164.08 211.111a2.271 2.271 0 11-2.215 2.271 2.244 2.244 0 012.215-2.271z"/><path class="a" d="M152.28 213.784a1.653 1.653 0 11-1.613 1.652 1.632 1.632 0 011.613-1.652z"/><path class="a" d="M129.988 218.805a4.964 4.964 0 11-4.843 4.962 4.9 4.9 0 014.843-4.962z"/><path class="a" d="M96.812 216.75a5.421 5.421 0 11-5.287 5.42 5.354 5.354 0 015.287-5.42z"/><path class="a" d="M113.317 228.888a2.066 2.066 0 11-2.015 2.065 2.041 2.041 0 012.015-2.065z"/><path class="a" d="M171.205 219.556a2.727 2.727 0 11-2.661 2.727 2.693 2.693 0 012.661-2.727z"/><path class="a" d="M139.366 230.899a1.653 1.653 0 11-1.612 1.652 1.632 1.632 0 011.612-1.652z"/><path class="b" d="M181.338 55.139a3.077 3.077 0 11-3 3.077 3.039 3.039 0 013-3.077z"/><path class="b" d="M179.651 73.019a2.5 2.5 0 11-2.439 2.5 2.471 2.471 0 012.439-2.5z"/><path class="b" d="M163.144 77.826a3.077 3.077 0 11-3 3.077 3.039 3.039 0 013-3.077z"/><path class="b" d="M147.198 57.254a3.269 3.269 0 11-3.188 3.268 3.228 3.228 0 013.188-3.268z"/><path class="b" d="M132.194 83.018a3.077 3.077 0 11-3 3.077 3.039 3.039 0 013-3.077z"/><path class="b" d="M136.133 74.942a3.654 3.654 0 11-3.565 3.653 3.608 3.608 0 013.565-3.653z"/><path class="b" d="M126.003 62.447a5.384 5.384 0 11-5.253 5.383 5.318 5.318 0 015.253-5.383z"/><path class="b" d="M198.969 47.834a5.77 5.77 0 11-5.628 5.768 5.7 5.7 0 015.628-5.768z"/><path class="b" d="M156.577 60.907a8.462 8.462 0 11-8.254 8.459 8.359 8.359 0 018.254-8.459z"/><path class="b" d="M114.374 111.281a5 5 0 11-4.877 5 4.939 4.939 0 014.877-5z"/><path class="b" d="M106.683 116.664a2.115 2.115 0 11-2.064 2.115 2.089 2.089 0 012.064-2.115z"/><path class="b" d="M166.146 119.74a8.462 8.462 0 11-8.253 8.459 8.358 8.358 0 018.253-8.459z"/><path class="b" d="M117.03 134.373a3.588 3.588 0 11-3.5 3.588 3.544 3.544 0 013.5-3.588z"/><path class="b" d="M129.901 127.506a3.588 3.588 0 11-3.5 3.588 3.545 3.545 0 013.5-3.588z"/><path class="b" d="M176.902 163.638a3.588 3.588 0 11-3.5 3.587 3.544 3.544 0 013.5-3.587z"/><path class="b" d="M187.224 160.568a5.693 5.693 0 11-5.552 5.692 5.624 5.624 0 015.552-5.692z"/><path class="b" d="M188.989 187.065a5.091 5.091 0 11-4.965 5.089 5.029 5.029 0 014.965-5.089z"/><path class="b" d="M99.644 176.583a3.588 3.588 0 11-3.5 3.588 3.544 3.544 0 013.5-3.588z"/><path class="b" d="M101.155 184.656a5.091 5.091 0 11-4.967 5.089 5.029 5.029 0 014.967-5.089z"/><path class="b" d="M166.955 198.505a4.79 4.79 0 11-4.672 4.789 4.731 4.731 0 014.672-4.789z"/><path class="b" d="M174.246 197.092a2.678 2.678 0 11-2.612 2.678 2.646 2.646 0 012.612-2.678z"/><path class="b" d="M145.804 215.425a8.045 8.045 0 11-7.846 8.042 7.945 7.945 0 017.846-8.042z"/><path class="b" d="M110.849 216.212a5.751 5.751 0 11-5.611 5.75 5.681 5.681 0 015.611-5.75z"/><path class="b" d="M90.832 207.295a3.588 3.588 0 11-3.5 3.587 3.544 3.544 0 013.5-3.587z"/><path class="b" d="M104.919 204.02a2.075 2.075 0 11-2.024 2.074 2.051 2.051 0 012.024-2.074z"/><path class="b" d="M181.296 211.247a2.678 2.678 0 11-2.61 2.677 2.644 2.644 0 012.61-2.677z"/><path class="c" d="M131.419 0a3.556 3.556 0 11-3.469 3.554A3.512 3.512 0 01131.419 0z"/><path class="c" d="M120.642 12.188a2.667 2.667 0 11-2.6 2.666 2.635 2.635 0 012.6-2.666z"/><path class="c" d="M100.079 22.473a2.667 2.667 0 11-2.6 2.666 2.634 2.634 0 012.6-2.666z"/><path class="c" d="M132.039 29.963a2.667 2.667 0 11-2.6 2.666 2.635 2.635 0 012.6-2.666z"/><path class="c" d="M160.404 28.821a2.286 2.286 0 11-2.23 2.286 2.258 2.258 0 012.23-2.286z"/><path class="c" d="M149.875 34.665a2.286 2.286 0 11-2.23 2.284 2.258 2.258 0 012.23-2.284z"/><path class="c" d="M154.829 19.426a2.031 2.031 0 11-1.981 2.031 2.006 2.006 0 011.981-2.031z"/><path class="c" d="M107.263 18.663a3.556 3.556 0 11-3.468 3.556 3.513 3.513 0 013.468-3.556z"/><path class="c" d="M165.849 30.98a2.667 2.667 0 11-2.6 2.666 2.634 2.634 0 012.6-2.666z"/><path class="c" d="M167.217 14.348a2.667 2.667 0 11-2.6 2.665 2.633 2.633 0 012.6-2.665z"/><path class="c" d="M141.819.254a6.35 6.35 0 11-6.193 6.349 6.271 6.271 0 016.193-6.349z"/><path class="c" d="M125.101 19.553a6.35 6.35 0 11-6.194 6.349 6.271 6.271 0 016.194-6.349z"/><path class="c" d="M152.353 23.996a5.08 5.08 0 11-4.955 5.079 5.018 5.018 0 014.955-5.079z"/><path class="c" d="M176.384 25.393a6.35 6.35 0 11-6.194 6.349 6.272 6.272 0 016.194-6.349z"/><path class="c" d="M187.532 29.079a3.556 3.556 0 11-3.469 3.556 3.514 3.514 0 013.469-3.556z"/><path class="c" d="M193.479 10.031a3.556 3.556 0 11-3.468 3.554 3.512 3.512 0 013.468-3.554z"/><path class="c" d="M185.427 6.729a3.3 3.3 0 11-3.22 3.3 3.261 3.261 0 013.22-3.3z"/><path class="c" d="M201.778 15.871a6.351 6.351 0 11-6.193 6.349 6.272 6.272 0 016.193-6.349z"/><path class="c" d="M212.306 36.313a4.064 4.064 0 11-3.963 4.063 4.014 4.014 0 013.963-4.063z"/><path class="c" d="M224.819 21.584a3.3 3.3 0 11-3.221 3.3 3.261 3.261 0 013.221-3.3z"/><path class="c" d="M231.012 26.408a3.175 3.175 0 11-3.1 3.175 3.136 3.136 0 013.1-3.175z"/><path class="c" d="M212.927 45.708a2.286 2.286 0 11-2.23 2.284 2.257 2.257 0 012.23-2.284z"/><path class="c" d="M165.849 49.136a2.667 2.667 0 11-2.6 2.666 2.634 2.634 0 012.6-2.666z"/><path class="c" d="M152.848 39.105a3.175 3.175 0 11-3.1 3.174 3.137 3.137 0 013.1-3.174z"/><path class="c" d="M146.654 39.613a2.286 2.286 0 11-2.23 2.286 2.259 2.259 0 012.23-2.286z"/><path class="c" d="M137.488 39.232a3.175 3.175 0 11-3.1 3.175 3.136 3.136 0 013.1-3.175z"/><path class="c" d="M134.763 50.406a2.666 2.666 0 11-2.6 2.666 2.634 2.634 0 012.6-2.666z"/><path class="c" d="M113.208 38.851a2.286 2.286 0 11-2.228 2.286 2.259 2.259 0 012.228-2.286z"/><path class="c" d="M99.583 50.152a2.286 2.286 0 11-2.23 2.286 2.258 2.258 0 012.23-2.286z"/><path class="c" d="M86.328 46.721a2.286 2.286 0 11-2.23 2.284 2.258 2.258 0 012.23-2.284z"/><path class="c" d="M78.773 18.283a8.383 8.383 0 11-8.176 8.38 8.279 8.279 0 018.176-8.38z"/><path class="c" d="M105.776 50.278a3.175 3.175 0 11-3.1 3.175 3.136 3.136 0 013.1-3.175z"/><path class="c" d="M67.867 40.502a3.175 3.175 0 11-3.1 3.174 3.136 3.136 0 013.1-3.174z"/><path class="c" d="M51.52 40.502a3.81 3.81 0 11-3.716 3.809 3.763 3.763 0 013.716-3.809z"/><path class="c" d="M59.077 38.979a2.413 2.413 0 11-2.355 2.412 2.383 2.383 0 012.355-2.412z"/><path class="c" d="M82.117 55.099a2.922 2.922 0 11-2.849 2.921 2.885 2.885 0 012.849-2.921z"/><path class="c" d="M36.408 54.087a2.414 2.414 0 11-2.355 2.414 2.384 2.384 0 012.355-2.414z"/><path class="c" d="M42.695 57.562a6.35 6.35 0 11-6.194 6.349 6.271 6.271 0 016.194-6.349z"/><path class="c" d="M50.835 66.318a2.413 2.413 0 11-2.353 2.412 2.383 2.383 0 012.353-2.412z"/><path class="c" d="M68.067 64.007a6.35 6.35 0 11-6.194 6.349 6.273 6.273 0 016.194-6.349z"/><path class="c" d="M76.135 71.618a2.286 2.286 0 11-2.228 2.286 2.258 2.258 0 012.228-2.286z"/><path class="c" d="M88.599 60.894a5.08 5.08 0 11-4.955 5.079 5.018 5.018 0 014.955-5.079z"/><path class="c" d="M90.183 73.307a2.667 2.667 0 11-2.6 2.666 2.634 2.634 0 012.6-2.666z"/><path class="c" d="M63.014 76.54a4 4 0 11-3.906 4 3.955 3.955 0 013.906-4z"/><path class="c" d="M37.857 84.318a4 4 0 11-3.9 4 3.954 3.954 0 013.9-4z"/><path class="c" d="M44.547 86.258a2.037 2.037 0 11-1.987 2.036 2.012 2.012 0 011.987-2.036z"/><path class="c" d="M117.628 64.317a2.413 2.413 0 11-2.353 2.412 2.384 2.384 0 012.353-2.412z"/><path class="c" d="M115.46 76.473a2.037 2.037 0 11-1.987 2.037 2.014 2.014 0 011.987-2.037z"/><path class="c" d="M139.75 82.857a2.667 2.667 0 11-2.6 2.666 2.635 2.635 0 012.6-2.666z"/><path class="c" d="M20.943 78.733a3.81 3.81 0 11-3.716 3.809 3.763 3.763 0 013.716-3.809z"/><path class="c" d="M176.615 80.191a2.667 2.667 0 11-2.6 2.665 2.633 2.633 0 012.6-2.665z"/><path class="c" d="M195.467 70.666a5.976 5.976 0 11-5.828 5.975 5.9 5.9 0 015.828-5.975z"/><path class="c" d="M205.608 74.004a2.286 2.286 0 11-2.23 2.286 2.258 2.258 0 012.23-2.286z"/><path class="c" d="M230.701 79.115a3.175 3.175 0 11-3.1 3.174 3.135 3.135 0 013.1-3.174z"/><path class="c" d="M204.026 89.562a3.175 3.175 0 11-3.1 3.174 3.136 3.136 0 013.1-3.174z"/><path class="c" d="M230.673 50.48a3.3 3.3 0 11-3.22 3.3 3.261 3.261 0 013.22-3.3z"/><path class="c" d="M232.227 58.377a2.286 2.286 0 11-2.23 2.286 2.258 2.258 0 012.23-2.286z"/><path class="c" d="M221.796 52.858a3.556 3.556 0 11-3.469 3.556 3.514 3.514 0 013.469-3.556z"/><path class="c" d="M251.506 61.345a3.738 3.738 0 11-3.646 3.737 3.691 3.691 0 013.646-3.737z"/><path class="c" d="M240.574 51.551a5.754 5.754 0 11-5.612 5.752 5.683 5.683 0 015.612-5.752z"/><path class="c" d="M261.649 57.337a5.081 5.081 0 11-4.954 5.079 5.018 5.018 0 014.954-5.079z"/><path class="c" d="M265.312 67.964a2.667 2.667 0 11-2.6 2.668 2.636 2.636 0 012.6-2.668z"/><path class="c" d="M260.45 75.812a4.574 4.574 0 11-4.461 4.573 4.518 4.518 0 014.461-4.573z"/><path class="c" d="M252.285 83.558a6.2 6.2 0 11-6.046 6.2 6.121 6.121 0 016.046-6.2z"/><path class="c" d="M241.733 86.932a3.3 3.3 0 11-3.22 3.3 3.261 3.261 0 013.22-3.3z"/><path class="c" d="M212.523 86.994a4.064 4.064 0 11-3.964 4.063 4.014 4.014 0 013.964-4.063z"/><path class="c" d="M280.477 94.45a7.977 7.977 0 11-7.782 7.974 7.878 7.878 0 017.782-7.974z"/><path class="c" d="M269.071 92.463a3.738 3.738 0 11-3.645 3.737 3.691 3.691 0 013.645-3.737z"/><path class="c" d="M252.178 96.513a1.714 1.714 0 11-1.673 1.714 1.694 1.694 0 011.673-1.714z"/><path class="c" d="M251.673 100.236a5.08 5.08 0 11-4.955 5.079 5.018 5.018 0 014.955-5.079z"/><path class="c" d="M216.882 97.12a2.286 2.286 0 11-2.228 2.286 2.258 2.258 0 012.228-2.286z"/><path class="c" d="M203.168 111.628a1.714 1.714 0 11-1.673 1.714 1.694 1.694 0 011.673-1.714z"/><path class="c" d="M208.085 102.015a5.08 5.08 0 11-4.955 5.078 5.018 5.018 0 014.955-5.078z"/><path class="c" d="M247.513 112.01a5.753 5.753 0 11-5.612 5.752 5.683 5.683 0 015.612-5.752z"/><path class="c" d="M286.981 111.121a5.754 5.754 0 11-5.611 5.752 5.682 5.682 0 015.611-5.752z"/><path class="c" d="M236.542 112.913a3.738 3.738 0 11-3.645 3.737 3.691 3.691 0 013.645-3.737z"/><path class="c" d="M217.244 120.915a3.738 3.738 0 11-3.645 3.736 3.691 3.691 0 013.645-3.736z"/><path class="c" d="M205.917 122.019a5.08 5.08 0 11-4.955 5.079 5.018 5.018 0 014.955-5.079z"/><path class="c" d="M186.36 115.12a6.2 6.2 0 11-6.046 6.2 6.124 6.124 0 016.046-6.2z"/><path class="c" d="M191.457 125.852a1.715 1.715 0 11-1.673 1.715 1.695 1.695 0 011.673-1.715z"/><path class="c" d="M189.508 136.97a1.715 1.715 0 11-1.671 1.715 1.694 1.694 0 011.671-1.715z"/><path class="c" d="M188.693 130.462a2.286 2.286 0 11-2.231 2.286 2.258 2.258 0 012.231-2.286z"/><path class="c" d="M184.497 107.356a3.738 3.738 0 11-3.647 3.737 3.692 3.692 0 013.647-3.737z"/><path class="c" d="M168.618 96.235a5.08 5.08 0 11-4.955 5.078 5.019 5.019 0 014.955-5.078z"/><path class="c" d="M266.915 122.236a3.175 3.175 0 11-3.1 3.174 3.135 3.135 0 013.1-3.174z"/><path class="c" d="M281.444 131.126a3.175 3.175 0 11-3.1 3.175 3.137 3.137 0 013.1-3.175z"/><path class="c" d="M286.214 125.792a3.175 3.175 0 11-3.1 3.174 3.136 3.136 0 013.1-3.174z"/><path class="c" d="M235.1 134.237a2.512 2.512 0 11-2.45 2.511 2.481 2.481 0 012.45-2.511z"/><path class="c" d="M223.392 140.238a2.511 2.511 0 11-2.449 2.511 2.481 2.481 0 012.449-2.511z"/><path class="c" d="M136.863 104.678a2.286 2.286 0 11-2.23 2.286 2.258 2.258 0 012.23-2.286z"/><path class="c" d="M154.158 110.956a1.714 1.714 0 11-1.673 1.714 1.694 1.694 0 011.673-1.714z"/><path class="c" d="M144.977 100.896a5.569 5.569 0 11-5.433 5.568 5.5 5.5 0 015.433-5.568z"/><path class="c" d="M129.861 102.231a3.175 3.175 0 11-3.1 3.175 3.136 3.136 0 013.1-3.175z"/><path class="c" d="M151.114 135.127a3.175 3.175 0 11-3.1 3.174 3.136 3.136 0 013.1-3.174z"/><path class="c" d="M105.254 90.228a5.976 5.976 0 11-5.828 5.975 5.9 5.9 0 015.828-5.975z"/><path class="c" d="M79.56 96.682a6.35 6.35 0 11-6.194 6.349 6.272 6.272 0 016.194-6.349z"/><path class="c" d="M62.319 88.003a5.976 5.976 0 11-5.828 5.974 5.9 5.9 0 015.828-5.974z"/><path class="c" d="M85.784 90.32a4 4 0 11-3.906 4 3.954 3.954 0 013.906-4z"/><path class="c" d="M54.178 97.786a3.175 3.175 0 11-3.1 3.174 3.136 3.136 0 013.1-3.174z"/><path class="c" d="M53.313 119.79a3.175 3.175 0 11-3.1 3.175 3.137 3.137 0 013.1-3.175z"/><path class="c" d="M47.8 97.59a2.037 2.037 0 11-1.987 2.036A2.012 2.012 0 0147.8 97.59z"/><path class="c" d="M88.785 126.04a2.037 2.037 0 11-1.987 2.037 2.012 2.012 0 011.987-2.037z"/><path class="c" d="M88.785 136.932a2.037 2.037 0 11-1.987 2.036 2.012 2.012 0 011.987-2.036z"/><path class="c" d="M62.643 117.762a2.667 2.667 0 11-2.6 2.666 2.635 2.635 0 012.6-2.666z"/><path class="c" d="M48.982 113.983a2.667 2.667 0 11-2.6 2.666 2.634 2.634 0 012.6-2.666z"/><path class="c" d="M91.477 130.904a3.175 3.175 0 11-3.1 3.174 3.136 3.136 0 013.1-3.174z"/><path class="c" d="M102.971 140.24a3.175 3.175 0 11-3.1 3.175 3.136 3.136 0 013.1-3.175z"/><path class="c" d="M79.549 121.908a3.28 3.28 0 11-3.2 3.279 3.241 3.241 0 013.2-3.279z"/><path class="c" d="M62.202 135.245a3.28 3.28 0 11-3.2 3.279 3.24 3.24 0 013.2-3.279z"/><path class="c" d="M41.323 93.654a4 4 0 11-3.906 4 3.954 3.954 0 013.906-4z"/><path class="c" d="M97.449 119.345a5.976 5.976 0 11-5.828 5.974 5.9 5.9 0 015.828-5.974z"/><path class="c" d="M128.458 138.238a7.977 7.977 0 11-7.78 7.974 7.879 7.879 0 017.78-7.974z"/><path class="c" d="M28.317 93.432a4 4 0 11-3.906 4 3.955 3.955 0 013.906-4z"/><path class="c" d="M17.473 105.184a3.81 3.81 0 11-3.715 3.809 3.764 3.764 0 013.716-3.809z"/><path class="c" d="M5.979 122.327a4 4 0 11-3.9 4 3.954 3.954 0 013.9-4z"/><path class="c" d="M16.382 121.129a5.08 5.08 0 11-4.955 5.078 5.018 5.018 0 014.955-5.078z"/><path class="c" d="M24.162 137.376a2.037 2.037 0 11-1.987 2.037 2.012 2.012 0 011.987-2.037z"/><path class="c" d="M18.992 140.109a4 4 0 11-3.906 4 3.955 3.955 0 013.906-4z"/><path class="c" d="M10.054 145.572a7.977 7.977 0 11-7.78 7.974 7.879 7.879 0 017.78-7.974z"/><path class="c" d="M18.839 158.882a2.667 2.667 0 11-2.6 2.666 2.634 2.634 0 012.6-2.666z"/><path class="c" d="M17.973 173.998a2.667 2.667 0 11-2.6 2.665 2.634 2.634 0 012.6-2.665z"/><path class="c" d="M5.078 168.494a2.038 2.038 0 11-1.987 2.037 2.013 2.013 0 011.987-2.037z"/><path class="c" d="M35.907 158.336a4 4 0 11-3.906 4 3.954 3.954 0 013.906-4z"/><path class="c" d="M53.744 161.25a3.28 3.28 0 11-3.2 3.279 3.24 3.24 0 013.2-3.279z"/><path class="c" d="M66.103 150.686a3.175 3.175 0 11-3.1 3.175 3.136 3.136 0 013.1-3.175z"/><path class="c" d="M74.724 165.643a3.81 3.81 0 11-3.716 3.809 3.763 3.763 0 013.716-3.809z"/><path class="c" d="M46.81 153.129a5.642 5.642 0 11-5.5 5.642 5.573 5.573 0 015.5-5.642z"/><path class="c" d="M97.772 148.906a5.642 5.642 0 11-5.5 5.641 5.573 5.573 0 015.5-5.641z"/><path class="c" d="M90.101 154.686a1.606 1.606 0 11-1.567 1.607 1.587 1.587 0 011.567-1.607z"/><path class="c" d="M26.21 178.913a5.642 5.642 0 11-5.5 5.641 5.573 5.573 0 015.5-5.641z"/><path class="c" d="M139.991 169.585a5.081 5.081 0 11-4.955 5.079 5.018 5.018 0 014.955-5.079z"/><path class="c" d="M151.708 149.416a3.81 3.81 0 11-3.716 3.809 3.762 3.762 0 013.716-3.809z"/><path class="c" d="M167.323 147.416a3.81 3.81 0 11-3.716 3.809 3.763 3.763 0 013.716-3.809z"/><path class="c" d="M159.516 151.417a3.81 3.81 0 11-3.717 3.809 3.763 3.763 0 013.717-3.809z"/><path class="c" d="M160.166 168.531a3.81 3.81 0 11-3.716 3.81 3.763 3.763 0 013.716-3.81z"/><path class="c" d="M163.156 176.914a6.2 6.2 0 11-6.046 6.2 6.121 6.121 0 016.046-6.2z"/><path class="c" d="M202.571 157.354a2.511 2.511 0 11-2.449 2.511 2.48 2.48 0 012.449-2.511z"/><path class="c" d="M210.688 158.249a5.08 5.08 0 11-4.955 5.08 5.018 5.018 0 014.955-5.08z"/><path class="c" d="M217.905 144.019a3.174 3.174 0 11-3.1 3.174 3.136 3.136 0 013.1-3.174z"/><path class="c" d="M241.047 137.8a5.081 5.081 0 11-4.955 5.08 5.018 5.018 0 014.955-5.08z"/><path class="c" d="M235.842 148.692a5.08 5.08 0 11-4.955 5.079 5.018 5.018 0 014.955-5.079z"/><path class="c" d="M238.452 161.863a3.81 3.81 0 11-3.716 3.808 3.763 3.763 0 013.716-3.808z"/><path class="c" d="M270.33 158.53a3.81 3.81 0 11-3.716 3.809 3.763 3.763 0 013.716-3.809z"/><path class="c" d="M279.004 166.976a3.81 3.81 0 11-3.716 3.809 3.763 3.763 0 013.716-3.809z"/><path class="c" d="M279.871 177.422a3.81 3.81 0 11-3.716 3.809 3.763 3.763 0 013.716-3.809z"/><path class="c" d="M223.544 168.468a3.175 3.175 0 11-3.1 3.175 3.136 3.136 0 013.1-3.175z"/><path class="c" d="M262.795 176.248a3.175 3.175 0 11-3.1 3.174 3.136 3.136 0 013.1-3.174z"/><path class="c" d="M237.201 177.805a3.175 3.175 0 11-3.1 3.174 3.135 3.135 0 013.1-3.174z"/><path class="c" d="M248.204 159.36a5.081 5.081 0 11-4.955 5.08 5.019 5.019 0 014.955-5.08z"/><path class="c" d="M280.26 139.571a5.753 5.753 0 11-5.612 5.752 5.683 5.683 0 015.612-5.752z"/><path class="c" d="M295.044 145.58a5.08 5.08 0 11-4.955 5.079 5.018 5.018 0 014.955-5.079z"/><path class="c" d="M260.525 160.909a6.643 6.643 0 11-6.479 6.641 6.562 6.562 0 016.479-6.641z"/><path class="c" d="M276.683 160.973a1.714 1.714 0 11-1.673 1.714 1.692 1.692 0 011.673-1.714z"/><path class="c" d="M246.863 180.248a5.754 5.754 0 11-5.611 5.752 5.682 5.682 0 015.611-5.752z"/><path class="c" d="M263.56 192.249a5.753 5.753 0 11-5.612 5.752 5.683 5.683 0 015.612-5.752z"/><path class="c" d="M278.408 185.582a3.622 3.622 0 11-3.531 3.62 3.577 3.577 0 013.531-3.62z"/><path class="c" d="M232.55 184.471a7.977 7.977 0 11-7.781 7.974 7.878 7.878 0 017.781-7.974z"/><path class="c" d="M244.796 192.918a3.175 3.175 0 11-3.1 3.174 3.136 3.136 0 013.1-3.174z"/><path class="c" d="M221.438 193.584a2.511 2.511 0 11-2.45 2.511 2.48 2.48 0 012.45-2.511z"/><path class="c" d="M215.582 192.695a2.511 2.511 0 11-2.45 2.511 2.481 2.481 0 012.45-2.511z"/><path class="c" d="M199.201 192.977a3.81 3.81 0 11-3.716 3.809 3.763 3.763 0 013.716-3.809z"/><path class="c" d="M192.911 198.983a3.81 3.81 0 11-3.716 3.809 3.762 3.762 0 013.716-3.809z"/><path class="c" d="M205.923 196.983a3.81 3.81 0 11-3.716 3.809 3.763 3.763 0 013.716-3.809z"/><path class="c" d="M269.246 214.542a3.81 3.81 0 11-3.718 3.809 3.763 3.763 0 013.718-3.809z"/><path class="c" d="M247.126 209.903a4.226 4.226 0 11-4.122 4.225 4.174 4.174 0 014.122-4.225z"/><path class="c" d="M189.658 208.254a4.319 4.319 0 11-4.213 4.319 4.266 4.266 0 014.213-4.319z"/><path class="c" d="M204.142 215.367a6.642 6.642 0 11-6.479 6.64 6.56 6.56 0 016.479-6.64z"/><path class="c" d="M222.459 212.034a3.175 3.175 0 11-3.1 3.174 3.135 3.135 0 013.1-3.174z"/><path class="c" d="M251.518 217.367a2.955 2.955 0 11-2.881 2.953 2.918 2.918 0 012.881-2.953z"/><path class="c" d="M259.542 218.478a2.955 2.955 0 11-2.881 2.953 2.918 2.918 0 012.881-2.953z"/><path class="c" d="M265.614 221.812a2.955 2.955 0 11-2.881 2.953 2.919 2.919 0 012.881-2.953z"/><path class="c" d="M146.891 189.138a5.754 5.754 0 11-5.612 5.752 5.683 5.683 0 015.612-5.752z"/><path class="c" d="M146.024 201.585a5.754 5.754 0 11-5.611 5.752 5.683 5.683 0 015.611-5.752z"/><path class="c" d="M126.508 196.029a5.754 5.754 0 11-5.612 5.752 5.683 5.683 0 015.612-5.752z"/><path class="c" d="M112.359 187.804a2.512 2.512 0 11-2.449 2.511 2.481 2.481 0 012.449-2.511z"/><path class="c" d="M117.347 199.362a2.512 2.512 0 11-2.45 2.512 2.481 2.481 0 012.45-2.512z"/><path class="c" d="M190.861 232.704a2.511 2.511 0 11-2.45 2.511 2.48 2.48 0 012.45-2.511z"/><path class="c" d="M213.414 220.923a2.512 2.512 0 11-2.45 2.511 2.481 2.481 0 012.45-2.511z"/><path class="c" d="M239.22 231.148a2.512 2.512 0 11-2.449 2.511 2.481 2.481 0 012.449-2.511z"/><path class="c" d="M219.486 227.147a2.512 2.512 0 11-2.45 2.512 2.481 2.481 0 012.45-2.512z"/><path class="c" d="M103.839 227.149a3.174 3.174 0 11-3.1 3.174 3.135 3.135 0 013.1-3.174z"/><path class="c" d="M153.443 230.768a3.81 3.81 0 11-3.717 3.809 3.763 3.763 0 013.717-3.809z"/><path class="c" d="M169.228 225.591a5.754 5.754 0 11-5.612 5.752 5.682 5.682 0 015.612-5.752z"/><path class="c" d="M60.628 199.205a3.81 3.81 0 11-3.716 3.809 3.763 3.763 0 013.716-3.809z"/><path class="c" d="M68.064 200.003a2.667 2.667 0 11-2.6 2.666 2.634 2.634 0 012.6-2.666z"/><path class="c" d="M76.738 193.334a2.667 2.667 0 11-2.6 2.666 2.634 2.634 0 012.6-2.666z"/><path class="c" d="M38.788 219.341a2.666 2.666 0 11-2.6 2.665 2.634 2.634 0 012.6-2.665z"/><path class="c" d="M88.449 216.451a2.667 2.667 0 11-2.6 2.666 2.634 2.634 0 012.6-2.666z"/><path class="c" d="M39.775 198.057a2.037 2.037 0 11-1.987 2.037 2.012 2.012 0 011.987-2.037z"/><path class="c" d="M74.69 224.952a2.038 2.038 0 11-1.987 2.037 2.014 2.014 0 011.987-2.037z"/><path class="c" d="M89.003 233.398a2.038 2.038 0 11-1.987 2.037 2.013 2.013 0 011.987-2.037z"/><path class="c" d="M74.073 229.685a4.671 4.671 0 11-4.555 4.67 4.613 4.613 0 014.555-4.67z"/><path class="c" d="M48.329 197.807a5.642 5.642 0 11-5.5 5.64 5.573 5.573 0 015.5-5.64z"/><path class="c" d="M67.128 206.039a5.08 5.08 0 11-4.955 5.079 5.018 5.018 0 014.955-5.079z"/><path class="c" d="M13.409 199.037a3.28 3.28 0 11-3.2 3.279 3.24 3.24 0 013.2-3.279z"/><path class="c" d="M22.95 217.486a3.28 3.28 0 11-3.2 3.279 3.24 3.24 0 013.2-3.279z"/><path class="c" d="M61.056 240.936a5.08 5.08 0 11-4.955 5.079 5.018 5.018 0 014.955-5.079z"/><path class="c" d="M68.064 248.013a2.667 2.667 0 11-2.6 2.666 2.634 2.634 0 012.6-2.666z"/><path class="c" d="M56.571 258.239a2.667 2.667 0 11-2.6 2.666 2.635 2.635 0 012.6-2.666z"/><path class="c" d="M108.956 250.514a2.037 2.037 0 11-1.987 2.037 2.013 2.013 0 011.987-2.037z"/><path class="c" d="M133.556 254.015a2.667 2.667 0 11-2.6 2.666 2.634 2.634 0 012.6-2.666z"/><path class="c" d="M144.986 245.882a3.81 3.81 0 11-3.716 3.81 3.764 3.764 0 013.716-3.81z"/><path class="c" d="M110.939 255.375a4.32 4.32 0 11-4.213 4.319 4.266 4.266 0 014.213-4.319z"/><path class="c" d="M132.408 260.488a4.319 4.319 0 11-4.213 4.317 4.266 4.266 0 014.213-4.317z"/><path class="c" d="M160.88 257.797a2.666 2.666 0 11-2.6 2.666 2.634 2.634 0 012.6-2.666z"/><path class="c" d="M183.867 250.01a2.667 2.667 0 11-2.6 2.666 2.635 2.635 0 012.6-2.666z"/><path class="c" d="M194.493 239.123a2.667 2.667 0 11-2.6 2.666 2.635 2.635 0 012.6-2.666z"/><path class="c" d="M165.153 243.659a3.81 3.81 0 11-3.716 3.809 3.764 3.764 0 013.716-3.809z"/><path class="c" d="M167.105 259.886a3.81 3.81 0 11-3.716 3.809 3.763 3.763 0 013.716-3.809z"/><path class="c" d="M174.262 246.355a4.671 4.671 0 11-4.555 4.67 4.613 4.613 0 014.555-4.67z"/><path class="c" d="M245.076 237.815a2.512 2.512 0 11-2.45 2.512 2.481 2.481 0 012.45-2.512z"/><path class="c" d="M237.15 252.329a3.81 3.81 0 11-3.717 3.809 3.763 3.763 0 013.717-3.809z"/><path class="c" d="M237.833 236.484a3.62 3.62 0 11-3.531 3.619 3.577 3.577 0 013.531-3.619z"/><path class="c" d="M240.087 262.489a2.067 2.067 0 11-2.015 2.065 2.041 2.041 0 012.015-2.065z"/><path class="c" d="M182.186 266.489a2.067 2.067 0 11-2.015 2.067 2.042 2.042 0 012.015-2.067z"/><path class="c" d="M210.535 268.237a2.667 2.667 0 11-2.6 2.666 2.634 2.634 0 012.6-2.666z"/><path class="c" d="M199.634 283.447a3.81 3.81 0 11-3.716 3.809 3.763 3.763 0 013.716-3.809z"/><path class="c" d="M189.658 279.446a3.81 3.81 0 11-3.716 3.809 3.764 3.764 0 013.716-3.809z"/><path class="c" d="M168.36 276.415a6.052 6.052 0 11-5.9 6.05 5.978 5.978 0 015.9-6.05z"/><path class="c" d="M166.517 269.13a2.667 2.667 0 11-2.6 2.666 2.634 2.634 0 012.6-2.666z"/><path class="c" d="M154.527 279.474a5.338 5.338 0 11-5.2 5.337 5.273 5.273 0 015.2-5.337z"/><path class="c" d="M254.886 234.481a6.643 6.643 0 11-6.479 6.641 6.562 6.562 0 016.479-6.641z"/><path class="c" d="M122.867 276.807a4.671 4.671 0 11-4.557 4.67 4.614 4.614 0 014.557-4.67z"/><path class="c" d="M95.508 282.743a2.037 2.037 0 11-1.987 2.037 2.014 2.014 0 011.987-2.037z"/><path class="c" d="M98.533 269.747a6.275 6.275 0 11-6.121 6.272 6.2 6.2 0 016.121-6.272z"/><path class="c" d="M88.819 278.27a4.319 4.319 0 11-4.213 4.319 4.267 4.267 0 014.213-4.319z"/><path class="d" d="M128.868 6.736a5.1 5.1 0 11-4.97 5.095 5.034 5.034 0 014.97-5.095z"/><path class="d" d="M100.12 5.08a2.892 2.892 0 11-2.821 2.891 2.857 2.857 0 012.821-2.891z"/><path class="d" d="M113.821 26.286a5.1 5.1 0 11-4.97 5.095 5.034 5.034 0 014.97-5.095z"/><path class="d" d="M140.956 28.491a5.1 5.1 0 11-4.97 5.093 5.033 5.033 0 014.97-5.093z"/><path class="d" d="M146.594 13.341a4.269 4.269 0 11-4.164 4.269 4.217 4.217 0 014.164-4.269z"/><path class="d" d="M92.866 27.936a6.2 6.2 0 11-6.046 6.2 6.121 6.121 0 016.046-6.2z"/><path class="d" d="M64.119 26.286a6.2 6.2 0 11-6.044 6.2 6.121 6.121 0 016.044-6.2z"/><path class="d" d="M110.328 60.704a2.066 2.066 0 11-2.015 2.065 2.041 2.041 0 012.015-2.065z"/><path class="d" d="M117.582 69.795a2.066 2.066 0 11-2.015 2.065 2.041 2.041 0 012.015-2.065z"/><path class="d" d="M100.656 55.473a6.2 6.2 0 11-6.044 6.2 6.121 6.121 0 016.044-6.2z"/><path class="d" d="M54.178 31.515a3.719 3.719 0 11-3.626 3.719 3.674 3.674 0 013.626-3.719z"/><path class="d" d="M52.298 52.443a3.719 3.719 0 11-3.626 3.717 3.673 3.673 0 013.626-3.717z"/><path class="d" d="M56.06 46.937a2.891 2.891 0 11-2.821 2.89 2.856 2.856 0 012.821-2.89z"/><path class="d" d="M184.747 36.197a8.4 8.4 0 11-8.195 8.4 8.3 8.3 0 018.195-8.4z"/><path class="d" d="M200.33 36.197a5.1 5.1 0 11-4.97 5.095 5.034 5.034 0 014.97-5.095z"/><path class="d" d="M199.257 28.491a2.892 2.892 0 11-2.821 2.891 2.856 2.856 0 012.821-2.891z"/><path class="d" d="M221.552 40.327a5.1 5.1 0 11-4.97 5.095 5.034 5.034 0 014.97-5.095z"/><path class="d" d="M214.836 60.704a5.1 5.1 0 11-4.97 5.095 5.034 5.034 0 014.97-5.095z"/><path class="d" d="M235.524 64.285a5.646 5.646 0 11-5.508 5.644 5.578 5.578 0 015.508-5.644z"/><path class="d" d="M247.344 43.082a4.269 4.269 0 11-4.164 4.267 4.218 4.218 0 014.164-4.267z"/><path class="d" d="M270.989 64.56a2.892 2.892 0 11-2.821 2.891 2.857 2.857 0 012.821-2.891z"/><path class="d" d="M195.224 100.908a6.2 6.2 0 11-6.044 6.2 6.121 6.121 0 016.044-6.2z"/><path class="d" d="M194.682 83.009a4.545 4.545 0 11-4.432 4.544 4.489 4.489 0 014.432-4.544z"/><path class="d" d="M90.448 79.704a5.1 5.1 0 11-4.971 5.095 5.034 5.034 0 014.971-5.095z"/><path class="d" d="M31.074 65.936a8.4 8.4 0 11-8.195 8.4 8.3 8.3 0 018.195-8.4z"/><path class="d" d="M43.97 101.734a6.2 6.2 0 11-6.046 6.2 6.121 6.121 0 016.046-6.2z"/><path class="d" d="M25.163 101.184a3.718 3.718 0 11-3.626 3.717 3.672 3.672 0 013.626-3.717z"/><path class="d" d="M23.014 109.169a2.066 2.066 0 11-2.015 2.065 2.042 2.042 0 012.015-2.065z"/><path class="d" d="M49.344 89.617a3.719 3.719 0 11-3.628 3.719 3.674 3.674 0 013.628-3.719z"/><path class="d" d="M7.163 113.85a3.719 3.719 0 11-3.626 3.717 3.672 3.672 0 013.626-3.717z"/><path class="d" d="M93.403 107.517a5.1 5.1 0 11-4.97 5.095 5.034 5.034 0 014.97-5.095z"/><path class="d" d="M104.418 108.896a3.719 3.719 0 11-3.626 3.717 3.673 3.673 0 013.626-3.717z"/><path class="d" d="M129.403 109.995a4.27 4.27 0 11-4.164 4.269 4.218 4.218 0 014.164-4.269z"/><path class="d" d="M60.358 122.937a5.1 5.1 0 11-4.97 5.095 5.034 5.034 0 014.97-5.095z"/><path class="d" d="M52.029 127.069a2.065 2.065 0 11-2.015 2.064 2.04 2.04 0 012.015-2.064z"/><path class="d" d="M27.043 120.459a4.27 4.27 0 11-4.164 4.269 4.217 4.217 0 014.164-4.269z"/><path class="d" d="M156.538 132.575a2.342 2.342 0 11-2.284 2.34 2.312 2.312 0 012.284-2.34z"/><path class="d" d="M169.434 82.459a6.2 6.2 0 11-6.046 6.2 6.121 6.121 0 016.046-6.2z"/><path class="d" d="M202.748 95.951a2.892 2.892 0 11-2.821 2.891 2.857 2.857 0 012.821-2.891z"/><path class="d" d="M216.179 129.546a5.647 5.647 0 11-5.506 5.646 5.578 5.578 0 015.506-5.646z"/><path class="d" d="M228.808 117.155a3.444 3.444 0 11-3.359 3.443 3.4 3.4 0 013.359-3.443z"/><path class="d" d="M257.822 108.068a3.443 3.443 0 11-3.357 3.443 3.4 3.4 0 013.357-3.443z"/><path class="d" d="M241.971 94.299a5.1 5.1 0 11-4.97 5.095 5.034 5.034 0 014.97-5.095z"/><path class="d" d="M272.33 109.445a6.2 6.2 0 11-6.046 6.2 6.121 6.121 0 016.046-6.2z"/><path class="d" d="M268.299 128.72a6.2 6.2 0 11-6.044 6.2 6.122 6.122 0 016.044-6.2z"/><path class="d" d="M260.24 126.242a2.892 2.892 0 11-2.821 2.891 2.857 2.857 0 012.821-2.891z"/><path class="d" d="M270.986 141.384a2.342 2.342 0 11-2.284 2.34 2.312 2.312 0 012.284-2.34z"/><path class="d" d="M247.344 147.445a4.545 4.545 0 11-4.433 4.544 4.489 4.489 0 014.433-4.544z"/><path class="d" d="M224.508 147.721a3.443 3.443 0 11-3.357 3.441 3.4 3.4 0 013.357-3.441z"/><path class="d" d="M222.09 114.676a2.892 2.892 0 11-2.819 2.891 2.857 2.857 0 012.819-2.891z"/><path class="d" d="M140.689 151.301a5.922 5.922 0 11-5.775 5.919 5.849 5.849 0 015.775-5.919z"/><path class="d" d="M120.268 153.504a5.1 5.1 0 11-4.97 5.093 5.033 5.033 0 014.97-5.093z"/><path class="d" d="M81.851 139.184a8.4 8.4 0 11-8.195 8.4 8.3 8.3 0 018.195-8.4z"/><path class="d" d="M32.418 133.127a6.2 6.2 0 11-6.046 6.2 6.121 6.121 0 016.046-6.2z"/><path class="d" d="M31.611 128.721a2.065 2.065 0 11-2.014 2.064 2.039 2.039 0 012.014-2.064z"/><path class="d" d="M25.969 163.138a3.719 3.719 0 11-3.626 3.717 3.674 3.674 0 013.626-3.717z"/><path class="d" d="M42.358 163.692a2.892 2.892 0 11-2.822 2.891 2.857 2.857 0 012.822-2.891z"/><path class="d" d="M35.103 166.721a5.922 5.922 0 11-5.775 5.921 5.849 5.849 0 015.775-5.921z"/><path class="d" d="M26.238 195.914a4.269 4.269 0 11-4.164 4.267 4.216 4.216 0 014.164-4.267z"/><path class="d" d="M35.372 201.417a4.545 4.545 0 11-4.433 4.543 4.489 4.489 0 014.433-4.543z"/><path class="d" d="M14.417 179.664a3.167 3.167 0 11-3.09 3.166 3.128 3.128 0 013.09-3.166z"/><path class="d" d="M56.865 183.518a3.719 3.719 0 11-3.626 3.717 3.674 3.674 0 013.626-3.717z"/><path class="d" d="M62.507 170.852a3.167 3.167 0 11-3.09 3.166 3.128 3.128 0 013.09-3.166z"/><path class="d" d="M64.119 179.388a3.719 3.719 0 11-3.626 3.717 3.672 3.672 0 013.626-3.717z"/><path class="d" d="M92.059 169.2a5.1 5.1 0 11-4.97 5.093 5.034 5.034 0 014.97-5.093z"/><path class="d" d="M97.433 161.214a4.269 4.269 0 11-4.164 4.269 4.218 4.218 0 014.164-4.269z"/><path class="d" d="M118.388 178.562a4.27 4.27 0 11-4.164 4.269 4.218 4.218 0 014.164-4.269z"/><path class="d" d="M149.015 179.113a4.269 4.269 0 11-4.164 4.269 4.217 4.217 0 014.164-4.269z"/><path class="d" d="M78.089 180.49a5.922 5.922 0 11-5.775 5.919 5.849 5.849 0 015.775-5.919z"/><path class="d" d="M253.792 172.229a4.544 4.544 0 11-4.432 4.544 4.488 4.488 0 014.432-4.544z"/><path class="d" d="M253.793 155.982a2.341 2.341 0 11-2.284 2.34 2.313 2.313 0 012.284-2.34z"/><path class="d" d="M242.508 155.706a2.342 2.342 0 11-2.284 2.342 2.314 2.314 0 012.284-2.342z"/><path class="d" d="M222.09 174.982a4.269 4.269 0 11-4.164 4.269 4.217 4.217 0 014.164-4.269z"/><path class="d" d="M203.553 173.33a6.2 6.2 0 11-6.044 6.2 6.121 6.121 0 016.044-6.2z"/><path class="d" d="M269.644 180.765a4.545 4.545 0 11-4.433 4.544 4.489 4.489 0 014.433-4.544z"/><path class="d" d="M285.495 188.751a5.371 5.371 0 11-5.239 5.37 5.3 5.3 0 015.239-5.37z"/><path class="d" d="M288.718 167.271a6.2 6.2 0 11-6.044 6.2 6.122 6.122 0 016.044-6.2z"/><path class="d" d="M248.957 199.215a4.269 4.269 0 11-4.164 4.267 4.216 4.216 0 014.164-4.267z"/><path class="d" d="M229.613 201.692a5.372 5.372 0 11-5.239 5.37 5.306 5.306 0 015.239-5.37z"/><path class="d" d="M276.628 216.563a2.892 2.892 0 11-2.821 2.891 2.856 2.856 0 012.821-2.891z"/><path class="d" d="M214.299 212.156a3.719 3.719 0 11-3.626 3.717 3.673 3.673 0 013.626-3.717z"/><path class="d" d="M245.732 244.375a3.719 3.719 0 11-3.626 3.717 3.672 3.672 0 013.626-3.717z"/><path class="d" d="M223.702 240.52a8.4 8.4 0 11-8.193 8.4 8.3 8.3 0 018.193-8.4z"/><path class="d" d="M210.807 237.49a3.719 3.719 0 11-3.626 3.717 3.674 3.674 0 013.626-3.717z"/><path class="d" d="M199.255 228.401a5.371 5.371 0 11-5.239 5.37 5.306 5.306 0 015.239-5.37z"/><path class="d" d="M194.152 246.854a5.371 5.371 0 11-5.239 5.37 5.305 5.305 0 015.239-5.37z"/><path class="d" d="M109.254 232.259a8.4 8.4 0 11-8.195 8.4 8.3 8.3 0 018.195-8.4z"/><path class="d" d="M113.552 204.722a5.371 5.371 0 11-5.239 5.37 5.306 5.306 0 015.239-5.37z"/><path class="d" d="M42.357 224.273a8.4 8.4 0 11-8.193 8.4 8.3 8.3 0 018.193-8.4z"/><path class="d" d="M51.224 216.838a5.1 5.1 0 11-4.97 5.095 5.034 5.034 0 014.97-5.095z"/><path class="d" d="M29.462 222.346a4.545 4.545 0 11-4.432 4.543 4.489 4.489 0 014.432-4.543z"/><path class="d" d="M30.805 233.085a3.168 3.168 0 11-3.09 3.166 3.129 3.129 0 013.09-3.166z"/><path class="d" d="M66.268 257.868a5.922 5.922 0 11-5.775 5.921 5.851 5.851 0 015.775-5.921z"/><path class="d" d="M73.253 239.142a4.545 4.545 0 11-4.432 4.545 4.49 4.49 0 014.432-4.545z"/><path class="d" d="M70.299 216.563a3.719 3.719 0 11-3.625 3.717 3.673 3.673 0 013.628-3.717z"/><path class="d" d="M88.027 249.607a5.371 5.371 0 11-5.239 5.37 5.306 5.306 0 015.239-5.37z"/><path class="d" d="M109.523 264.753a4.545 4.545 0 11-4.433 4.544 4.489 4.489 0 014.433-4.544z"/><path class="d" d="M121.344 262.274a5.922 5.922 0 11-5.777 5.919 5.849 5.849 0 015.777-5.919z"/><path class="d" d="M100.926 261.998a3.168 3.168 0 11-3.09 3.168 3.13 3.13 0 013.09-3.168z"/><path class="d" d="M155.195 246.028a5.922 5.922 0 11-5.777 5.919 5.849 5.849 0 015.777-5.919z"/><path class="d" d="M208.12 246.302a6.473 6.473 0 11-6.313 6.471 6.393 6.393 0 016.313-6.471z"/><path class="d" d="M201.135 270.81a4.545 4.545 0 11-4.433 4.544 4.489 4.489 0 014.433-4.544z"/><path class="d" d="M216.18 272.188a5.371 5.371 0 11-5.239 5.37 5.3 5.3 0 015.239-5.37z"/><path class="d" d="M144.717 286.506a6.473 6.473 0 11-6.313 6.471 6.394 6.394 0 016.313-6.471z"/><path class="d" d="M111.403 287.332a4.545 4.545 0 11-4.433 4.544 4.49 4.49 0 014.433-4.544z"/><path class="d" d="M122.955 287.883a5.371 5.371 0 11-5.239 5.37 5.305 5.305 0 015.239-5.37z"/><path class="d" d="M166.478 290.913a4.545 4.545 0 11-4.432 4.544 4.488 4.488 0 014.432-4.544z"/><path class="d" d="M190.119 287.883a3.719 3.719 0 11-3.626 3.717 3.672 3.672 0 013.626-3.717z"/><path class="d" d="M139.881 266.129a3.719 3.719 0 11-3.626 3.719 3.673 3.673 0 013.626-3.719z"/><path class="e" d="M88.093 11.236a4.094 4.094 0 11-3.992 4.094 4.044 4.044 0 013.992-4.094z"/><path class="e" d="M173.279 16.498a4.094 4.094 0 11-3.992 4.094 4.044 4.044 0 013.992-4.094z"/><path class="e" d="M124.984 33.845a8.578 8.578 0 11-8.367 8.575 8.474 8.474 0 018.367-8.575z"/><path class="e" d="M91.136 41.251a3.509 3.509 0 11-3.422 3.507 3.466 3.466 0 013.422-3.507z"/><path class="e" d="M160.352 41.835a3.51 3.51 0 11-3.423 3.509 3.466 3.466 0 013.423-3.509z"/><path class="e" d="M163.395 54.309a3.51 3.51 0 11-3.423 3.509 3.467 3.467 0 013.423-3.509z"/><path class="e" d="M64.895 50.217a6.044 6.044 0 11-5.894 6.043 5.969 5.969 0 015.894-6.043z"/><path class="e" d="M79.918 63.859a3.12 3.12 0 11-3.043 3.119 3.082 3.082 0 013.043-3.119z"/><path class="e" d="M122.132 60.546a1.365 1.365 0 11-1.332 1.366 1.348 1.348 0 011.332-1.366z"/><path class="e" d="M215.115 17.47a5.459 5.459 0 11-5.324 5.458 5.391 5.391 0 015.324-5.458z"/><path class="e" d="M207.89 57.038a2.729 2.729 0 11-2.663 2.728 2.7 2.7 0 012.663-2.728z"/><path class="e" d="M183.361 63.275a2.729 2.729 0 11-2.662 2.728 2.7 2.7 0 012.662-2.728z"/><path class="e" d="M178.797 67.173a2.729 2.729 0 11-2.662 2.728 2.7 2.7 0 012.662-2.728z"/><path class="e" d="M144 66.199a3.509 3.509 0 11-3.422 3.507A3.466 3.466 0 01144 66.199z"/><path class="e" d="M135.631 67.173a3.509 3.509 0 11-3.422 3.507 3.466 3.466 0 013.422-3.507z"/><path class="e" d="M217.777 79.452a3.51 3.51 0 11-3.422 3.509 3.466 3.466 0 013.422-3.509z"/><path class="e" d="M211.502 81.205a1.95 1.95 0 11-1.9 1.949 1.926 1.926 0 011.9-1.949z"/><path class="e" d="M226.716 85.299a8.578 8.578 0 11-8.368 8.575 8.474 8.474 0 018.368-8.575z"/><path class="e" d="M254.857 49.827a3.509 3.509 0 11-3.422 3.507 3.466 3.466 0 013.422-3.507z"/><path class="e" d="M270.069 84.129a3.51 3.51 0 11-3.422 3.509 3.466 3.466 0 013.422-3.509z"/><path class="e" d="M100.075 83.739a3.119 3.119 0 11-3.043 3.119 3.081 3.081 0 013.043-3.119z"/><path class="e" d="M69.268 107.131a6.043 6.043 0 11-5.894 6.041 5.97 5.97 0 015.894-6.041z"/><path class="e" d="M15.836 93.874a4.874 4.874 0 11-4.754 4.873 4.814 4.814 0 014.754-4.873z"/><path class="e" d="M111.48 101.086a4.874 4.874 0 11-4.754 4.873 4.814 4.814 0 014.754-4.873z"/><path class="e" d="M122.892 116.483a2.145 2.145 0 11-2.092 2.145 2.118 2.118 0 012.092-2.145z"/><path class="e" d="M158.64 94.849a4.874 4.874 0 11-4.754 4.873 4.815 4.815 0 014.754-4.873z"/><path class="e" d="M174.614 104.594a4.874 4.874 0 11-4.754 4.873 4.814 4.814 0 014.754-4.873z"/><path class="e" d="M251.438 123.694a5.459 5.459 0 11-5.324 5.458 5.392 5.392 0 015.324-5.458z"/><path class="e" d="M244.78 132.465a2.145 2.145 0 11-2.092 2.143 2.118 2.118 0 012.092-2.143z"/><path class="e" d="M205.798 132.465a2.925 2.925 0 11-2.852 2.924 2.888 2.888 0 012.852-2.924z"/><path class="e" d="M178.416 124.084a2.925 2.925 0 11-2.852 2.924 2.889 2.889 0 012.852-2.924z"/><path class="e" d="M178.037 144.548a2.925 2.925 0 11-2.853 2.925 2.89 2.89 0 012.853-2.925z"/><path class="e" d="M156.739 117.457a2.534 2.534 0 11-2.472 2.534 2.5 2.5 0 012.472-2.534z"/><path class="e" d="M128.596 120.771a2.535 2.535 0 11-2.472 2.534 2.5 2.5 0 012.472-2.534z"/><path class="e" d="M69.268 120.575a3.12 3.12 0 11-3.041 3.119 3.081 3.081 0 013.041-3.119z"/><path class="e" d="M68.889 140.456a4.874 4.874 0 11-4.755 4.873 4.814 4.814 0 014.755-4.873z"/><path class="e" d="M36.754 149.227a3.7 3.7 0 11-3.613 3.7 3.658 3.658 0 013.613-3.7z"/><path class="e" d="M63.757 157.217a6.044 6.044 0 11-5.9 6.041 5.97 5.97 0 015.894-6.041z"/><path class="e" d="M117.187 165.403a4.874 4.874 0 11-4.754 4.873 4.814 4.814 0 014.754-4.873z"/><path class="e" d="M4.236 160.336a3.7 3.7 0 11-3.613 3.7 3.659 3.659 0 013.613-3.7z"/><path class="e" d="M6.138 172.419a5.264 5.264 0 11-5.134 5.264 5.2 5.2 0 015.134-5.264z"/><path class="e" d="M134.11 163.258a3.51 3.51 0 11-3.422 3.509 3.466 3.466 0 013.422-3.509z"/><path class="e" d="M141.907 179.63a1.755 1.755 0 11-1.711 1.755 1.734 1.734 0 011.711-1.755z"/><path class="e" d="M187.734 153.708a2.925 2.925 0 11-2.852 2.924 2.888 2.888 0 012.852-2.924z"/><path class="e" d="M196.29 160.53a2.535 2.535 0 11-2.471 2.534 2.5 2.5 0 012.471-2.534z"/><path class="e" d="M213.786 178.851a3.51 3.51 0 11-3.424 3.509 3.466 3.466 0 013.424-3.509z"/><path class="e" d="M232.23 167.547a4.094 4.094 0 11-3.994 4.092 4.043 4.043 0 013.994-4.092z"/><path class="e" d="M292.89 156.048a5.459 5.459 0 11-5.324 5.456 5.392 5.392 0 015.324-5.456z"/><path class="e" d="M285.662 149.614a4.094 4.094 0 11-3.994 4.092 4.044 4.044 0 013.994-4.092z"/><path class="e" d="M272.733 190.35a4.094 4.094 0 11-3.994 4.094 4.044 4.044 0 013.994-4.094z"/><path class="e" d="M238.505 208.867a3.509 3.509 0 11-3.422 3.507 3.466 3.466 0 013.422-3.507z"/><path class="e" d="M170.43 187.427a4.874 4.874 0 11-4.754 4.873 4.814 4.814 0 014.754-4.873z"/><path class="e" d="M162.824 192.684a2.925 2.925 0 11-2.852 2.924 2.89 2.89 0 012.852-2.924z"/><path class="e" d="M97.792 203.213a3.51 3.51 0 11-3.422 3.509 3.467 3.467 0 013.422-3.509z"/><path class="e" d="M20.78 204.188a6.044 6.044 0 11-5.9 6.043 5.971 5.971 0 015.9-6.043z"/><path class="e" d="M61.092 218.027a4.289 4.289 0 11-4.183 4.286 4.237 4.237 0 014.183-4.286z"/><path class="e" d="M121.941 213.544a3.119 3.119 0 11-3.043 3.118 3.082 3.082 0 013.043-3.118z"/><path class="e" d="M133.539 205.943a6.044 6.044 0 11-5.894 6.041 5.97 5.97 0 015.894-6.041z"/><path class="e" d="M93.989 237.906a6.044 6.044 0 11-5.9 6.041 5.97 5.97 0 015.9-6.041z"/><path class="e" d="M136.392 245.894a3.509 3.509 0 11-3.423 3.507 3.465 3.465 0 013.423-3.507z"/><path class="e" d="M132.97 229.135a3.9 3.9 0 11-3.8 3.9 3.852 3.852 0 013.8-3.9z"/><path class="e" d="M41.697 242.973a3.9 3.9 0 11-3.8 3.9 3.852 3.852 0 013.8-3.9z"/><path class="e" d="M172.522 207.697a4.874 4.874 0 11-4.754 4.873 4.814 4.814 0 014.754-4.873z"/><path class="e" d="M183.184 217.229a7.932 7.932 0 11-7.736 7.929 7.835 7.835 0 017.736-7.929z"/><path class="e" d="M195.004 222.728a2.925 2.925 0 11-2.852 2.924 2.887 2.887 0 012.852-2.924z"/><path class="e" d="M231.328 258.751a5.225 5.225 0 11-5.1 5.223 5.16 5.16 0 015.1-5.223z"/><path class="e" d="M227.017 270.08a4.2 4.2 0 11-4.1 4.2 4.151 4.151 0 014.1-4.2z"/><path class="e" d="M174.438 265.369a4.792 4.792 0 11-4.674 4.79 4.732 4.732 0 014.674-4.79z"/><path class="e" d="M171.077 237.693a3.119 3.119 0 11-3.042 3.118 3.081 3.081 0 013.042-3.118z"/><path class="e" d="M134.009 284.517a3.119 3.119 0 11-3.043 3.119 3.082 3.082 0 013.043-3.119z"/><path class="e" d="M131.506 279.66a1.946 1.946 0 11-1.9 1.945 1.923 1.923 0 011.9-1.945z"/><path class="e" d="M78.887 262.904a8.491 8.491 0 11-8.283 8.489 8.388 8.388 0 018.283-8.489z"/><path class="f" d="M98.616 11.111a5.385 5.385 0 11-5.252 5.383 5.319 5.319 0 015.252-5.383z"/><path class="f" d="M144.386 44.181a6.153 6.153 0 11-6 6.152 6.078 6.078 0 016-6.152z"/><path class="f" d="M175.149 2.652a6.539 6.539 0 11-6.378 6.537 6.459 6.459 0 016.378-6.537z"/><path class="f" d="M174.023 48.217a4.808 4.808 0 11-4.689 4.807 4.75 4.75 0 014.689-4.807z"/><path class="f" d="M209.475 26.876a3.846 3.846 0 11-3.751 3.844 3.8 3.8 0 013.751-3.844z"/><path class="f" d="M201.973 61.868a4.424 4.424 0 11-4.314 4.421 4.369 4.369 0 014.314-4.421z"/><path class="f" d="M213.04 71.867a3.846 3.846 0 11-3.753 3.845 3.8 3.8 0 013.753-3.845z"/><path class="f" d="M131.256 71.674a2.115 2.115 0 11-2.064 2.115 2.09 2.09 0 012.064-2.115z"/><path class="f" d="M157.892 84.171a4.808 4.808 0 11-4.691 4.807 4.749 4.749 0 014.691-4.807z"/><path class="f" d="M262.748 86.478a3.846 3.846 0 11-3.751 3.845 3.8 3.8 0 013.751-3.845z"/><path class="f" d="M271.376 71.482a5.77 5.77 0 11-5.627 5.768 5.7 5.7 0 015.627-5.768z"/><path class="f" d="M109.195 65.809a5.77 5.77 0 11-5.627 5.768 5.7 5.7 0 015.627-5.768z"/><path class="f" d="M74.792 56.649a4.2 4.2 0 11-4.1 4.2 4.149 4.149 0 014.1-4.2z"/><path class="f" d="M45.743 69.906a4.2 4.2 0 11-4.1 4.2 4.149 4.149 0 014.1-4.2z"/><path class="f" d="M16.272 85.119a4.2 4.2 0 11-4.1 4.2 4.149 4.149 0 014.1-4.2z"/><path class="f" d="M22.421 89.903a2.676 2.676 0 11-2.611 2.675 2.644 2.644 0 012.611-2.675z"/><path class="f" d="M86.03 107.289a2.242 2.242 0 11-2.186 2.24 2.214 2.214 0 012.186-2.24z"/><path class="f" d="M80.306 110.112a4.2 4.2 0 11-4.1 4.2 4.148 4.148 0 014.1-4.2z"/><path class="f" d="M60.799 101.856a3.545 3.545 0 11-3.459 3.544 3.5 3.5 0 013.459-3.544z"/><path class="f" d="M149.215 90.987a4.852 4.852 0 11-4.732 4.851 4.793 4.793 0 014.732-4.851z"/><path class="f" d="M175.725 114.457a4.2 4.2 0 11-4.1 4.2 4.149 4.149 0 014.1-4.2z"/><path class="f" d="M219.852 101.336a6.342 6.342 0 11-6.186 6.344 6.264 6.264 0 016.185-6.34z"/><path class="f" d="M258.2 116.849a4.2 4.2 0 11-4.1 4.2 4.149 4.149 0 014.1-4.2z"/><path class="f" d="M259.143 135.501a2.855 2.855 0 11-2.784 2.853 2.819 2.819 0 012.784-2.853z"/><path class="f" d="M204.798 138.488a8.527 8.527 0 11-8.315 8.524 8.422 8.422 0 018.315-8.524z"/><path class="f" d="M166.633 156.319a6.342 6.342 0 11-6.187 6.34 6.264 6.264 0 016.187-6.34z"/><path class="f" d="M143.798 130.813a3.846 3.846 0 11-3.751 3.845 3.8 3.8 0 013.751-3.845z"/><path class="f" d="M112.568 142.41a6.342 6.342 0 11-6.185 6.341 6.263 6.263 0 016.185-6.341z"/><path class="f" d="M72.278 127.417a6.342 6.342 0 11-6.185 6.34 6.264 6.264 0 016.185-6.34z"/><path class="f" d="M41.534 118.286a8.081 8.081 0 11-7.882 8.079 7.983 7.983 0 017.882-8.079z"/><path class="f" d="M43.411 134.888a4.2 4.2 0 11-4.1 4.2 4.148 4.148 0 014.1-4.2z"/><path class="f" d="M46.168 144.232a3.548 3.548 0 11-3.46 3.547 3.5 3.5 0 013.46-3.547z"/><path class="f" d="M12.879 162.922a5.5 5.5 0 11-5.368 5.5 5.437 5.437 0 015.368-5.5z"/><path class="f" d="M70.976 172.703a4.2 4.2 0 11-4.1 4.2 4.147 4.147 0 014.1-4.2z"/><path class="f" d="M75.217 155.533a4.2 4.2 0 11-4.1 4.2 4.149 4.149 0 014.1-4.2z"/><path class="f" d="M38.746 179.225a3.763 3.763 0 11-3.67 3.762 3.716 3.716 0 013.67-3.762z"/><path class="f" d="M130.556 171.4a3.763 3.763 0 11-3.669 3.762 3.716 3.716 0 013.669-3.762z"/><path class="f" d="M282.588 157.707a4.2 4.2 0 11-4.1 4.2 4.149 4.149 0 014.1-4.2z"/><path class="f" d="M208.161 185.958a5.07 5.07 0 11-4.945 5.068 5.008 5.008 0 014.945-5.068z"/><path class="f" d="M277.313 198.252a8.526 8.526 0 11-8.315 8.523 8.421 8.421 0 018.315-8.523z"/><path class="f" d="M230.423 214.434a5.069 5.069 0 11-4.943 5.068 5.007 5.007 0 014.943-5.068z"/><path class="f" d="M156.849 187.48a4.2 4.2 0 11-4.1 4.2 4.149 4.149 0 014.1-4.2z"/><path class="f" d="M46.38 184.872a5.5 5.5 0 11-5.368 5.5 5.436 5.436 0 015.368-5.5z"/><path class="f" d="M79.488 207.607a6.342 6.342 0 11-6.187 6.341 6.265 6.265 0 016.187-6.341z"/><path class="f" d="M96.207 228.337a4.418 4.418 0 11-4.308 4.416 4.363 4.363 0 014.308-4.416z"/><path class="f" d="M82.309 233.713a4.418 4.418 0 11-4.308 4.416 4.364 4.364 0 014.308-4.416z"/><path class="f" d="M118.258 246.158a4.417 4.417 0 11-4.308 4.416 4.363 4.363 0 014.308-4.416z"/><path class="f" d="M127.194 236.946a6.342 6.342 0 11-6.185 6.341 6.265 6.265 0 016.185-6.341z"/><path class="f" d="M51.288 245.639a6.342 6.342 0 11-6.187 6.341 6.264 6.264 0 016.187-6.341z"/><path class="f" d="M176.992 233.12a2.676 2.676 0 11-2.611 2.675 2.644 2.644 0 012.611-2.675z"/><path class="f" d="M242.085 217.036a6.374 6.374 0 11-6.216 6.372 6.3 6.3 0 016.216-6.372z"/><path class="f" d="M183.566 256.158a4.415 4.415 0 11-4.307 4.413 4.36 4.36 0 014.307-4.413z"/><path class="f" d="M222.578 257.813a3.194 3.194 0 11-3.115 3.193 3.154 3.154 0 013.115-3.193z"/><path class="f" d="M142.037 273.978a5.6 5.6 0 11-5.465 5.6 5.536 5.536 0 015.465-5.6z"/><path class="f" d="M190.379 266.371a5.6 5.6 0 11-5.465 5.6 5.536 5.536 0 015.465-5.6z"/><path class="g" d="M157.098.885a8.46 8.46 0 11-8.252 8.458 8.357 8.357 0 018.252-8.458z"/><path class="g" d="M235.657 32.372a8.46 8.46 0 11-8.252 8.458 8.358 8.358 0 018.252-8.458z"/><path class="g" d="M200.545 10.228a2.264 2.264 0 11-2.209 2.264 2.236 2.236 0 012.209-2.264z"/><path class="g" d="M209.322 14.051a2.265 2.265 0 11-2.209 2.264 2.236 2.236 0 012.209-2.264z"/><path class="g" d="M143.274 22.597a2.265 2.265 0 11-2.208 2.265 2.238 2.238 0 012.208-2.265z"/><path class="g" d="M168.288 24.396a2.265 2.265 0 11-2.209 2.265 2.238 2.238 0 012.209-2.265z"/><path class="g" d="M205.812 33.98a1.9 1.9 0 11-1.856 1.9 1.879 1.879 0 011.856-1.9z"/><path class="g" d="M116.722 17.199a2.265 2.265 0 11-2.209 2.264 2.238 2.238 0 012.209-2.264z"/><path class="g" d="M113.431 21.248a2.265 2.265 0 11-2.209 2.264 2.238 2.238 0 012.209-2.264z"/><path class="g" d="M137.568 13.826a3.615 3.615 0 11-3.526 3.613 3.57 3.57 0 013.526-3.613z"/><path class="g" d="M135.813 21.922a3.615 3.615 0 11-3.526 3.615 3.571 3.571 0 013.526-3.615z"/><path class="g" d="M161.706 19.673a3.615 3.615 0 11-3.526 3.615 3.571 3.571 0 013.526-3.615z"/><path class="g" d="M104.215 27.994a3.615 3.615 0 11-3.526 3.615 3.572 3.572 0 013.526-3.615z"/><path class="g" d="M91.707 19.673a3.615 3.615 0 11-3.526 3.615 3.571 3.571 0 013.526-3.615z"/><path class="g" d="M193.521 33.618a2.265 2.265 0 11-2.209 2.264 2.237 2.237 0 012.209-2.264z"/><path class="g" d="M192.865 23.495a2.94 2.94 0 11-2.868 2.94 2.9 2.9 0 012.868-2.94z"/><path class="g" d="M158.634 34.293a2.94 2.94 0 11-2.868 2.938 2.9 2.9 0 012.868-2.938z"/><path class="g" d="M213.053 50.71a3.841 3.841 0 11-3.745 3.839 3.794 3.794 0 013.745-3.839z"/><path class="g" d="M225.56 60.831a3.84 3.84 0 11-3.745 3.838 3.793 3.793 0 013.745-3.838z"/><path class="g" d="M120.453 2.13a3.84 3.84 0 11-3.745 3.835 3.793 3.793 0 013.745-3.839z"/><path class="g" d="M112.772 44.413a3.84 3.84 0 11-3.745 3.839 3.793 3.793 0 013.745-3.839z"/><path class="g" d="M208.007 68.476a2.265 2.265 0 11-2.209 2.265 2.237 2.237 0 012.209-2.265z"/><path class="g" d="M169.825 36.992a5.19 5.19 0 11-5.061 5.187 5.126 5.126 0 015.061-5.187z"/><path class="g" d="M116.283 52.734a5.19 5.19 0 11-5.061 5.189 5.127 5.127 0 015.061-5.189z"/><path class="g" d="M221.391 28.669a5.19 5.19 0 11-5.062 5.189 5.126 5.126 0 015.062-5.189z"/><path class="g" d="M154.903 49.808a4.74 4.74 0 11-4.623 4.739 4.683 4.683 0 014.623-4.739z"/><path class="g" d="M109.92 4.828a6.315 6.315 0 11-6.159 6.313 6.238 6.238 0 016.159-6.313z"/><path class="g" d="M184.089 13.601a6.314 6.314 0 11-6.159 6.312 6.237 6.237 0 016.159-6.312z"/><path class="g" d="M103.338 36.317a6.314 6.314 0 11-6.159 6.312 6.237 6.237 0 016.159-6.312z"/><path class="g" d="M82.491 34.743a4.74 4.74 0 11-4.623 4.738 4.681 4.681 0 014.623-4.738z"/><path class="g" d="M91.049 50.036a4.74 4.74 0 11-4.623 4.739 4.683 4.683 0 014.623-4.739z"/><path class="g" d="M73.494 34.968a3.615 3.615 0 11-3.525 3.613 3.57 3.57 0 013.525-3.613z"/><path class="g" d="M56.599 60.387A3.615 3.615 0 1153.073 64a3.571 3.571 0 013.526-3.613z"/><path class="g" d="M61.864 43.633a2.821 2.821 0 11-2.752 2.821 2.787 2.787 0 012.752-2.821z"/><path class="g" d="M30.926 56.784a4.29 4.29 0 11-4.185 4.288 4.237 4.237 0 014.185-4.288z"/><path class="g" d="M76.128 43.289a6.314 6.314 0 11-6.159 6.313 6.238 6.238 0 016.159-6.313z"/><path class="g" d="M43.872 44.413a5.64 5.64 0 11-5.5 5.639 5.571 5.571 0 015.5-5.639z"/><path class="g" d="M96.754 68.704a3.615 3.615 0 11-3.525 3.615 3.571 3.571 0 013.525-3.615z"/><path class="g" d="M82.931 70.278a3.615 3.615 0 11-3.526 3.614 3.571 3.571 0 013.526-3.614z"/><path class="g" d="M28.072 84.223a4.065 4.065 0 11-3.964 4.064 4.016 4.016 0 013.964-4.064z"/><path class="g" d="M42.555 78.043a2.822 2.822 0 11-2.753 2.821 2.788 2.788 0 012.753-2.821z"/><path class="g" d="M34.873 92.435a2.822 2.822 0 11-2.75 2.821 2.787 2.787 0 012.75-2.821z"/><path class="g" d="M148.1 83.217a3.5 3.5 0 11-3.41 3.5 3.452 3.452 0 013.41-3.5z"/><path class="g" d="M102.239 75.345a3.5 3.5 0 11-3.41 3.5 3.453 3.453 0 013.41-3.5z"/><path class="g" d="M94.121 91.089a3.5 3.5 0 11-3.41 3.5 3.454 3.454 0 013.41-3.5z"/><path class="g" d="M56.379 68.619a4.153 4.153 0 11-4.05 4.153 4.1 4.1 0 014.05-4.153z"/><path class="g" d="M52.649 77.251a6.314 6.314 0 11-6.16 6.312 6.236 6.236 0 016.16-6.312z"/><path class="g" d="M75.469 77.476a8.339 8.339 0 11-8.134 8.336 8.236 8.236 0 018.134-8.336z"/><path class="g" d="M110.139 79.05a5.19 5.19 0 11-5.061 5.187 5.126 5.126 0 015.061-5.187z"/><path class="g" d="M136.91 89.62a6.315 6.315 0 11-6.159 6.314 6.238 6.238 0 016.159-6.313z"/><path class="g" d="M184.966 77.476a4.74 4.74 0 11-4.623 4.737 4.681 4.681 0 014.623-4.737z"/><path class="g" d="M204.277 79.499a3.84 3.84 0 11-3.746 3.838 3.793 3.793 0 013.746-3.838z"/><path class="g" d="M182.113 89.171a8.34 8.34 0 11-8.133 8.337 8.239 8.239 0 018.133-8.337z"/><path class="g" d="M238.945 76.351a4.29 4.29 0 11-4.183 4.288 4.238 4.238 0 014.183-4.288z"/><path class="g" d="M248.82 70.503a5.64 5.64 0 11-5.5 5.639 5.571 5.571 0 015.5-5.639z"/><path class="g" d="M223.805 70.053a5.19 5.19 0 11-5.062 5.189 5.127 5.127 0 015.062-5.189z"/><path class="g" d="M244.432 64.21a2.265 2.265 0 11-2.209 2.265 2.237 2.237 0 012.209-2.265z"/><path class="g" d="M249.698 55.66a2.265 2.265 0 11-2.209 2.264 2.237 2.237 0 012.209-2.264z"/><path class="g" d="M258.474 68.476a2.94 2.94 0 11-2.866 2.94 2.9 2.9 0 012.866-2.94z"/><path class="g" d="M195.279 93.445a2.939 2.939 0 11-2.868 2.938 2.9 2.9 0 012.868-2.938z"/><path class="g" d="M210.2 95.469a2.939 2.939 0 11-2.866 2.938 2.9 2.9 0 012.866-2.938z"/><path class="g" d="M232.582 102.216a3.84 3.84 0 11-3.745 3.838 3.793 3.793 0 013.745-3.838z"/><path class="g" d="M258.256 94.57a3.165 3.165 0 11-3.087 3.163 3.125 3.125 0 013.087-3.163z"/><path class="g" d="M154.245 104.465a2.265 2.265 0 11-2.209 2.265 2.238 2.238 0 012.209-2.265z"/><path class="g" d="M264.62 99.292a5.19 5.19 0 11-5.062 5.187 5.126 5.126 0 015.063-5.187z"/><path class="g" d="M279.542 81.524a4.965 4.965 0 11-4.844 4.964 4.9 4.9 0 014.844-4.964z"/><path class="g" d="M289.635 105.811a2.265 2.265 0 11-2.209 2.264 2.238 2.238 0 012.209-2.264z"/><path class="g" d="M240.921 105.14a3.615 3.615 0 11-3.526 3.615 3.571 3.571 0 013.526-3.615z"/><path class="g" d="M91.268 98.96a3.5 3.5 0 11-3.41 3.5 3.453 3.453 0 013.41-3.5z"/><path class="g" d="M100.046 101.884a3.5 3.5 0 11-3.41 3.5 3.454 3.454 0 013.41-3.5z"/><path class="g" d="M68.452 99.185a3.5 3.5 0 11-3.41 3.5 3.454 3.454 0 013.41-3.5z"/><path class="g" d="M34.216 99.742a3.615 3.615 0 11-3.526 3.613 3.57 3.57 0 013.526-3.613z"/><path class="g" d="M8.323 102.216a5.415 5.415 0 11-5.28 5.414 5.348 5.348 0 015.28-5.414z"/><path class="g" d="M10.235 129.799a6.824 6.824 0 11-6.654 6.823 6.741 6.741 0 016.654-6.823z"/><path class="g" d="M31.551 107.572a6.314 6.314 0 11-6.16 6.313 6.237 6.237 0 016.16-6.313z"/><path class="g" d="M21.547 113.912a3.5 3.5 0 11-3.41 3.5 3.454 3.454 0 013.41-3.5z"/><path class="g" d="M57 112.13a3.5 3.5 0 11-3.41 3.5 3.453 3.453 0 013.41-3.5z"/><path class="g" d="M53.648 105.019a2.821 2.821 0 11-2.752 2.821 2.787 2.787 0 012.752-2.821z"/><path class="g" d="M14.279 112.821a2.822 2.822 0 11-2.752 2.821 2.787 2.787 0 012.752-2.821z"/><path class="g" d="M20.37 131.325a2.822 2.822 0 11-2.752 2.821 2.787 2.787 0 012.752-2.821z"/><path class="g" d="M26.243 129.318a2.822 2.822 0 11-2.752 2.821 2.787 2.787 0 012.752-2.821z"/><path class="g" d="M2.752 141.133A2.822 2.822 0 110 143.954a2.786 2.786 0 012.752-2.821z"/><path class="g" d="M75.548 117.469a2.089 2.089 0 11-2.039 2.089 2.063 2.063 0 012.039-2.089z"/><path class="g" d="M86.717 117.688a3.5 3.5 0 11-3.41 3.5 3.453 3.453 0 013.41-3.5z"/><path class="g" d="M83.317 129.034a4.064 4.064 0 11-3.964 4.063 4.014 4.014 0 013.964-4.063z"/><path class="g" d="M94.627 138.396a4.065 4.065 0 11-3.964 4.063 4.014 4.014 0 013.964-4.063z"/><path class="g" d="M97.515 132.183a2.089 2.089 0 11-2.037 2.089 2.065 2.065 0 012.037-2.089z"/><path class="g" d="M52.867 132.406a4.7 4.7 0 11-4.588 4.7 4.647 4.647 0 014.588-4.7z"/><path class="g" d="M138.918 110.761a3.5 3.5 0 11-3.41 3.5 3.454 3.454 0 013.41-3.5z"/><path class="g" d="M136.086 132.799a2.822 2.822 0 11-2.752 2.821 2.787 2.787 0 012.752-2.821z"/><path class="g" d="M144.258 138.914a5.76 5.76 0 11-5.618 5.759 5.69 5.69 0 015.618-5.759z"/><path class="g" d="M158.714 138.914a5.76 5.76 0 11-5.618 5.759 5.69 5.69 0 015.618-5.759z"/><path class="g" d="M163.006 106.041a5.76 5.76 0 11-5.618 5.758 5.69 5.69 0 015.618-5.758z"/><path class="g" d="M85.759 157.111a6.314 6.314 0 11-6.159 6.312 6.237 6.237 0 016.159-6.312z"/><path class="g" d="M152.841 157.898a5.76 5.76 0 11-5.618 5.759 5.69 5.69 0 015.618-5.759z"/><path class="g" d="M56.847 144.239a5.76 5.76 0 11-5.618 5.758 5.691 5.691 0 015.618-5.758z"/><path class="g" d="M38.715 143.601a2.822 2.822 0 11-2.752 2.821 2.787 2.787 0 012.752-2.821z"/><path class="g" d="M71.808 150.767a2.264 2.264 0 11-2.209 2.264 2.237 2.237 0 012.209-2.264z"/><path class="g" d="M107.658 155.678a5.19 5.19 0 11-5.061 5.189 5.127 5.127 0 015.061-5.189z"/><path class="g" d="M130.257 155.678a3.5 3.5 0 11-3.41 3.5 3.454 3.454 0 013.41-3.5z"/><path class="g" d="M125.74 164.016a3.5 3.5 0 11-3.41 3.5 3.454 3.454 0 013.41-3.5z"/><path class="g" d="M143.543 163.589a2.822 2.822 0 11-2.752 2.822 2.788 2.788 0 012.752-2.822z"/><path class="g" d="M237.767 120.71a6.37 6.37 0 11-6.212 6.368 6.293 6.293 0 016.212-6.368z"/><path class="g" d="M262.071 142.186a8.34 8.34 0 11-8.135 8.337 8.239 8.239 0 018.135-8.337z"/><path class="g" d="M196.259 130.259a4.74 4.74 0 11-4.623 4.739 4.682 4.682 0 014.623-4.739z"/><path class="g" d="M276.217 121.925a4.74 4.74 0 11-4.623 4.739 4.681 4.681 0 014.623-4.739z"/><path class="g" d="M198.856 114.41a4.35 4.35 0 11-4.244 4.348 4.3 4.3 0 014.244-4.348z"/><path class="g" d="M209.697 112.327a4.349 4.349 0 11-4.244 4.348 4.3 4.3 0 014.244-4.348z"/><path class="g" d="M230.702 139.644a4.35 4.35 0 11-4.242 4.349 4.3 4.3 0 014.242-4.349z"/><path class="g" d="M197.385 124.375a2.265 2.265 0 11-2.208 2.264 2.236 2.236 0 012.208-2.264z"/><path class="g" d="M263.113 113.03a2.265 2.265 0 11-2.209 2.265 2.238 2.238 0 012.209-2.265z"/><path class="g" d="M251.82 143.588a2.265 2.265 0 11-2.209 2.265 2.238 2.238 0 012.209-2.265z"/><path class="g" d="M218.618 163.036a2.265 2.265 0 11-2.209 2.264 2.235 2.235 0 012.209-2.264z"/><path class="g" d="M227.909 131.827a3.5 3.5 0 11-3.41 3.5 3.454 3.454 0 013.41-3.5z"/><path class="g" d="M224.747 123.725a3.5 3.5 0 11-3.41 3.5 3.454 3.454 0 013.41-3.5z"/><path class="g" d="M228.556 111.178a2.265 2.265 0 11-2.209 2.265 2.237 2.237 0 012.209-2.265z"/><path class="g" d="M216.539 151.28a3.5 3.5 0 11-3.41 3.5 3.453 3.453 0 013.41-3.5z"/><path class="g" d="M251.733 136.735a2.822 2.822 0 11-2.752 2.821 2.787 2.787 0 012.752-2.821z"/><path class="g" d="M275.115 150.336a3.971 3.971 0 11-3.873 3.97 3.923 3.923 0 013.873-3.97z"/><path class="g" d="M290.846 131.972a5.992 5.992 0 11-5.844 5.991 5.919 5.919 0 015.844-5.991z"/><path class="g" d="M293.412 123.02a3.971 3.971 0 11-3.875 3.969 3.922 3.922 0 013.875-3.969z"/><path class="g" d="M25.957 143.878a2.822 2.822 0 11-2.752 2.821 2.787 2.787 0 012.752-2.821z"/><path class="g" d="M24.369 172.203a2.822 2.822 0 11-2.753 2.821 2.786 2.786 0 012.753-2.821z"/><path class="g" d="M7.886 183.421a3.318 3.318 0 11-3.237 3.318 3.278 3.278 0 013.237-3.318z"/><path class="g" d="M26.125 150.43a5.415 5.415 0 11-5.281 5.414 5.349 5.349 0 015.281-5.414z"/><path class="g" d="M49.834 167.856a8.266 8.266 0 11-8.061 8.264 8.164 8.164 0 018.061-8.264z"/><path class="g" d="M17.359 187.477a5.415 5.415 0 11-5.281 5.414 5.348 5.348 0 015.281-5.414z"/><path class="g" d="M34.634 187.477a5.415 5.415 0 11-5.281 5.414 5.349 5.349 0 015.281-5.414z"/><path class="g" d="M67.057 188.022a5.415 5.415 0 11-5.281 5.414 5.349 5.349 0 015.281-5.414z"/><path class="g" d="M56.54 192.085a3.615 3.615 0 11-3.525 3.615 3.571 3.571 0 013.525-3.615z"/><path class="g" d="M81.456 170.709a4.065 4.065 0 11-3.964 4.064 4.015 4.015 0 013.964-4.064z"/><path class="g" d="M106.546 167.665a5.76 5.76 0 11-5.618 5.759 5.691 5.691 0 015.618-5.759z"/><path class="g" d="M132.946 179.88a8.067 8.067 0 11-7.868 8.064 7.968 7.968 0 017.868-8.064z"/><path class="g" d="M122.98 173.446a2.822 2.822 0 11-2.752 2.821 2.787 2.787 0 012.752-2.821z"/><path class="g" d="M151.784 170.929a3.5 3.5 0 11-3.41 3.5 3.454 3.454 0 013.41-3.5z"/><path class="g" d="M169.254 169.826a3.118 3.118 0 11-3.041 3.116 3.079 3.079 0 013.041-3.116z"/><path class="g" d="M198.191 185.705a2.822 2.822 0 11-2.752 2.821 2.787 2.787 0 012.752-2.821z"/><path class="g" d="M119.839 188.045a4.089 4.089 0 11-3.988 4.088 4.039 4.039 0 013.988-4.088z"/><path class="g" d="M201.961 164.076a4.088 4.088 0 11-3.989 4.086 4.038 4.038 0 013.989-4.086z"/><path class="g" d="M227.328 155.122a5.992 5.992 0 11-5.844 5.99 5.92 5.92 0 015.844-5.99z"/><path class="g" d="M214.004 167.8a4.35 4.35 0 11-4.242 4.349 4.3 4.3 0 014.242-4.349z"/><path class="g" d="M244.303 170.252a4.35 4.35 0 11-4.242 4.349 4.3 4.3 0 014.242-4.349z"/><path class="g" d="M270.614 170.526a4.349 4.349 0 11-4.244 4.348 4.3 4.3 0 014.244-4.348z"/><path class="g" d="M288.295 180.971a3.5 3.5 0 11-3.41 3.5 3.454 3.454 0 013.41-3.5z"/><path class="g" d="M258.917 182.243a4.35 4.35 0 11-4.242 4.349 4.3 4.3 0 014.242-4.349z"/><path class="g" d="M253.058 190.92a3.971 3.971 0 11-3.873 3.969 3.921 3.921 0 013.873-3.969z"/><path class="g" d="M229.761 177.912a2.265 2.265 0 11-2.209 2.264 2.237 2.237 0 012.209-2.264z"/><path class="g" d="M219.53 184.305a3.971 3.971 0 11-3.875 3.97 3.921 3.921 0 013.875-3.97z"/><path class="g" d="M217.229 198.163a5.992 5.992 0 11-5.844 5.99 5.918 5.918 0 015.844-5.99z"/><path class="g" d="M259.029 203.028a7.407 7.407 0 11-7.224 7.4 7.315 7.315 0 017.224-7.4z"/><path class="g" d="M200.184 205.392a4.35 4.35 0 11-4.242 4.349 4.3 4.3 0 014.242-4.349z"/><path class="g" d="M208.587 206.327a3.119 3.119 0 11-3.041 3.118 3.08 3.08 0 013.041-3.118z"/><path class="g" d="M194.205 216.487a2.822 2.822 0 11-2.752 2.821 2.787 2.787 0 012.752-2.821z"/><path class="g" d="M220.588 218.827a3.5 3.5 0 11-3.418 3.5 3.461 3.461 0 013.418-3.5z"/><path class="g" d="M239.782 199.127a4.35 4.35 0 11-4.242 4.348 4.3 4.3 0 014.242-4.348z"/><path class="g" d="M254.931 223.73a4.807 4.807 0 11-4.687 4.805 4.748 4.748 0 014.688-4.805z"/><path class="g" d="M265.03 229.363a4.35 4.35 0 11-4.244 4.349 4.3 4.3 0 014.244-4.349z"/><path class="g" d="M272.192 222.25a3.971 3.971 0 11-3.873 3.97 3.923 3.923 0 013.873-3.97z"/><path class="g" d="M229.986 226.219a5.992 5.992 0 11-5.844 5.99 5.919 5.919 0 015.844-5.99z"/><path class="g" d="M246.681 229.606a3.971 3.971 0 11-3.873 3.97 3.923 3.923 0 013.873-3.97z"/><path class="g" d="M218.997 232.992a3.5 3.5 0 11-3.417 3.5 3.46 3.46 0 013.417-3.5z"/><path class="g" d="M237.024 243.918a3.119 3.119 0 11-3.041 3.118 3.08 3.08 0 013.041-3.118z"/><path class="g" d="M201.145 240.105a3.118 3.118 0 11-3.041 3.116 3.08 3.08 0 013.041-3.116z"/><path class="g" d="M161.814 236.688a3.266 3.266 0 11-3.187 3.266 3.226 3.226 0 013.187-3.266z"/><path class="g" d="M160.453 229.562a2.822 2.822 0 11-2.752 2.821 2.787 2.787 0 012.752-2.821z"/><path class="g" d="M166.3 252.444a2.822 2.822 0 11-2.752 2.821 2.787 2.787 0 012.752-2.821z"/><path class="g" d="M210.548 226.726a4.808 4.808 0 11-4.689 4.807 4.749 4.749 0 014.689-4.807z"/><path class="g" d="M184.54 236.261a6.574 6.574 0 11-6.412 6.572 6.493 6.493 0 016.412-6.572z"/><path class="g" d="M156.068 196.403a4.349 4.349 0 11-4.244 4.348 4.3 4.3 0 014.244-4.348z"/><path class="g" d="M253.868 248.159a4.35 4.35 0 11-4.242 4.348 4.3 4.3 0 014.242-4.348z"/><path class="g" d="M246.161 253.423a4.807 4.807 0 11-4.689 4.805 4.748 4.748 0 014.689-4.805z"/><path class="g" d="M122.71 207.225a2.822 2.822 0 11-2.752 2.821 2.787 2.787 0 012.752-2.821z"/><path class="g" d="M136.879 196.295a3.971 3.971 0 11-3.873 3.97 3.923 3.923 0 013.873-3.97z"/><path class="g" d="M143.064 234.875a5.415 5.415 0 11-5.281 5.412 5.347 5.347 0 015.281-5.412z"/><path class="g" d="M151.979 238.743a3.119 3.119 0 11-3.041 3.118 3.08 3.08 0 013.041-3.118z"/><path class="g" d="M142.424 253.471a5.76 5.76 0 11-5.618 5.759 5.69 5.69 0 015.618-5.759z"/><path class="g" d="M125.98 251.865a3.971 3.971 0 11-3.873 3.97 3.923 3.923 0 013.873-3.97z"/><path class="g" d="M118.462 255.985a2.821 2.821 0 11-2.752 2.821 2.788 2.788 0 012.752-2.821z"/><path class="g" d="M83.425 221.329a5.76 5.76 0 11-5.618 5.758 5.69 5.69 0 015.618-5.758z"/><path class="g" d="M75.877 199.588a4.065 4.065 0 11-3.966 4.063 4.015 4.015 0 013.966-4.063z"/><path class="g" d="M100.433 249.93a5.76 5.76 0 11-5.618 5.759 5.69 5.69 0 015.618-5.759z"/><path class="g" d="M82.686 243.119a3.5 3.5 0 11-3.409 3.5 3.454 3.454 0 013.409-3.5z"/><path class="g" d="M66.373 234.737a2.822 2.822 0 11-2.752 2.821 2.787 2.787 0 012.752-2.821z"/><path class="g" d="M67.468 225.122a3.119 3.119 0 11-3.043 3.118 3.081 3.081 0 013.043-3.118z"/><path class="g" d="M61.354 252.091a3.118 3.118 0 11-3.041 3.118 3.079 3.079 0 013.041-3.118z"/><path class="g" d="M192.422 258.325a3.5 3.5 0 11-3.417 3.5 3.461 3.461 0 013.417-3.5z"/><path class="g" d="M213.682 258.947a3.971 3.971 0 11-3.873 3.97 3.923 3.923 0 013.873-3.97z"/><path class="g" d="M174.615 256.769a3.971 3.971 0 11-3.873 3.969 3.922 3.922 0 013.873-3.969z"/><path class="g" d="M92.021 260.69a4.349 4.349 0 11-4.242 4.348 4.3 4.3 0 014.242-4.348z"/><path class="g" d="M220.086 265.183a3.5 3.5 0 11-3.41 3.5 3.454 3.454 0 013.41-3.5z"/><path class="g" d="M202.84 258.607a5.343 5.343 0 11-5.211 5.342 5.277 5.277 0 015.211-5.342z"/><path class="g" d="M58.286 227.792a5.415 5.415 0 11-5.281 5.414 5.348 5.348 0 015.281-5.414z"/><path class="g" d="M75.451 249.658a5.76 5.76 0 11-5.619 5.758 5.69 5.69 0 015.619-5.758z"/><path class="g" d="M52.584 238.471a3.118 3.118 0 11-3.041 3.118 3.079 3.079 0 013.041-3.118z"/><path class="g" d="M42.389 209.39a4.065 4.065 0 11-3.964 4.064 4.016 4.016 0 013.964-4.064z"/><path class="g" d="M30.696 212.167a4.285 4.285 0 11-4.179 4.283 4.233 4.233 0 014.179-4.283z"/><path class="g" d="M55.943 207.263a4.285 4.285 0 11-4.179 4.28 4.233 4.233 0 014.179-4.283z"/><path class="g" d="M110.643 275.462a5.415 5.415 0 11-5.281 5.414 5.348 5.348 0 015.281-5.414z"/><path class="g" d="M131.421 269.202a4.454 4.454 0 11-4.344 4.452 4.4 4.4 0 014.344-4.452z"/><path class="g" d="M101.795 283.463a3.971 3.971 0 11-3.873 3.969 3.922 3.922 0 013.873-3.969z"/><path class="g" d="M133.11 292.258a3.266 3.266 0 11-3.185 3.266 3.228 3.228 0 013.185-3.266z"/><path class="g" d="M179.986 274.851a4.35 4.35 0 11-4.242 4.348 4.3 4.3 0 014.242-4.348z"/><path class="g" d="M156.068 290.926a4.35 4.35 0 11-4.244 4.348 4.3 4.3 0 014.244-4.348z"/><path class="g" d="M161.781 286.382a2.115 2.115 0 11-2.062 2.114 2.089 2.089 0 012.062-2.114z"/><path class="g" d="M154.244 261.228a8.3 8.3 0 11-8.1 8.3 8.2 8.2 0 018.1-8.3z"/><path class="g" d="M195.795 278.483a2.115 2.115 0 11-2.062 2.114 2.089 2.089 0 012.062-2.114z"/><path class="g" d="M207.569 279.3a3.5 3.5 0 11-3.416 3.5 3.46 3.46 0 013.416-3.5z"/><path class="g" d="M179.05 285.093a6.231 6.231 0 11-6.078 6.228 6.154 6.154 0 016.078-6.228z"/><path class="h" d="M172.018 58.169a5.738 5.738 0 11-5.6 5.737 5.668 5.668 0 015.6-5.737z"/><path class="h" d="M128.157 52.783a4.8 4.8 0 11-4.683 4.8 4.742 4.742 0 014.683-4.8z"/><path class="h" d="M186.867 69.408a2.927 2.927 0 11-2.856 2.927 2.892 2.892 0 012.856-2.927z"/><path class="h" d="M145.518 74.558a3.865 3.865 0 11-3.769 3.864 3.818 3.818 0 013.769-3.864z"/><path class="h" d="M122.219 104.061a3.63 3.63 0 11-3.541 3.629 3.585 3.585 0 013.541-3.629z"/><path class="h" d="M121.533 86.5a8.315 8.315 0 11-8.109 8.312 8.213 8.213 0 018.109-8.312z"/><path class="h" d="M139.122 118.811a6.207 6.207 0 11-6.053 6.206 6.132 6.132 0 016.053-6.206z"/><path class="h" d="M107.14 129.817a5.271 5.271 0 11-5.139 5.268 5.205 5.205 0 015.139-5.268z"/><path class="h" d="M171.218 137.075a4.919 4.919 0 11-4.8 4.917 4.858 4.858 0 014.8-4.917z"/><path class="h" d="M189.265 141.291a5.855 5.855 0 11-5.712 5.853 5.783 5.783 0 015.712-5.853z"/><path class="h" d="M195.319 170.792a3.63 3.63 0 11-3.541 3.629 3.587 3.587 0 013.541-3.629z"/><path class="h" d="M179.784 173.132a8.081 8.081 0 11-7.88 8.079 7.983 7.983 0 017.88-8.079z"/><path class="h" d="M89.094 189.993a8.08 8.08 0 11-7.882 8.077 7.98 7.98 0 017.882-8.077z"/><path class="h" d="M100.973 197.016a2.459 2.459 0 11-2.4 2.459 2.43 2.43 0 012.4-2.459z"/><path class="h" d="M97.318 211.299a2.459 2.459 0 11-2.4 2.459 2.429 2.429 0 012.4-2.459z"/><path class="h" d="M104.171 210.363a3.4 3.4 0 11-3.313 3.4 3.355 3.355 0 013.313-3.4z"/><path class="h" d="M158.083 206.616a3.4 3.4 0 11-3.313 3.4 3.355 3.355 0 013.313-3.4z"/><path class="h" d="M161.624 216.216a5.856 5.856 0 11-5.71 5.855 5.783 5.783 0 015.71-5.855z"/><path class="h" d="M122.561 226.285a5.855 5.855 0 11-5.712 5.853 5.784 5.784 0 015.712-5.853z"/><path class="h" d="M121.075 221.368a1.991 1.991 0 11-1.942 1.989 1.966 1.966 0 011.942-1.989z"/></svg>
