<svg xmlns="http://www.w3.org/2000/svg" width="300" height="300.001" viewBox="0 0 300 300.001"><defs><style>.a{fill:#fb9335}.a,.b,.c,.d,.e,.f,.g,.h{fill-rule:evenodd}.b{fill:#bd4e27}.c{fill:#f67e34}.d{fill:#448a69}.e{fill:#0e7751}.f{fill:#65592d}.g{fill:#a99231}.h{fill:#7c722c}</style></defs><path class="a" d="M182.299 79.531a3.02 3.02 0 11-2.941 3.019 2.981 2.981 0 012.941-3.019z"/><path class="a" d="M191.127 104.78a4.117 4.117 0 11-4.01 4.116 4.064 4.064 0 014.01-4.116z"/><path class="a" d="M135.112 108.895a2.059 2.059 0 11-2.005 2.058 2.033 2.033 0 012.005-2.058z"/><path class="a" d="M91.526 109.444a2.059 2.059 0 11-2.005 2.059 2.033 2.033 0 012.005-2.059z"/><path class="a" d="M124.683 78.709a7.274 7.274 0 11-7.087 7.272 7.181 7.181 0 017.087-7.272z"/><path class="a" d="M126.286 110.545a7.275 7.275 0 11-7.085 7.273 7.181 7.181 0 017.085-7.273z"/><path class="a" d="M101.152 108.62a7.275 7.275 0 11-7.085 7.273 7.181 7.181 0 017.085-7.273z"/><path class="a" d="M192.866 80.081a7.275 7.275 0 11-7.087 7.273 7.181 7.181 0 017.087-7.273z"/><path class="a" d="M225.753 69.653a7.275 7.275 0 11-7.085 7.272 7.18 7.18 0 017.085-7.272z"/><path class="a" d="M178.159 125.086a7.275 7.275 0 11-7.087 7.272 7.181 7.181 0 017.087-7.272z"/><path class="a" d="M219.068 126.184a7.274 7.274 0 11-7.085 7.272 7.18 7.18 0 017.085-7.272z"/><path class="a" d="M206.369 134.966a4.117 4.117 0 11-4.012 4.116 4.063 4.063 0 014.012-4.116z"/><path class="a" d="M120.671 135.24a6.177 6.177 0 11-6.017 6.174 6.1 6.1 0 016.017-6.174z"/><path class="a" d="M124.816 147.039a4.118 4.118 0 11-4.011 4.117 4.064 4.064 0 014.011-4.117z"/><path class="a" d="M104.628 161.309a4.8 4.8 0 11-4.68 4.8 4.742 4.742 0 014.68-4.8z"/><path class="a" d="M220.807 154.724a4.117 4.117 0 11-4.011 4.116 4.063 4.063 0 014.011-4.116z"/><path class="a" d="M226.824 164.328a6.177 6.177 0 11-6.017 6.174 6.1 6.1 0 016.017-6.174z"/><path class="a" d="M63.721 146.766a6.451 6.451 0 11-6.284 6.449 6.368 6.368 0 016.284-6.449z"/><path class="a" d="M56.899 158.565a4.118 4.118 0 11-4.01 4.117 4.066 4.066 0 014.01-4.117z"/><path class="a" d="M31.232 168.168a1.647 1.647 0 11-1.605 1.646 1.626 1.626 0 011.605-1.646z"/><path class="a" d="M38.318 170.369a7.549 7.549 0 11-7.353 7.547 7.452 7.452 0 017.353-7.547z"/><path class="a" d="M90.591 163.779a8.51 8.51 0 11-8.289 8.508 8.4 8.4 0 018.289-8.508z"/><path class="a" d="M131.099 172.835a7 7 0 11-6.818 7 6.911 6.911 0 016.818-7z"/><path class="a" d="M113.318 161.035a1.648 1.648 0 11-1.605 1.648 1.627 1.627 0 011.605-1.648z"/><path class="a" d="M128.158 165.975a2.883 2.883 0 11-2.808 2.881 2.845 2.845 0 012.808-2.881z"/><path class="a" d="M64.253 181.618a2.882 2.882 0 11-2.808 2.881 2.845 2.845 0 012.808-2.881z"/><path class="a" d="M163.988 181.343a7 7 0 11-6.819 7 6.909 6.909 0 016.819-7z"/><path class="a" d="M155.699 195.612a6.177 6.177 0 11-6.017 6.174 6.1 6.1 0 016.017-6.174z"/><path class="a" d="M176.286 214.548a6.726 6.726 0 11-6.55 6.724 6.638 6.638 0 016.55-6.724z"/><path class="a" d="M206.903 206.863a6.314 6.314 0 11-6.15 6.312 6.233 6.233 0 016.15-6.312z"/><path class="a" d="M103.957 215.096a6.863 6.863 0 11-6.685 6.86 6.774 6.774 0 016.685-6.86z"/><path class="a" d="M102.89 185.185a6.863 6.863 0 11-6.684 6.86 6.774 6.774 0 016.684-6.86z"/><path class="a" d="M93.264 196.436a4.118 4.118 0 11-4.011 4.116 4.064 4.064 0 014.011-4.116z"/><path class="b" d="M248.2 70.337a1.94 1.94 0 11-1.889 1.939 1.916 1.916 0 011.889-1.939z"/><path class="b" d="M233.602 82.509a3.813 3.813 0 11-3.715 3.812 3.765 3.765 0 013.715-3.812z"/><path class="b" d="M192.806 96.287a3.411 3.411 0 11-3.324 3.41 3.368 3.368 0 013.324-3.41z"/><path class="b" d="M180.686 86.522a3.412 3.412 0 11-3.322 3.41 3.368 3.368 0 013.322-3.41z"/><path class="b" d="M204.667 70.203a6.355 6.355 0 11-6.19 6.353 6.274 6.274 0 016.19-6.353z"/><path class="b" d="M136.13 82.799a1.94 1.94 0 11-1.89 1.94 1.915 1.915 0 011.89-1.94z"/><path class="b" d="M110.671 89.259a4.869 4.869 0 11-4.742 4.867 4.807 4.807 0 014.742-4.867z"/><path class="b" d="M114.102 100.843a6.356 6.356 0 11-6.19 6.355 6.274 6.274 0 016.19-6.355z"/><path class="b" d="M126.54 126.515a4.415 4.415 0 11-4.3 4.413 4.358 4.358 0 014.3-4.413z"/><path class="b" d="M84.341 125.32a5.928 5.928 0 11-5.774 5.927 5.851 5.851 0 015.774-5.927z"/><path class="b" d="M205.22 124.178a4.415 4.415 0 11-4.3 4.414 4.358 4.358 0 014.3-4.414z"/><path class="b" d="M184.682 112.263a6.355 6.355 0 11-6.192 6.355 6.274 6.274 0 016.192-6.355z"/><path class="b" d="M109.072 135.126a4.036 4.036 0 11-3.932 4.035 3.985 3.985 0 013.932-4.035z"/><path class="b" d="M185.47 138.523a4.015 4.015 0 11-3.91 4.013 3.963 3.963 0 013.91-4.013z"/><path class="b" d="M219.361 174.453a2.884 2.884 0 11-2.808 2.883 2.846 2.846 0 012.808-2.883z"/><path class="b" d="M238.08 163.55a2.883 2.883 0 11-2.808 2.883 2.847 2.847 0 012.808-2.883z"/><path class="b" d="M220.462 142.396a5.476 5.476 0 11-5.333 5.474 5.406 5.406 0 015.333-5.474z"/><path class="b" d="M117.39 165.227a6.355 6.355 0 11-6.19 6.353 6.274 6.274 0 016.19-6.353z"/><path class="b" d="M124.554 184.977a1.906 1.906 0 11-1.855 1.905 1.881 1.881 0 011.855-1.905z"/><path class="b" d="M133.881 187.312a4.891 4.891 0 11-4.764 4.889 4.827 4.827 0 014.764-4.889z"/><path class="b" d="M113.896 194.841a4.891 4.891 0 11-4.764 4.891 4.829 4.829 0 014.764-4.891z"/><path class="b" d="M151.862 187.312a3.614 3.614 0 11-3.519 3.613 3.568 3.568 0 013.519-3.613z"/><path class="b" d="M172.903 193.803a5.476 5.476 0 11-5.333 5.474 5.4 5.4 0 015.333-5.474z"/><path class="b" d="M227.777 177.428a7.227 7.227 0 11-7.04 7.225 7.133 7.133 0 017.04-7.225z"/><path class="b" d="M237.382 185.235a1.906 1.906 0 11-1.857 1.905 1.881 1.881 0 011.857-1.905z"/><path class="b" d="M228.274 201.456a1.263 1.263 0 11-1.23 1.263 1.248 1.248 0 011.23-1.263z"/><path class="b" d="M74.88 175.11a7.127 7.127 0 11-6.941 7.124 7.034 7.034 0 016.941-7.124z"/><path class="b" d="M85.486 181.724a3.455 3.455 0 11-3.365 3.454 3.411 3.411 0 013.365-3.454z"/><path class="b" d="M81.297 138.242a1.906 1.906 0 11-1.857 1.9 1.882 1.882 0 011.857-1.9z"/><path class="b" d="M72.695 146.55a1.906 1.906 0 11-1.855 1.905 1.881 1.881 0 011.855-1.905z"/><path class="b" d="M60.83 140.34a2.8 2.8 0 11-2.722 2.794 2.759 2.759 0 012.722-2.794z"/><path class="b" d="M50.168 170.436a3.354 3.354 0 11-3.266 3.353 3.312 3.312 0 013.266-3.353z"/><path class="b" d="M45.386 158.293a5.928 5.928 0 11-5.776 5.927 5.852 5.852 0 015.776-5.927z"/><path class="b" d="M44.136 184.218a2.535 2.535 0 11-2.47 2.534 2.5 2.5 0 012.47-2.534z"/><path class="b" d="M104.485 200.538a6.355 6.355 0 11-6.19 6.353 6.274 6.274 0 016.19-6.353z"/><path class="b" d="M217.131 204.448a3.614 3.614 0 11-3.521 3.613 3.567 3.567 0 013.521-3.613z"/><path class="b" d="M193.499 211.442a8.136 8.136 0 11-7.925 8.133 8.031 8.031 0 017.925-8.133z"/><path class="b" d="M155.358 210.024a2.883 2.883 0 11-2.808 2.883 2.846 2.846 0 012.808-2.883z"/><path class="b" d="M90.147 215.405a5.923 5.923 0 11-5.77 5.921 5.847 5.847 0 015.77-5.921z"/><path class="c" d="M188.703 70.337a3.211 3.211 0 11-3.128 3.21 3.17 3.17 0 013.128-3.21z"/><path class="c" d="M135.136 67.661a6.824 6.824 0 11-6.647 6.822 6.736 6.736 0 016.647-6.822z"/><path class="c" d="M240.312 70.604a5.352 5.352 0 11-5.213 5.351 5.284 5.284 0 015.213-5.351z"/><path class="c" d="M204.603 85.05a3.211 3.211 0 11-3.128 3.21 3.17 3.17 0 013.128-3.21z"/><path class="c" d="M216.071 81.038a5.085 5.085 0 11-4.952 5.083 5.02 5.02 0 014.952-5.083z"/><path class="c" d="M182.576 94.681a6.021 6.021 0 11-5.865 6.019 5.943 5.943 0 015.865-6.019z"/><path class="c" d="M176.842 107.255a3.881 3.881 0 11-3.779 3.879 3.83 3.83 0 013.779-3.879z"/><path class="c" d="M129.662 94.949a6.557 6.557 0 11-6.387 6.555 6.472 6.472 0 016.387-6.555z"/><path class="c" d="M87.044 113.943a5.085 5.085 0 11-4.952 5.083 5.019 5.019 0 014.952-5.083z"/><path class="c" d="M114.935 123.574a5.085 5.085 0 11-4.952 5.083 5.018 5.018 0 014.952-5.083z"/><path class="c" d="M193.785 127.05a6.022 6.022 0 11-5.865 6.019 5.944 5.944 0 015.865-6.019z"/><path class="c" d="M233.274 148.452a7.494 7.494 0 11-7.3 7.491 7.4 7.4 0 017.3-7.491z"/><path class="c" d="M232.493 134.273a5.62 5.62 0 11-5.474 5.618 5.547 5.547 0 015.474-5.618z"/><path class="c" d="M173.454 141.229a3.881 3.881 0 11-3.781 3.879 3.831 3.831 0 013.781-3.879z"/><path class="c" d="M110.765 144.974a7.493 7.493 0 11-7.3 7.491 7.4 7.4 0 017.3-7.491z"/><path class="c" d="M71.274 131.861a7.092 7.092 0 11-6.907 7.09 7 7 0 016.907-7.09z"/><path class="c" d="M62.153 166.108a7.092 7.092 0 11-6.909 7.09 7 7 0 016.909-7.09z"/><path class="c" d="M51.596 178.147a5.085 5.085 0 11-4.952 5.083 5.02 5.02 0 014.952-5.083z"/><path class="c" d="M105.292 172.262a5.085 5.085 0 11-4.954 5.083 5.018 5.018 0 014.954-5.083z"/><path class="c" d="M93.691 181.893a2.81 2.81 0 11-2.736 2.809 2.773 2.773 0 012.736-2.809z"/><path class="c" d="M140.479 161.293a5.62 5.62 0 11-5.474 5.618 5.547 5.547 0 015.474-5.618z"/><path class="c" d="M115.717 180.02a5.62 5.62 0 11-5.474 5.618 5.547 5.547 0 015.474-5.618z"/><path class="c" d="M221.285 191.791a5.62 5.62 0 11-5.474 5.618 5.547 5.547 0 015.474-5.618z"/><path class="c" d="M166.416 204.364a6.289 6.289 0 11-6.127 6.287 6.207 6.207 0 016.127-6.287z"/><path class="c" d="M164.852 217.739a3.881 3.881 0 11-3.781 3.881 3.831 3.831 0 013.781-3.881z"/><path class="c" d="M118.323 217.472a5.62 5.62 0 11-5.474 5.618 5.547 5.547 0 015.474-5.618z"/><path class="c" d="M113.37 210.25a2.676 2.676 0 11-2.606 2.674 2.641 2.641 0 012.606-2.674z"/><path class="c" d="M92.517 205.97a3.746 3.746 0 11-3.648 3.745 3.7 3.7 0 013.648-3.745z"/><path class="c" d="M78.444 219.613a5.084 5.084 0 11-4.954 5.082 5.018 5.018 0 014.954-5.082z"/><path class="d" d="M242.719 53.06a2.61 2.61 0 11-2.542 2.609 2.576 2.576 0 012.542-2.609z"/><path class="d" d="M165.737 40.637a1.864 1.864 0 11-1.815 1.864 1.841 1.841 0 011.815-1.864z"/><path class="d" d="M195.031 71.446a2.609 2.609 0 11-2.542 2.608 2.575 2.575 0 012.542-2.608z"/><path class="d" d="M214.639 76.91a1.865 1.865 0 11-1.815 1.864 1.84 1.84 0 011.815-1.864z"/><path class="d" d="M171.306 55.294a2.859 2.859 0 11-2.784 2.859 2.823 2.823 0 012.784-2.859z"/><path class="d" d="M157.75 73.432a3.853 3.853 0 11-3.753 3.851 3.8 3.8 0 013.753-3.851z"/><path class="d" d="M234.853 54.3a5.22 5.22 0 11-5.085 5.218 5.153 5.153 0 015.085-5.218z"/><path class="d" d="M178.933 58.276a5.965 5.965 0 11-5.811 5.964 5.887 5.887 0 015.811-5.964z"/><path class="d" d="M120.105 35.916a6.711 6.711 0 11-6.537 6.709 6.623 6.623 0 016.537-6.709z"/><path class="d" d="M114.658 19.02a8.078 8.078 0 11-7.869 8.076 7.973 7.973 0 017.869-8.076z"/><path class="d" d="M205.925 42.376a8.078 8.078 0 11-7.869 8.075 7.973 7.973 0 017.869-8.075z"/><path class="d" d="M253.493 49.332a6.71 6.71 0 11-6.537 6.709 6.624 6.624 0 016.537-6.709z"/><path class="d" d="M253.977 73.929a7.705 7.705 0 11-7.5 7.7 7.605 7.605 0 017.5-7.7z"/><path class="d" d="M217.908 93.308a6.711 6.711 0 11-6.537 6.709 6.623 6.623 0 016.537-6.709z"/><path class="d" d="M152.422 89.831a3.853 3.853 0 11-3.751 3.851 3.8 3.8 0 013.751-3.851z"/><path class="d" d="M66.118 54.544a6.711 6.711 0 11-6.535 6.709 6.623 6.623 0 016.535-6.709z"/><path class="d" d="M88.753 92.811a8.078 8.078 0 11-7.867 8.075 7.973 7.973 0 017.867-8.075z"/><path class="d" d="M102.31 98.527a3.852 3.852 0 11-3.751 3.851 3.8 3.8 0 013.751-3.851z"/><path class="d" d="M45.905 81.383a3.853 3.853 0 11-3.751 3.851 3.8 3.8 0 013.751-3.851z"/><path class="d" d="M23.392 109.458a1.865 1.865 0 11-1.817 1.864 1.84 1.84 0 011.817-1.864z"/><path class="d" d="M9.106 112.688a8.823 8.823 0 11-8.593 8.821 8.709 8.709 0 018.593-8.821z"/><path class="d" d="M59.703 135.05a1.865 1.865 0 11-1.816 1.864 1.84 1.84 0 011.816-1.864z"/><path class="d" d="M79.071 120.639a1.865 1.865 0 11-1.817 1.864 1.841 1.841 0 011.817-1.864z"/><path class="d" d="M94.807 122.627a3.852 3.852 0 11-3.753 3.851 3.8 3.8 0 013.753-3.851z"/><path class="d" d="M74.713 123.621a3.355 3.355 0 11-3.268 3.353 3.311 3.311 0 013.268-3.353z"/><path class="d" d="M132.814 135.795a3.356 3.356 0 11-3.269 3.354 3.313 3.313 0 013.269-3.354z"/><path class="d" d="M135.114 128.092a2.237 2.237 0 11-2.178 2.236 2.208 2.208 0 012.178-2.236z"/><path class="d" d="M174.454 117.409a3.853 3.853 0 11-3.753 3.851 3.8 3.8 0 013.753-3.851z"/><path class="d" d="M153.028 134.304a6.71 6.71 0 11-6.537 6.709 6.624 6.624 0 016.537-6.709z"/><path class="d" d="M269.955 110.949a7.705 7.705 0 11-7.5 7.7 7.606 7.606 0 017.5-7.7z"/><path class="d" d="M273.102 149.709a5.965 5.965 0 11-5.809 5.964 5.889 5.889 0 015.809-5.964z"/><path class="d" d="M235.943 171.572a3.107 3.107 0 11-3.025 3.106 3.066 3.066 0 013.025-3.106z"/><path class="d" d="M182.08 147.472a5.966 5.966 0 11-5.811 5.964 5.887 5.887 0 015.811-5.964z"/><path class="d" d="M191.278 174.306a7.456 7.456 0 11-7.263 7.453 7.36 7.36 0 017.263-7.453z"/><path class="d" d="M214.639 183.499a3.853 3.853 0 11-3.751 3.851 3.8 3.8 0 013.751-3.851z"/><path class="d" d="M149.035 155.424a3.852 3.852 0 11-3.753 3.85 3.8 3.8 0 013.753-3.85z"/><path class="d" d="M121.435 155.424a4.349 4.349 0 11-4.236 4.347 4.292 4.292 0 014.236-4.347z"/><path class="d" d="M143.47 181.263a4.35 4.35 0 11-4.236 4.348 4.293 4.293 0 014.236-4.348z"/><path class="d" d="M123.615 189.959a4.35 4.35 0 11-4.238 4.347 4.292 4.292 0 014.238-4.347z"/><path class="d" d="M236.791 190.206a7.705 7.705 0 11-7.506 7.7 7.605 7.605 0 017.506-7.7z"/><path class="d" d="M245.987 189.959a2.237 2.237 0 11-2.178 2.236 2.207 2.207 0 012.178-2.236z"/><path class="d" d="M100.011 147.72a2.237 2.237 0 11-2.18 2.237 2.208 2.208 0 012.18-2.237z"/><path class="d" d="M80.644 147.471a8.451 8.451 0 11-8.232 8.448 8.342 8.342 0 018.232-8.448z"/><path class="d" d="M90.691 188.219a3.356 3.356 0 11-3.268 3.354 3.312 3.312 0 013.268-3.354z"/><path class="d" d="M75.924 165.112a4.35 4.35 0 11-4.238 4.348 4.294 4.294 0 014.238-4.348z"/><path class="d" d="M50.506 146.726a5.344 5.344 0 11-5.205 5.343 5.276 5.276 0 015.205-5.343z"/><path class="d" d="M5.961 177.536a2.859 2.859 0 11-2.786 2.858 2.821 2.821 0 012.786-2.858z"/><path class="d" d="M56.799 209.836a3.356 3.356 0 11-3.269 3.352 3.312 3.312 0 013.269-3.354z"/><path class="d" d="M83.67 230.208a4.35 4.35 0 11-4.237 4.348 4.293 4.293 0 014.237-4.348z"/><path class="d" d="M204.109 219.774a2.237 2.237 0 11-2.179 2.236 2.207 2.207 0 012.179-2.236z"/><path class="d" d="M191.398 228.47a3.107 3.107 0 11-3.025 3.106 3.066 3.066 0 013.025-3.106z"/><path class="d" d="M178.205 251.078a7.705 7.705 0 11-7.5 7.7 7.605 7.605 0 017.5-7.7z"/><path class="d" d="M190.673 254.556a3.853 3.853 0 11-3.753 3.851 3.8 3.8 0 013.753-3.851z"/><path class="d" d="M156.295 239.65a3.853 3.853 0 11-3.751 3.853 3.8 3.8 0 013.751-3.853z"/><path class="d" d="M136.204 237.414a6.338 6.338 0 11-6.174 6.336 6.255 6.255 0 016.174-6.336z"/><path class="d" d="M65.998 253.066a8.326 8.326 0 11-8.11 8.324 8.219 8.219 0 018.11-8.324z"/><path class="d" d="M43.848 239.403a6.959 6.959 0 11-6.778 6.956 6.868 6.868 0 016.778-6.956z"/><path class="d" d="M97.47 254.804a6.338 6.338 0 11-6.174 6.337 6.256 6.256 0 016.174-6.337z"/><path class="d" d="M143.587 284.621a5.468 5.468 0 11-5.326 5.467 5.4 5.4 0 015.326-5.467z"/><path class="e" d="M84.805 37.865A5.447 5.447 0 1179.5 43.31a5.377 5.377 0 015.305-5.445z"/><path class="e" d="M191.262 40.34a6.313 6.313 0 11-6.149 6.311 6.232 6.232 0 016.149-6.311z"/><path class="e" d="M221.886 37.123a7.3 7.3 0 11-7.115 7.3 7.21 7.21 0 017.115-7.3z"/><path class="e" d="M165.823 0a8.418 8.418 0 11-8.2 8.416 8.309 8.309 0 018.2-8.416z"/><path class="e" d="M84.805 64.096a4.952 4.952 0 11-4.823 4.949 4.888 4.888 0 014.823-4.949z"/><path class="e" d="M104.096 61.375a4.951 4.951 0 11-4.823 4.949 4.887 4.887 0 014.823-4.949z"/><path class="e" d="M180.533 71.273a3.466 3.466 0 11-3.377 3.465 3.42 3.42 0 013.377-3.465z"/><path class="e" d="M41.127 89.272a7.155 7.155 0 11-6.969 7.153 7.063 7.063 0 016.969-7.153z"/><path class="e" d="M30.293 95.876a3.776 3.776 0 11-3.679 3.775 3.727 3.727 0 013.679-3.775z"/><path class="e" d="M144.737 96.779a8.16 8.16 0 11-7.947 8.157 8.055 8.055 0 017.947-8.157z"/><path class="e" d="M97.386 131.164a7.294 7.294 0 11-7.1 7.293 7.2 7.2 0 017.1-7.293z"/><path class="e" d="M82.062 108.578a2.639 2.639 0 11-2.571 2.637 2.6 2.6 0 012.571-2.637z"/><path class="e" d="M119.824 94.201a2.639 2.639 0 11-2.571 2.637 2.6 2.6 0 012.571-2.637z"/><path class="e" d="M113.124 114.79a3.615 3.615 0 11-3.525 3.613 3.569 3.569 0 013.521-3.615z"/><path class="e" d="M156.368 109.789a3.615 3.615 0 11-3.521 3.615 3.568 3.568 0 013.521-3.615z"/><path class="e" d="M267.323 74.188a4.951 4.951 0 11-4.823 4.951 4.888 4.888 0 014.823-4.951z"/><path class="e" d="M268.173 133.581a7.732 7.732 0 11-7.531 7.731 7.634 7.634 0 017.531-7.731z"/><path class="e" d="M210.373 151.702a4.951 4.951 0 11-4.823 4.949 4.888 4.888 0 014.823-4.949z"/><path class="e" d="M130.482 157.023a4.2 4.2 0 11-4.092 4.2 4.148 4.148 0 014.092-4.2z"/><path class="e" d="M152.958 168.087a7.487 7.487 0 11-7.292 7.484 7.39 7.39 0 017.292-7.484z"/><path class="e" d="M289.281 165.46a6.71 6.71 0 11-6.537 6.709 6.625 6.625 0 016.537-6.709z"/><path class="e" d="M8.717 161.647a7.573 7.573 0 11-7.376 7.57 7.476 7.476 0 017.376-7.57z"/><path class="e" d="M66.052 189.167a4.314 4.314 0 11-4.2 4.313 4.259 4.259 0 014.2-4.313z"/><path class="e" d="M209.786 197.077a4.2 4.2 0 11-4.094 4.2 4.148 4.148 0 014.094-4.2z"/><path class="e" d="M130.986 218.653a6.71 6.71 0 11-6.536 6.708 6.624 6.624 0 016.536-6.708z"/><path class="e" d="M224.027 231.149a6.711 6.711 0 11-6.535 6.709 6.623 6.623 0 016.535-6.709z"/><path class="e" d="M209.629 220.625a2.923 2.923 0 11-2.846 2.922 2.885 2.885 0 012.846-2.922z"/><path class="e" d="M185.28 225.752a2.281 2.281 0 11-2.223 2.281 2.253 2.253 0 012.223-2.281z"/><path class="e" d="M177.591 241.45a4.008 4.008 0 11-3.9 4.009 3.957 3.957 0 013.9-4.009z"/><path class="e" d="M69.597 205.257a7.487 7.487 0 11-7.292 7.484 7.39 7.39 0 017.292-7.484z"/><path class="e" d="M54.584 232.426a5.359 5.359 0 11-5.22 5.358 5.291 5.291 0 015.22-5.358z"/><path class="e" d="M82.369 249.407a6.642 6.642 0 11-6.469 6.64 6.557 6.557 0 016.469-6.64z"/><path class="e" d="M158.266 281.201a7.487 7.487 0 11-7.292 7.484 7.389 7.389 0 017.292-7.484z"/><path class="f" d="M99.653 8.655a7.934 7.934 0 11-7.728 7.93 7.83 7.83 0 017.728-7.93z"/><path class="f" d="M87.983 75.017a7.934 7.934 0 11-7.728 7.93 7.831 7.831 0 017.728-7.93z"/><path class="f" d="M57.073 70.16a8.582 8.582 0 11-8.36 8.58 8.471 8.471 0 018.36-8.58z"/><path class="f" d="M61.172 30.021a8.582 8.582 0 11-8.358 8.579 8.47 8.47 0 018.358-8.579z"/><path class="f" d="M205.319 11.569a8.582 8.582 0 11-8.36 8.579 8.471 8.471 0 018.36-8.579z"/><path class="f" d="M242.223 34.876a8.582 8.582 0 11-8.358 8.579 8.47 8.47 0 018.358-8.579z"/><path class="f" d="M170.306 75.34a7.934 7.934 0 11-7.728 7.932 7.832 7.832 0 017.728-7.932z"/><path class="f" d="M138.133 53.003a7.286 7.286 0 11-7.1 7.284 7.192 7.192 0 017.1-7.284z"/><path class="f" d="M175.349 40.38a7.286 7.286 0 11-7.1 7.284 7.192 7.192 0 017.1-7.284z"/><path class="f" d="M130.88 39.405a3.4 3.4 0 11-3.312 3.4 3.358 3.358 0 013.312-3.4z"/><path class="f" d="M93.342 34.876a3.4 3.4 0 11-3.312 3.4 3.357 3.357 0 013.312-3.4z"/><path class="f" d="M86.247 11.892a3.886 3.886 0 11-3.785 3.885 3.835 3.835 0 013.785-3.885z"/><path class="f" d="M165.575 18.366a3.4 3.4 0 11-3.312 3.4 3.357 3.357 0 013.312-3.4z"/><path class="f" d="M66.85 47.179a3.4 3.4 0 11-3.313 3.4 3.356 3.356 0 013.313-3.4z"/><path class="f" d="M76.785 31.64a3.886 3.886 0 11-3.788 3.882 3.836 3.836 0 013.785-3.885z"/><path class="f" d="M165.102 49.445a3.886 3.886 0 11-3.785 3.884 3.836 3.836 0 013.785-3.884z"/><path class="f" d="M199.483 35.2a3.886 3.886 0 11-3.785 3.885 3.836 3.836 0 013.785-3.885z"/><path class="f" d="M201.06 29.05a2.267 2.267 0 11-2.208 2.267 2.238 2.238 0 012.208-2.267z"/><path class="f" d="M130.406 16.747a2.591 2.591 0 11-2.522 2.59 2.558 2.558 0 012.522-2.59z"/><path class="f" d="M184.659 52.035a2.266 2.266 0 11-2.209 2.265 2.237 2.237 0 012.209-2.265z"/><path class="f" d="M83.094 60.127a1.943 1.943 0 11-1.893 1.943 1.918 1.918 0 011.893-1.943z"/><path class="f" d="M81.201 89.584a2.591 2.591 0 11-2.524 2.59 2.558 2.558 0 012.524-2.59z"/><path class="f" d="M68.427 80.844a3.4 3.4 0 11-3.313 3.4 3.356 3.356 0 013.313-3.4z"/><path class="f" d="M54.55 87.642a4.372 4.372 0 11-4.258 4.37 4.315 4.315 0 014.258-4.37z"/><path class="f" d="M149.017 29.701a4.857 4.857 0 11-4.732 4.855 4.794 4.794 0 014.732-4.855z"/><path class="f" d="M175.196 20.309a4.858 4.858 0 11-4.732 4.855 4.795 4.795 0 014.732-4.855z"/><path class="f" d="M78.836 49.12a5.344 5.344 0 11-5.205 5.342 5.274 5.274 0 015.205-5.342z"/><path class="f" d="M180.4 3.152a4.372 4.372 0 11-4.258 4.37 4.315 4.315 0 014.258-4.37z"/><path class="f" d="M205.318 60.772a4.372 4.372 0 11-4.259 4.372 4.317 4.317 0 014.259-4.372z"/><path class="f" d="M243.012 83.434a4.858 4.858 0 11-4.732 4.855 4.794 4.794 0 014.732-4.855z"/><path class="f" d="M228.186 64.334a2.267 2.267 0 11-2.208 2.267 2.237 2.237 0 012.208-2.267z"/><path class="f" d="M231.971 48.15a2.267 2.267 0 11-2.208 2.265 2.237 2.237 0 012.208-2.265z"/><path class="f" d="M137.661.889a6.8 6.8 0 11-6.624 6.8 6.714 6.714 0 016.624-6.8z"/><path class="f" d="M103.437 36.82a5.991 5.991 0 11-5.834 5.989 5.913 5.913 0 015.834-5.989z"/><path class="f" d="M156.902 39.733a6.477 6.477 0 11-6.309 6.474 6.394 6.394 0 016.309-6.474z"/><path class="f" d="M122.048 64.98a5.343 5.343 0 11-5.205 5.34 5.273 5.273 0 015.205-5.34z"/><path class="f" d="M32.47 58.51a4.372 4.372 0 11-4.259 4.37 4.315 4.315 0 014.259-4.37z"/><path class="f" d="M24.269 72.75a3.4 3.4 0 11-3.312 3.4 3.356 3.356 0 013.312-3.4z"/><path class="f" d="M70.319 109.007a7.286 7.286 0 11-7.1 7.284 7.191 7.191 0 017.1-7.284z"/><path class="f" d="M32.785 121.632a7.286 7.286 0 11-7.1 7.284 7.192 7.192 0 017.1-7.284z"/><path class="f" d="M14.491 98.648a7.286 7.286 0 11-7.1 7.284 7.192 7.192 0 017.1-7.284z"/><path class="f" d="M43.352 104.799a2.267 2.267 0 11-2.208 2.267 2.237 2.237 0 012.208-2.267z"/><path class="f" d="M66.85 101.885a3.4 3.4 0 11-3.313 3.4 3.356 3.356 0 013.313-3.4z"/><path class="f" d="M57.072 114.513a3.724 3.724 0 11-3.627 3.719 3.676 3.676 0 013.628-3.722z"/><path class="f" d="M161.476 118.719a8.582 8.582 0 11-8.36 8.579 8.471 8.471 0 018.36-8.579z"/><path class="f" d="M140.343 116.131a5.991 5.991 0 11-5.836 5.989 5.913 5.913 0 015.836-5.989z"/><path class="f" d="M104.227 124.869a3.886 3.886 0 11-3.785 3.885 3.836 3.836 0 013.785-3.885z"/><path class="f" d="M203.741 107.389a7.61 7.61 0 11-7.413 7.607 7.511 7.511 0 017.413-7.607z"/><path class="f" d="M174.561 103.18a1.943 1.943 0 11-1.894 1.942 1.919 1.919 0 011.894-1.942z"/><path class="f" d="M263.828 60.773a6.477 6.477 0 11-6.308 6.474 6.392 6.392 0 016.308-6.474z"/><path class="f" d="M276.76 79.549a3.886 3.886 0 11-3.785 3.885 3.836 3.836 0 013.785-3.885z"/><path class="f" d="M281.333 86.022a3.4 3.4 0 11-3.312 3.4 3.356 3.356 0 013.312-3.4z"/><path class="f" d="M266.351 99.942a4.858 4.858 0 11-4.732 4.857 4.795 4.795 0 014.732-4.857z"/><path class="f" d="M252.314 108.037a7.933 7.933 0 11-7.729 7.93 7.831 7.831 0 017.729-7.93z"/><path class="f" d="M287.958 109.007a6.638 6.638 0 11-6.466 6.637 6.552 6.552 0 016.466-6.637z"/><path class="f" d="M244.27 103.504a2.915 2.915 0 11-2.839 2.913 2.878 2.878 0 012.839-2.913z"/><path class="f" d="M232.759 121.632a5.667 5.667 0 11-5.52 5.665 5.595 5.595 0 015.52-5.665z"/><path class="f" d="M255.153 125.517a5.667 5.667 0 11-5.52 5.665 5.593 5.593 0 015.52-5.665z"/><path class="f" d="M283.384 123.574a6.477 6.477 0 11-6.308 6.475 6.393 6.393 0 016.308-6.475z"/><path class="f" d="M150.596 149.149a2.59 2.59 0 11-2.522 2.589 2.556 2.556 0 012.522-2.589z"/><path class="f" d="M156.271 162.097a2.59 2.59 0 11-2.524 2.59 2.557 2.557 0 012.524-2.59z"/><path class="f" d="M141.131 174.397a2.591 2.591 0 11-2.524 2.59 2.558 2.558 0 012.524-2.59z"/><path class="f" d="M187.181 169.219a2.59 2.59 0 11-2.522 2.589 2.558 2.558 0 012.522-2.589z"/><path class="f" d="M196.645 170.517a2.59 2.59 0 11-2.524 2.59 2.556 2.556 0 012.524-2.59z"/><path class="f" d="M216.2 163.067a2.591 2.591 0 11-2.524 2.59 2.557 2.557 0 012.524-2.59z"/><path class="f" d="M242.694 168.571a2.591 2.591 0 11-2.524 2.59 2.558 2.558 0 012.524-2.59z"/><path class="f" d="M210.522 144.942a2.59 2.59 0 11-2.522 2.589 2.556 2.556 0 012.522-2.589z"/><path class="f" d="M202.953 161.126a2.591 2.591 0 11-2.523 2.59 2.558 2.558 0 012.523-2.59z"/><path class="f" d="M256.257 175.369a2.591 2.591 0 11-2.524 2.59 2.558 2.558 0 012.524-2.59z"/><path class="f" d="M264.458 157.241a2.915 2.915 0 11-2.839 2.913 2.877 2.877 0 012.839-2.913z"/><path class="f" d="M276.602 188.641a3.4 3.4 0 11-3.313 3.4 3.357 3.357 0 013.313-3.4z"/><path class="f" d="M289.22 142.35a7.934 7.934 0 11-7.728 7.931 7.831 7.831 0 017.728-7.931z"/><path class="f" d="M281.492 159.184a3.886 3.886 0 11-3.785 3.884 3.836 3.836 0 013.785-3.884z"/><path class="f" d="M253.261 159.184a7.61 7.61 0 11-7.413 7.607 7.512 7.512 0 017.413-7.607z"/><path class="f" d="M176.299 160.802a7.61 7.61 0 11-7.412 7.607 7.512 7.512 0 017.412-7.607z"/><path class="f" d="M165.102 171.807a3.563 3.563 0 11-3.469 3.562 3.517 3.517 0 013.469-3.562z"/><path class="f" d="M176.93 186.376a3.4 3.4 0 11-3.312 3.4 3.355 3.355 0 013.312-3.4z"/><path class="f" d="M183.712 187.347a2.59 2.59 0 11-2.524 2.589 2.557 2.557 0 012.524-2.589z"/><path class="f" d="M203.427 185.727a5.991 5.991 0 11-5.834 5.99 5.914 5.914 0 015.834-5.99z"/><path class="f" d="M286.381 182.167a5.991 5.991 0 11-5.836 5.989 5.913 5.913 0 015.836-5.989z"/><path class="f" d="M96.655 154.004a4.858 4.858 0 11-4.73 4.855 4.795 4.795 0 014.73-4.855z"/><path class="f" d="M52.657 137.171a3.724 3.724 0 11-3.626 3.723 3.677 3.677 0 013.626-3.723z"/><path class="f" d="M40.671 150.442a3.4 3.4 0 11-3.312 3.4 3.357 3.357 0 013.312-3.4z"/><path class="f" d="M68.584 159.831a3.886 3.886 0 11-3.785 3.885 3.836 3.836 0 013.785-3.885z"/><path class="f" d="M22.534 136.847a8.1 8.1 0 11-7.886 8.092 7.991 7.991 0 017.886-8.092z"/><path class="f" d="M23.006 166.304a5.02 5.02 0 11-4.889 5.019 4.955 4.955 0 014.889-5.019z"/><path class="f" d="M38.148 188.966a7.286 7.286 0 11-7.1 7.284 7.192 7.192 0 017.1-7.284z"/><path class="f" d="M57.387 197.059a5.991 5.991 0 11-5.836 5.989 5.914 5.914 0 015.836-5.989z"/><path class="f" d="M23.006 211.626a6.638 6.638 0 11-6.466 6.637 6.552 6.552 0 016.466-6.637z"/><path class="f" d="M13.701 205.474a3.886 3.886 0 11-3.785 3.885 3.837 3.837 0 013.785-3.885z"/><path class="f" d="M67.322 199.327a2.591 2.591 0 11-2.522 2.59 2.557 2.557 0 012.522-2.59z"/><path class="f" d="M57.703 218.101a6.638 6.638 0 11-6.466 6.635 6.552 6.552 0 016.466-6.635z"/><path class="f" d="M142.707 205.151a8.1 8.1 0 11-7.886 8.094 7.991 7.991 0 017.886-8.094z"/><path class="f" d="M155.483 216.806a4.047 4.047 0 11-3.944 4.045 3.995 3.995 0 013.944-4.045z"/><path class="f" d="M184.343 209.032a2.591 2.591 0 11-2.524 2.59 2.558 2.558 0 012.524-2.59z"/><path class="f" d="M198.221 205.797a2.915 2.915 0 11-2.838 2.913 2.877 2.877 0 012.838-2.913z"/><path class="f" d="M253.576 192.851a5.991 5.991 0 11-5.836 5.989 5.914 5.914 0 015.836-5.989z"/><path class="f" d="M237.333 208.389a6.477 6.477 0 11-6.309 6.474 6.393 6.393 0 016.309-6.474z"/><path class="f" d="M255.941 208.064a8.42 8.42 0 11-8.2 8.417 8.311 8.311 0 018.2-8.417z"/><path class="f" d="M234.652 221.661a4.048 4.048 0 11-3.943 4.047 3.994 3.994 0 013.943-4.047z"/><path class="f" d="M213.203 229.431a4.047 4.047 0 11-3.942 4.045 4 4 0 013.942-4.045z"/><path class="f" d="M180.401 230.401a4.7 4.7 0 11-4.575 4.7 4.635 4.635 0 014.575-4.7z"/><path class="f" d="M252.786 236.225a2.915 2.915 0 11-2.839 2.913 2.878 2.878 0 012.839-2.913z"/><path class="f" d="M130.722 232.99a2.591 2.591 0 11-2.524 2.59 2.557 2.557 0 012.524-2.59z"/><path class="f" d="M147.912 242.054a3.4 3.4 0 11-3.313 3.4 3.356 3.356 0 013.313-3.4z"/><path class="f" d="M190.65 236.224a8.42 8.42 0 11-8.2 8.417 8.312 8.312 0 018.2-8.417z"/><path class="f" d="M223.927 245.938a4.048 4.048 0 11-3.942 4.047 4 4 0 013.942-4.047z"/><path class="f" d="M241.118 245.291a2.591 2.591 0 11-2.524 2.59 2.558 2.558 0 012.524-2.59z"/><path class="f" d="M251.21 243.672a6.477 6.477 0 11-6.309 6.474 6.392 6.392 0 016.309-6.474z"/><path class="f" d="M207.526 258.24a3.724 3.724 0 11-3.628 3.723 3.677 3.677 0 013.628-3.723z"/><path class="f" d="M154.536 249.499a7.61 7.61 0 11-7.413 7.607 7.511 7.511 0 017.413-7.607z"/><path class="f" d="M157.375 265.362a3.4 3.4 0 11-3.312 3.4 3.356 3.356 0 013.312-3.4z"/><path class="f" d="M128.198 248.851a2.591 2.591 0 11-2.524 2.59 2.558 2.558 0 012.524-2.59z"/><path class="f" d="M133.877 266.98a2.591 2.591 0 11-2.524 2.59 2.557 2.557 0 012.524-2.59z"/><path class="f" d="M166.838 265.685a5.991 5.991 0 11-5.836 5.99 5.913 5.913 0 015.836-5.99z"/><path class="f" d="M102.965 236.876a8.1 8.1 0 11-7.885 8.094 7.992 7.992 0 017.885-8.094z"/><path class="f" d="M94.448 228.459a4.858 4.858 0 11-4.73 4.855 4.795 4.795 0 014.73-4.855z"/><path class="f" d="M59.75 244.319a4.858 4.858 0 11-4.73 4.857 4.8 4.8 0 014.73-4.857z"/><path class="f" d="M69.846 230.401a8.1 8.1 0 11-7.885 8.094 7.991 7.991 0 017.885-8.094z"/><path class="f" d="M123.467 279.931a8.1 8.1 0 11-7.885 8.092 7.992 7.992 0 017.885-8.092z"/><path class="f" d="M211.784 267.952a8.1 8.1 0 11-7.886 8.094 7.992 7.992 0 017.886-8.094z"/><path class="f" d="M186.081 287.376a5.991 5.991 0 11-5.836 5.989 5.913 5.913 0 015.836-5.989z"/><path class="f" d="M92.241 277.017a6.8 6.8 0 11-6.625 6.8 6.712 6.712 0 016.625-6.8z"/><path class="f" d="M172.988 285.759a6.8 6.8 0 11-6.624 6.8 6.712 6.712 0 016.624-6.8z"/><path class="f" d="M106.435 268.275a4.858 4.858 0 11-4.732 4.857 4.8 4.8 0 014.732-4.857z"/><path class="f" d="M136.084 281.548a2.591 2.591 0 11-2.524 2.592 2.557 2.557 0 012.524-2.592z"/><path class="f" d="M149.961 294.821a2.591 2.591 0 11-2.522 2.59 2.558 2.558 0 012.522-2.59z"/><path class="f" d="M193.81 273.132a2.59 2.59 0 11-2.524 2.59 2.557 2.557 0 012.524-2.59z"/><path class="g" d="M172.575 16.104a1.9 1.9 0 11-1.851 1.9 1.874 1.874 0 011.851-1.9z"/><path class="g" d="M141.033 34.487a1.9 1.9 0 11-1.849 1.9 1.875 1.875 0 011.849-1.9z"/><path class="g" d="M127.21 60.262a1.9 1.9 0 11-1.849 1.9 1.874 1.874 0 011.849-1.9z"/><path class="g" d="M121.564 59.464a1.9 1.9 0 11-1.849 1.9 1.874 1.874 0 011.849-1.9z"/><path class="g" d="M133.052 46.676a2.3 2.3 0 11-2.24 2.3 2.269 2.269 0 012.24-2.3z"/><path class="g" d="M125.069 19.501a2.3 2.3 0 11-2.239 2.3 2.269 2.269 0 012.239-2.3z"/><path class="g" d="M112.219 13.706a2.3 2.3 0 11-2.239 2.3 2.267 2.267 0 012.239-2.3z"/><path class="g" d="M111.83 35.087a2.3 2.3 0 11-2.239 2.3 2.269 2.269 0 012.239-2.3z"/><path class="g" d="M93.918 43.479a2.3 2.3 0 11-2.24 2.3 2.269 2.269 0 012.24-2.3z"/><path class="g" d="M184.061 38.082a2.3 2.3 0 11-2.239 2.3 2.269 2.269 0 012.239-2.3z"/><path class="g" d="M130.132 64.858a1.9 1.9 0 11-1.851 1.9 1.874 1.874 0 011.851-1.9z"/><path class="g" d="M143.175 24.096a3.3 3.3 0 11-3.212 3.3 3.257 3.257 0 013.212-3.3z"/><path class="g" d="M110.564 4.913a4.2 4.2 0 11-4.088 4.2 4.144 4.144 0 014.088-4.2z"/><path class="g" d="M139.184 15.904a4.2 4.2 0 11-4.089 4.2 4.143 4.143 0 014.089-4.2z"/><path class="g" d="M74.155 40.481a4.6 4.6 0 11-4.478 4.6 4.539 4.539 0 014.478-4.6z"/><path class="g" d="M148.625 64.858a5.3 5.3 0 11-5.16 5.295 5.229 5.229 0 015.16-5.295z"/><path class="g" d="M142.495 39.084a6.2 6.2 0 11-6.036 6.194 6.117 6.117 0 016.036-6.194z"/><path class="g" d="M72.112 21.898a5.3 5.3 0 11-5.159 5.295 5.229 5.229 0 015.159-5.295z"/><path class="g" d="M164.301 26.095a7 7 0 11-6.815 6.993 6.9 6.9 0 016.815-6.993z"/><path class="g" d="M122.441 4.313a7 7 0 11-6.815 6.994 6.906 6.906 0 016.815-6.994z"/><path class="g" d="M161.38 57.664a7.6 7.6 0 11-7.4 7.594 7.5 7.5 0 017.4-7.594z"/><path class="g" d="M112.511 48.273a7.6 7.6 0 11-7.4 7.594 7.5 7.5 0 017.4-7.594z"/><path class="g" d="M87.009 20.899a7.6 7.6 0 11-7.4 7.594 7.5 7.5 0 017.4-7.594z"/><path class="g" d="M189.512 21.298a8.5 8.5 0 11-8.274 8.493 8.387 8.387 0 018.274-8.493z"/><path class="g" d="M48.652 40.285a4.6 4.6 0 11-4.477 4.6 4.538 4.538 0 014.477-4.6z"/><path class="g" d="M36.484 52.872a2.3 2.3 0 11-2.24 2.3 2.268 2.268 0 012.24-2.3z"/><path class="g" d="M28.502 68.055a2.3 2.3 0 11-2.239 2.3 2.269 2.269 0 012.239-2.3z"/><path class="g" d="M40.768 64.459a2.3 2.3 0 11-2.24 2.3 2.269 2.269 0 012.24-2.3z"/><path class="g" d="M65.298 69.253a1.9 1.9 0 11-1.851 1.9 1.875 1.875 0 011.851-1.9z"/><path class="g" d="M47.583 67.056a3.3 3.3 0 11-3.213 3.3 3.256 3.256 0 013.213-3.3z"/><path class="g" d="M95.572 67.256a4.2 4.2 0 11-4.088 4.2 4.143 4.143 0 014.088-4.2z"/><path class="g" d="M37.555 69.653a7 7 0 11-6.815 6.994 6.906 6.906 0 016.815-6.994z"/><path class="g" d="M74.35 67.456a7 7 0 11-6.815 6.994 6.906 6.906 0 016.815-6.994z"/><path class="g" d="M103.945 72.652a7 7 0 11-6.815 6.993 6.906 6.906 0 016.815-6.993z"/><path class="g" d="M112.609 70.053a2.3 2.3 0 11-2.239 2.3 2.269 2.269 0 012.239-2.3z"/><path class="g" d="M218.036 54.268a7.6 7.6 0 11-7.4 7.594 7.5 7.5 0 017.4-7.594z"/><path class="g" d="M226.894 53.27a2.7 2.7 0 11-2.628 2.7 2.663 2.663 0 012.628-2.7z"/><path class="g" d="M215.406 70.253a2.7 2.7 0 11-2.628 2.7 2.665 2.665 0 012.628-2.7z"/><path class="g" d="M235.266 67.056a2.7 2.7 0 11-2.628 2.7 2.664 2.664 0 012.628-2.7z"/><path class="g" d="M221.734 19.101a7.6 7.6 0 11-7.4 7.592 7.5 7.5 0 017.4-7.592z"/><path class="g" d="M253.176 66.451a2.7 2.7 0 11-2.628 2.7 2.665 2.665 0 012.628-2.7z"/><path class="g" d="M267.974 85.84a6.5 6.5 0 11-6.328 6.494 6.412 6.412 0 016.328-6.494z"/><path class="g" d="M233.903 91.834a8.3 8.3 0 11-8.08 8.292 8.187 8.187 0 018.08-8.292z"/><path class="g" d="M244.511 96.629a1.8 1.8 0 11-1.752 1.8 1.776 1.776 0 011.752-1.8z"/><path class="g" d="M258.141 105.421a1.8 1.8 0 11-1.752 1.8 1.776 1.776 0 011.752-1.8z"/><path class="g" d="M225.337 86.838a3.3 3.3 0 11-3.213 3.3 3.255 3.255 0 013.213-3.3z"/><path class="g" d="M213.753 108.219a1.8 1.8 0 11-1.752 1.8 1.776 1.776 0 011.752-1.8z"/><path class="g" d="M204.31 92.632a6.5 6.5 0 11-6.328 6.494 6.412 6.412 0 016.328-6.494z"/><path class="g" d="M164.494 95.231a7.6 7.6 0 11-7.4 7.592 7.5 7.5 0 017.4-7.592z"/><path class="g" d="M162.839 89.435a2.7 2.7 0 11-2.628 2.7 2.664 2.664 0 012.628-2.7z"/><path class="g" d="M174.038 91.634a3.4 3.4 0 11-3.31 3.4 3.354 3.354 0 013.31-3.4z"/><path class="g" d="M137.139 87.438a4.7 4.7 0 11-4.575 4.695 4.637 4.637 0 014.575-4.695z"/><path class="g" d="M145.123 91.234a2.3 2.3 0 11-2.239 2.3 2.269 2.269 0 012.239-2.3z"/><path class="g" d="M112.806 83.241a2.3 2.3 0 11-2.24 2.3 2.269 2.269 0 012.24-2.3z"/><path class="g" d="M62.864 86.439a2.8 2.8 0 11-2.725 2.8 2.762 2.762 0 012.725-2.8z"/><path class="g" d="M76.492 81.643a2.8 2.8 0 11-2.725 2.8 2.762 2.762 0 012.725-2.8z"/><path class="g" d="M62.474 93.832a2.8 2.8 0 11-2.725 2.8 2.763 2.763 0 012.725-2.8z"/><path class="g" d="M72.21 89.035a6 6 0 11-5.842 6 5.92 5.92 0 015.842-6z"/><path class="g" d="M24.997 101.625a2.3 2.3 0 11-2.239 2.3 2.269 2.269 0 012.239-2.3z"/><path class="g" d="M12.243 92.034a2.8 2.8 0 11-2.725 2.8 2.762 2.762 0 012.725-2.8z"/><path class="g" d="M34.537 104.622a7.3 7.3 0 11-7.106 7.292 7.2 7.2 0 017.106-7.292z"/><path class="g" d="M49.335 120.008a8.1 8.1 0 11-7.886 8.094 7.992 7.992 0 017.886-8.094z"/><path class="g" d="M62.566 124.326a4.7 4.7 0 11-4.574 4.7 4.637 4.637 0 014.574-4.7z"/><path class="g" d="M39.77 119.244a1.9 1.9 0 11-1.849 1.9 1.874 1.874 0 011.849-1.9z"/><path class="g" d="M32.716 137.171a1.9 1.9 0 11-1.851 1.9 1.874 1.874 0 011.851-1.9z"/><path class="g" d="M19.908 126.395a4.7 4.7 0 11-4.576 4.7 4.637 4.637 0 014.576-4.7z"/><path class="g" d="M7.045 147.348a6.638 6.638 0 11-6.465 6.635 6.552 6.552 0 016.465-6.635z"/><path class="g" d="M31.901 154.587a6.638 6.638 0 11-6.465 6.635 6.552 6.552 0 016.465-6.635z"/><path class="g" d="M79.743 143.031a1.9 1.9 0 11-1.851 1.9 1.875 1.875 0 011.851-1.9z"/><path class="g" d="M86.658 140.376a3.486 3.486 0 11-3.4 3.485 3.442 3.442 0 013.4-3.485z"/><path class="g" d="M149.051 125.771a2.8 2.8 0 11-2.727 2.8 2.762 2.762 0 012.727-2.8z"/><path class="g" d="M142.179 130.876a4.7 4.7 0 11-4.576 4.7 4.637 4.637 0 014.576-4.7z"/><path class="g" d="M165.83 136.058a4.285 4.285 0 11-4.175 4.284 4.231 4.231 0 014.175-4.284z"/><path class="g" d="M194.734 120.25a2.8 2.8 0 11-2.725 2.8 2.762 2.762 0 012.725-2.8z"/><path class="g" d="M162.724 146.265a7.6 7.6 0 11-7.4 7.592 7.5 7.5 0 017.4-7.592z"/><path class="g" d="M197.262 142.252a7.879 7.879 0 11-7.675 7.876 7.778 7.778 0 017.675-7.876z"/><path class="g" d="M246.642 138.46a7.879 7.879 0 11-7.676 7.876 7.778 7.778 0 017.676-7.876z"/><path class="g" d="M238.315 109.33a5.3 5.3 0 11-5.158 5.3 5.23 5.23 0 015.158-5.3z"/><path class="g" d="M260.638 122.486a1.8 1.8 0 11-1.754 1.8 1.775 1.775 0 011.754-1.8z"/><path class="g" d="M213.544 119.565a2.8 2.8 0 11-2.725 2.8 2.763 2.763 0 012.725-2.8z"/><path class="g" d="M265.275 127.494a2.8 2.8 0 11-2.727 2.8 2.763 2.763 0 012.727-2.8z"/><path class="g" d="M273.001 128.185a2.8 2.8 0 11-2.727 2.8 2.762 2.762 0 012.727-2.8z"/><path class="g" d="M278.109 144.591a2.525 2.525 0 11-2.459 2.524 2.493 2.493 0 012.459-2.524z"/><path class="g" d="M244.575 155.068a3.4 3.4 0 11-3.31 3.4 3.354 3.354 0 013.31-3.4z"/><path class="g" d="M252.242 153.209a2.525 2.525 0 11-2.459 2.524 2.492 2.492 0 012.459-2.524z"/><path class="g" d="M289.19 160.754a1.8 1.8 0 11-1.752 1.8 1.774 1.774 0 011.752-1.8z"/><path class="g" d="M294.768 121.726a4.2 4.2 0 11-4.088 4.2 4.143 4.143 0 014.088-4.2z"/><path class="g" d="M296.33 158.812a3.767 3.767 0 11-3.67 3.766 3.719 3.719 0 013.67-3.766z"/><path class="g" d="M163.957 163.686a3.4 3.4 0 11-3.309 3.4 3.355 3.355 0 013.309-3.4z"/><path class="g" d="M207.702 166.645a8.3 8.3 0 11-8.08 8.292 8.186 8.186 0 018.08-8.292z"/><path class="g" d="M265.117 179.139a7.88 7.88 0 11-7.675 7.878 7.779 7.779 0 017.675-7.878z"/><path class="g" d="M253.922 186.305a2.525 2.525 0 11-2.459 2.524 2.492 2.492 0 012.459-2.524z"/><path class="g" d="M270.383 194.579a2.525 2.525 0 11-2.459 2.524 2.493 2.493 0 012.459-2.524z"/><path class="g" d="M261.643 173.51a1.8 1.8 0 11-1.752 1.8 1.774 1.774 0 011.752-1.8z"/><path class="g" d="M227.251 204.811a4.2 4.2 0 11-4.089 4.2 4.144 4.144 0 014.089-4.2z"/><path class="g" d="M246.395 202.399a4.2 4.2 0 11-4.088 4.2 4.143 4.143 0 014.088-4.2z"/><path class="g" d="M265.344 221.817a2.525 2.525 0 11-2.459 2.522 2.491 2.491 0 012.459-2.522z"/><path class="g" d="M273.843 211.917a6.5 6.5 0 11-6.328 6.494 6.412 6.412 0 016.328-6.494z"/><path class="g" d="M195.135 189.367a1.8 1.8 0 11-1.752 1.8 1.776 1.776 0 011.752-1.8z"/><path class="g" d="M172.634 177.342a2.525 2.525 0 11-2.459 2.524 2.493 2.493 0 012.459-2.524z"/><path class="g" d="M164.904 199.365a1.8 1.8 0 11-1.754 1.8 1.776 1.776 0 011.754-1.8z"/><path class="g" d="M134.338 199.061a2.525 2.525 0 11-2.458 2.524 2.493 2.493 0 012.458-2.524z"/><path class="g" d="M125.404 201.12a8.3 8.3 0 11-8.08 8.292 8.189 8.189 0 018.08-8.292z"/><path class="g" d="M188.891 191.811a8.3 8.3 0 11-8.081 8.294 8.189 8.189 0 018.081-8.294z"/><path class="g" d="M180.08 178.163a3.4 3.4 0 11-3.309 3.4 3.355 3.355 0 013.309-3.4z"/><path class="g" d="M244.256 220.916a3.726 3.726 0 11-3.629 3.725 3.678 3.678 0 013.629-3.725z"/><path class="g" d="M141.053 223.153a1.8 1.8 0 11-1.752 1.8 1.776 1.776 0 011.752-1.8z"/><path class="g" d="M240.909 229.044a7.557 7.557 0 11-7.36 7.554 7.46 7.46 0 017.36-7.554z"/><path class="g" d="M52.062 190.02a3.487 3.487 0 11-3.4 3.487 3.442 3.442 0 013.4-3.487z"/><path class="g" d="M59.024 186.792a2.8 2.8 0 11-2.725 2.8 2.762 2.762 0 012.725-2.8z"/><path class="g" d="M18.248 176.986a8.3 8.3 0 11-8.08 8.292 8.189 8.189 0 018.08-8.292z"/><path class="g" d="M31.146 184.38a2.8 2.8 0 11-2.725 2.8 2.762 2.762 0 012.725-2.8z"/><path class="g" d="M10.973 193.631a4.285 4.285 0 11-4.173 4.284 4.23 4.23 0 014.173-4.284z"/><path class="g" d="M44.667 209.058a6.638 6.638 0 11-6.465 6.635 6.553 6.553 0 016.465-6.635z"/><path class="g" d="M34.17 215.752a2.8 2.8 0 11-2.727 2.8 2.762 2.762 0 012.727-2.8z"/><path class="g" d="M69.102 222.647a2.8 2.8 0 11-2.725 2.8 2.762 2.762 0 012.725-2.8z"/><path class="g" d="M108.829 230.011a3.487 3.487 0 11-3.4 3.485 3.441 3.441 0 013.4-3.485z"/><path class="g" d="M34.037 223.529a8.3 8.3 0 11-8.08 8.292 8.19 8.19 0 018.08-8.292z"/><path class="g" d="M149.804 224.917a8.017 8.017 0 11-7.808 8.016 7.915 7.915 0 017.808-8.016z"/><path class="g" d="M137.694 231.123a2.525 2.525 0 11-2.459 2.524 2.492 2.492 0 012.459-2.524z"/><path class="g" d="M89.526 239.287a4.2 4.2 0 11-4.089 4.2 4.144 4.144 0 014.089-4.2z"/><path class="g" d="M72.551 246.903a3.486 3.486 0 11-3.4 3.485 3.442 3.442 0 013.4-3.485z"/><path class="g" d="M167.743 244.227a5.768 5.768 0 11-5.618 5.765 5.693 5.693 0 015.618-5.765z"/><path class="g" d="M143.409 249.394a2.525 2.525 0 11-2.459 2.524 2.492 2.492 0 012.459-2.524z"/><path class="g" d="M107.462 253.145a1.8 1.8 0 11-1.752 1.8 1.777 1.777 0 011.752-1.8z"/><path class="g" d="M88.315 263.488a1.8 1.8 0 11-1.752 1.8 1.777 1.777 0 011.752-1.8z"/><path class="g" d="M68.16 272.107a1.8 1.8 0 11-1.752 1.8 1.775 1.775 0 011.752-1.8z"/><path class="g" d="M52.913 253.42a4.2 4.2 0 11-4.088 4.2 4.143 4.143 0 014.088-4.2z"/><path class="g" d="M117.893 248.359a6.638 6.638 0 11-6.465 6.635 6.553 6.553 0 016.465-6.635z"/><path class="g" d="M122.597 261.8a8.017 8.017 0 11-7.81 8.014 7.913 7.913 0 017.81-8.014z"/><path class="g" d="M146.258 266.632a8.513 8.513 0 11-8.292 8.511 8.4 8.4 0 018.292-8.511z"/><path class="g" d="M146.091 261.765a1.8 1.8 0 11-1.752 1.8 1.774 1.774 0 011.752-1.8z"/><path class="g" d="M126.609 257.627a1.8 1.8 0 11-1.752 1.8 1.777 1.777 0 011.752-1.8z"/><path class="g" d="M93.022 268.011a2.525 2.525 0 11-2.459 2.524 2.492 2.492 0 012.459-2.524z"/><path class="g" d="M107.145 280.078a6.638 6.638 0 11-6.466 6.635 6.552 6.552 0 016.466-6.635z"/><path class="g" d="M181.865 269.389a8.514 8.514 0 11-8.292 8.511 8.4 8.4 0 018.292-8.511z"/><path class="g" d="M198.848 279.043a6.638 6.638 0 11-6.465 6.635 6.552 6.552 0 016.465-6.635z"/><path class="g" d="M166.944 257.243a3.486 3.486 0 11-3.4 3.485 3.44 3.44 0 013.4-3.485z"/><path class="g" d="M200.429 251.203a4.285 4.285 0 11-4.175 4.283 4.23 4.23 0 014.175-4.283z"/><path class="g" d="M220.01 255.598a6.638 6.638 0 11-6.465 6.635 6.553 6.553 0 016.465-6.635z"/><path class="g" d="M211.278 241.807a7.327 7.327 0 11-7.138 7.325 7.233 7.233 0 017.138-7.325z"/><path class="g" d="M202.861 240.734a1.8 1.8 0 11-1.752 1.8 1.775 1.775 0 011.752-1.8z"/><path class="g" d="M208.571 237.633a1.8 1.8 0 11-1.752 1.8 1.775 1.775 0 011.752-1.8z"/><path class="g" d="M135.366 292.756a3.487 3.487 0 11-3.4 3.487 3.443 3.443 0 013.4-3.487z"/><path class="g" d="M247.224 256.557a3.486 3.486 0 11-3.4 3.485 3.442 3.442 0 013.4-3.485z"/><path class="g" d="M229.734 229.014a1.8 1.8 0 11-1.752 1.8 1.776 1.776 0 011.752-1.8z"/><path class="h" d="M151.286.225a5.436 5.436 0 11-5.295 5.433 5.365 5.365 0 015.295-5.433z"/><path class="h" d="M152.891 12.409a8.071 8.071 0 11-7.861 8.069 7.967 7.967 0 017.861-8.069z"/><path class="h" d="M176.314 31.346a3.788 3.788 0 11-3.691 3.787 3.739 3.739 0 013.691-3.787z"/><path class="h" d="M131.715 23.771a7.577 7.577 0 11-7.381 7.575 7.478 7.478 0 017.381-7.575z"/><path class="h" d="M180.484 14.55a2.965 2.965 0 11-2.887 2.964 2.927 2.927 0 012.887-2.964z"/><path class="h" d="M191.234 7.634a6.26 6.26 0 11-6.1 6.258 6.178 6.178 0 016.1-6.258z"/><path class="h" d="M100.59 26.24a4.777 4.777 0 11-4.652 4.776 4.715 4.715 0 014.652-4.776z"/><path class="h" d="M78.291 18.338a2.635 2.635 0 11-2.567 2.631 2.6 2.6 0 012.567-2.634z"/><path class="h" d="M57.916 49.292a3.624 3.624 0 11-3.529 3.624 3.578 3.578 0 013.529-3.624z"/><path class="h" d="M77.488 60.487a2.8 2.8 0 11-2.727 2.8 2.765 2.765 0 012.727-2.8z"/><path class="h" d="M93.692 49.784a8.071 8.071 0 11-7.861 8.069 7.968 7.968 0 017.861-8.069z"/><path class="h" d="M125.777 50.116a4.118 4.118 0 11-4.01 4.117 4.066 4.066 0 014.01-4.117z"/><path class="h" d="M102.837 50.445a1.977 1.977 0 11-1.926 1.977 1.951 1.951 0 011.926-1.977z"/><path class="h" d="M46.848 50.279a7.577 7.577 0 11-7.381 7.575 7.478 7.478 0 017.381-7.575z"/><path class="h" d="M55.35 61.805a3.129 3.129 0 11-3.047 3.128 3.088 3.088 0 013.047-3.128z"/><path class="h" d="M150.965 52.585a4.118 4.118 0 11-4.012 4.116 4.063 4.063 0 014.012-4.116z"/><path class="h" d="M193.64 54.889a7.577 7.577 0 11-7.379 7.573 7.479 7.479 0 017.379-7.573z"/><path class="h" d="M209.523 29.701a6.26 6.26 0 11-6.1 6.258 6.179 6.179 0 016.1-6.258z"/><path class="h" d="M232.14 29.533a4.283 4.283 0 11-4.172 4.282 4.227 4.227 0 014.172-4.282z"/><path class="h" d="M244.976 61.639a4.283 4.283 0 11-4.172 4.282 4.228 4.228 0 014.172-4.282z"/><path class="h" d="M171.582 68.555a2.883 2.883 0 11-2.808 2.881 2.845 2.845 0 012.808-2.881z"/><path class="h" d="M115.108 76.13a3.377 3.377 0 11-3.288 3.375 3.333 3.333 0 013.288-3.375z"/><path class="h" d="M147.837 76.13a6.506 6.506 0 11-6.339 6.5 6.422 6.422 0 016.339-6.5z"/><path class="h" d="M157.945 83.704a2.882 2.882 0 11-2.808 2.881 2.844 2.844 0 012.808-2.881z"/><path class="h" d="M113.424 64.11a1.976 1.976 0 11-1.924 1.976 1.951 1.951 0 011.924-1.976z"/><path class="h" d="M100.108 87.655a4.777 4.777 0 11-4.652 4.776 4.715 4.715 0 014.652-4.776z"/><path class="h" d="M35.457 85.021a3.129 3.129 0 11-3.049 3.128 3.089 3.089 0 013.049-3.128z"/><path class="h" d="M22.779 80.739a8.236 8.236 0 11-8.022 8.233 8.13 8.13 0 018.022-8.233z"/><path class="h" d="M46.205 111.859a3.459 3.459 0 11-3.369 3.459 3.415 3.415 0 013.369-3.459z"/><path class="h" d="M75.964 101.815a4.2 4.2 0 11-4.091 4.2 4.146 4.146 0 014.091-4.2z"/><path class="h" d="M168.774 111.694a3.789 3.789 0 11-3.691 3.788 3.74 3.74 0 013.691-3.788z"/><path class="h" d="M254.121 90.125a7.577 7.577 0 11-7.379 7.575 7.479 7.479 0 017.379-7.575z"/><path class="h" d="M223.56 107.084a7.824 7.824 0 11-7.62 7.822 7.723 7.723 0 017.62-7.822z"/><path class="h" d="M280.197 93.419a7.824 7.824 0 11-7.62 7.82 7.722 7.722 0 017.62-7.82z"/><path class="h" d="M278.507 109.554a2.306 2.306 0 11-2.246 2.3 2.276 2.276 0 012.246-2.3z"/><path class="h" d="M242.73 121.903a2.306 2.306 0 11-2.246 2.306 2.276 2.276 0 012.246-2.306z"/><path class="h" d="M243.53 128.16a4.447 4.447 0 11-4.332 4.445 4.39 4.39 0 014.332-4.445z"/><path class="h" d="M257.17 138.862a2.306 2.306 0 11-2.246 2.3 2.276 2.276 0 012.246-2.3z"/><path class="h" d="M280.673 137.216a2.882 2.882 0 11-2.808 2.881 2.844 2.844 0 012.808-2.881z"/><path class="h" d="M293.669 132.934a3.706 3.706 0 11-3.61 3.706 3.66 3.66 0 013.61-3.706z"/><path class="h" d="M260.057 148.248a4.447 4.447 0 11-4.331 4.445 4.39 4.39 0 014.331-4.445z"/><path class="h" d="M138.371 141.99a7.824 7.824 0 11-7.62 7.822 7.723 7.723 0 017.62-7.822z"/><path class="h" d="M92.57 147.425a3.129 3.129 0 11-3.049 3.128 3.09 3.09 0 013.049-3.128z"/><path class="h" d="M41.634 136.228a6.506 6.506 0 11-6.337 6.5 6.421 6.421 0 016.337-6.5z"/><path class="h" d="M23.665 115.317a4.858 4.858 0 11-4.733 4.857 4.8 4.8 0 014.733-4.857z"/><path class="h" d="M54.306 98.687a7.33 7.33 0 11-7.14 7.328 7.236 7.236 0 017.14-7.328z"/><path class="h" d="M7.14 131.288A7.33 7.33 0 110 138.616a7.236 7.236 0 017.14-7.328z"/><path class="h" d="M19.493 154.01a4.859 4.859 0 11-4.733 4.858 4.8 4.8 0 014.733-4.858z"/><path class="h" d="M34.014 147.754a2.635 2.635 0 11-2.567 2.634 2.6 2.6 0 012.567-2.634z"/><path class="h" d="M149.682 115.482a2.964 2.964 0 11-2.889 2.963 2.925 2.925 0 012.889-2.963z"/><path class="h" d="M173.827 154.998a2.389 2.389 0 11-2.327 2.389 2.359 2.359 0 012.327-2.389z"/><path class="h" d="M192.919 157.962a6.177 6.177 0 11-6.017 6.174 6.1 6.1 0 016.017-6.174z"/><path class="h" d="M269.927 163.395a6.177 6.177 0 11-6.017 6.175 6.1 6.1 0 016.017-6.175z"/><path class="h" d="M279.15 168.168a2.306 2.306 0 11-2.246 2.3 2.276 2.276 0 012.246-2.3z"/><path class="h" d="M277.385 174.591a4.447 4.447 0 11-4.332 4.447 4.39 4.39 0 014.332-4.447z"/><path class="h" d="M245.379 175.085a7.166 7.166 0 11-6.979 7.163 7.074 7.074 0 016.979-7.163z"/><path class="h" d="M27.996 176.732a2.059 2.059 0 11-2.006 2.058 2.032 2.032 0 012.006-2.058z"/><path class="h" d="M6.818 185.294a2.059 2.059 0 11-2.005 2.058 2.033 2.033 0 012.005-2.058z"/><path class="h" d="M27.355 190.893a2.059 2.059 0 11-2.005 2.058 2.033 2.033 0 012.005-2.058z"/><path class="h" d="M47.329 201.266a2.964 2.964 0 11-2.887 2.963 2.926 2.926 0 012.887-2.963z"/><path class="h" d="M33.049 204.394a4.447 4.447 0 11-4.33 4.445 4.389 4.389 0 014.33-4.445z"/><path class="h" d="M22.862 195.338a7 7 0 11-6.819 7 6.911 6.911 0 016.819-7z"/><path class="h" d="M79.734 189.74a8.4 8.4 0 11-8.182 8.4 8.292 8.292 0 018.182-8.4z"/><path class="h" d="M81.259 215.59a1.729 1.729 0 11-1.685 1.729 1.708 1.708 0 011.685-1.729z"/><path class="h" d="M83.747 206.863a4.447 4.447 0 11-4.332 4.447 4.391 4.391 0 014.332-4.447z"/><path class="h" d="M143.907 193.527a5.271 5.271 0 11-5.135 5.268 5.2 5.2 0 015.135-5.268z"/><path class="h" d="M265.673 199.289a4.777 4.777 0 11-4.652 4.776 4.716 4.716 0 014.652-4.776z"/><path class="h" d="M266.635 209.168a2.306 2.306 0 11-2.246 2.306 2.277 2.277 0 012.246-2.306z"/><path class="h" d="M201.181 199.622a2.306 2.306 0 11-2.246 2.3 2.276 2.276 0 012.246-2.3z"/><path class="h" d="M177.837 205.546a3.871 3.871 0 11-3.769 3.869 3.821 3.821 0 013.769-3.869z"/><path class="h" d="M221.395 212.462a8.565 8.565 0 11-8.344 8.561 8.454 8.454 0 018.344-8.561z"/><path class="h" d="M280.835 195.996a7.824 7.824 0 11-7.622 7.822 7.723 7.723 0 017.622-7.822z"/><path class="h" d="M263.989 227.445a7.824 7.824 0 11-7.622 7.822 7.723 7.723 0 017.622-7.822z"/><path class="h" d="M273.053 226.128a2.965 2.965 0 11-2.887 2.963 2.927 2.927 0 012.887-2.963z"/><path class="h" d="M252.357 226.293a3.459 3.459 0 11-3.369 3.457 3.415 3.415 0 013.369-3.457z"/><path class="h" d="M202.383 226.292a6.177 6.177 0 11-6.015 6.175 6.1 6.1 0 016.015-6.175z"/><path class="h" d="M166.607 226.951a7.824 7.824 0 11-7.62 7.822 7.723 7.723 0 017.62-7.822z"/><path class="h" d="M233.347 242.592a2.882 2.882 0 11-2.808 2.881 2.844 2.844 0 012.808-2.881z"/><path class="h" d="M120.083 231.562a7.824 7.824 0 11-7.622 7.82 7.722 7.722 0 017.622-7.82z"/><path class="h" d="M46.527 223.988a4.447 4.447 0 11-4.332 4.445 4.389 4.389 0 014.332-4.445z"/><path class="h" d="M46.045 232.879a2.964 2.964 0 11-2.887 2.963 2.926 2.926 0 012.888-2.963z"/><path class="h" d="M80.536 241.603a3.459 3.459 0 11-3.369 3.459 3.415 3.415 0 013.369-3.459z"/><path class="h" d="M93.37 249.342a2.965 2.965 0 11-2.887 2.965 2.928 2.928 0 012.887-2.965z"/><path class="h" d="M109.093 258.399a3.953 3.953 0 11-3.85 3.951 3.9 3.9 0 013.85-3.951z"/><path class="h" d="M136.768 252.635a6.836 6.836 0 11-6.659 6.834 6.748 6.748 0 016.659-6.834z"/><path class="h" d="M188.185 263.174a2.965 2.965 0 11-2.887 2.964 2.926 2.926 0 012.887-2.964z"/><path class="h" d="M198.053 260.705a6.012 6.012 0 11-5.856 6.009 5.933 5.933 0 015.856-6.009z"/><path class="h" d="M235.112 249.671a8.318 8.318 0 11-8.1 8.316 8.21 8.21 0 018.1-8.316z"/><path class="h" d="M227.493 267.455a4.612 4.612 0 11-4.494 4.61 4.552 4.552 0 014.494-4.61z"/><path class="h" d="M169.015 278.652a2.882 2.882 0 11-2.808 2.881 2.846 2.846 0 012.808-2.881z"/><path class="h" d="M158.586 274.371a2.882 2.882 0 11-2.808 2.881 2.844 2.844 0 012.808-2.881z"/><path class="h" d="M133.478 272.889a3.459 3.459 0 11-3.369 3.455 3.414 3.414 0 013.369-3.457z"/><path class="h" d="M114.468 276.182a2.882 2.882 0 11-2.808 2.881 2.845 2.845 0 012.808-2.881z"/><path class="h" d="M97.783 271.571a2.883 2.883 0 11-2.808 2.883 2.846 2.846 0 012.808-2.883z"/><path class="h" d="M80.697 264.656a8.565 8.565 0 11-8.342 8.561 8.454 8.454 0 018.342-8.561z"/></svg>
