<svg xmlns="http://www.w3.org/2000/svg" width="300" height="299.999" viewBox="0 0 300 299.999"><defs><style>.a{fill:#fca054}.a,.b,.c,.d,.e,.f,.g,.h,.i,.j{fill-rule:evenodd}.b{fill:#bc4520}.c{fill:#f67e34}.d{fill:#e17974}.e{fill:#d05658}.f{fill:#7fa96d}.g{fill:#928237}.h{fill:#ae9c35}.i{fill:#7c722c}.j{fill:#006e40}</style></defs><path class="a" d="M90.243 109.734a4.713 4.713 0 11-4.6 4.711 4.658 4.658 0 014.6-4.711z"/><path class="a" d="M64.701 187.873a5.03 5.03 0 11-4.914 5.03 4.972 4.972 0 014.914-5.03z"/><path class="a" d="M49.026 209.497a5.03 5.03 0 11-4.914 5.029 4.972 4.972 0 014.914-5.029z"/><path class="a" d="M186.117 149.27a4.713 4.713 0 11-4.6 4.711 4.658 4.658 0 014.6-4.711z"/><path class="a" d="M142.884 131.858a3.074 3.074 0 11-3 3.074 3.039 3.039 0 013-3.074z"/><path class="a" d="M130.475 141.283a3.074 3.074 0 11-3 3.072 3.037 3.037 0 013-3.072z"/><path class="a" d="M122.068 152.138a2.254 2.254 0 11-2.2 2.253 2.228 2.228 0 012.2-2.253z"/><path class="a" d="M193.122 136.569a2.254 2.254 0 11-2.2 2.253 2.229 2.229 0 012.2-2.253z"/><path class="a" d="M214.137 155.825a2.254 2.254 0 11-2.2 2.253 2.229 2.229 0 012.2-2.253z"/><path class="a" d="M169.385 195.634a2.669 2.669 0 11-2.608 2.668 2.637 2.637 0 012.608-2.668z"/><path class="a" d="M101.461 214.467a2.669 2.669 0 11-2.608 2.668 2.638 2.638 0 012.608-2.668z"/><path class="a" d="M64.43 198.192a2.2 2.2 0 11-2.152 2.2 2.179 2.179 0 012.152-2.2z"/><path class="a" d="M117.136 207.026a1.972 1.972 0 11-1.926 1.975 1.948 1.948 0 011.926-1.971z"/><path class="a" d="M194.523 151.723a1.844 1.844 0 11-1.8 1.843 1.822 1.822 0 011.8-1.843z"/><path class="a" d="M148.287 99.082a6.147 6.147 0 11-6 6.146 6.076 6.076 0 016-6.146z"/><path class="a" d="M98.537 199.354a7.48 7.48 0 11-7.307 7.477 7.393 7.393 0 017.307-7.477z"/><path class="a" d="M219.141 145.788a5.532 5.532 0 11-5.4 5.531 5.468 5.468 0 015.4-5.531z"/><path class="b" d="M85.891 104.819a2.258 2.258 0 11-2.2 2.256 2.232 2.232 0 012.2-2.256z"/><path class="b" d="M97.449 102.951a3.348 3.348 0 11-3.269 3.347 3.31 3.31 0 013.269-3.347z"/><path class="b" d="M81.177 113.691a3.347 3.347 0 11-3.269 3.346 3.308 3.308 0 013.269-3.346z"/><path class="b" d="M69.807 181.514a2.828 2.828 0 11-2.762 2.828 2.795 2.795 0 012.762-2.828z"/><path class="b" d="M101.611 220.671a2.985 2.985 0 11-2.916 2.985 2.951 2.951 0 012.916-2.985z"/><path class="b" d="M58.591 213.097a2.383 2.383 0 11-2.327 2.381 2.355 2.355 0 012.327-2.381z"/><path class="b" d="M110.985 202.266a3.935 3.935 0 11-3.845 3.933 3.89 3.89 0 013.845-3.933z"/><path class="b" d="M55.212 195.039a3.3 3.3 0 11-3.224 3.3 3.262 3.262 0 013.224-3.3z"/><path class="b" d="M94.083 214.696a4.4 4.4 0 11-4.3 4.4 4.35 4.35 0 014.3-4.4z"/><path class="b" d="M135.469 132.68a3.97 3.97 0 11-3.879 3.969 3.924 3.924 0 013.879-3.969z"/><path class="b" d="M114.938 150.734a4.126 4.126 0 11-4.029 4.125 4.078 4.078 0 014.029-4.125z"/><path class="b" d="M185.047 125.52a4.126 4.126 0 11-4.03 4.125 4.078 4.078 0 014.031-4.125z"/><path class="b" d="M229.449 131.665a3.013 3.013 0 11-2.941 3.012 2.979 2.979 0 012.941-3.012z"/><path class="b" d="M194.414 155.882a3.485 3.485 0 11-3.4 3.484 3.443 3.443 0 013.4-3.484z"/><path class="b" d="M183.676 134.548a6.15 6.15 0 11-6.006 6.147 6.078 6.078 0 016.006-6.147z"/><path class="b" d="M205.034 146.134a6.988 6.988 0 11-6.826 6.986 6.908 6.908 0 016.826-6.986z"/><path class="b" d="M172.154 180.256a6.988 6.988 0 11-6.826 6.986 6.907 6.907 0 016.826-6.986z"/><path class="b" d="M126.674 204.317a6.358 6.358 0 11-6.212 6.357 6.285 6.285 0 016.212-6.357z"/><path class="b" d="M152.957 91.434a3.658 3.658 0 11-3.573 3.657 3.617 3.617 0 013.573-3.657z"/><path class="b" d="M125.432 128.165a5.216 5.216 0 11-5.095 5.214 5.156 5.156 0 015.095-5.214z"/><path class="b" d="M148.396 113.064a5.216 5.216 0 11-5.095 5.214 5.154 5.154 0 015.095-5.214z"/><path class="c" d="M89.719 93.276a6.2 6.2 0 11-6.056 6.2 6.127 6.127 0 016.056-6.2z"/><path class="c" d="M119.992 139.291a6.2 6.2 0 11-6.055 6.2 6.129 6.129 0 016.055-6.2z"/><path class="c" d="M185.9 117.1a3.771 3.771 0 11-3.684 3.77 3.727 3.727 0 013.684-3.77z"/><path class="c" d="M175.051 141.969a3.074 3.074 0 11-3 3.074 3.038 3.038 0 013-3.074z"/><path class="c" d="M193.46 142.165a4.531 4.531 0 11-4.424 4.53 4.479 4.479 0 014.424-4.53z"/><path class="c" d="M226.104 138.891a3.821 3.821 0 11-3.732 3.82 3.778 3.778 0 013.732-3.82z"/><path class="c" d="M137.305 202.972a3.821 3.821 0 11-3.732 3.82 3.775 3.775 0 013.732-3.82z"/><path class="c" d="M136.48 118.061a6.726 6.726 0 11-6.571 6.723 6.648 6.648 0 016.571-6.723z"/><path class="c" d="M112.401 211.215a7.846 7.846 0 11-7.664 7.845 7.755 7.755 0 017.664-7.845z"/><path class="c" d="M139.444 107.779a3.824 3.824 0 11-3.735 3.823 3.781 3.781 0 013.735-3.823z"/><path class="c" d="M59.375 201.79a4.7 4.7 0 11-4.593 4.7 4.648 4.648 0 014.593-4.7z"/><path class="c" d="M50.044 201.949a3.618 3.618 0 11-3.535 3.617 3.576 3.576 0 013.535-3.617z"/><path class="c" d="M72.018 173.606a3.618 3.618 0 11-3.535 3.617 3.576 3.576 0 013.535-3.617z"/><path class="d" d="M78.407 82.429a2.153 2.153 0 11-2.1 2.153 2.128 2.128 0 012.1-2.153z"/><path class="d" d="M114.979 136.419a2.154 2.154 0 11-2.1 2.153 2.129 2.129 0 012.1-2.153z"/><path class="d" d="M77.113 180.141a2.983 2.983 0 11-2.912 2.982 2.948 2.948 0 012.912-2.982z"/><path class="d" d="M164.819 200.679a2.982 2.982 0 11-2.913 2.981 2.946 2.946 0 012.913-2.981z"/><path class="d" d="M169.108 225.845a2.983 2.983 0 11-2.913 2.981 2.947 2.947 0 012.913-2.981z"/><path class="d" d="M213.427 212.384a2.982 2.982 0 11-2.913 2.981 2.947 2.947 0 012.913-2.981z"/><path class="d" d="M226.006 196.406a2.279 2.279 0 11-2.225 2.278 2.253 2.253 0 012.225-2.278z"/><path class="d" d="M88.927 195.048a3.976 3.976 0 11-3.883 3.975 3.929 3.929 0 013.883-3.975z"/><path class="d" d="M86.013 210.285a3.976 3.976 0 11-3.883 3.975 3.928 3.928 0 013.883-3.975z"/><path class="d" d="M162.39 176.499a3.976 3.976 0 11-3.883 3.975 3.93 3.93 0 013.883-3.975z"/><path class="d" d="M82.291 192.731a2.485 2.485 0 11-2.427 2.484 2.456 2.456 0 012.427-2.484z"/><path class="d" d="M66.272 209.622a2.485 2.485 0 11-2.428 2.484 2.455 2.455 0 012.428-2.484z"/><path class="d" d="M82.614 163.912a2.153 2.153 0 11-2.1 2.153 2.129 2.129 0 012.1-2.153z"/><path class="d" d="M147.018 82.429a1.822 1.822 0 11-1.78 1.821 1.8 1.8 0 011.78-1.821z"/><path class="d" d="M105.432 70.67a2.485 2.485 0 11-2.427 2.484 2.456 2.456 0 012.427-2.484z"/><path class="d" d="M98.797 70.007a3.148 3.148 0 11-3.074 3.147 3.112 3.112 0 013.074-3.147z"/><path class="d" d="M103.975 77.958a3.81 3.81 0 11-3.722 3.809 3.765 3.765 0 013.722-3.809z"/><path class="d" d="M136.338 99.652a3.81 3.81 0 11-3.722 3.81 3.767 3.767 0 013.722-3.81z"/><path class="d" d="M109.477 144.204a3.81 3.81 0 11-3.722 3.809 3.766 3.766 0 013.722-3.809z"/><path class="d" d="M245.728 134.598a5.8 5.8 0 11-5.664 5.8 5.73 5.73 0 015.664-5.8z"/><path class="d" d="M238.122 161.759a5.8 5.8 0 11-5.663 5.8 5.731 5.731 0 015.663-5.8z"/><path class="d" d="M175.504 215.604a5.8 5.8 0 11-5.664 5.8 5.731 5.731 0 015.664-5.8z"/><path class="d" d="M201.523 212.093a5.8 5.8 0 11-5.664 5.8 5.731 5.731 0 015.664-5.8z"/><path class="d" d="M223.396 72.161a5.964 5.964 0 11-5.825 5.962 5.895 5.895 0 015.825-5.962z"/><path class="d" d="M175.013 116.712a6.626 6.626 0 11-6.472 6.625 6.55 6.55 0 016.472-6.625z"/><path class="d" d="M151.631 84.747a3.562 3.562 0 11-3.479 3.562 3.522 3.522 0 013.479-3.562z"/><path class="d" d="M236.422 117.373a3.562 3.562 0 11-3.479 3.562 3.521 3.521 0 013.479-3.562z"/><path class="d" d="M235.129 139.401a3.893 3.893 0 11-3.8 3.891 3.848 3.848 0 013.8-3.891z"/><path class="d" d="M214.255 192.662a3.893 3.893 0 11-3.8 3.891 3.848 3.848 0 013.8-3.891z"/><path class="d" d="M221.121 199.099a3.893 3.893 0 11-3.8 3.892 3.848 3.848 0 013.8-3.892z"/><path class="d" d="M230.436 156.46a3.893 3.893 0 11-3.8 3.891 3.847 3.847 0 013.8-3.891z"/><path class="d" d="M235.583 173.433a4.478 4.478 0 11-4.376 4.477 4.427 4.427 0 014.376-4.477z"/><path class="d" d="M202.441 85.244a3.23 3.23 0 11-3.156 3.229 3.193 3.193 0 013.156-3.229z"/><path class="d" d="M170.725 111.247a2.733 2.733 0 11-2.671 2.733 2.7 2.7 0 012.671-2.733z"/><path class="d" d="M234.638 75.474a4.556 4.556 0 11-4.449 4.554 4.5 4.5 0 014.449-4.554z"/><path class="d" d="M78.731 87.728a5.8 5.8 0 11-5.664 5.8 5.731 5.731 0 015.664-5.8z"/><path class="d" d="M91.515 159.275a5.8 5.8 0 11-5.664 5.8 5.731 5.731 0 015.664-5.8z"/><path class="d" d="M157.213 202.5a4.97 4.97 0 11-4.854 4.968 4.912 4.912 0 014.854-4.968z"/><path class="d" d="M129.381 72.988a6.958 6.958 0 11-6.8 6.957 6.877 6.877 0 016.8-6.957z"/><path class="d" d="M191.847 84.914a7.786 7.786 0 11-7.605 7.783 7.695 7.695 0 017.605-7.783z"/><path class="d" d="M244.272 102.965a7.786 7.786 0 11-7.607 7.783 7.7 7.7 0 017.607-7.783z"/><path class="e" d="M90.67 74.446a8.834 8.834 0 11-8.63 8.833 8.733 8.733 0 018.63-8.833z"/><path class="e" d="M76.135 99.416a7.639 7.639 0 11-7.461 7.636 7.55 7.55 0 017.461-7.636z"/><path class="e" d="M115.326 69.665a7.24 7.24 0 11-7.073 7.238 7.157 7.157 0 017.073-7.238z"/><path class="e" d="M248.112 119.418a6.826 6.826 0 11-6.667 6.825 6.748 6.748 0 016.667-6.825z"/><path class="e" d="M241.42 146.985a6.826 6.826 0 11-6.667 6.822 6.748 6.748 0 016.667-6.825z"/><path class="e" d="M158.043 185.676a7.994 7.994 0 11-7.808 7.992 7.9 7.9 0 017.808-7.992z"/><path class="e" d="M209.682 72.139a6.171 6.171 0 11-6.027 6.169 6.1 6.1 0 016.027-6.169z"/><path class="e" d="M242.279 85.247a7.812 7.812 0 11-7.632 7.81 7.722 7.722 0 017.632-7.81z"/><path class="e" d="M141.539 74.314a3.919 3.919 0 11-3.828 3.917 3.873 3.873 0 013.828-3.917z"/><path class="e" d="M198.668 76.666a4.376 4.376 0 11-4.274 4.374 4.326 4.326 0 014.274-4.374z"/><path class="e" d="M238.126 128.642a4.376 4.376 0 11-4.274 4.376 4.326 4.326 0 014.274-4.376z"/><path class="e" d="M227.49 167.062a5.635 5.635 0 11-5.5 5.634 5.57 5.57 0 015.5-5.634z"/><path class="e" d="M231.607 84.186a3.177 3.177 0 11-3.1 3.176 3.14 3.14 0 013.1-3.176z"/><path class="e" d="M230.407 147.001a3.923 3.923 0 11-3.834 3.923 3.878 3.878 0 013.834-3.923z"/><path class="e" d="M210.505 201.681a5.431 5.431 0 11-5.3 5.43 5.368 5.368 0 015.3-5.43z"/><path class="e" d="M189.232 218.288a6.383 6.383 0 11-6.235 6.381 6.308 6.308 0 016.235-6.381z"/><path class="e" d="M167.788 207.928a4.8 4.8 0 11-4.691 4.8 4.747 4.747 0 014.691-4.8z"/><path class="e" d="M162.813 217.234a4.8 4.8 0 11-4.692 4.8 4.747 4.747 0 014.692-4.8z"/><path class="e" d="M218.74 208.325a2.824 2.824 0 11-2.759 2.824 2.792 2.792 0 012.759-2.824z"/><path class="e" d="M180.482 227.289a2.824 2.824 0 11-2.759 2.824 2.792 2.792 0 012.759-2.824z"/><path class="e" d="M87.226 204.142a2.825 2.825 0 11-2.76 2.825 2.794 2.794 0 012.76-2.825z"/><path class="e" d="M216.852 71.676a1.816 1.816 0 11-1.774 1.815 1.795 1.795 0 011.774-1.815z"/><path class="e" d="M174.477 130.717a4.581 4.581 0 11-4.474 4.579 4.528 4.528 0 014.474-4.579z"/><path class="e" d="M82.352 169.696a5.284 5.284 0 11-5.161 5.283 5.223 5.223 0 015.161-5.283z"/><path class="e" d="M102.595 151.215a6.733 6.733 0 11-6.578 6.732 6.657 6.657 0 016.578-6.732z"/><path class="e" d="M140.37 83.345a7.771 7.771 0 11-7.591 7.77 7.682 7.682 0 017.591-7.77z"/><path class="e" d="M181.545 98.463a8.807 8.807 0 11-8.6 8.8 8.705 8.705 0 018.6-8.8z"/><path class="e" d="M75.231 196.975a8.128 8.128 0 11-7.939 8.126 8.034 8.034 0 017.939-8.126z"/><path class="e" d="M225.292 178.53a8.807 8.807 0 11-8.6 8.8 8.705 8.705 0 018.6-8.8z"/><path class="f" d="M89.879 66.549a3.291 3.291 0 11-3.215 3.291 3.253 3.253 0 013.215-3.291z"/><path class="f" d="M102.54 85.89a3.889 3.889 0 11-3.8 3.888 3.844 3.844 0 013.8-3.888z"/><path class="f" d="M125.333 114.001a4.288 4.288 0 11-4.188 4.288 4.239 4.239 0 014.188-4.288z"/><path class="f" d="M164.685 127.958a4.288 4.288 0 11-4.189 4.288 4.238 4.238 0 014.189-4.288z"/><path class="f" d="M169.166 152.084a4.288 4.288 0 11-4.188 4.286 4.239 4.239 0 014.188-4.286z"/><path class="f" d="M86.372 219.076a2.892 2.892 0 11-2.825 2.891 2.86 2.86 0 012.825-2.891z"/><path class="f" d="M90.463 149.492a4.287 4.287 0 11-4.188 4.286 4.238 4.238 0 014.188-4.286z"/><path class="f" d="M120.659 84.095a3.889 3.889 0 11-3.8 3.888 3.844 3.844 0 013.8-3.888z"/><path class="f" d="M145.009 69.141a2.294 2.294 0 11-2.24 2.293 2.266 2.266 0 012.24-2.293z"/><path class="f" d="M120.27 102.838a2.293 2.293 0 11-2.242 2.292 2.267 2.267 0 012.242-2.292z"/><path class="f" d="M128.255 102.438a5.485 5.485 0 11-5.356 5.483 5.421 5.421 0 015.356-5.483z"/><path class="f" d="M156.308 149.891a5.883 5.883 0 11-5.747 5.881 5.816 5.816 0 015.747-5.881z"/><path class="f" d="M88.51 178.402a7.479 7.479 0 11-7.306 7.476 7.392 7.392 0 017.306-7.476z"/><path class="f" d="M152.412 169.63a5.883 5.883 0 11-5.746 5.881 5.814 5.814 0 015.746-5.881z"/><path class="g" d="M133.184 1.548a7.7 7.7 0 11-7.517 7.693 7.606 7.606 0 017.517-7.693z"/><path class="g" d="M110.718 34.799a6.988 6.988 0 11-6.826 6.988 6.908 6.908 0 016.826-6.988z"/><path class="g" d="M55.24 86.739a8.286 8.286 0 11-8.093 8.284 8.19 8.19 0 018.093-8.284z"/><path class="g" d="M9.378 144.404a7.991 7.991 0 11-7.805 7.989 7.9 7.9 0 017.805-7.989z"/><path class="g" d="M26.923 188.386a7.175 7.175 0 11-7.01 7.173 7.093 7.093 0 017.01-7.173z"/><path class="g" d="M100.956 237.795a8.822 8.822 0 11-8.618 8.819 8.72 8.72 0 018.618-8.819z"/><path class="g" d="M238.624 254.028a8.822 8.822 0 11-8.618 8.819 8.72 8.72 0 018.618-8.819z"/><path class="g" d="M166.692 251.686a7.365 7.365 0 11-7.194 7.363 7.28 7.28 0 017.194-7.363z"/><path class="g" d="M177.973 280.912a7.365 7.365 0 11-7.194 7.363 7.28 7.28 0 017.194-7.363z"/><path class="g" d="M224.509 211.968a7.754 7.754 0 11-7.574 7.752 7.664 7.664 0 017.574-7.752z"/><path class="g" d="M27.809 173.559a6.767 6.767 0 11-6.61 6.764 6.689 6.689 0 016.61-6.764z"/><path class="g" d="M37.555 156.464a5.905 5.905 0 11-5.768 5.9 5.837 5.837 0 015.768-5.9z"/><path class="g" d="M20.706 87.168a8.17 8.17 0 11-7.98 8.167 8.075 8.075 0 017.98-8.167z"/><path class="g" d="M187.213 71.627a6.232 6.232 0 11-6.087 6.231 6.16 6.16 0 016.087-6.231z"/><path class="g" d="M255.967 93.786a6.232 6.232 0 11-6.087 6.231 6.162 6.162 0 016.087-6.231z"/><path class="g" d="M274.477 125.953a6.881 6.881 0 11-6.72 6.879 6.8 6.8 0 016.72-6.879z"/><path class="g" d="M142.754 157.246a6.881 6.881 0 11-6.722 6.879 6.8 6.8 0 016.722-6.879z"/><path class="g" d="M115.255 160.342a7.213 7.213 0 11-7.045 7.211 7.131 7.131 0 017.045-7.211z"/><path class="g" d="M272.33 173.655a6.881 6.881 0 11-6.722 6.879 6.8 6.8 0 016.722-6.879z"/><path class="g" d="M259.109 214.274a8.116 8.116 0 11-7.929 8.114 8.022 8.022 0 017.929-8.114z"/><path class="g" d="M196.034 116.884a5.955 5.955 0 11-5.818 5.953 5.887 5.887 0 015.818-5.953z"/><path class="g" d="M203.306 161.543a5.955 5.955 0 11-5.818 5.953 5.886 5.886 0 015.818-5.953z"/><path class="g" d="M163.831 81.78a6.232 6.232 0 11-6.087 6.229 6.16 6.16 0 016.087-6.229z"/><path class="g" d="M154.959 35.329a6.988 6.988 0 11-6.826 6.988 6.909 6.909 0 016.826-6.988z"/><path class="g" d="M207.149 43.467a6.988 6.988 0 11-6.826 6.986 6.908 6.908 0 016.826-6.986z"/><path class="g" d="M245.492 39.173a8.576 8.576 0 11-8.375 8.572 8.477 8.477 0 018.375-8.572z"/><path class="g" d="M263.342 69.513a7.837 7.837 0 11-7.655 7.835 7.746 7.746 0 017.655-7.835z"/><path class="g" d="M87.215 27.547a6.28 6.28 0 11-6.135 6.279 6.209 6.209 0 016.135-6.279z"/><path class="g" d="M62.952 49.392a6.28 6.28 0 11-6.134 6.278 6.208 6.208 0 016.134-6.278z"/><path class="g" d="M96.426 55.192a6.688 6.688 0 11-6.532 6.687 6.612 6.612 0 016.532-6.687z"/><path class="g" d="M59.89 130.57a6.688 6.688 0 11-6.532 6.687 6.611 6.611 0 016.532-6.687z"/><path class="g" d="M106.04 132.04a5.808 5.808 0 11-5.672 5.806 5.741 5.741 0 015.672-5.806z"/><path class="g" d="M173.447 40.459a5.927 5.927 0 11-5.79 5.925 5.858 5.858 0 015.79-5.925z"/><path class="g" d="M159.28 8.799a3.8 3.8 0 11-3.716 3.8 3.761 3.761 0 013.716-3.8z"/><path class="g" d="M217.864 27.193a3.8 3.8 0 11-3.716 3.8 3.76 3.76 0 013.716-3.8z"/><path class="g" d="M201.792 60.441a3.8 3.8 0 11-3.716 3.8 3.761 3.761 0 013.716-3.8z"/><path class="g" d="M276.164 71.565a3.171 3.171 0 11-3.1 3.171 3.134 3.134 0 013.1-3.171z"/><path class="g" d="M277.321 108.441a3.171 3.171 0 11-3.1 3.171 3.136 3.136 0 013.1-3.171z"/><path class="g" d="M261.124 142.779a3.171 3.171 0 11-3.1 3.169 3.134 3.134 0 013.1-3.169z"/><path class="g" d="M171.381 171.873a3.171 3.171 0 11-3.1 3.171 3.134 3.134 0 013.1-3.171z"/><path class="g" d="M200.995 201.821a3.171 3.171 0 11-3.1 3.171 3.135 3.135 0 013.1-3.171z"/><path class="g" d="M177 149.207a3.171 3.171 0 11-3.1 3.169 3.133 3.133 0 013.1-3.169z"/><path class="g" d="M152.705 162.232a3.171 3.171 0 11-3.1 3.169 3.134 3.134 0 013.1-3.169z"/><path class="g" d="M133.368 181.958a3.743 3.743 0 11-3.656 3.742 3.7 3.7 0 013.656-3.742z"/><path class="g" d="M146.237 203.131a4.761 4.761 0 11-4.651 4.76 4.707 4.707 0 014.651-4.76z"/><path class="g" d="M115.389 185.567a3.743 3.743 0 11-3.657 3.741 3.7 3.7 0 013.657-3.741z"/><path class="g" d="M87.359 239.393a4.22 4.22 0 11-4.122 4.217 4.17 4.17 0 014.122-4.217z"/><path class="g" d="M56.162 235.604a4.22 4.22 0 11-4.123 4.219 4.172 4.172 0 014.123-4.219z"/><path class="g" d="M48.935 251.48a4.22 4.22 0 11-4.122 4.219 4.172 4.172 0 014.122-4.219z"/><path class="g" d="M257.985 150.837a3.912 3.912 0 11-3.822 3.91 3.867 3.867 0 013.822-3.91z"/><path class="g" d="M279.306 166.566a4.082 4.082 0 11-3.988 4.08 4.034 4.034 0 013.988-4.08z"/><path class="g" d="M269.554 188.048a4.082 4.082 0 11-3.988 4.08 4.034 4.034 0 013.988-4.08z"/><path class="g" d="M252.633 203.359a4.828 4.828 0 11-4.717 4.826 4.772 4.772 0 014.717-4.826z"/><path class="g" d="M220.473 126.137a5.943 5.943 0 11-5.806 5.941 5.875 5.875 0 015.806-5.941z"/><path class="g" d="M274.181 198.534a4.082 4.082 0 11-3.986 4.08 4.035 4.035 0 013.986-4.08z"/><path class="g" d="M253.026 178.236a4.082 4.082 0 11-3.986 4.08 4.034 4.034 0 013.986-4.08z"/><path class="g" d="M266.084 120.62a3.509 3.509 0 11-3.428 3.509 3.468 3.468 0 013.428-3.509z"/><path class="g" d="M227.245 55.939a4.42 4.42 0 11-4.319 4.419 4.369 4.369 0 014.319-4.419z"/><path class="g" d="M221.839 35.86a2.919 2.919 0 11-2.852 2.919 2.886 2.886 0 012.852-2.919z"/><path class="g" d="M128.172 28.251a3.45 3.45 0 11-3.37 3.45 3.41 3.41 0 013.37-3.45z"/><path class="g" d="M53.568 59.296a3.2 3.2 0 11-3.128 3.2 3.166 3.166 0 013.128-3.2z"/><path class="g" d="M54.145 76.795a4.794 4.794 0 11-4.683 4.793 4.74 4.74 0 014.683-4.793z"/><path class="g" d="M22.224 125.851a4.151 4.151 0 11-4.054 4.15 4.1 4.1 0 014.054-4.15z"/><path class="g" d="M92.028 119.896a4.795 4.795 0 11-4.683 4.793 4.738 4.738 0 014.683-4.793z"/><path class="g" d="M50.491 120.684a5.975 5.975 0 11-5.837 5.974 5.906 5.906 0 015.837-5.974z"/><path class="g" d="M16.456 133.726a5.331 5.331 0 11-5.208 5.33 5.269 5.269 0 015.208-5.33z"/><path class="g" d="M68.572 91.75a4.794 4.794 0 11-4.683 4.792 4.739 4.739 0 014.683-4.792z"/><path class="g" d="M73.338 51.708a3.2 3.2 0 11-3.128 3.2 3.166 3.166 0 013.128-3.2z"/><path class="g" d="M30.84 99.537a3.2 3.2 0 11-3.132 3.2 3.166 3.166 0 013.128-3.2z"/><path class="g" d="M36.23 112.327a3.2 3.2 0 11-3.128 3.2 3.166 3.166 0 013.128-3.2z"/><path class="g" d="M77.624 138.761a3.2 3.2 0 11-3.128 3.2 3.165 3.165 0 013.128-3.2z"/><path class="g" d="M37.291 148.028a3.774 3.774 0 11-3.687 3.773 3.73 3.73 0 013.687-3.773z"/><path class="g" d="M64.579 171.244a4.137 4.137 0 11-4.041 4.136 4.09 4.09 0 014.041-4.136z"/><path class="g" d="M42.47 201.365a4.137 4.137 0 11-4.041 4.136 4.09 4.09 0 014.041-4.136z"/><path class="g" d="M72.792 252.836a5.527 5.527 0 11-5.4 5.525 5.464 5.464 0 015.4-5.525z"/><path class="g" d="M137.657 253.197a5.526 5.526 0 11-5.4 5.525 5.462 5.462 0 015.4-5.525z"/><path class="g" d="M111.567 284.092a6.2 6.2 0 11-6.059 6.2 6.132 6.132 0 016.059-6.2z"/><path class="g" d="M120.14 192.985a5.955 5.955 0 11-5.818 5.953 5.887 5.887 0 015.818-5.953z"/><path class="g" d="M160.153 227.805a6.857 6.857 0 11-6.7 6.856 6.779 6.779 0 016.7-6.856z"/><path class="g" d="M134.948 238.991a6.857 6.857 0 11-6.7 6.854 6.778 6.778 0 016.7-6.854z"/><path class="g" d="M142.878 270.197a6.858 6.858 0 11-6.7 6.857 6.779 6.779 0 016.7-6.857z"/><path class="g" d="M43.934 219.348a4.137 4.137 0 11-4.041 4.136 4.09 4.09 0 014.041-4.136z"/><path class="g" d="M53.237 170.7a2.685 2.685 0 11-2.624 2.688 2.654 2.654 0 012.624-2.684z"/><path class="g" d="M22.635 217.605a2.686 2.686 0 11-2.624 2.686 2.655 2.655 0 012.624-2.686z"/><path class="g" d="M64.764 234.966a2.824 2.824 0 11-2.759 2.824 2.792 2.792 0 012.759-2.824z"/><path class="g" d="M56.303 259.682a3.365 3.365 0 11-3.288 3.365 3.328 3.328 0 013.288-3.365z"/><path class="g" d="M83.096 225.098a2.409 2.409 0 11-2.353 2.408 2.381 2.381 0 012.353-2.408z"/><path class="g" d="M133.686 280.484a2.409 2.409 0 11-2.353 2.409 2.382 2.382 0 012.353-2.409z"/><path class="g" d="M118.703 260.223a3 3 0 11-2.935 3 2.97 2.97 0 012.935-3z"/><path class="g" d="M117.47 227.209a3 3 0 11-2.935 3 2.97 2.97 0 012.935-3z"/><path class="g" d="M157.482 263.288a3 3 0 11-2.935 3 2.97 2.97 0 012.935-3z"/><path class="g" d="M117.822 234.328a3.646 3.646 0 11-3.562 3.645 3.6 3.6 0 013.562-3.645z"/><path class="g" d="M93.5 270.767a3.647 3.647 0 11-3.562 3.645 3.605 3.605 0 013.562-3.645z"/><path class="g" d="M100.371 284.272a4.033 4.033 0 11-3.939 4.032 3.987 3.987 0 013.939-4.032z"/><path class="g" d="M123.506 12.868a2.919 2.919 0 11-2.85 2.918 2.885 2.885 0 012.85-2.918z"/><path class="g" d="M93.169 39.31a2.68 2.68 0 11-2.618 2.68 2.649 2.649 0 012.618-2.68z"/><path class="g" d="M75.669 77.13a2.253 2.253 0 11-2.2 2.252 2.227 2.227 0 012.2-2.252z"/><path class="g" d="M158.752 31.703a2.039 2.039 0 11-1.992 2.037 2.015 2.015 0 011.992-2.037z"/><path class="g" d="M182.617 4.689a2.848 2.848 0 11-2.782 2.847 2.815 2.815 0 012.782-2.847z"/><path class="g" d="M137.159 65.221a4.688 4.688 0 11-4.579 4.688 4.635 4.635 0 014.579-4.688z"/><path class="g" d="M169.328 93.22a2.647 2.647 0 11-2.586 2.646 2.616 2.616 0 012.586-2.646z"/><path class="g" d="M192.746 129.177a2.647 2.647 0 11-2.584 2.647 2.617 2.617 0 012.584-2.647z"/><path class="g" d="M165.525 121.707a2.647 2.647 0 11-2.587 2.646 2.617 2.617 0 012.586-2.646z"/><path class="g" d="M147.731 124.43a3.5 3.5 0 11-3.422 3.5 3.463 3.463 0 013.422-3.5z"/><path class="g" d="M203.759 181.954a4.506 4.506 0 11-4.4 4.505 4.455 4.455 0 014.4-4.505z"/><path class="g" d="M181.777 190.919a4.506 4.506 0 11-4.4 4.505 4.455 4.455 0 014.4-4.505z"/><path class="g" d="M133.284 112.446a2.569 2.569 0 11-2.509 2.568 2.539 2.539 0 012.509-2.568z"/><path class="g" d="M127.506 123.751a2 2 0 11-1.956 2 1.98 1.98 0 011.956-2z"/><path class="g" d="M111.674 113.237a2 2 0 11-1.956 2 1.98 1.98 0 011.956-2z"/><path class="g" d="M215.382 101.756a1.946 1.946 0 11-1.9 1.946 1.924 1.924 0 011.9-1.946z"/><path class="g" d="M234.554 109.535a1.946 1.946 0 11-1.9 1.945 1.923 1.923 0 011.9-1.945z"/><path class="g" d="M276.4 151.149a2.316 2.316 0 11-2.264 2.315 2.29 2.29 0 012.264-2.315z"/><path class="g" d="M143.849 171.785a2.317 2.317 0 11-2.262 2.317 2.29 2.29 0 012.262-2.317z"/><path class="g" d="M138.739 225.006a2.316 2.316 0 11-2.261 2.315 2.289 2.289 0 012.264-2.315z"/><path class="g" d="M192.105 235.02a2.541 2.541 0 11-2.481 2.541 2.512 2.512 0 012.481-2.541z"/><path class="g" d="M178.4 210.032a2.316 2.316 0 11-2.264 2.317 2.289 2.289 0 012.264-2.317z"/><path class="g" d="M209.071 250.443a2.317 2.317 0 11-2.264 2.317 2.29 2.29 0 012.264-2.317z"/><path class="g" d="M131.125 158.591a2.317 2.317 0 11-2.264 2.317 2.289 2.289 0 012.264-2.317z"/><path class="g" d="M149.139 182.612a2.823 2.823 0 11-2.757 2.822 2.791 2.791 0 012.757-2.822z"/><path class="g" d="M153.37 222.844a2.822 2.822 0 11-2.758 2.822 2.791 2.791 0 012.758-2.822z"/><path class="g" d="M209.6 236.389a3.347 3.347 0 11-3.269 3.345 3.308 3.308 0 013.269-3.345z"/><path class="g" d="M212.068 220.28a4.124 4.124 0 11-4.029 4.123 4.076 4.076 0 014.029-4.123z"/><path class="g" d="M226.874 263.814a3.346 3.346 0 11-3.269 3.341 3.307 3.307 0 013.269-3.345z"/><path class="g" d="M206.075 271.571a3.347 3.347 0 11-3.271 3.346 3.308 3.308 0 013.271-3.346z"/><path class="g" d="M199.375 274.637a3.347 3.347 0 11-3.269 3.347 3.31 3.31 0 013.269-3.347z"/><path class="g" d="M186.157 239.583a3.764 3.764 0 11-3.678 3.763 3.721 3.721 0 013.678-3.763z"/><path class="g" d="M247.674 223.527a3.763 3.763 0 11-3.676 3.761 3.72 3.72 0 013.676-3.761z"/><path class="g" d="M292.266 182.442a2.316 2.316 0 11-2.264 2.317 2.29 2.29 0 012.264-2.317z"/><path class="g" d="M219.018 113.596a1.947 1.947 0 11-1.9 1.946 1.925 1.925 0 011.9-1.946z"/><path class="g" d="M223.646 157.577a1.946 1.946 0 11-1.9 1.945 1.923 1.923 0 011.9-1.945z"/><path class="g" d="M87.211 17.289a4.865 4.865 0 11-4.752 4.864 4.81 4.81 0 014.752-4.864z"/><path class="h" d="M170.184.572a7.679 7.679 0 11-7.5 7.677 7.592 7.592 0 017.5-7.677z"/><path class="h" d="M160.073 52.98a7.679 7.679 0 11-7.5 7.677 7.591 7.591 0 017.5-7.677z"/><path class="h" d="M209.516 107.746a7.015 7.015 0 11-6.851 7.013 6.934 6.934 0 016.851-7.013z"/><path class="h" d="M242.391 182.574a7.015 7.015 0 11-6.853 7.013 6.934 6.934 0 016.853-7.013z"/><path class="h" d="M214.074 56.538a7.679 7.679 0 11-7.5 7.677 7.591 7.591 0 017.5-7.677z"/><path class="h" d="M285.791 113.227a7.867 7.867 0 11-7.683 7.865 7.776 7.776 0 017.683-7.865z"/><path class="h" d="M291.394 161.113a7.271 7.271 0 11-7.1 7.269 7.187 7.187 0 017.1-7.269z"/><path class="h" d="M185.351 24.439a7.012 7.012 0 11-6.85 7.01 6.93 6.93 0 016.85-7.01z"/><path class="h" d="M125.665 36.289a7.012 7.012 0 11-6.85 7.01 6.931 6.931 0 016.85-7.01z"/><path class="h" d="M139.037 52.145a6.177 6.177 0 11-6.034 6.175 6.106 6.106 0 016.034-6.175z"/><path class="h" d="M84.244 43.966a7.679 7.679 0 11-7.5 7.677 7.592 7.592 0 017.5-7.677z"/><path class="h" d="M47.063 44.801a7.679 7.679 0 11-7.5 7.677 7.59 7.59 0 017.5-7.677z"/><path class="h" d="M34.439 119.897a7.68 7.68 0 11-7.5 7.679 7.592 7.592 0 017.5-7.679z"/><path class="h" d="M75.466 149.237a7.679 7.679 0 11-7.5 7.677 7.592 7.592 0 017.5-7.677z"/><path class="h" d="M33.523 208.594a7.679 7.679 0 11-7.5 7.677 7.591 7.591 0 017.5-7.677z"/><path class="h" d="M73.654 237.212a7.679 7.679 0 11-7.5 7.677 7.592 7.592 0 017.5-7.677z"/><path class="h" d="M117.667 243.837a7.679 7.679 0 11-7.5 7.677 7.591 7.591 0 017.5-7.677z"/><path class="h" d="M148.219 284.38a7.679 7.679 0 11-7.5 7.677 7.591 7.591 0 017.5-7.677z"/><path class="h" d="M174.369 231.387a7.679 7.679 0 11-7.5 7.677 7.592 7.592 0 017.5-7.677z"/><path class="h" d="M220.972 228.467a7.679 7.679 0 11-7.5 7.677 7.591 7.591 0 017.5-7.677z"/><path class="h" d="M275.084 208.328a7.679 7.679 0 11-7.5 7.677 7.592 7.592 0 017.5-7.677z"/><path class="h" d="M200.777 257.085a7.68 7.68 0 11-7.5 7.679 7.592 7.592 0 017.5-7.679z"/><path class="h" d="M102.672 26.275a4.842 4.842 0 11-4.729 4.84 4.785 4.785 0 014.729-4.84z"/><path class="h" d="M76.579 21.602a4.841 4.841 0 11-4.729 4.84 4.785 4.785 0 014.729-4.84z"/><path class="h" d="M111.966 5.578a5.51 5.51 0 11-5.38 5.508 5.447 5.447 0 015.38-5.508z"/><path class="h" d="M137.08 22.936a5.509 5.509 0 11-5.381 5.508 5.446 5.446 0 015.381-5.508z"/><path class="h" d="M108.052 49.808a5.509 5.509 0 11-5.381 5.508 5.446 5.446 0 015.381-5.508z"/><path class="h" d="M39.144 93.682a5.509 5.509 0 11-5.381 5.508 5.446 5.446 0 015.381-5.508z"/><path class="h" d="M48.352 150.745a5.509 5.509 0 11-5.381 5.508 5.447 5.447 0 015.381-5.508z"/><path class="h" d="M54.308 177.243a5.51 5.51 0 11-5.381 5.508 5.446 5.446 0 015.381-5.508z"/><path class="h" d="M11.534 102.727a4.538 4.538 0 11-4.433 4.538 4.486 4.486 0 014.433-4.538z"/><path class="h" d="M93.326 131.527a4.539 4.539 0 11-4.433 4.538 4.487 4.487 0 014.433-4.538z"/><path class="h" d="M101.869 166.272a3.713 3.713 0 11-3.628 3.712 3.671 3.671 0 013.628-3.712z"/><path class="h" d="M108.343 193.3a3.713 3.713 0 11-3.628 3.712 3.669 3.669 0 013.628-3.712z"/><path class="h" d="M153.134 213.968a3.713 3.713 0 11-3.628 3.713 3.671 3.671 0 013.628-3.713z"/><path class="h" d="M175.658 199.639a4.795 4.795 0 11-4.683 4.793 4.74 4.74 0 014.683-4.793z"/><path class="h" d="M249.706 249.19a4.795 4.795 0 11-4.683 4.793 4.74 4.74 0 014.683-4.793z"/><path class="h" d="M138.117 211.562a4.795 4.795 0 11-4.683 4.793 4.74 4.74 0 014.683-4.793z"/><path class="h" d="M64.845 262.969a4.795 4.795 0 11-4.683 4.793 4.739 4.739 0 014.683-4.793z"/><path class="h" d="M94.36 260.053a4.795 4.795 0 11-4.683 4.793 4.74 4.74 0 014.683-4.793z"/><path class="h" d="M163.23 288.694a5.3 5.3 0 11-5.18 5.3 5.243 5.243 0 015.18-5.3z"/><path class="h" d="M206.986 280.191a6.119 6.119 0 11-5.978 6.118 6.049 6.049 0 015.978-6.118z"/><path class="h" d="M164.008 242.586a3.979 3.979 0 11-3.887 3.978 3.932 3.932 0 013.887-3.978z"/><path class="h" d="M156.706 121.296a4.539 4.539 0 11-4.433 4.538 4.487 4.487 0 014.433-4.538z"/><path class="h" d="M129.881 149.023a4.539 4.539 0 11-4.433 4.538 4.486 4.486 0 014.433-4.538z"/><path class="h" d="M89.232 279.213a5.783 5.783 0 11-5.649 5.781 5.715 5.715 0 015.649-5.781z"/><path class="h" d="M4.433 135.027A4.539 4.539 0 110 139.565a4.486 4.486 0 014.433-4.538z"/><path class="h" d="M24.417 105.632a6.211 6.211 0 11-6.066 6.209 6.139 6.139 0 016.066-6.209z"/><path class="h" d="M24.947 141.969a6.48 6.48 0 11-6.329 6.478 6.405 6.405 0 016.329-6.478z"/><path class="h" d="M42.034 170.322a6.48 6.48 0 11-6.329 6.478 6.405 6.405 0 016.329-6.478z"/><path class="h" d="M43.588 238.688a6.48 6.48 0 11-6.329 6.479 6.405 6.405 0 016.329-6.479z"/><path class="h" d="M107.538 226.233a6.48 6.48 0 11-6.329 6.479 6.406 6.406 0 016.329-6.479z"/><path class="h" d="M262.625 232.063a6.48 6.48 0 11-6.331 6.479 6.406 6.406 0 016.331-6.479z"/><path class="h" d="M145.081 228.088a6.48 6.48 0 11-6.331 6.479 6.406 6.406 0 016.331-6.479z"/><path class="h" d="M199.452 225.173a6.48 6.48 0 11-6.331 6.478 6.406 6.406 0 016.331-6.478z"/><path class="h" d="M181.069 255.644a6.48 6.48 0 11-6.329 6.478 6.4 6.4 0 016.329-6.478z"/><path class="h" d="M103.655 271.015a6.48 6.48 0 11-6.329 6.479 6.406 6.406 0 016.329-6.479z"/><path class="h" d="M148.187 259.181a5.6 5.6 0 11-5.465 5.594 5.532 5.532 0 015.465-5.594z"/><path class="h" d="M11.484 181.186a6.48 6.48 0 11-6.331 6.478 6.405 6.405 0 016.331-6.478z"/><path class="h" d="M39.937 77.906a6.48 6.48 0 11-6.329 6.479 6.406 6.406 0 016.329-6.479z"/><path class="h" d="M65.973 78.446a6.48 6.48 0 11-6.329 6.478 6.4 6.4 0 016.329-6.478z"/><path class="h" d="M69.919 116.186a6.961 6.961 0 11-6.8 6.96 6.881 6.881 0 016.8-6.96z"/><path class="h" d="M166.106 26.275a5.509 5.509 0 11-5.381 5.508 5.447 5.447 0 015.381-5.508z"/><path class="h" d="M247.313 73.376a5.509 5.509 0 11-5.381 5.506 5.445 5.445 0 015.381-5.506z"/><path class="h" d="M258.56 49.337a4.637 4.637 0 11-4.529 4.636 4.584 4.584 0 014.529-4.636z"/><path class="h" d="M174.494 77.601a4.637 4.637 0 11-4.53 4.636 4.584 4.584 0 014.53-4.636z"/><path class="h" d="M161.198 95.814a4.637 4.637 0 11-4.53 4.635 4.583 4.583 0 014.53-4.635z"/><path class="h" d="M195.354 102.304a4.637 4.637 0 11-4.529 4.636 4.583 4.583 0 014.529-4.636z"/><path class="h" d="M121.457 174.799a5.893 5.893 0 11-5.756 5.891 5.824 5.824 0 015.756-5.891z"/><path class="h" d="M142.234 189.109a6.657 6.657 0 11-6.5 6.654 6.579 6.579 0 016.5-6.654z"/><path class="h" d="M214.032 15.18a5.567 5.567 0 11-5.439 5.565 5.5 5.5 0 015.439-5.565z"/><path class="h" d="M70.871 42.8a4.173 4.173 0 11-4.076 4.173 4.126 4.126 0 014.076-4.173z"/><path class="h" d="M83.756 59.822a4.173 4.173 0 11-4.078 4.173 4.126 4.126 0 014.078-4.173z"/><path class="h" d="M108.216 61.491a4.174 4.174 0 11-4.076 4.173 4.125 4.125 0 014.078-4.173z"/><path class="h" d="M189.098 43.131a4.174 4.174 0 11-4.076 4.173 4.126 4.126 0 014.076-4.173z"/><path class="h" d="M145.887 30.947a3.172 3.172 0 11-3.1 3.172 3.136 3.136 0 013.1-3.172z"/><path class="h" d="M131.861 49.474a2.672 2.672 0 11-2.609 2.671 2.641 2.641 0 012.609-2.671z"/><path class="h" d="M71.687 71.673a2.671 2.671 0 11-2.609 2.669 2.64 2.64 0 012.609-2.669z"/><path class="h" d="M58.011 115.692a3.333 3.333 0 11-3.256 3.332 3.295 3.295 0 013.256-3.332z"/><path class="h" d="M34.969 200.226a3.333 3.333 0 11-3.256 3.332 3.3 3.3 0 013.256-3.332z"/><path class="h" d="M7.007 161.534a3.333 3.333 0 11-3.256 3.332 3.3 3.3 0 013.256-3.332z"/><path class="h" d="M32.898 168.159a3.333 3.333 0 11-3.256 3.332 3.3 3.3 0 013.256-3.332z"/><path class="h" d="M16.845 173.988a3.333 3.333 0 11-3.256 3.332 3.3 3.3 0 013.256-3.332z"/><path class="h" d="M25.39 223.805a3.333 3.333 0 11-3.256 3.332 3.3 3.3 0 013.256-3.332z"/><path class="h" d="M69.584 142.069a3.333 3.333 0 11-3.257 3.332 3.294 3.294 0 013.257-3.332z"/><path class="h" d="M171.651 61.491a3.172 3.172 0 11-3.1 3.172 3.135 3.135 0 013.1-3.172z"/><path class="h" d="M191.873 64.329a3.506 3.506 0 11-3.425 3.5 3.465 3.465 0 013.425-3.5z"/><path class="h" d="M121.098 95.313a3.505 3.505 0 11-3.425 3.5 3.465 3.465 0 013.425-3.5z"/><path class="h" d="M210.692 85.263a3.506 3.506 0 11-3.425 3.506 3.466 3.466 0 013.425-3.506z"/><path class="h" d="M220.949 103.836a3.506 3.506 0 11-3.425 3.506 3.466 3.466 0 013.425-3.506z"/><path class="h" d="M192.807 164.13a3.505 3.505 0 11-3.423 3.5 3.465 3.465 0 013.423-3.5z"/><path class="h" d="M212.008 184.854a3.506 3.506 0 11-3.425 3.506 3.466 3.466 0 013.425-3.506z"/><path class="h" d="M184.922 182.765a3.981 3.981 0 11-3.888 3.979 3.934 3.934 0 013.888-3.979z"/><path class="h" d="M192.544 188.571a5.442 5.442 0 11-5.315 5.44 5.379 5.379 0 015.315-5.44z"/><path class="h" d="M219.633 119.296a2.58 2.58 0 11-2.521 2.58 2.551 2.551 0 012.521-2.58z"/><path class="h" d="M257.767 123.059a2.581 2.581 0 11-2.521 2.581 2.551 2.551 0 012.521-2.581z"/><path class="h" d="M137.841 172.321a2.58 2.58 0 11-2.519 2.58 2.55 2.55 0 012.519-2.58z"/><path class="h" d="M133.372 176.628a2.58 2.58 0 11-2.521 2.58 2.551 2.551 0 012.521-2.58z"/><path class="h" d="M128.901 189.645a3.289 3.289 0 11-3.212 3.288 3.252 3.252 0 013.212-3.288z"/><path class="h" d="M135.116 232.045a3.288 3.288 0 11-3.213 3.288 3.25 3.25 0 013.213-3.288z"/><path class="h" d="M228.839 204.221a3.289 3.289 0 11-3.213 3.288 3.251 3.251 0 013.213-3.288z"/><path class="h" d="M242.553 218.266a3.546 3.546 0 11-3.463 3.545 3.506 3.506 0 013.463-3.545z"/><path class="h" d="M213.824 243.158a4.1 4.1 0 11-4.005 4.1 4.054 4.054 0 014.005-4.1z"/><path class="h" d="M233.76 237.593a4.1 4.1 0 11-4.005 4.1 4.054 4.054 0 014.005-4.1z"/><path class="h" d="M245.668 197.05a4.1 4.1 0 11-4.005 4.1 4.054 4.054 0 014.005-4.1z"/><path class="h" d="M113.625 267.818a3.289 3.289 0 11-3.213 3.288 3.25 3.25 0 013.213-3.288z"/><path class="h" d="M120.875 290.606a3.289 3.289 0 11-3.213 3.288 3.251 3.251 0 013.213-3.288z"/><path class="h" d="M122.428 282.394a3.289 3.289 0 11-3.213 3.288 3.25 3.25 0 013.213-3.288z"/><path class="h" d="M78.931 230.455a3.289 3.289 0 11-3.212 3.288 3.252 3.252 0 013.212-3.288z"/><path class="h" d="M252.507 152.35a1.827 1.827 0 11-1.785 1.826 1.806 1.806 0 011.785-1.826z"/><path class="h" d="M210.165 160.689a1.827 1.827 0 11-1.784 1.827 1.806 1.806 0 011.784-1.827z"/><path class="h" d="M211.218 165.807a1.828 1.828 0 11-1.784 1.827 1.807 1.807 0 011.784-1.827z"/><path class="h" d="M189.388 159.94a1.234 1.234 0 11-1.205 1.233 1.22 1.22 0 011.205-1.233z"/><path class="h" d="M219.37 139.16a1.827 1.827 0 11-1.785 1.826 1.8 1.8 0 011.785-1.826z"/><path class="h" d="M296.797 140.222a2.96 2.96 0 11-2.891 2.959 2.926 2.926 0 012.891-2.959z"/><path class="h" d="M297.48 147.289a2.58 2.58 0 11-2.521 2.58 2.551 2.551 0 012.521-2.58z"/><path class="h" d="M294.061 175.825a2.58 2.58 0 11-2.521 2.58 2.55 2.55 0 012.521-2.58z"/><path class="h" d="M261.186 183.627a2.58 2.58 0 11-2.521 2.58 2.551 2.551 0 012.521-2.58z"/><path class="h" d="M262.764 179.096a1.728 1.728 0 11-1.687 1.727 1.708 1.708 0 011.687-1.727z"/><path class="h" d="M259.871 172.267a3.443 3.443 0 11-3.362 3.441 3.4 3.4 0 013.362-3.441z"/><path class="h" d="M283.278 92.11a3.119 3.119 0 11-3.046 3.118 3.083 3.083 0 013.046-3.118z"/><path class="h" d="M213.584 140.56a3.119 3.119 0 11-3.047 3.119 3.084 3.084 0 013.047-3.119z"/><path class="h" d="M128.438 19.098a3.506 3.506 0 11-3.425 3.5 3.464 3.464 0 013.425-3.5z"/><path class="h" d="M200.947 11.143a3.823 3.823 0 11-3.734 3.822 3.779 3.779 0 013.734-3.822z"/><path class="h" d="M212.098 35.1a4.462 4.462 0 11-4.358 4.461 4.41 4.41 0 014.358-4.461z"/><path class="h" d="M232.761 47.87a3.833 3.833 0 11-3.745 3.832 3.789 3.789 0 013.745-3.832z"/><path class="h" d="M267.331 110.047a4.518 4.518 0 11-4.413 4.516 4.465 4.465 0 014.413-4.516z"/><path class="h" d="M256.81 112.693a5.371 5.371 0 11-5.246 5.37 5.31 5.31 0 015.246-5.37z"/><path class="h" d="M212.102 171.028a6.522 6.522 0 11-6.371 6.52 6.446 6.446 0 016.371-6.52z"/><path class="h" d="M268.909 145.262a5.372 5.372 0 11-5.248 5.37 5.31 5.31 0 015.248-5.37z"/><path class="h" d="M285.476 174.573a4.86 4.86 0 11-4.746 4.86 4.8 4.8 0 014.746-4.86z"/><path class="h" d="M241.348 66.712a3.833 3.833 0 11-3.741 3.833 3.79 3.79 0 013.744-3.832z"/><path class="h" d="M252.395 144.227a3.833 3.833 0 11-3.744 3.832 3.788 3.788 0 013.744-3.832z"/><path class="h" d="M229.777 122.43a3.832 3.832 0 11-3.744 3.832 3.788 3.788 0 013.744-3.832z"/><path class="h" d="M135.612 17.93a1.836 1.836 0 11-1.793 1.836 1.815 1.815 0 011.793-1.836z"/><path class="h" d="M182.045 46.402a1.836 1.836 0 11-1.793 1.834 1.814 1.814 0 011.793-1.834z"/><path class="h" d="M193.91 33.421a1.836 1.836 0 11-1.795 1.836 1.817 1.817 0 011.795-1.836z"/><path class="h" d="M195.754 46.192a1.836 1.836 0 11-1.795 1.836 1.816 1.816 0 011.795-1.836z"/><path class="h" d="M205.567 68.174a1.836 1.836 0 11-1.793 1.836 1.815 1.815 0 011.793-1.836z"/><path class="h" d="M207.001 15.208a1.836 1.836 0 11-1.795 1.836 1.817 1.817 0 011.795-1.836z"/><path class="h" d="M95.821 33.118a1.836 1.836 0 11-1.793 1.836 1.816 1.816 0 011.793-1.836z"/><path class="h" d="M77.558 32.116a1.836 1.836 0 11-1.795 1.836 1.815 1.815 0 011.795-1.836z"/><path class="h" d="M44.42 91.064a1.836 1.836 0 11-1.793 1.836 1.815 1.815 0 011.793-1.836z"/><path class="h" d="M11.809 129.993a2.205 2.205 0 11-2.153 2.2 2.181 2.181 0 012.153-2.2z"/><path class="h" d="M27.144 67.441a2.664 2.664 0 11-2.6 2.663 2.634 2.634 0 012.6-2.663z"/><path class="h" d="M34.587 71.721a2.712 2.712 0 11-2.649 2.711 2.681 2.681 0 012.649-2.711z"/><path class="h" d="M83.343 121.649a2.2 2.2 0 11-2.153 2.2 2.179 2.179 0 012.153-2.2z"/><path class="h" d="M58.885 123.534a2.2 2.2 0 11-2.155 2.2 2.179 2.179 0 012.155-2.2z"/><path class="h" d="M154.615 145.066a2.2 2.2 0 11-2.153 2.2 2.179 2.179 0 012.153-2.2z"/><path class="h" d="M204.847 121.38a2.2 2.2 0 11-2.153 2.2 2.18 2.18 0 012.153-2.2z"/><path class="h" d="M284.795 129.455a2.205 2.205 0 11-2.153 2.2 2.18 2.18 0 012.153-2.2z"/><path class="h" d="M52.574 146.137a2.205 2.205 0 11-2.155 2.2 2.18 2.18 0 012.155-2.2z"/><path class="h" d="M121.702 187.745a2.205 2.205 0 11-2.155 2.2 2.18 2.18 0 012.155-2.2z"/><path class="h" d="M77.17 166.017a2.2 2.2 0 11-2.155 2.2 2.179 2.179 0 012.155-2.2z"/><path class="h" d="M20.468 185.096a2.2 2.2 0 11-2.153 2.2 2.18 2.18 0 012.153-2.2z"/><path class="h" d="M55.68 189.071a2.2 2.2 0 11-2.153 2.2 2.18 2.18 0 012.153-2.2z"/><path class="h" d="M95.294 255.862a1.66 1.66 0 11-1.621 1.66 1.641 1.641 0 011.621-1.66z"/><path class="h" d="M139.048 284.746a1.661 1.661 0 11-1.621 1.661 1.642 1.642 0 011.621-1.661z"/><path class="h" d="M82.866 236.239a2.205 2.205 0 11-2.153 2.2 2.18 2.18 0 012.153-2.2z"/><path class="h" d="M139.307 265.916a2.205 2.205 0 11-2.154 2.2 2.18 2.18 0 012.154-2.2z"/><path class="h" d="M155.102 257.967a2.2 2.2 0 11-2.155 2.2 2.179 2.179 0 012.155-2.2z"/><path class="h" d="M182.286 248.958a2.2 2.2 0 11-2.153 2.2 2.179 2.179 0 012.153-2.2z"/><path class="h" d="M190.572 258.232a2.205 2.205 0 11-2.155 2.2 2.179 2.179 0 012.155-2.2z"/><path class="h" d="M253.745 230.408a2.205 2.205 0 11-2.153 2.2 2.18 2.18 0 012.153-2.2z"/><path class="h" d="M235.362 217.955a2.2 2.2 0 11-2.153 2.2 2.179 2.179 0 012.153-2.2z"/><path class="h" d="M163.644 267.241a2.205 2.205 0 11-2.153 2.2 2.18 2.18 0 012.153-2.2z"/><path class="h" d="M167.27 282.322a2.494 2.494 0 11-2.436 2.493 2.465 2.465 0 012.436-2.493z"/><path class="h" d="M29.013 203.905a2.2 2.2 0 11-2.153 2.2 2.18 2.18 0 012.153-2.2z"/><path class="h" d="M64.225 214.778a2.205 2.205 0 11-2.155 2.2 2.18 2.18 0 012.155-2.2z"/><path class="h" d="M150.181 199.671a2.2 2.2 0 11-2.153 2.2 2.18 2.18 0 012.153-2.2z"/><path class="h" d="M211.022 266.711a2.2 2.2 0 11-2.155 2.2 2.179 2.179 0 012.155-2.2z"/><path class="h" d="M225.783 257.943a2.758 2.758 0 11-2.694 2.758 2.727 2.727 0 012.694-2.758z"/><path class="h" d="M231.222 271.458a3.024 3.024 0 11-2.954 3.022 2.988 2.988 0 012.954-3.022z"/><path class="h" d="M148.983 58.822a1.837 1.837 0 11-1.793 1.837 1.817 1.817 0 011.793-1.837z"/><path class="h" d="M156.16 68.167a1.836 1.836 0 11-1.793 1.836 1.816 1.816 0 011.793-1.836z"/><path class="h" d="M182.342 84.077a1.836 1.836 0 11-1.793 1.836 1.817 1.817 0 011.793-1.836z"/><path class="h" d="M185.205 67.12a1.836 1.836 0 11-1.793 1.836 1.816 1.816 0 011.793-1.836z"/><path class="h" d="M99.295 95.801a2.465 2.465 0 11-2.409 2.464 2.435 2.435 0 012.409-2.464z"/><path class="h" d="M52.282 37.124a3.171 3.171 0 11-3.1 3.171 3.136 3.136 0 013.1-3.171z"/><path class="h" d="M185.186 18.097a2.671 2.671 0 11-2.609 2.669 2.64 2.64 0 012.609-2.669z"/><path class="h" d="M180.947 11.086a2.672 2.672 0 11-2.609 2.671 2.641 2.641 0 012.609-2.671z"/><path class="h" d="M222.881 21.136a2.671 2.671 0 11-2.615 2.671 2.64 2.64 0 012.61-2.671z"/><path class="h" d="M169.696 99.223a2.672 2.672 0 11-2.609 2.671 2.64 2.64 0 012.609-2.671z"/><path class="h" d="M169.288 104.876a2.671 2.671 0 11-2.609 2.669 2.639 2.639 0 012.609-2.669z"/><path class="h" d="M240.675 33.487a2.671 2.671 0 11-2.609 2.671 2.641 2.641 0 012.609-2.671z"/><path class="h" d="M174.913 26.608a2.672 2.672 0 11-2.609 2.671 2.64 2.64 0 012.609-2.671z"/><path class="h" d="M120.447 4.745a3.171 3.171 0 11-3.1 3.171 3.134 3.134 0 013.1-3.171z"/><path class="i" d="M148.829 0a7.316 7.316 0 11-7.148 7.314A7.232 7.232 0 01148.829 0z"/><path class="i" d="M221.981 43.672a6.456 6.456 0 11-6.306 6.454 6.382 6.382 0 016.306-6.454z"/><path class="i" d="M203.272 21.944a7.316 7.316 0 11-7.147 7.314 7.232 7.232 0 017.147-7.314z"/><path class="i" d="M230.809 25.171a7.317 7.317 0 11-7.147 7.316 7.233 7.233 0 017.147-7.316z"/><path class="i" d="M100.061 10.326a7.317 7.317 0 11-7.147 7.316 7.233 7.233 0 017.147-7.316z"/><path class="i" d="M153.664 15.49a8.178 8.178 0 11-7.987 8.176 8.083 8.083 0 017.987-8.176z"/><path class="i" d="M116.878 18.716a8.178 8.178 0 11-7.989 8.176 8.084 8.084 0 017.989-8.176z"/><path class="i" d="M67.269 27.968a7.532 7.532 0 11-7.357 7.53 7.446 7.446 0 017.357-7.53z"/><path class="i" d="M48.344 104.628a7.532 7.532 0 11-7.357 7.53 7.447 7.447 0 017.357-7.53z"/><path class="i" d="M12.854 112.884a7.9 7.9 0 11-7.72 7.9 7.814 7.814 0 017.72-7.9z"/><path class="i" d="M44.792 133.398a7.9 7.9 0 11-7.721 7.9 7.812 7.812 0 017.721-7.9z"/><path class="i" d="M23.207 155.716a8.355 8.355 0 11-8.161 8.353 8.26 8.26 0 018.161-8.353z"/><path class="i" d="M107.566 173.549a7.2 7.2 0 11-7.036 7.2 7.122 7.122 0 017.036-7.2z"/><path class="i" d="M98.588 44.748a4.734 4.734 0 11-4.624 4.733 4.679 4.679 0 014.624-4.733z"/><path class="i" d="M191.08 7.53a5.38 5.38 0 11-5.255 5.378 5.318 5.318 0 015.255-5.378z"/><path class="i" d="M238.586 55.936a5.38 5.38 0 11-5.255 5.378 5.319 5.319 0 015.255-5.378z"/><path class="i" d="M177.837 87.991a5.38 5.38 0 11-5.255 5.378 5.319 5.319 0 015.255-5.378z"/><path class="i" d="M165.856 68.628a6.241 6.241 0 11-6.1 6.24 6.169 6.169 0 016.1-6.24z"/><path class="i" d="M35.972 56.976a6.884 6.884 0 11-6.725 6.882 6.805 6.805 0 016.725-6.882z"/><path class="i" d="M62.068 64.317a6.883 6.883 0 11-6.725 6.882 6.8 6.8 0 016.725-6.882z"/><path class="i" d="M26.41 74.107a6.884 6.884 0 11-6.725 6.882 6.805 6.805 0 016.725-6.882z"/><path class="i" d="M62.472 103.527a5.6 5.6 0 11-5.465 5.594 5.531 5.531 0 015.465-5.594z"/><path class="i" d="M62.246 145.682a5.6 5.6 0 11-5.465 5.594 5.531 5.531 0 015.465-5.594z"/><path class="i" d="M35.375 226.164a6.494 6.494 0 11-6.344 6.493 6.42 6.42 0 016.344-6.493z"/><path class="i" d="M100.131 186.937a5.594 5.594 0 11-5.465 5.593 5.531 5.531 0 015.465-5.593z"/><path class="i" d="M129.866 164.844a5.6 5.6 0 11-5.465 5.594 5.531 5.531 0 015.465-5.594z"/><path class="i" d="M8.943 168.902a5.595 5.595 0 11-5.465 5.593 5.531 5.531 0 015.465-5.593z"/><path class="i" d="M86.034 249.175a6.7 6.7 0 11-6.548 6.7 6.628 6.628 0 016.548-6.7z"/><path class="i" d="M132.729 286.595a6.7 6.7 0 11-6.548 6.7 6.627 6.627 0 016.548-6.7z"/><path class="i" d="M173.258 267.208a6.7 6.7 0 11-6.55 6.7 6.626 6.626 0 016.55-6.7z"/><path class="i" d="M193.301 283.664a6.7 6.7 0 11-6.55 6.7 6.628 6.628 0 016.55-6.7z"/><path class="i" d="M81.628 126.765a6.253 6.253 0 11-6.107 6.252 6.182 6.182 0 016.107-6.252z"/><path class="i" d="M59.603 157.858a6.946 6.946 0 11-6.785 6.944 6.866 6.866 0 016.785-6.944z"/><path class="i" d="M44.845 185.135a7.622 7.622 0 11-7.445 7.621 7.535 7.535 0 017.445-7.621z"/><path class="i" d="M61.585 244.875a7.622 7.622 0 11-7.445 7.62 7.535 7.535 0 017.445-7.62z"/><path class="i" d="M93.302 223.909a7.622 7.622 0 11-7.445 7.62 7.535 7.535 0 017.445-7.62z"/><path class="i" d="M128.765 218.499a7.622 7.622 0 11-7.445 7.62 7.534 7.534 0 017.445-7.62z"/><path class="i" d="M257.281 188.736a7.164 7.164 0 11-7 7.163 7.083 7.083 0 017-7.163z"/><path class="i" d="M199.862 240.266a7.622 7.622 0 11-7.445 7.62 7.534 7.534 0 017.445-7.62z"/><path class="i" d="M218.705 268.761a7.622 7.622 0 11-7.446 7.62 7.533 7.533 0 017.446-7.62z"/><path class="i" d="M246.546 232.783a7.622 7.622 0 11-7.447 7.62 7.534 7.534 0 017.447-7.62z"/><path class="i" d="M151.451 240.607a8.734 8.734 0 11-8.531 8.731 8.633 8.633 0 018.531-8.731z"/><path class="i" d="M189.556 199.128a8.734 8.734 0 11-8.531 8.731 8.632 8.632 0 018.531-8.731z"/><path class="i" d="M284.046 185.601a8.734 8.734 0 11-8.531 8.731 8.633 8.633 0 018.531-8.731z"/><path class="i" d="M180.276 157.395a8.734 8.734 0 11-8.531 8.731 8.633 8.633 0 018.531-8.731z"/><path class="i" d="M59.162 218.515a8.508 8.508 0 11-8.311 8.506 8.41 8.41 0 018.311-8.506z"/><path class="i" d="M80.527 263.375a8.509 8.509 0 11-8.311 8.506 8.41 8.41 0 018.311-8.506z"/><path class="i" d="M127.663 264.277a8.508 8.508 0 11-8.311 8.506 8.41 8.41 0 018.311-8.506z"/><path class="i" d="M158.941 270.589a7.832 7.832 0 11-7.651 7.829 7.741 7.741 0 017.651-7.829z"/><path class="i" d="M188.676 267.658a7.832 7.832 0 11-7.651 7.83 7.741 7.741 0 017.651-7.83z"/><path class="i" d="M103.213 111.661a6.253 6.253 0 11-6.107 6.251 6.181 6.181 0 016.107-6.251z"/><path class="i" d="M47.331 65.809a5.594 5.594 0 11-5.465 5.593 5.531 5.531 0 015.465-5.593z"/><path class="i" d="M74.418 58.675a5.6 5.6 0 11-5.465 5.593 5.53 5.53 0 015.465-5.593z"/><path class="i" d="M206.847 92.941a7.1 7.1 0 11-6.938 7.1 7.019 7.019 0 016.938-7.1z"/><path class="i" d="M251.861 158.121a7.1 7.1 0 11-6.938 7.1 7.019 7.019 0 016.938-7.1z"/><path class="i" d="M149.671 62.821a4.089 4.089 0 11-3.994 4.088 4.042 4.042 0 013.994-4.088z"/><path class="i" d="M150.511 49.698a4.088 4.088 0 11-3.994 4.086 4.042 4.042 0 013.994-4.086z"/><path class="i" d="M141.681 43.888a3.658 3.658 0 11-3.573 3.657 3.617 3.617 0 013.573-3.657z"/><path class="i" d="M137.057 35.282a3.659 3.659 0 11-3.573 3.657 3.616 3.616 0 013.573-3.657z"/><path class="i" d="M142.522 13.988a3.659 3.659 0 11-3.573 3.659 3.617 3.617 0 013.573-3.659z"/><path class="i" d="M175.734 33.346a3.658 3.658 0 11-3.573 3.657 3.617 3.617 0 013.573-3.657z"/><path class="i" d="M231.019 40.231a3.658 3.658 0 11-3.573 3.657 3.616 3.616 0 013.573-3.657z"/><path class="i" d="M99.851 37.003a3.228 3.228 0 11-3.153 3.228 3.191 3.191 0 013.153-3.228z"/><path class="i" d="M163.964 46.474a3.228 3.228 0 11-3.153 3.228 3.191 3.191 0 013.153-3.228z"/><path class="i" d="M165.855 38.51a3.228 3.228 0 11-3.153 3.226 3.19 3.19 0 013.153-3.226z"/><path class="i" d="M183.303 39.155a3.228 3.228 0 11-3.153 3.226 3.191 3.191 0 013.153-3.226z"/><path class="i" d="M117.929 47.976a3.228 3.228 0 11-3.153 3.226 3.19 3.19 0 013.153-3.226z"/><path class="i" d="M94.385 25.387a2.582 2.582 0 11-2.522 2.581 2.552 2.552 0 012.522-2.581z"/><path class="i" d="M120.662 35.282a1.937 1.937 0 11-1.892 1.937 1.916 1.916 0 011.892-1.937z"/><path class="i" d="M191.291 38.079a1.937 1.937 0 11-1.894 1.936 1.914 1.914 0 011.892-1.936z"/><path class="i" d="M205.794 38.294a1.937 1.937 0 11-1.892 1.937 1.915 1.915 0 011.892-1.937z"/><path class="i" d="M236.695 39.155a1.936 1.936 0 11-1.892 1.936 1.914 1.914 0 011.892-1.936z"/><path class="i" d="M216.516 82.828a2.153 2.153 0 11-2.1 2.152 2.129 2.129 0 012.1-2.152z"/><path class="i" d="M192.022 113.045a2.152 2.152 0 11-2.1 2.152 2.127 2.127 0 012.1-2.152z"/><path class="i" d="M199.457 112.596a2.153 2.153 0 11-2.1 2.152 2.128 2.128 0 012.1-2.152z"/><path class="i" d="M145.044 38.294a2.583 2.583 0 11-2.522 2.583 2.554 2.554 0 012.522-2.583z"/><path class="i" d="M192.972 20.223a2.583 2.583 0 11-2.522 2.581 2.552 2.552 0 012.522-2.581z"/><path class="i" d="M225.344 66.262a2.583 2.583 0 11-2.522 2.583 2.553 2.553 0 012.522-2.583z"/><path class="i" d="M171.53 54.215a2.583 2.583 0 11-2.522 2.583 2.553 2.553 0 012.522-2.583z"/><path class="i" d="M159.549.431a3.658 3.658 0 11-3.573 3.657 3.616 3.616 0 013.573-3.657z"/><path class="i" d="M78.409 37.434a3.658 3.658 0 11-3.573 3.657 3.617 3.617 0 013.573-3.657z"/><path class="i" d="M59.912 41.522a3.658 3.658 0 11-3.573 3.657 3.616 3.616 0 013.573-3.657z"/><path class="i" d="M32.82 88.415a3.658 3.658 0 11-3.575 3.657 3.615 3.615 0 013.575-3.657z"/><path class="i" d="M27.973 133.275a3.659 3.659 0 11-3.573 3.659 3.616 3.616 0 013.573-3.659z"/><path class="i" d="M71.586 132.553a4.155 4.155 0 11-4.06 4.154 4.107 4.107 0 014.06-4.154z"/><path class="i" d="M12.995 196.575a4.156 4.156 0 11-4.058 4.154 4.108 4.108 0 014.058-4.154z"/><path class="i" d="M48.018 163.008a3.682 3.682 0 11-3.6 3.681 3.639 3.639 0 013.6-3.681z"/><path class="i" d="M71.143 229.058a3.683 3.683 0 11-3.6 3.682 3.64 3.64 0 013.6-3.682z"/><path class="i" d="M47.137 228.811a4.156 4.156 0 11-4.06 4.154 4.107 4.107 0 014.06-4.154z"/><path class="i" d="M116.297 275.025a4.155 4.155 0 11-4.058 4.154 4.108 4.108 0 014.058-4.154z"/><path class="i" d="M127.753 255.659a3.457 3.457 0 11-3.378 3.457 3.418 3.418 0 013.378-3.457z"/><path class="i" d="M175.768 247.998a3.457 3.457 0 11-3.376 3.456 3.417 3.417 0 013.376-3.456z"/><path class="i" d="M210.078 229a3.457 3.457 0 11-3.378 3.456 3.417 3.417 0 013.378-3.456z"/><path class="i" d="M239.042 246.556a3.457 3.457 0 11-3.376 3.456 3.418 3.418 0 013.376-3.456z"/><path class="i" d="M248.884 213.457a3.457 3.457 0 11-3.376 3.456 3.418 3.418 0 013.376-3.456z"/><path class="i" d="M284.318 203.169a3.955 3.955 0 11-3.863 3.954 3.91 3.91 0 013.863-3.954z"/><path class="i" d="M180.831 175.466a3.457 3.457 0 11-3.378 3.456 3.417 3.417 0 013.378-3.456z"/><path class="i" d="M201.359 174.315a3.457 3.457 0 11-3.376 3.456 3.416 3.416 0 013.376-3.456z"/><path class="i" d="M196.017 183.029a2.516 2.516 0 11-2.458 2.515 2.487 2.487 0 012.458-2.515z"/><path class="i" d="M253.563 172.555a2.516 2.516 0 11-2.456 2.515 2.486 2.486 0 012.456-2.515z"/><path class="i" d="M267.164 197.129a1.94 1.94 0 11-1.895 1.94 1.918 1.918 0 011.895-1.94z"/><path class="i" d="M257.045 245.483a2.8 2.8 0 11-2.74 2.8 2.77 2.77 0 012.74-2.8z"/><path class="i" d="M186.34 230.863a3.457 3.457 0 11-3.378 3.456 3.417 3.417 0 013.378-3.456z"/><path class="i" d="M189.646 250.25a3.457 3.457 0 11-3.378 3.456 3.417 3.417 0 013.378-3.456z"/><path class="i" d="M132.377 196.597a3.682 3.682 0 11-3.6 3.682 3.64 3.64 0 013.6-3.682z"/><path class="i" d="M145.372 220.042a3.682 3.682 0 11-3.6 3.682 3.639 3.639 0 013.6-3.682z"/><path class="i" d="M234.237 194.552a4.708 4.708 0 11-4.6 4.707 4.654 4.654 0 014.6-4.707z"/><path class="i" d="M271.638 224.199a5.283 5.283 0 11-5.161 5.281 5.222 5.222 0 015.161-5.281z"/><path class="i" d="M204.141 192.539a4.707 4.707 0 11-4.6 4.705 4.653 4.653 0 014.6-4.705z"/><path class="i" d="M191.492 172.542a5.132 5.132 0 11-5.012 5.131 5.073 5.073 0 015.012-5.131z"/><path class="i" d="M218.858 161.199a4.434 4.434 0 11-4.33 4.433 4.383 4.383 0 014.33-4.433z"/><path class="i" d="M281.522 155.701a4.434 4.434 0 11-4.332 4.433 4.382 4.382 0 014.332-4.433z"/><path class="i" d="M245.971 171.669a4.434 4.434 0 11-4.332 4.433 4.383 4.383 0 014.332-4.433z"/><path class="i" d="M126.65 234.695a3.682 3.682 0 11-3.6 3.681 3.639 3.639 0 013.6-3.681z"/><path class="i" d="M71.145 165.243a4.155 4.155 0 11-4.06 4.154 4.107 4.107 0 014.06-4.154z"/><path class="i" d="M142.068 178.316a4.155 4.155 0 11-4.058 4.154 4.108 4.108 0 014.058-4.154z"/><path class="i" d="M101.541 124.663a4.156 4.156 0 11-4.06 4.154 4.108 4.108 0 014.06-4.154z"/><path class="i" d="M86.122 140.217a5.058 5.058 0 11-4.939 5.056 5 5 0 014.939-5.056z"/><path class="i" d="M20.705 204.014a6.185 6.185 0 11-6.041 6.184 6.114 6.114 0 016.041-6.184z"/><path class="i" d="M107.488 256.085a6.185 6.185 0 11-6.041 6.184 6.113 6.113 0 016.041-6.184z"/><path class="i" d="M235.723 224.43a6.185 6.185 0 11-6.041 6.182 6.113 6.113 0 016.041-6.182z"/><path class="i" d="M227.568 244.864a6.185 6.185 0 11-6.041 6.182 6.114 6.114 0 016.041-6.182z"/><path class="i" d="M263.996 201.411a5.47 5.47 0 11-5.343 5.468 5.407 5.407 0 015.343-5.468z"/><path class="i" d="M239.097 204.858a6.185 6.185 0 11-6.041 6.182 6.113 6.113 0 016.041-6.182z"/><path class="i" d="M216.038 252.618a7.066 7.066 0 11-6.9 7.063 6.984 6.984 0 016.9-7.063z"/><path class="i" d="M153.963 130.717a5.992 5.992 0 11-5.852 5.99 5.923 5.923 0 015.852-5.99z"/><path class="i" d="M37.005 106.201a2.555 2.555 0 11-2.5 2.553 2.525 2.525 0 012.5-2.553z"/><path class="i" d="M64.097 181.494a2.555 2.555 0 11-2.5 2.555 2.525 2.525 0 012.5-2.555z"/><path class="i" d="M147.355 214.555a2.18 2.18 0 11-2.13 2.18 2.157 2.157 0 012.13-2.18z"/><path class="i" d="M111.894 239.803a2.18 2.18 0 11-2.13 2.18 2.154 2.154 0 012.13-2.18z"/><path class="i" d="M183.037 214.33a2.18 2.18 0 11-2.13 2.18 2.156 2.156 0 012.13-2.18z"/><path class="i" d="M35.243 185.101a2.555 2.555 0 11-2.5 2.553 2.525 2.525 0 012.5-2.553z"/><path class="i" d="M24.67 119.027a3.028 3.028 0 11-2.958 3.028 2.993 2.993 0 012.958-3.028z"/><path class="i" d="M124.669 157.35a3.028 3.028 0 11-2.958 3.028 2.993 2.993 0 012.958-3.028z"/><path class="i" d="M135.684 157.296a1.73 1.73 0 11-1.689 1.729 1.709 1.709 0 011.689-1.729z"/><path class="i" d="M5.947 127.819a3.028 3.028 0 11-2.957 3.028 2.993 2.993 0 012.957-3.028z"/><path class="i" d="M33.48 138.415a3.027 3.027 0 11-2.957 3.027 2.993 2.993 0 012.957-3.027z"/><path class="i" d="M177.416 67.983a3.874 3.874 0 11-3.783 3.873 3.83 3.83 0 013.783-3.873z"/><path class="i" d="M265.33 58.583a3.874 3.874 0 11-3.784 3.873 3.829 3.829 0 013.784-3.873z"/><path class="i" d="M265.111 87.68a3.874 3.874 0 11-3.784 3.873 3.829 3.829 0 013.784-3.873z"/><path class="i" d="M213.063 122.928a3.094 3.094 0 11-3.022 3.093 3.058 3.058 0 013.022-3.093z"/><path class="i" d="M271.891 64.511a3.094 3.094 0 11-3.022 3.093 3.058 3.058 0 013.022-3.093z"/><path class="i" d="M284.356 134.661a2.552 2.552 0 11-2.493 2.552 2.522 2.522 0 012.493-2.552z"/><path class="i" d="M269.047 140.032a2.552 2.552 0 11-2.493 2.552 2.525 2.525 0 012.493-2.552z"/><path class="i" d="M227.714 109.773a5.731 5.731 0 11-5.6 5.73 5.665 5.665 0 015.6-5.73z"/><path class="i" d="M273.859 118.227a3.094 3.094 0 11-3.022 3.094 3.059 3.059 0 013.022-3.094z"/><path class="i" d="M276.264 140.835a3.093 3.093 0 11-3.022 3.093 3.058 3.058 0 013.022-3.093z"/><path class="i" d="M261.393 106.142a3.094 3.094 0 11-3.022 3.093 3.058 3.058 0 013.022-3.093z"/><path class="i" d="M254.833 83.585a4.836 4.836 0 11-4.723 4.835 4.78 4.78 0 014.723-4.835z"/><path class="i" d="M294.416 127.722a5.463 5.463 0 11-5.337 5.462 5.4 5.4 0 015.337-5.462z"/><path class="i" d="M232.304 99.028a4.836 4.836 0 11-4.724 4.836 4.78 4.78 0 014.724-4.836z"/><path class="i" d="M295.727 152.92a4.213 4.213 0 11-4.114 4.213 4.164 4.164 0 014.114-4.213z"/><path class="i" d="M199.489 69.49a3.874 3.874 0 11-3.784 3.872 3.829 3.829 0 013.784-3.872z"/><path class="i" d="M232.49 66.908a3.873 3.873 0 11-3.783 3.872 3.828 3.828 0 013.783-3.872z"/><path class="i" d="M176.995 16.135a4.734 4.734 0 11-4.624 4.733 4.681 4.681 0 014.624-4.733z"/><path class="i" d="M167.116 17.426a4.734 4.734 0 11-4.621 4.733 4.68 4.68 0 014.624-4.733z"/><path class="i" d="M198.437 37.649a4.734 4.734 0 11-4.624 4.733 4.68 4.68 0 014.624-4.733z"/><path class="i" d="M196.336 52.062a4.734 4.734 0 11-4.624 4.733 4.68 4.68 0 014.624-4.733z"/><path class="i" d="M183.093 51.417a8.178 8.178 0 11-7.989 8.176 8.084 8.084 0 017.989-8.176z"/><path class="i" d="M222.611 87.132a7.747 7.747 0 11-7.567 7.745 7.658 7.658 0 017.567-7.745z"/><path class="i" d="M268.193 157.286a8.065 8.065 0 11-7.879 8.062 7.971 7.971 0 017.879-8.062z"/><path class="i" d="M251.693 57.14a7.747 7.747 0 11-7.567 7.745 7.657 7.657 0 017.567-7.745z"/><path class="i" d="M271.597 95.156a7.332 7.332 0 11-7.161 7.33 7.249 7.249 0 017.161-7.33z"/><path class="i" d="M286.468 98.85a6.548 6.548 0 11-6.4 6.545 6.473 6.473 0 016.4-6.545z"/><path class="i" d="M277.83 79.825a6.884 6.884 0 11-6.725 6.882 6.8 6.8 0 016.725-6.882z"/><path class="i" d="M260.116 128.17a6.885 6.885 0 11-6.725 6.882 6.8 6.8 0 016.725-6.882z"/><path class="i" d="M287.234 140.48a7.78 7.78 0 11-7.6 7.777 7.69 7.69 0 017.6-7.777z"/><path class="i" d="M205.45 128.609a7.747 7.747 0 11-7.567 7.745 7.658 7.658 0 017.567-7.745z"/><path class="i" d="M123.815 53.784a9.039 9.039 0 11-8.83 9.037 8.935 8.935 0 018.83-9.037z"/><path class="i" d="M110.07 94.259a8.117 8.117 0 11-7.929 8.115 8.024 8.024 0 017.929-8.115z"/><path class="i" d="M143.989 140.022a8.116 8.116 0 11-7.927 8.114 8.022 8.022 0 017.927-8.114z"/><path class="i" d="M161.465 106.409a7.179 7.179 0 11-7.013 7.178 7.1 7.1 0 017.013-7.178z"/><path class="j" d="M81.044 68.064a4.677 4.677 0 11-4.568 4.676 4.622 4.622 0 014.568-4.676z"/><path class="j" d="M111.726 83.696a4.676 4.676 0 11-4.568 4.676 4.622 4.622 0 014.568-4.676z"/><path class="j" d="M128.771 87.19a3.28 3.28 0 11-3.2 3.279 3.243 3.243 0 013.2-3.279z"/><path class="j" d="M130 94.303a4.118 4.118 0 11-4.023 4.117A4.07 4.07 0 01130 94.303z"/><path class="j" d="M117.91 108.847a4.118 4.118 0 11-4.023 4.117 4.07 4.07 0 014.023-4.117z"/><path class="j" d="M95.628 171.77a4.348 4.348 0 11-4.248 4.346 4.3 4.3 0 014.248-4.346z"/><path class="j" d="M76.412 186.58a4.349 4.349 0 11-4.248 4.348 4.3 4.3 0 014.248-4.348z"/><path class="j" d="M97.762 141.637a4.973 4.973 0 11-4.858 4.973 4.917 4.917 0 014.858-4.973z"/><path class="j" d="M152.774 72.252a5.375 5.375 0 11-5.251 5.372 5.312 5.312 0 015.251-5.372z"/><path class="j" d="M114.808 119.187a7.28 7.28 0 11-7.111 7.277 7.2 7.2 0 017.111-7.277z"/><path class="j" d="M75.428 214.362a7.28 7.28 0 11-7.111 7.279 7.2 7.2 0 017.111-7.279z"/><path class="j" d="M165.074 138.953a6.616 6.616 0 11-6.462 6.615 6.541 6.541 0 016.462-6.615z"/><path class="j" d="M163.589 160.877a6.616 6.616 0 11-6.462 6.615 6.54 6.54 0 016.462-6.615z"/></svg>
