<svg xmlns="http://www.w3.org/2000/svg" width="300.003" height="300.005" viewBox="0 0 300.003 300.005"><defs><style>.a{fill:#6baa7b}.a,.b,.c,.d,.e,.f,.g,.h,.i{fill-rule:evenodd}.b{fill:#f28174}.c{fill:#5b665b}.d{fill:#00973d}.e{fill:#661a00}.f{fill:#e50019}.g{fill:#8f8927}.h{fill:#c16529}.i{fill:#f67e34}</style></defs><path class="a" d="M171.689 220.102a5.032 5.032 0 115-5.032 5.014 5.014 0 01-5 5.032z"/><path class="a" d="M157.638 196.952a5.648 5.648 0 115.608-5.648 5.629 5.629 0 01-5.608 5.648z"/><path class="a" d="M178.041 147.446a5.648 5.648 0 115.608-5.646 5.627 5.627 0 01-5.608 5.646z"/><path class="a" d="M109.382 225.022a6.263 6.263 0 116.219-6.263 6.242 6.242 0 01-6.219 6.263z"/><path class="a" d="M221.972 188.387a6.262 6.262 0 116.219-6.262 6.24 6.24 0 01-6.219 6.262z"/><path class="a" d="M218.53 149.526a6.263 6.263 0 116.219-6.263 6.241 6.241 0 01-6.219 6.263z"/><path class="a" d="M75.83 182.443a5.889 5.889 0 115.849-5.889 5.869 5.869 0 01-5.849 5.889z"/><path class="a" d="M62.8 151.253a5.889 5.889 0 115.849-5.889 5.869 5.869 0 01-5.849 5.889z"/><path class="a" d="M136.375 100.758a6.56 6.56 0 116.515-6.559 6.537 6.537 0 01-6.515 6.559z"/><path class="a" d="M223.521 97.045a5.941 5.941 0 115.9-5.94 5.92 5.92 0 01-5.9 5.94z"/><path class="a" d="M160.472 222.561a4.473 4.473 0 114.442-4.473 4.459 4.459 0 01-4.442 4.473z"/><path class="a" d="M224.385 168.6a4.473 4.473 0 114.442-4.473 4.457 4.457 0 01-4.442 4.473z"/><path class="a" d="M219.961 136.669a4.473 4.473 0 114.442-4.473 4.457 4.457 0 01-4.442 4.473z"/><path class="a" d="M229.833 141.619a4.93 4.93 0 114.895-4.93 4.912 4.912 0 01-4.895 4.93z"/><path class="a" d="M97.331 225.692a3.97 3.97 0 113.944-3.97 3.956 3.956 0 01-3.944 3.97z"/><path class="a" d="M71.766 170.493a3.97 3.97 0 113.942-3.97 3.956 3.956 0 01-3.942 3.97z"/><path class="a" d="M73.624 135.097a3.585 3.585 0 113.56-3.584 3.572 3.572 0 01-3.56 3.584z"/><path class="a" d="M146.39 91.533a3.584 3.584 0 113.56-3.585 3.572 3.572 0 01-3.56 3.585z"/><path class="a" d="M231.535 196.55a3 3 0 112.978-3 2.988 2.988 0 01-2.978 3z"/><path class="a" d="M220.965 174.521a2.751 2.751 0 112.733-2.75 2.742 2.742 0 01-2.733 2.75z"/><path class="a" d="M232.395 88.876a1.885 1.885 0 111.873-1.884 1.878 1.878 0 01-1.873 1.884z"/><path class="a" d="M162.415 212.72a7.1 7.1 0 117.053-7.1 7.077 7.077 0 01-7.053 7.1z"/><path class="a" d="M77.847 149.602a7.1 7.1 0 117.053-7.1 7.077 7.077 0 01-7.053 7.1z"/><path class="a" d="M138.084 85.985a7.836 7.836 0 117.783-7.836 7.809 7.809 0 01-7.783 7.836z"/><path class="a" d="M242.068 90.689a7.837 7.837 0 117.783-7.836 7.811 7.811 0 01-7.783 7.836z"/><path class="a" d="M220.43 203.067a7.1 7.1 0 117.051-7.1 7.077 7.077 0 01-7.051 7.1z"/><path class="b" d="M209.803 204.509a3.548 3.548 0 113.523-3.548 3.536 3.536 0 01-3.523 3.548z"/><path class="b" d="M82.348 171.153a3.548 3.548 0 113.523-3.547 3.536 3.536 0 01-3.523 3.547z"/><path class="b" d="M88.206 140.444a3.549 3.549 0 113.523-3.548 3.537 3.537 0 01-3.523 3.548z"/><path class="b" d="M183.343 120.513a3.548 3.548 0 113.523-3.548 3.536 3.536 0 01-3.523 3.548z"/><path class="b" d="M97.002 169.121a3.03 3.03 0 113.009-3.031 3.02 3.02 0 01-3.009 3.031z"/><path class="b" d="M149.541 76.216a2.644 2.644 0 112.625-2.644 2.636 2.636 0 01-2.625 2.644z"/><path class="b" d="M48.533 175.843a2.283 2.283 0 112.267-2.283 2.275 2.275 0 01-2.267 2.283z"/><path class="b" d="M254.782 83.432a3.454 3.454 0 113.431-3.454 3.442 3.442 0 01-3.431 3.454z"/><path class="b" d="M129.017 172.174a3.945 3.945 0 113.919-3.945 3.932 3.932 0 01-3.919 3.945z"/><path class="b" d="M188.604 143.291a3.945 3.945 0 113.919-3.945 3.932 3.932 0 01-3.919 3.945z"/><path class="b" d="M111.243 165.459a3.945 3.945 0 113.917-3.945 3.931 3.931 0 01-3.917 3.945z"/><path class="b" d="M237.686 150.206a3.945 3.945 0 113.919-3.945 3.932 3.932 0 01-3.919 3.945z"/><path class="b" d="M100.739 111.562a3.945 3.945 0 113.919-3.945 3.931 3.931 0 01-3.919 3.945z"/><path class="b" d="M194.866 136.985a4.555 4.555 0 114.524-4.554 4.539 4.539 0 01-4.524 4.554z"/><path class="b" d="M198.025 226.097a5.068 5.068 0 115.033-5.068 5.051 5.051 0 01-5.033 5.068z"/><path class="b" d="M233.171 190.304a5.068 5.068 0 115.033-5.068 5.05 5.05 0 01-5.033 5.068z"/><path class="b" d="M86.516 225.692a5.69 5.69 0 115.652-5.69 5.672 5.672 0 01-5.652 5.69z"/><path class="b" d="M90.959 183.186a7.318 7.318 0 117.267-7.319 7.294 7.294 0 01-7.267 7.319z"/><path class="b" d="M39.085 184.217a7.317 7.317 0 117.267-7.317 7.292 7.292 0 01-7.267 7.317z"/><path class="b" d="M122.42 163.457a7.773 7.773 0 117.72-7.773 7.747 7.747 0 01-7.72 7.773z"/><path class="b" d="M193.117 114.237a7.773 7.773 0 117.72-7.773 7.747 7.747 0 01-7.72 7.773z"/><path class="b" d="M96.769 126.848a7.773 7.773 0 117.72-7.773 7.748 7.748 0 01-7.72 7.773z"/><path class="b" d="M236.545 166.916a7.774 7.774 0 117.72-7.774 7.747 7.747 0 01-7.72 7.774z"/><path class="b" d="M106.311 205.557a7.928 7.928 0 117.873-7.927 7.9 7.9 0 01-7.873 7.927z"/><path class="b" d="M119.254 174.44a5.276 5.276 0 115.24-5.276 5.257 5.257 0 01-5.24 5.276z"/><path class="b" d="M202.404 215.76a6.133 6.133 0 116.091-6.133 6.112 6.112 0 01-6.091 6.133z"/><path class="b" d="M105.854 177.524a6.133 6.133 0 116.09-6.133 6.113 6.113 0 01-6.09 6.133z"/><path class="b" d="M183.216 136.238a6.133 6.133 0 116.09-6.133 6.112 6.112 0 01-6.09 6.133z"/><path class="b" d="M193.315 127.492a6.133 6.133 0 116.09-6.133 6.113 6.113 0 01-6.09 6.133z"/><path class="b" d="M83.707 133.793a6.468 6.468 0 116.424-6.468 6.445 6.445 0 01-6.424 6.468z"/><path class="b" d="M115.953 189.32a6.133 6.133 0 116.091-6.133 6.112 6.112 0 01-6.091 6.133z"/><path class="b" d="M215.14 216.676a6.488 6.488 0 116.443-6.487 6.465 6.465 0 01-6.443 6.487z"/><path class="b" d="M235.944 179.638a5.859 5.859 0 115.819-5.859 5.839 5.839 0 01-5.819 5.859z"/><path class="c" d="M117.651 224.968a2.129 2.129 0 112.114-2.128 2.121 2.121 0 01-2.114 2.128z"/><path class="c" d="M116.722 195.811a3.039 3.039 0 113.019-3.04 3.029 3.029 0 01-3.019 3.04z"/><path class="c" d="M203.364 102.174a3.039 3.039 0 113.019-3.038 3.029 3.029 0 01-3.019 3.038z"/><path class="c" d="M193.553 217.334a3.039 3.039 0 113.018-3.04 3.029 3.029 0 01-3.018 3.04z"/><path class="c" d="M214.047 129.359a2.316 2.316 0 112.3-2.315 2.308 2.308 0 01-2.3 2.315z"/><path class="c" d="M134.941 131.73a2.316 2.316 0 112.3-2.315 2.308 2.308 0 01-2.3 2.315z"/><path class="c" d="M121.352 119.982a2.013 2.013 0 112-2.014 2.007 2.007 0 01-2 2.014z"/><path class="c" d="M111.728 212.498a3.647 3.647 0 113.622-3.647 3.636 3.636 0 01-3.622 3.647z"/><path class="c" d="M122.794 114.832a3.647 3.647 0 113.619-3.651 3.636 3.636 0 01-3.619 3.651z"/><path class="c" d="M218.406 84.958a4.1 4.1 0 114.067-4.1 4.083 4.083 0 01-4.067 4.1z"/><path class="c" d="M129.175 148.016a4.1 4.1 0 114.069-4.1 4.082 4.082 0 01-4.069 4.1z"/><path class="c" d="M171.054 229.655a4.273 4.273 0 114.244-4.273 4.259 4.259 0 01-4.244 4.273z"/><path class="c" d="M60.264 162.802a4.644 4.644 0 114.613-4.644 4.628 4.628 0 01-4.613 4.644z"/><path class="c" d="M65.738 186.968a3.868 3.868 0 113.841-3.869 3.855 3.855 0 01-3.841 3.869z"/><path class="c" d="M107.645 103.758a3.868 3.868 0 113.842-3.867 3.854 3.854 0 01-3.842 3.867z"/><path class="c" d="M137.558 192.428a5.327 5.327 0 115.289-5.327 5.31 5.31 0 01-5.289 5.327z"/><path class="c" d="M129.347 184.316a5.327 5.327 0 115.29-5.327 5.31 5.31 0 01-5.29 5.327z"/><path class="c" d="M140.578 179.638a6.5 6.5 0 116.453-6.5 6.475 6.475 0 01-6.453 6.5z"/><path class="c" d="M117.934 146.77a6.065 6.065 0 116.022-6.065 6.045 6.045 0 01-6.022 6.065z"/><path class="c" d="M110.895 117.61a6.519 6.519 0 116.475-6.519 6.5 6.5 0 01-6.475 6.519z"/><path class="c" d="M119.13 105.284a6.519 6.519 0 116.474-6.519 6.5 6.5 0 01-6.474 6.519z"/><path class="c" d="M198.472 85.607a6.519 6.519 0 116.475-6.519 6.5 6.5 0 01-6.475 6.519z"/><path class="c" d="M120.052 133.256a6.064 6.064 0 116.024-6.065 6.044 6.044 0 01-6.024 6.065z"/><path class="c" d="M195.863 98.882a6.064 6.064 0 116.024-6.063 6.044 6.044 0 01-6.024 6.063z"/><path class="c" d="M183.718 227.832a7.354 7.354 0 117.3-7.354 7.33 7.33 0 01-7.3 7.354z"/><path class="c" d="M44.805 170.226a7.354 7.354 0 117.3-7.354 7.329 7.329 0 01-7.3 7.354z"/><path class="c" d="M132.157 126.607a7.355 7.355 0 117.3-7.356 7.331 7.331 0 01-7.3 7.356z"/><path class="c" d="M207.261 142.017a7.355 7.355 0 117.3-7.355 7.332 7.332 0 01-7.3 7.355z"/><path class="c" d="M209.507 96.5a6.99 6.99 0 116.943-6.99 6.966 6.966 0 01-6.943 6.99z"/><path class="c" d="M59.064 180.656a8.412 8.412 0 118.354-8.411 8.382 8.382 0 01-8.354 8.411z"/><path class="d" d="M134.492 277.975a2.746 2.746 0 112.728-2.746 2.736 2.736 0 01-2.728 2.746z"/><path class="d" d="M118.1 259.451a2.745 2.745 0 112.727-2.746 2.736 2.736 0 01-2.727 2.746z"/><path class="d" d="M225.354 209.178a3.148 3.148 0 113.127-3.149 3.136 3.136 0 01-3.127 3.149z"/><path class="d" d="M173.533 206.475a3.582 3.582 0 113.557-3.581 3.568 3.568 0 01-3.557 3.581z"/><path class="d" d="M162.817 186.124a3.582 3.582 0 113.557-3.581 3.57 3.57 0 01-3.557 3.581z"/><path class="d" d="M229.551 150.074a3.582 3.582 0 113.557-3.581 3.569 3.569 0 01-3.557 3.581z"/><path class="d" d="M151.614 203.781a4.072 4.072 0 114.045-4.072 4.058 4.058 0 01-4.045 4.072z"/><path class="d" d="M71.389 155.911a3.679 3.679 0 113.653-3.679 3.667 3.667 0 01-3.653 3.679z"/><path class="d" d="M67.439 139.438a3.679 3.679 0 113.654-3.679 3.666 3.666 0 01-3.654 3.679z"/><path class="d" d="M140.393 108.011a3.679 3.679 0 113.653-3.679 3.667 3.667 0 01-3.653 3.679z"/><path class="d" d="M125.755 91.918a5.924 5.924 0 115.882-5.924 5.9 5.9 0 01-5.883 5.924z"/><path class="d" d="M121.692 41.333a6.9 6.9 0 116.854-6.9 6.877 6.877 0 01-6.854 6.9z"/><path class="d" d="M233.175 55.734a6.314 6.314 0 116.269-6.313 6.291 6.291 0 01-6.269 6.313z"/><path class="d" d="M60.783 111.036a6.6 6.6 0 116.549-6.594 6.572 6.572 0 01-6.549 6.594z"/><path class="d" d="M28.076 81.126a7.154 7.154 0 117.1-7.154 7.129 7.129 0 01-7.1 7.154z"/><path class="d" d="M224.502 158.413a4.5 4.5 0 114.466-4.5 4.481 4.481 0 01-4.466 4.5z"/><path class="d" d="M146.808 164.054a3.761 3.761 0 113.735-3.761 3.747 3.747 0 01-3.735 3.761z"/><path class="d" d="M171.585 198.141a7.26 7.26 0 117.21-7.26 7.235 7.235 0 01-7.21 7.26z"/><path class="d" d="M98.828 216.78a5.969 5.969 0 115.927-5.968 5.948 5.948 0 01-5.927 5.968z"/><path class="d" d="M153.227 214.827a2.746 2.746 0 112.727-2.746 2.737 2.737 0 01-2.727 2.746z"/><path class="d" d="M227.02 174.606a2.745 2.745 0 112.727-2.746 2.737 2.737 0 01-2.727 2.746z"/><path class="d" d="M181.783 151.554a2.192 2.192 0 112.177-2.192 2.183 2.183 0 01-2.177 2.192z"/><path class="d" d="M159.984 160.876a1.579 1.579 0 111.567-1.579 1.574 1.574 0 01-1.567 1.579z"/><path class="d" d="M29.496 95.749a2.525 2.525 0 112.508-2.525 2.517 2.517 0 01-2.508 2.525z"/><path class="d" d="M139.678 59.206a2.525 2.525 0 112.508-2.525 2.516 2.516 0 01-2.508 2.525z"/><path class="d" d="M218.553 112.785a3 3 0 112.98-3 2.988 2.988 0 01-2.98 3z"/><path class="d" d="M240.554 59.775a3 3 0 112.977-3 2.989 2.989 0 01-2.977 3z"/><path class="d" d="M234.818 96.125a4.04 4.04 0 114.013-4.041 4.027 4.027 0 01-4.013 4.041z"/><path class="d" d="M228.143 84.954a5.65 5.65 0 115.611-5.65 5.631 5.631 0 01-5.611 5.65z"/><path class="d" d="M149.246 226.948a5.57 5.57 0 115.533-5.571 5.551 5.551 0 01-5.533 5.571z"/><path class="d" d="M112.788 255.073a5.235 5.235 0 115.2-5.236 5.217 5.217 0 01-5.2 5.236z"/><path class="d" d="M230.71 228.587a5.929 5.929 0 115.889-5.928 5.907 5.907 0 01-5.889 5.928z"/><path class="d" d="M245.243 246.735a4.782 4.782 0 114.749-4.782 4.766 4.766 0 01-4.749 4.782z"/><path class="d" d="M127.756 293.636a8.35 8.35 0 118.292-8.351 8.322 8.322 0 01-8.292 8.351z"/><path class="e" d="M276.268 190.121a3.086 3.086 0 113.065-3.087 3.075 3.075 0 01-3.065 3.087z"/><path class="e" d="M268.498 163.277a2.727 2.727 0 112.709-2.727 2.719 2.719 0 01-2.709 2.727z"/><path class="e" d="M201.9 127.908a2.348 2.348 0 112.331-2.348 2.339 2.339 0 01-2.331 2.348z"/><path class="e" d="M215.3 76.48a1.956 1.956 0 111.943-1.955 1.948 1.948 0 01-1.943 1.955z"/><path class="e" d="M200.665 27.987a2.809 2.809 0 112.79-2.809 2.8 2.8 0 01-2.79 2.809z"/><path class="e" d="M81.818 41.284a2.809 2.809 0 112.79-2.809 2.8 2.8 0 01-2.79 2.809z"/><path class="e" d="M105.315 74.331a5.156 5.156 0 115.121-5.155 5.138 5.138 0 01-5.121 5.155z"/><path class="e" d="M9.012 161.721a7.818 7.818 0 117.766-7.819 7.793 7.793 0 01-7.766 7.819z"/><path class="e" d="M131.128 110.429a5.156 5.156 0 115.12-5.155 5.138 5.138 0 01-5.12 5.155z"/><path class="e" d="M181.731 17.429a6.622 6.622 0 116.579-6.622 6.6 6.6 0 01-6.577 6.622z"/><path class="e" d="M282.113 154.378a3.374 3.374 0 113.35-3.374 3.362 3.362 0 01-3.35 3.374z"/><path class="e" d="M209.334 80.663a3.719 3.719 0 113.694-3.719 3.706 3.706 0 01-3.694 3.719z"/><path class="e" d="M128.789 137.937a3.718 3.718 0 113.692-3.717 3.7 3.7 0 01-3.692 3.717z"/><path class="e" d="M52.785 155.505a3.718 3.718 0 113.692-3.714 3.707 3.707 0 01-3.692 3.719z"/><path class="e" d="M50.395 185.107a3.719 3.719 0 113.692-3.719 3.707 3.707 0 01-3.692 3.719z"/><path class="e" d="M74.056 245.754a3.719 3.719 0 113.692-3.719 3.706 3.706 0 01-3.692 3.719z"/><path class="e" d="M161.534 258.75a3.719 3.719 0 113.692-3.719 3.707 3.707 0 01-3.692 3.719z"/><path class="e" d="M172.049 288.832a3.719 3.719 0 113.688-3.717 3.706 3.706 0 01-3.692 3.719z"/><path class="e" d="M149.552 269.577a7.6 7.6 0 117.55-7.6 7.575 7.575 0 01-7.55 7.6z"/><path class="e" d="M188.212 256.217a6.216 6.216 0 116.172-6.215 6.194 6.194 0 01-6.172 6.215z"/><path class="e" d="M38.008 158.395a1.354 1.354 0 111.344-1.354 1.349 1.349 0 01-1.344 1.354z"/><path class="e" d="M95.828 31.776a4.207 4.207 0 114.179-4.207 4.193 4.193 0 01-4.179 4.207z"/><path class="e" d="M266.717 176.341a6.1 6.1 0 116.058-6.1 6.08 6.08 0 01-6.058 6.1z"/><path class="e" d="M292.092 151.506a7.966 7.966 0 117.911-7.966 7.939 7.939 0 01-7.911 7.966z"/><path class="e" d="M180.29 178.297a7.129 7.129 0 117.079-7.129 7.1 7.1 0 01-7.079 7.129z"/><path class="f" d="M211.961 288.851a6.035 6.035 0 115.994-6.036 6.014 6.014 0 01-5.994 6.036z"/><path class="f" d="M204.575 254.563a7.348 7.348 0 117.3-7.347 7.321 7.321 0 01-7.3 7.347z"/><path class="f" d="M44.42 255.371a7.758 7.758 0 117.7-7.757 7.731 7.731 0 01-7.7 7.757z"/><path class="f" d="M74.657 200.137a7.758 7.758 0 117.7-7.757 7.731 7.731 0 01-7.7 7.757z"/><path class="f" d="M197.974 275.379a3.149 3.149 0 113.127-3.149 3.138 3.138 0 01-3.127 3.149z"/><path class="f" d="M133.755 211.232a1.8 1.8 0 111.789-1.8 1.793 1.793 0 01-1.789 1.8z"/><path class="f" d="M124.059 175.266a1.467 1.467 0 111.458-1.467 1.463 1.463 0 01-1.458 1.467z"/><path class="f" d="M113.953 176.74a1.8 1.8 0 111.789-1.8 1.794 1.794 0 01-1.789 1.8z"/><path class="f" d="M172.823 111.268a1.8 1.8 0 111.789-1.8 1.793 1.793 0 01-1.789 1.8z"/><path class="f" d="M219.169 254.738a3.149 3.149 0 113.128-3.149 3.137 3.137 0 01-3.128 3.149z"/><path class="f" d="M20.397 188.815a2.923 2.923 0 112.9-2.924 2.914 2.914 0 01-2.9 2.924z"/><path class="f" d="M17.101 215.941a4.537 4.537 0 114.507-4.538 4.521 4.521 0 01-4.507 4.538z"/><path class="f" d="M103.591 189.804a5.555 5.555 0 115.517-5.553 5.534 5.534 0 01-5.517 5.553z"/><path class="f" d="M93.959 89.036a5.555 5.555 0 115.517-5.555 5.536 5.536 0 01-5.517 5.555z"/><path class="f" d="M245.888 190.075a6.154 6.154 0 116.111-6.153 6.132 6.132 0 01-6.111 6.153z"/><path class="f" d="M161.598 143.732a6.154 6.154 0 116.112-6.155 6.132 6.132 0 01-6.112 6.155z"/><path class="f" d="M172.034 106.279a6.692 6.692 0 116.647-6.691 6.67 6.67 0 01-6.647 6.691z"/><path class="f" d="M198.851 180.105a7.172 7.172 0 117.123-7.172 7.146 7.146 0 01-7.123 7.172z"/><path class="f" d="M80.682 113.221a7.544 7.544 0 117.492-7.544 7.519 7.519 0 01-7.492 7.544z"/><path class="f" d="M244.443 126.156a7.545 7.545 0 117.492-7.545 7.518 7.518 0 01-7.492 7.545z"/><path class="f" d="M160.496 36.972a7.739 7.739 0 117.685-7.739 7.713 7.713 0 01-7.685 7.739z"/><path class="f" d="M103.574 25.929a8.622 8.622 0 118.564-8.623 8.592 8.592 0 01-8.564 8.623z"/><path class="f" d="M208.051 222.022a3.149 3.149 0 113.128-3.15 3.139 3.139 0 01-3.128 3.15z"/><path class="f" d="M190.389 169.216a3.149 3.149 0 113.128-3.149 3.138 3.138 0 01-3.128 3.149z"/><path class="f" d="M241.499 196.16a3.149 3.149 0 113.127-3.149 3.137 3.137 0 01-3.127 3.149z"/><path class="f" d="M132.969 153.637a2.5 2.5 0 112.481-2.5 2.49 2.49 0 01-2.481 2.5z"/><path class="f" d="M88.549 155.254a2.5 2.5 0 112.483-2.5 2.492 2.492 0 01-2.483 2.5z"/><path class="f" d="M112.155 154.176a3.249 3.249 0 113.228-3.249 3.238 3.238 0 01-3.228 3.249z"/><path class="f" d="M167.277 71.19a3.25 3.25 0 113.228-3.25 3.239 3.239 0 01-3.228 3.25z"/><path class="f" d="M267.755 64.993a2.576 2.576 0 112.559-2.577 2.567 2.567 0 01-2.559 2.577z"/><path class="f" d="M180.522 63.108a3.654 3.654 0 113.628-3.654 3.641 3.641 0 01-3.628 3.654z"/><path class="f" d="M66.397 57.718a3.25 3.25 0 113.228-3.25 3.239 3.239 0 01-3.228 3.25z"/><path class="f" d="M113.492 12.457a3.25 3.25 0 113.228-3.25 3.239 3.239 0 01-3.228 3.25z"/><path class="f" d="M165.27 45.324a3.654 3.654 0 113.628-3.654 3.641 3.641 0 01-3.628 3.654z"/><path class="f" d="M256.216 183.496a3.149 3.149 0 113.128-3.149 3.137 3.137 0 01-3.128 3.149z"/><path class="f" d="M198.049 144.697a3.519 3.519 0 113.5-3.519 3.507 3.507 0 01-3.5 3.519z"/><path class="f" d="M159.518 130.148a3.52 3.52 0 113.494-3.519 3.507 3.507 0 01-3.494 3.519z"/><path class="f" d="M272.438 95.929a3.519 3.519 0 113.5-3.519 3.508 3.508 0 01-3.5 3.519z"/><path class="f" d="M253.882 115.599a3.883 3.883 0 113.856-3.882 3.869 3.869 0 01-3.856 3.882z"/><path class="f" d="M95.563 134.728a3.519 3.519 0 113.5-3.519 3.507 3.507 0 01-3.5 3.519z"/><path class="g" d="M253.395 251.789a3.5 3.5 0 113.478-3.5 3.49 3.49 0 01-3.478 3.5z"/><path class="g" d="M169.581 182.419a3.84 3.84 0 113.814-3.839 3.827 3.827 0 01-3.814 3.839z"/><path class="g" d="M99.191 289.39a3.841 3.841 0 113.814-3.841 3.828 3.828 0 01-3.814 3.841z"/><path class="g" d="M96.096 263.427a3.841 3.841 0 113.814-3.841 3.828 3.828 0 01-3.814 3.841z"/><path class="g" d="M136.325 297.952a3.058 3.058 0 113.037-3.059 3.049 3.049 0 01-3.037 3.059z"/><path class="g" d="M102.547 229.928a3.058 3.058 0 113.037-3.057 3.047 3.047 0 01-3.037 3.057z"/><path class="g" d="M236.932 112.384a3.841 3.841 0 113.814-3.841 3.828 3.828 0 01-3.814 3.841z"/><path class="g" d="M219.819 105.713a3.841 3.841 0 113.814-3.841 3.828 3.828 0 01-3.814 3.841z"/><path class="g" d="M245.765 75.418a3.841 3.841 0 113.814-3.841 3.828 3.828 0 01-3.814 3.841z"/><path class="g" d="M83.071 186.591a2.842 2.842 0 112.821-2.841 2.832 2.832 0 01-2.821 2.841z"/><path class="g" d="M143.101 200.274a4.293 4.293 0 114.263-4.294 4.279 4.279 0 01-4.263 4.294z"/><path class="g" d="M169.879 168.029a4.293 4.293 0 114.263-4.292 4.277 4.277 0 01-4.263 4.292z"/><path class="g" d="M151.454 86.041a4.778 4.778 0 114.745-4.777 4.762 4.762 0 01-4.745 4.777z"/><path class="g" d="M153.593 158.862a4.293 4.293 0 114.263-4.294 4.279 4.279 0 01-4.263 4.294z"/><path class="g" d="M144.449 117.449a4.884 4.884 0 114.851-4.885 4.868 4.868 0 01-4.851 4.885z"/><path class="g" d="M54.187 97.716a4.884 4.884 0 114.851-4.885 4.869 4.869 0 01-4.851 4.885z"/><path class="g" d="M171.379 138.85a3.856 3.856 0 113.829-3.856 3.842 3.842 0 01-3.829 3.856z"/><path class="g" d="M148.601 188.072a5.083 5.083 0 115.049-5.083 5.066 5.066 0 01-5.049 5.083z"/><path class="g" d="M160.383 235.069a5.874 5.874 0 115.833-5.874 5.854 5.854 0 01-5.833 5.874z"/><path class="g" d="M125.831 255.58a5.875 5.875 0 115.834-5.875 5.854 5.854 0 01-5.834 5.875z"/><path class="g" d="M94.865 236.937a5.381 5.381 0 115.343-5.38 5.363 5.363 0 01-5.343 5.38z"/><path class="g" d="M115.75 280.04a5.381 5.381 0 115.343-5.38 5.362 5.362 0 01-5.343 5.38z"/><path class="g" d="M103.632 280.815a4.862 4.862 0 114.827-4.861 4.846 4.846 0 01-4.827 4.861z"/><path class="g" d="M111.078 293.226a6.449 6.449 0 116.406-6.45 6.427 6.427 0 01-6.406 6.45z"/><path class="g" d="M80.058 163.362a5.875 5.875 0 115.833-5.875 5.855 5.855 0 01-5.833 5.875z"/><path class="g" d="M143.104 215.638a6.778 6.778 0 116.731-6.778 6.755 6.755 0 01-6.731 6.778z"/><path class="g" d="M165.478 159.218a7.319 7.319 0 117.267-7.319 7.294 7.294 0 01-7.267 7.319z"/><path class="g" d="M146.432 132.813a7.319 7.319 0 117.267-7.319 7.294 7.294 0 01-7.267 7.319z"/><path class="g" d="M227.296 122.532a7.029 7.029 0 116.981-7.029 7 7 0 01-6.981 7.029z"/><path class="g" d="M234.472 74.171a7.029 7.029 0 116.981-7.029 7 7 0 01-6.981 7.029z"/><path class="g" d="M32.42 110.299a7.029 7.029 0 116.981-7.028 7 7 0 01-6.981 7.028z"/><path class="g" d="M19.171 100.571a7.029 7.029 0 116.979-7.028 7 7 0 01-6.979 7.028z"/><path class="g" d="M38.217 69.443a7.029 7.029 0 116.979-7.028 7 7 0 01-6.979 7.028z"/><path class="g" d="M235.979 42.762a7.736 7.736 0 117.682-7.736 7.709 7.709 0 01-7.682 7.736z"/><path class="g" d="M134.401 55.268a8.569 8.569 0 118.511-8.568 8.54 8.54 0 01-8.511 8.568z"/><path class="g" d="M57.199 87.329a8.2 8.2 0 118.142-8.2 8.171 8.171 0 01-8.142 8.2z"/><path class="g" d="M46.439 120.955a8.2 8.2 0 118.142-8.2 8.172 8.172 0 01-8.142 8.2z"/><path class="g" d="M64.657 131.239a8.2 8.2 0 118.143-8.2 8.171 8.171 0 01-8.143 8.2z"/><path class="g" d="M40.643 96.217a8.755 8.755 0 118.695-8.755 8.725 8.725 0 01-8.695 8.755z"/><path class="g" d="M153.17 108.355a8.57 8.57 0 118.511-8.57 8.54 8.54 0 01-8.511 8.57z"/><path class="g" d="M232.299 217.219a2.146 2.146 0 112.131-2.146 2.139 2.139 0 01-2.131 2.146z"/><path class="g" d="M222.427 219.932a2.147 2.147 0 112.131-2.147 2.139 2.139 0 01-2.131 2.147z"/><path class="g" d="M147.481 192.817a2.146 2.146 0 112.133-2.146 2.139 2.139 0 01-2.133 2.146z"/><path class="g" d="M69.11 161.966a2.678 2.678 0 112.661-2.678 2.669 2.669 0 01-2.661 2.678z"/><path class="g" d="M156.904 184.458a1.695 1.695 0 111.683-1.695 1.689 1.689 0 01-1.683 1.695z"/><path class="g" d="M120.291 244.691a1.695 1.695 0 111.682-1.695 1.689 1.689 0 01-1.682 1.695z"/><path class="g" d="M124.158 276.366a1.695 1.695 0 111.683-1.695 1.688 1.688 0 01-1.683 1.695z"/><path class="g" d="M105.335 255.595a1.695 1.695 0 111.683-1.695 1.689 1.689 0 01-1.683 1.695z"/><path class="g" d="M101.21 237.939a1.694 1.694 0 111.683-1.693 1.688 1.688 0 01-1.683 1.693z"/><path class="g" d="M218.459 118.032a1.695 1.695 0 111.683-1.695 1.689 1.689 0 01-1.683 1.695z"/><path class="g" d="M229.776 59.663a1.694 1.694 0 111.683-1.693 1.689 1.689 0 01-1.683 1.693z"/><path class="g" d="M169.217 172.935a1.948 1.948 0 111.936-1.949 1.943 1.943 0 01-1.936 1.949z"/><path class="g" d="M169.217 143.751a1.948 1.948 0 111.936-1.948 1.942 1.942 0 01-1.936 1.948z"/><path class="g" d="M216.418 98.448a1.948 1.948 0 111.936-1.949 1.942 1.942 0 01-1.936 1.949z"/><path class="g" d="M134.714 140.138a2.226 2.226 0 112.212-2.226 2.219 2.219 0 01-2.212 2.226z"/><path class="g" d="M159.148 241.171a2.6 2.6 0 112.58-2.6 2.59 2.59 0 01-2.58 2.6z"/><path class="g" d="M217.943 161.124a2.6 2.6 0 112.58-2.6 2.589 2.589 0 01-2.58 2.6z"/><path class="g" d="M145.346 56.295a2.83 2.83 0 112.811-2.83 2.82 2.82 0 01-2.811 2.83z"/><path class="g" d="M125.196 57.963a2.829 2.829 0 112.811-2.83 2.82 2.82 0 01-2.811 2.83z"/><path class="g" d="M157.216 89.971a2.6 2.6 0 112.581-2.6 2.589 2.589 0 01-2.581 2.6z"/><path class="g" d="M113.603 28.827a2.6 2.6 0 112.581-2.6 2.59 2.59 0 01-2.581 2.6z"/><path class="g" d="M140.263 137.777a2.991 2.991 0 112.972-2.991 2.981 2.981 0 01-2.972 2.991z"/><path class="g" d="M74.292 118.878a2.992 2.992 0 112.972-2.991 2.981 2.981 0 01-2.972 2.991z"/><path class="g" d="M70.152 113.597a2.991 2.991 0 112.971-2.991 2.981 2.981 0 01-2.971 2.991z"/><path class="g" d="M70.98 103.591a2.991 2.991 0 112.971-2.991 2.98 2.98 0 01-2.971 2.991z"/><path class="g" d="M51.102 104.148a2.992 2.992 0 112.971-2.993 2.983 2.983 0 01-2.971 2.993z"/><path class="g" d="M43.378 103.313a2.991 2.991 0 112.971-2.991 2.981 2.981 0 01-2.971 2.991z"/><path class="g" d="M50.002 70.239a2.992 2.992 0 112.972-2.991 2.982 2.982 0 01-2.972 2.991z"/><path class="g" d="M59.801 138.612a3.131 3.131 0 113.109-3.131 3.122 3.122 0 01-3.109 3.131z"/><path class="g" d="M53.728 132.775a3.131 3.131 0 113.11-3.131 3.12 3.12 0 01-3.11 3.131z"/><path class="g" d="M20.881 85.803a3.13 3.13 0 113.115-3.13 3.119 3.119 0 01-3.11 3.131z"/><path class="g" d="M27.505 88.86a3.131 3.131 0 113.109-3.131 3.12 3.12 0 01-3.109 3.131z"/><path class="g" d="M49.637 62.913a3.637 3.637 0 113.613-3.637 3.624 3.624 0 01-3.613 3.637z"/><path class="g" d="M43.565 55.687a3.637 3.637 0 113.612-3.637 3.624 3.624 0 01-3.612 3.637z"/><path class="g" d="M44.669 77.089a3.637 3.637 0 113.612-3.638 3.625 3.625 0 01-3.612 3.638z"/><path class="g" d="M55.02 119.335a1.553 1.553 0 111.542-1.552 1.548 1.548 0 01-1.542 1.552z"/><path class="g" d="M63.576 114.61a1.552 1.552 0 111.542-1.552 1.547 1.547 0 01-1.542 1.552z"/><path class="g" d="M22.861 105.438a1.97 1.97 0 111.956-1.97 1.963 1.963 0 01-1.956 1.97z"/><path class="g" d="M37.763 76.811a1.97 1.97 0 111.956-1.97 1.964 1.964 0 01-1.956 1.97z"/><path class="g" d="M58.469 115.722a1.97 1.97 0 111.956-1.97 1.963 1.963 0 01-1.956 1.97z"/><path class="g" d="M52.673 124.056a1.97 1.97 0 111.955-1.97 1.963 1.963 0 01-1.955 1.97z"/><path class="g" d="M76.135 124.056a1.97 1.97 0 111.956-1.97 1.963 1.963 0 01-1.956 1.97z"/><path class="g" d="M226.691 216.542a3.05 3.05 0 113.03-3.05 3.04 3.04 0 01-3.03 3.05z"/><path class="g" d="M150.285 236.2a3.615 3.615 0 113.59-3.616 3.6 3.6 0 01-3.59 3.616z"/><path class="g" d="M225.591 129.012a3.109 3.109 0 113.087-3.109 3.1 3.1 0 01-3.087 3.109z"/><path class="g" d="M218.966 125.679a3.109 3.109 0 113.088-3.109 3.1 3.1 0 01-3.088 3.109z"/><path class="g" d="M228.262 238.91a4.406 4.406 0 114.375-4.405 4.391 4.391 0 01-4.375 4.405z"/><path class="g" d="M234.239 130.794a4.78 4.78 0 114.748-4.78 4.764 4.764 0 01-4.748 4.78z"/><path class="g" d="M229.821 106.058a4.78 4.78 0 114.748-4.78 4.764 4.764 0 01-4.748 4.78z"/><path class="g" d="M246.852 66.479a4.308 4.308 0 114.279-4.308 4.293 4.293 0 01-4.279 4.308z"/><path class="g" d="M178.388 163.033a5.428 5.428 0 115.392-5.428 5.409 5.409 0 01-5.392 5.428z"/><path class="g" d="M145.908 69.925a5.892 5.892 0 115.852-5.892 5.872 5.872 0 01-5.852 5.892z"/><path class="g" d="M122.998 79.098a5.892 5.892 0 115.852-5.893 5.872 5.872 0 01-5.852 5.893z"/><path class="g" d="M132.293 69.647a6.54 6.54 0 116.494-6.54 6.517 6.517 0 01-6.494 6.54z"/><path class="g" d="M155.892 121.621a6.123 6.123 0 116.081-6.122 6.1 6.1 0 01-6.081 6.122z"/><path class="g" d="M65.907 97.718a6.123 6.123 0 116.081-6.122 6.1 6.1 0 01-6.081 6.122z"/><path class="g" d="M240.042 237.555a6.1 6.1 0 116.059-6.1 6.079 6.079 0 01-6.059 6.1z"/><path class="g" d="M245.427 261.284a6.1 6.1 0 116.059-6.1 6.08 6.08 0 01-6.059 6.1z"/><path class="g" d="M230.959 256.761a8.474 8.474 0 118.414-8.474 8.445 8.445 0 01-8.414 8.474z"/><path class="g" d="M149.498 253.824a8.474 8.474 0 118.415-8.474 8.444 8.444 0 01-8.415 8.474z"/><path class="g" d="M112.112 243.958a8.474 8.474 0 118.414-8.473 8.444 8.444 0 01-8.414 8.473z"/><path class="g" d="M97.774 254.861a8.111 8.111 0 118.055-8.115 8.085 8.085 0 01-8.055 8.111z"/><path class="g" d="M126.909 272.515a7.592 7.592 0 117.541-7.592 7.565 7.565 0 01-7.541 7.592z"/><path class="g" d="M107.83 271.218a7.592 7.592 0 117.539-7.592 7.566 7.566 0 01-7.539 7.592z"/><path class="g" d="M156.231 179.035a8.473 8.473 0 118.415-8.473 8.444 8.444 0 01-8.415 8.473z"/><path class="g" d="M249.009 56.742a9 9 0 118.934-9 8.967 8.967 0 01-8.934 9z"/><path class="h" d="M166.201 283.504a1.59 1.59 0 111.579-1.589 1.583 1.583 0 01-1.579 1.589z"/><path class="h" d="M152.369 285.321a1.59 1.59 0 111.579-1.589 1.584 1.584 0 01-1.579 1.589z"/><path class="h" d="M147.408 275.025a1.589 1.589 0 111.577-1.589 1.583 1.583 0 01-1.577 1.589z"/><path class="h" d="M172.517 295.917a2.649 2.649 0 112.63-2.649 2.639 2.639 0 01-2.63 2.649z"/><path class="h" d="M82.772 270.557a2.649 2.649 0 112.631-2.649 2.639 2.639 0 01-2.631 2.649z"/><path class="h" d="M74.759 255.346a2.649 2.649 0 112.63-2.649 2.64 2.64 0 01-2.63 2.649z"/><path class="h" d="M87.475 241.975a3.216 3.216 0 113.194-3.218 3.2 3.2 0 01-3.194 3.216z"/><path class="h" d="M166.051 240.962a2.65 2.65 0 112.631-2.65 2.641 2.641 0 01-2.631 2.65z"/><path class="h" d="M179.113 185.463a2.649 2.649 0 112.631-2.649 2.64 2.64 0 01-2.631 2.649z"/><path class="h" d="M33.278 117.228a2.649 2.649 0 112.631-2.649 2.639 2.639 0 01-2.631 2.649z"/><path class="h" d="M179.543 201.506a2.65 2.65 0 112.631-2.65 2.64 2.64 0 01-2.631 2.65z"/><path class="h" d="M39.66 142.031a2.65 2.65 0 112.631-2.65 2.64 2.64 0 01-2.631 2.65z"/><path class="h" d="M109.752 123.541a2.649 2.649 0 112.631-2.649 2.639 2.639 0 01-2.631 2.649z"/><path class="h" d="M283.427 187.762a2.649 2.649 0 112.63-2.649 2.639 2.639 0 01-2.63 2.649z"/><path class="h" d="M293.587 192.038a2.649 2.649 0 112.631-2.649 2.64 2.64 0 01-2.631 2.649z"/><path class="h" d="M296.748 173.255a3.13 3.13 0 113.109-3.129 3.118 3.118 0 01-3.109 3.129z"/><path class="h" d="M270.664 157.067a3.13 3.13 0 113.109-3.13 3.118 3.118 0 01-3.109 3.13z"/><path class="h" d="M276.731 126.223a3.13 3.13 0 113.109-3.13 3.118 3.118 0 01-3.109 3.13z"/><path class="h" d="M288.37 104.693a3.474 3.474 0 113.45-3.475 3.464 3.464 0 01-3.45 3.475z"/><path class="h" d="M209.966 106.372a3.932 3.932 0 113.9-3.932 3.918 3.918 0 01-3.9 3.932z"/><path class="h" d="M120.45 52.429a3.932 3.932 0 113.9-3.932 3.918 3.918 0 01-3.9 3.932z"/><path class="h" d="M203.332 148.518a3.13 3.13 0 113.107-3.13 3.119 3.119 0 01-3.107 3.13z"/><path class="h" d="M25.672 116.244a3.13 3.13 0 113.109-3.128 3.118 3.118 0 01-3.109 3.128z"/><path class="h" d="M288.673 172.798a3.627 3.627 0 113.6-3.628 3.615 3.615 0 01-3.6 3.628z"/><path class="h" d="M178.381 233.24a2.65 2.65 0 112.631-2.649 2.64 2.64 0 01-2.631 2.649z"/><path class="h" d="M137.784 264.58a2.347 2.347 0 112.33-2.348 2.339 2.339 0 01-2.33 2.348z"/><path class="h" d="M170.261 235.209a2.347 2.347 0 112.331-2.346 2.339 2.339 0 01-2.331 2.346z"/><path class="h" d="M213.33 189.092a2.346 2.346 0 112.331-2.346 2.339 2.339 0 01-2.331 2.346z"/><path class="h" d="M260.585 165.758a2.132 2.132 0 112.118-2.131 2.125 2.125 0 01-2.118 2.131z"/><path class="h" d="M271.657 121.628a2.132 2.132 0 112.117-2.131 2.124 2.124 0 01-2.117 2.131z"/><path class="h" d="M203.331 107.886a2.367 2.367 0 112.35-2.367 2.359 2.359 0 01-2.35 2.367z"/><path class="h" d="M201.663 55.966a2.367 2.367 0 112.35-2.367 2.359 2.359 0 01-2.35 2.367z"/><path class="h" d="M185.743 23.747a2.367 2.367 0 112.35-2.367 2.359 2.359 0 01-2.35 2.367z"/><path class="h" d="M196.279 61.77a1.527 1.527 0 111.516-1.527 1.521 1.521 0 01-1.516 1.527z"/><path class="h" d="M108.137 55.316a1.527 1.527 0 111.517-1.527 1.522 1.522 0 01-1.517 1.527z"/><path class="h" d="M219.028 20.539a1.527 1.527 0 111.517-1.526 1.522 1.522 0 01-1.517 1.526z"/><path class="h" d="M232.222 27.87a1.527 1.527 0 111.516-1.527 1.522 1.522 0 01-1.516 1.527z"/><path class="h" d="M226.307 35.199a1.527 1.527 0 111.517-1.526 1.52 1.52 0 01-1.517 1.526z"/><path class="h" d="M200.602 48.943a2.367 2.367 0 112.35-2.367 2.359 2.359 0 01-2.35 2.367z"/><path class="h" d="M99.638 79.372a2.367 2.367 0 112.35-2.367 2.359 2.359 0 01-2.35 2.367z"/><path class="h" d="M113.374 73.608a2.367 2.367 0 112.35-2.367 2.359 2.359 0 01-2.35 2.367z"/><path class="h" d="M217.922 34.219a2.029 2.029 0 112.015-2.029 2.022 2.022 0 01-2.015 2.029z"/><path class="h" d="M213.978 30.097a2.03 2.03 0 112.015-2.03 2.023 2.023 0 01-2.015 2.03z"/><path class="h" d="M194.124 42.834a2.78 2.78 0 112.762-2.78 2.77 2.77 0 01-2.762 2.78z"/><path class="h" d="M187.756 42.681a2.78 2.78 0 112.762-2.78 2.77 2.77 0 01-2.762 2.78z"/><path class="h" d="M291.22 110.023a2.132 2.132 0 112.117-2.133 2.125 2.125 0 01-2.117 2.133z"/><path class="h" d="M281.851 140.652a1.795 1.795 0 111.783-1.795 1.789 1.789 0 01-1.783 1.795z"/><path class="h" d="M282.911 124.161a1.8 1.8 0 111.783-1.8 1.79 1.79 0 01-1.783 1.8z"/><path class="h" d="M209.207 146.608a1.8 1.8 0 111.783-1.8 1.79 1.79 0 01-1.783 1.8z"/><path class="h" d="M141.366 220.901a1.524 1.524 0 111.514-1.524 1.519 1.519 0 01-1.514 1.524z"/><path class="h" d="M116.005 205.87a2.346 2.346 0 112.33-2.346 2.338 2.338 0 01-2.33 2.346z"/><path class="h" d="M33.586 169.216a2.346 2.346 0 112.33-2.346 2.338 2.338 0 01-2.33 2.346z"/><path class="h" d="M150.414 288.803a1.59 1.59 0 111.579-1.59 1.584 1.584 0 01-1.579 1.59z"/><path class="h" d="M138.687 289.709a1.589 1.589 0 111.579-1.589 1.583 1.583 0 01-1.579 1.589z"/><path class="h" d="M95.646 279.798a1.59 1.59 0 111.579-1.589 1.584 1.584 0 01-1.579 1.589z"/><path class="h" d="M72.295 277.031a1.59 1.59 0 111.579-1.589 1.584 1.584 0 01-1.579 1.589z"/><path class="h" d="M78.017 259.055a1.59 1.59 0 111.579-1.59 1.584 1.584 0 01-1.579 1.59z"/><path class="h" d="M71.836 224.933a1.59 1.59 0 111.579-1.59 1.585 1.585 0 01-1.579 1.59z"/><path class="h" d="M13.684 166.61a1.589 1.589 0 111.579-1.589 1.584 1.584 0 01-1.579 1.589z"/><path class="h" d="M29.708 151.857a1.59 1.59 0 111.579-1.59 1.584 1.584 0 01-1.579 1.59z"/><path class="h" d="M2.467 133.876a1.589 1.589 0 111.579-1.589 1.584 1.584 0 01-1.579 1.589z"/><path class="h" d="M20.782 129.957a1.59 1.59 0 111.579-1.589 1.584 1.584 0 01-1.579 1.589z"/><path class="h" d="M115.752 121.089a1.867 1.867 0 111.854-1.867 1.859 1.859 0 01-1.854 1.867z"/><path class="h" d="M21.241 118.893a1.59 1.59 0 111.577-1.591 1.584 1.584 0 01-1.577 1.591z"/><path class="h" d="M36.809 121.658a1.589 1.589 0 111.577-1.589 1.583 1.583 0 01-1.577 1.589z"/><path class="h" d="M87.633 229.775a1.59 1.59 0 111.579-1.59 1.584 1.584 0 01-1.579 1.59z"/><path class="h" d="M159.736 300.005a7.8 7.8 0 117.744-7.8 7.769 7.769 0 01-7.744 7.8z"/><path class="h" d="M174.622 281.081a7.8 7.8 0 117.742-7.8 7.768 7.768 0 01-7.742 7.8z"/><path class="h" d="M191.312 242.627a7.8 7.8 0 117.742-7.8 7.769 7.769 0 01-7.742 7.8z"/><path class="h" d="M283.782 206.097a8.348 8.348 0 118.289-8.348 8.318 8.318 0 01-8.289 8.348z"/><path class="h" d="M137.71 238.842a7.418 7.418 0 117.366-7.417 7.391 7.391 0 01-7.366 7.417z"/><path class="h" d="M189.67 211.097a7.418 7.418 0 117.366-7.417 7.392 7.392 0 01-7.366 7.417z"/><path class="h" d="M123.418 220.714a7.8 7.8 0 117.748-7.8 7.773 7.773 0 01-7.748 7.8z"/><path class="h" d="M70.02 272.813a8.086 8.086 0 118.03-8.086 8.058 8.058 0 01-8.03 8.086z"/><path class="h" d="M57.254 199.967a7.8 7.8 0 117.747-7.8 7.774 7.774 0 01-7.747 7.8z"/><path class="h" d="M28.178 146.716a7.8 7.8 0 117.748-7.8 7.773 7.773 0 01-7.748 7.8z"/><path class="h" d="M13.525 117.67a7.8 7.8 0 117.748-7.8 7.773 7.773 0 01-7.748 7.8z"/><path class="h" d="M163.12 269.273a5.147 5.147 0 115.111-5.148 5.13 5.13 0 01-5.111 5.148z"/><path class="h" d="M85.738 264.201a5.146 5.146 0 115.111-5.146 5.129 5.129 0 01-5.111 5.146z"/><path class="h" d="M80.7 282.182a5.147 5.147 0 115.111-5.148 5.13 5.13 0 01-5.111 5.148z"/><path class="h" d="M56.432 265.583a5.147 5.147 0 115.112-5.146 5.129 5.129 0 01-5.112 5.146z"/><path class="h" d="M82.532 252.674a5.147 5.147 0 115.111-5.148 5.129 5.129 0 01-5.111 5.148z"/><path class="h" d="M65.362 241.839a5.147 5.147 0 115.111-5.146 5.129 5.129 0 01-5.111 5.146z"/><path class="h" d="M184.62 267.454a5.146 5.146 0 115.111-5.146 5.129 5.129 0 01-5.111 5.146z"/><path class="h" d="M281.461 218.29a5.147 5.147 0 115.112-5.146 5.129 5.129 0 01-5.112 5.146z"/><path class="h" d="M136.958 258.977a5.147 5.147 0 115.111-5.148 5.13 5.13 0 01-5.111 5.148z"/><path class="h" d="M145.076 298.793a5.45 5.45 0 115.412-5.449 5.431 5.431 0 01-5.412 5.449z"/><path class="h" d="M143.799 287.137a6.131 6.131 0 116.088-6.131 6.109 6.109 0 01-6.088 6.131z"/><path class="h" d="M65.043 255.785a6.131 6.131 0 116.09-6.13 6.109 6.109 0 01-6.09 6.13z"/><path class="h" d="M92.286 275.841a6.131 6.131 0 116.09-6.13 6.109 6.109 0 01-6.09 6.13z"/><path class="h" d="M124.475 232.487a5.147 5.147 0 115.111-5.146 5.128 5.128 0 01-5.111 5.146z"/><path class="h" d="M131.349 206.179a6.033 6.033 0 115.991-6.034 6.012 6.012 0 01-5.991 6.034z"/><path class="h" d="M186.323 195.773a6.034 6.034 0 115.991-6.034 6.013 6.013 0 01-5.991 6.034z"/><path class="h" d="M39.343 155.201a6.034 6.034 0 115.991-6.034 6.013 6.013 0 01-5.991 6.034z"/><path class="h" d="M29.269 164.653a6.034 6.034 0 115.991-6.034 6.013 6.013 0 01-5.991 6.034z"/><path class="h" d="M28.124 129.382a6.033 6.033 0 115.991-6.034 6.012 6.012 0 01-5.991 6.034z"/><path class="h" d="M41.502 135.607a6.625 6.625 0 116.579-6.625 6.6 6.6 0 01-6.579 6.625z"/><path class="h" d="M106.875 138.23a6.843 6.843 0 116.8-6.843 6.819 6.819 0 01-6.8 6.843z"/><path class="h" d="M49.514 147.133a6.625 6.625 0 116.579-6.625 6.6 6.6 0 01-6.579 6.625z"/><path class="h" d="M11.97 140.448a6.625 6.625 0 116.579-6.625 6.6 6.6 0 01-6.579 6.625z"/><path class="h" d="M293.085 165.234a6.034 6.034 0 115.993-6.034 6.013 6.013 0 01-5.993 6.034z"/><path class="h" d="M278.769 169.355a7.165 7.165 0 117.116-7.164 7.14 7.14 0 01-7.116 7.164z"/><path class="h" d="M259.661 160.805a7.166 7.166 0 117.116-7.166 7.141 7.141 0 01-7.116 7.166z"/><path class="h" d="M291.356 134.693a7.165 7.165 0 117.116-7.166 7.14 7.14 0 01-7.116 7.166z"/><path class="h" d="M207.483 124.156a8.091 8.091 0 118.035-8.091 8.062 8.062 0 01-8.035 8.091z"/><path class="h" d="M189.741 59.411a8.09 8.09 0 118.033-8.089 8.06 8.06 0 01-8.033 8.089z"/><path class="h" d="M109.181 93.989a8.984 8.984 0 118.922-8.983 8.952 8.952 0 01-8.922 8.983z"/><path class="h" d="M80.106 35.666a8.984 8.984 0 118.921-8.983 8.952 8.952 0 01-8.921 8.983z"/><path class="h" d="M205.209 44.141a8.091 8.091 0 118.035-8.091 8.062 8.062 0 01-8.035 8.091z"/><path class="h" d="M93.523 49.674a7.668 7.668 0 117.614-7.667 7.641 7.641 0 01-7.614 7.667z"/><path class="h" d="M279.519 119.88a8.091 8.091 0 118.035-8.091 8.062 8.062 0 01-8.035 8.091z"/><path class="h" d="M206.119 72.39a8.09 8.09 0 118.035-8.089 8.061 8.061 0 01-8.035 8.089z"/><path class="h" d="M273.158 150.269a7.166 7.166 0 117.116-7.166 7.14 7.14 0 01-7.116 7.166z"/><path class="h" d="M266.333 134.846a7.166 7.166 0 117.116-7.166 7.14 7.14 0 01-7.116 7.166z"/><path class="h" d="M138.612 273.359a3.633 3.633 0 113.609-3.632 3.62 3.62 0 01-3.609 3.632z"/><path class="h" d="M56.422 245.927a3.633 3.633 0 113.609-3.634 3.62 3.62 0 01-3.609 3.634z"/><path class="h" d="M158.234 283.049a6.888 6.888 0 116.84-6.888 6.864 6.864 0 01-6.84 6.888z"/><path class="h" d="M78.104 238.328a6.888 6.888 0 116.841-6.888 6.864 6.864 0 01-6.841 6.888z"/><path class="h" d="M173.118 262.762a6.888 6.888 0 116.841-6.888 6.864 6.864 0 01-6.841 6.888z"/><path class="h" d="M176.726 248.077a6.888 6.888 0 116.84-6.887 6.864 6.864 0 01-6.84 6.887z"/><path class="h" d="M163.721 250.499a4.39 4.39 0 114.36-4.389 4.374 4.374 0 01-4.36 4.389z"/><path class="h" d="M134.552 247.925a4.39 4.39 0 114.36-4.389 4.374 4.374 0 01-4.36 4.389z"/><path class="h" d="M134.862 223.211a3.934 3.934 0 113.907-3.933 3.921 3.921 0 01-3.907 3.933z"/><path class="h" d="M21.764 154.977a3.934 3.934 0 113.907-3.935 3.921 3.921 0 01-3.907 3.935z"/><path class="h" d="M19.246 165.581a3.934 3.934 0 113.907-3.935 3.921 3.921 0 01-3.907 3.935z"/><path class="h" d="M16.498 126.619a3.934 3.934 0 113.907-3.934 3.92 3.92 0 01-3.907 3.934z"/><path class="h" d="M3.907 146.447a3.934 3.934 0 113.907-3.934 3.92 3.92 0 01-3.907 3.934z"/><path class="h" d="M121.081 202.834a3.934 3.934 0 113.907-3.935 3.921 3.921 0 01-3.907 3.935z"/><path class="h" d="M178.639 212.805a3.5 3.5 0 113.476-3.5 3.488 3.488 0 01-3.476 3.5z"/><path class="h" d="M89.58 284.267a3.5 3.5 0 113.476-3.5 3.488 3.488 0 01-3.476 3.5z"/><path class="h" d="M188.497 183.178a3.5 3.5 0 113.476-3.5 3.491 3.491 0 01-3.476 3.5z"/><path class="h" d="M15.878 147.68a3.5 3.5 0 113.476-3.5 3.487 3.487 0 01-3.476 3.5z"/><path class="h" d="M292.633 119.963a4.466 4.466 0 114.436-4.467 4.451 4.451 0 01-4.436 4.467z"/><path class="h" d="M219.605 73.693a5.008 5.008 0 114.974-5.008 4.99 4.99 0 01-4.974 5.008z"/><path class="h" d="M209.292 54.454a5.009 5.009 0 114.974-5.01 4.991 4.991 0 01-4.974 5.01z"/><path class="h" d="M105.353 36.238a5.009 5.009 0 114.974-5.01 4.992 4.992 0 01-4.974 5.01z"/><path class="h" d="M223.471 31.548a5.7 5.7 0 115.658-5.695 5.675 5.675 0 01-5.658 5.695z"/><path class="h" d="M209.822 26.356a6.306 6.306 0 116.263-6.306 6.284 6.284 0 01-6.263 6.306z"/><path class="h" d="M220.211 62.853a6.536 6.536 0 116.491-6.537 6.513 6.513 0 01-6.491 6.537z"/><path class="h" d="M190.859 73.086a5.994 5.994 0 115.953-5.994 5.974 5.974 0 01-5.953 5.994z"/><path class="h" d="M115.05 67.089a6.945 6.945 0 116.9-6.944 6.92 6.92 0 01-6.9 6.944z"/><path class="h" d="M98.337 64.551a6.945 6.945 0 116.9-6.944 6.921 6.921 0 01-6.9 6.944z"/><path class="h" d="M109.098 50.723a6.946 6.946 0 116.9-6.945 6.922 6.922 0 01-6.9 6.945z"/><path class="h" d="M221.265 48.346a6.681 6.681 0 116.635-6.681 6.657 6.657 0 01-6.635 6.681z"/><path class="h" d="M194.727 23.456a7.14 7.14 0 117.089-7.139 7.114 7.114 0 01-7.089 7.139z"/><path class="h" d="M189.949 36.892a6.3 6.3 0 116.256-6.3 6.276 6.276 0 01-6.256 6.3z"/><path class="h" d="M268.825 200.436a5.23 5.23 0 115.193-5.23 5.211 5.211 0 01-5.193 5.23z"/><path class="h" d="M209.748 183.945a4.856 4.856 0 114.821-4.855 4.838 4.838 0 01-4.821 4.855z"/><path class="h" d="M260.248 144.395a4.856 4.856 0 114.823-4.855 4.839 4.839 0 01-4.823 4.855z"/><path class="h" d="M278.901 136.454a4.856 4.856 0 114.823-4.855 4.839 4.839 0 01-4.823 4.855z"/><path class="h" d="M270.87 213.263a5.917 5.917 0 115.877-5.918 5.9 5.9 0 01-5.877 5.918z"/><path class="h" d="M265.867 189.596a5.917 5.917 0 115.877-5.918 5.9 5.9 0 01-5.877 5.918z"/><path class="h" d="M211.575 173.103a5.917 5.917 0 115.877-5.917 5.9 5.9 0 01-5.877 5.917z"/><path class="h" d="M278.303 182.417a5.917 5.917 0 115.877-5.917 5.9 5.9 0 01-5.877 5.917z"/><path class="h" d="M208.997 159.36a5.917 5.917 0 115.877-5.918 5.9 5.9 0 01-5.877 5.918z"/><path class="h" d="M291.648 185.472a5.917 5.917 0 115.877-5.918 5.9 5.9 0 01-5.877 5.918z"/><path class="h" d="M126.132 242.324a4.39 4.39 0 114.36-4.391 4.375 4.375 0 01-4.36 4.391z"/><path class="h" d="M125.412 194.486a4.682 4.682 0 114.649-4.682 4.664 4.664 0 01-4.649 4.682z"/><path class="h" d="M7.049 126.943a4.682 4.682 0 114.649-4.682 4.666 4.666 0 01-4.649 4.682z"/><path class="h" d="M151.466 298.944a1.286 1.286 0 111.279-1.286 1.282 1.282 0 01-1.279 1.286z"/><path class="i" d="M205.859 289.92a1.7 1.7 0 111.69-1.7 1.7 1.7 0 01-1.69 1.7z"/><path class="i" d="M185.684 281.404a1.7 1.7 0 111.69-1.7 1.7 1.7 0 01-1.69 1.7z"/><path class="i" d="M205.915 228.979a2.616 2.616 0 112.6-2.616 2.607 2.607 0 01-2.6 2.616z"/><path class="i" d="M264.869 217.302a2.616 2.616 0 112.6-2.617 2.607 2.607 0 01-2.6 2.617z"/><path class="i" d="M262.091 209.274a2.372 2.372 0 112.356-2.372 2.364 2.364 0 01-2.356 2.372z"/><path class="i" d="M194.439 184.459a2.007 2.007 0 111.993-2.008 2 2 0 01-1.993 2.008z"/><path class="i" d="M196.858 165.24a1.642 1.642 0 111.63-1.642 1.637 1.637 0 01-1.63 1.642z"/><path class="i" d="M50.893 240.121a2.054 2.054 0 112.039-2.053 2.048 2.048 0 01-2.04 2.053z"/><path class="i" d="M40.033 240.121a2.054 2.054 0 112.04-2.053 2.048 2.048 0 01-2.04 2.053z"/><path class="i" d="M95.041 203.274a2.529 2.529 0 112.512-2.53 2.52 2.52 0 01-2.512 2.53z"/><path class="i" d="M18.078 220.391a2.054 2.054 0 112.039-2.054 2.047 2.047 0 01-2.039 2.054z"/><path class="i" d="M11.467 208.505a2.054 2.054 0 112.04-2.053 2.047 2.047 0 01-2.04 2.053z"/><path class="i" d="M33.898 198.045a2.054 2.054 0 112.04-2.055 2.048 2.048 0 01-2.04 2.055z"/><path class="i" d="M3.676 181.643a2.054 2.054 0 112.04-2.055 2.048 2.048 0 01-2.04 2.055z"/><path class="i" d="M2.735 165.719a2.054 2.054 0 112.04-2.055 2.047 2.047 0 01-2.04 2.055z"/><path class="i" d="M36.253 243.449a2.054 2.054 0 112.04-2.053 2.048 2.048 0 01-2.04 2.053z"/><path class="i" d="M49.95 258.425a2.054 2.054 0 112.04-2.054 2.046 2.046 0 01-2.04 2.054z"/><path class="i" d="M55.639 254.147a2.791 2.791 0 112.771-2.791 2.782 2.782 0 01-2.771 2.791z"/><path class="i" d="M28.016 200.185a2.79 2.79 0 112.771-2.79 2.782 2.782 0 01-2.771 2.79z"/><path class="i" d="M256.414 188.108a2.006 2.006 0 111.993-2.006 2 2 0 01-1.993 2.006z"/><path class="i" d="M253.393 147.602a2.736 2.736 0 112.718-2.737 2.727 2.727 0 01-2.718 2.737z"/><path class="i" d="M257.863 108.069a2.007 2.007 0 111.993-2.006 2 2 0 01-1.993 2.006z"/><path class="i" d="M271.514 107.219a1.764 1.764 0 111.751-1.764 1.758 1.758 0 01-1.751 1.764z"/><path class="i" d="M282.386 102.475a1.764 1.764 0 111.752-1.764 1.758 1.758 0 01-1.752 1.764z"/><path class="i" d="M255.811 131.91a3.1 3.1 0 113.079-3.1 3.091 3.091 0 01-3.079 3.1z"/><path class="i" d="M275.622 103.084a3.467 3.467 0 113.443-3.468 3.456 3.456 0 01-3.443 3.468z"/><path class="i" d="M279.485 84.593a5.291 5.291 0 115.255-5.29 5.273 5.273 0 01-5.255 5.29z"/><path class="i" d="M262.454 60.752a5.291 5.291 0 115.255-5.29 5.274 5.274 0 01-5.255 5.29z"/><path class="i" d="M272.239 74.862a5.291 5.291 0 115.255-5.29 5.273 5.273 0 01-5.255 5.29z"/><path class="i" d="M248.742 159.887a1.824 1.824 0 111.812-1.824 1.819 1.819 0 01-1.812 1.824z"/><path class="i" d="M269.822 238.466a2.615 2.615 0 112.6-2.615 2.607 2.607 0 01-2.6 2.615z"/><path class="i" d="M259.434 226.914a3.1 3.1 0 113.081-3.1 3.091 3.091 0 01-3.081 3.1z"/><path class="i" d="M190.999 293.568a2.067 2.067 0 112.053-2.067 2.06 2.06 0 01-2.053 2.067z"/><path class="i" d="M188.764 277.634a4.927 4.927 0 114.892-4.927 4.91 4.91 0 01-4.892 4.927z"/><path class="i" d="M207.85 275.566a4.927 4.927 0 114.893-4.926 4.91 4.91 0 01-4.893 4.926z"/><path class="i" d="M206.643 239.804a4.926 4.926 0 114.892-4.926 4.91 4.91 0 01-4.892 4.926z"/><path class="i" d="M51.711 220.311a5.937 5.937 0 115.9-5.936 5.916 5.916 0 01-5.9 5.936z"/><path class="i" d="M30.7 193.687a5.937 5.937 0 115.9-5.937 5.918 5.918 0 01-5.9 5.937z"/><path class="i" d="M10.397 189.647a5.462 5.462 0 115.423-5.462 5.443 5.443 0 01-5.423 5.462z"/><path class="i" d="M27.789 214.368a6.49 6.49 0 116.446-6.49 6.469 6.469 0 01-6.446 6.49z"/><path class="i" d="M61.981 231.484a7.244 7.244 0 117.194-7.244 7.221 7.221 0 01-7.194 7.244z"/><path class="i" d="M7.959 177.998a6.49 6.49 0 116.446-6.49 6.468 6.468 0 01-6.446 6.49z"/><path class="i" d="M76.323 221.976a4.927 4.927 0 114.892-4.927 4.91 4.91 0 01-4.892 4.927z"/><path class="i" d="M89.237 167.869a4.379 4.379 0 114.35-4.379 4.365 4.365 0 01-4.35 4.379z"/><path class="i" d="M136.938 165.875a5.462 5.462 0 115.421-5.462 5.444 5.444 0 01-5.424 5.462z"/><path class="i" d="M39.494 221.025a4.927 4.927 0 114.892-4.927 4.91 4.91 0 01-4.892 4.927z"/><path class="i" d="M31.94 240.28a4.927 4.927 0 114.892-4.927 4.91 4.91 0 01-4.892 4.927z"/><path class="i" d="M42.799 193.924a4.926 4.926 0 114.893-4.926 4.91 4.91 0 01-4.893 4.926z"/><path class="i" d="M202.837 164.876a3.406 3.406 0 113.382-3.406 3.395 3.395 0 01-3.382 3.406z"/><path class="i" d="M54.58 207.666a3.406 3.406 0 113.382-3.406 3.395 3.395 0 01-3.382 3.406z"/><path class="i" d="M106.857 147.997a4.012 4.012 0 113.985-4.011 4 4 0 01-3.985 4.011z"/><path class="i" d="M89.152 149.9a4.012 4.012 0 113.984-4.011 4 4 0 01-3.984 4.011z"/><path class="i" d="M97.886 144.906a4.724 4.724 0 114.692-4.724 4.708 4.708 0 01-4.692 4.724z"/><path class="i" d="M56.464 237.855a3.406 3.406 0 113.382-3.406 3.395 3.395 0 01-3.382 3.406z"/><path class="i" d="M256.294 124.492a4.075 4.075 0 114.047-4.076 4.061 4.061 0 01-4.047 4.076z"/><path class="i" d="M255.266 93.96a4.379 4.379 0 114.35-4.379 4.365 4.365 0 01-4.35 4.379z"/><path class="i" d="M184.476 101.015a4.379 4.379 0 114.348-4.379 4.365 4.365 0 01-4.348 4.379z"/><path class="i" d="M180.223 113.351a4.714 4.714 0 114.682-4.714 4.7 4.7 0 01-4.682 4.714z"/><path class="i" d="M173 91.526a3.893 3.893 0 113.864-3.892A3.878 3.878 0 01173 91.526z"/><path class="i" d="M69.357 77.977a3.892 3.892 0 113.866-3.892 3.879 3.879 0 01-3.866 3.892z"/><path class="i" d="M164.059 94.932a4.136 4.136 0 114.107-4.135 4.122 4.122 0 01-4.107 4.135z"/><path class="i" d="M159.351 70.118a4.744 4.744 0 114.711-4.744 4.728 4.728 0 01-4.711 4.744z"/><path class="i" d="M133.867 10.579a4.744 4.744 0 114.711-4.744 4.728 4.728 0 01-4.711 4.744z"/><path class="i" d="M150.507 25.382a5.587 5.587 0 115.55-5.586 5.569 5.569 0 01-5.549 5.587z"/><path class="i" d="M85.813 57.711a4.629 4.629 0 114.6-4.629 4.613 4.613 0 01-4.6 4.629z"/><path class="i" d="M138.583 21.763a5.587 5.587 0 115.549-5.587 5.568 5.568 0 01-5.549 5.587z"/><path class="i" d="M178.315 93.595a1.946 1.946 0 111.933-1.946 1.94 1.94 0 01-1.933 1.946z"/><path class="i" d="M188.582 77.052a1.582 1.582 0 111.571-1.582 1.576 1.576 0 01-1.571 1.582z"/><path class="i" d="M171.55 65.497a1.582 1.582 0 111.57-1.582 1.576 1.576 0 01-1.57 1.582z"/><path class="i" d="M175.053 83.014a2.433 2.433 0 112.415-2.433 2.425 2.425 0 01-2.415 2.433z"/><path class="i" d="M86.757 117.244a2.433 2.433 0 112.415-2.433 2.425 2.425 0 01-2.415 2.433z"/><path class="i" d="M88.881 62.806a2.433 2.433 0 112.417-2.433 2.424 2.424 0 01-2.417 2.433z"/><path class="i" d="M81.562 74.602a2.1 2.1 0 112.092-2.1 2.1 2.1 0 01-2.092 2.1z"/><path class="i" d="M67.635 84.201a2.433 2.433 0 112.415-2.433 2.425 2.425 0 01-2.415 2.433z"/><path class="i" d="M91.252 21.685a2.66 2.66 0 112.643-2.661 2.651 2.651 0 01-2.643 2.661z"/><path class="i" d="M165.297 111.631a3.539 3.539 0 113.515-3.54 3.528 3.528 0 01-3.515 3.54z"/><path class="i" d="M150.433 140.414a3.539 3.539 0 113.515-3.538 3.527 3.527 0 01-3.515 3.538z"/><path class="i" d="M155.088 149.46a3.127 3.127 0 113.106-3.128 3.117 3.117 0 01-3.106 3.128z"/><path class="i" d="M80.721 120.697a3.127 3.127 0 113.106-3.128 3.117 3.117 0 01-3.106 3.128z"/><path class="i" d="M75.292 98.825a3.127 3.127 0 113.106-3.126 3.116 3.116 0 01-3.106 3.126z"/><path class="i" d="M84.026 98.113a3.127 3.127 0 113.106-3.127 3.117 3.117 0 01-3.106 3.127z"/><path class="i" d="M92.302 112.162a3.615 3.615 0 113.59-3.615 3.6 3.6 0 01-3.59 3.615z"/><path class="i" d="M155.242 74.862a2.433 2.433 0 112.417-2.433 2.425 2.425 0 01-2.417 2.433z"/><path class="i" d="M171.086 35.224a2.433 2.433 0 112.415-2.431 2.424 2.424 0 01-2.415 2.431z"/><path class="i" d="M150.832 38.511a2.433 2.433 0 112.415-2.433 2.425 2.425 0 01-2.415 2.433z"/><path class="i" d="M144.787 42.461a2.433 2.433 0 112.415-2.433 2.425 2.425 0 01-2.415 2.433z"/><path class="i" d="M132.232 37.195a2.739 2.739 0 112.719-2.738 2.729 2.729 0 01-2.719 2.738z"/><path class="i" d="M131.089 30.455a2.739 2.739 0 112.721-2.74 2.731 2.731 0 01-2.721 2.74z"/><path class="i" d="M125.045 8.909a2.739 2.739 0 112.721-2.74 2.731 2.731 0 01-2.721 2.74z"/><path class="i" d="M179.281 53.943a2.433 2.433 0 112.417-2.433 2.426 2.426 0 01-2.417 2.433z"/><path class="i" d="M155.181 60.146a3.1 3.1 0 113.08-3.1 3.092 3.092 0 01-3.08 3.1z"/><path class="i" d="M247.351 155.874a5.17 5.17 0 115.134-5.17 5.152 5.152 0 01-5.134 5.17z"/><path class="i" d="M264.626 119.017a6.264 6.264 0 116.222-6.265 6.243 6.243 0 01-6.222 6.265z"/><path class="i" d="M283.232 98.096a6.265 6.265 0 116.222-6.265 6.243 6.243 0 01-6.222 6.265z"/><path class="i" d="M264.507 106.123a6.994 6.994 0 116.947-6.994 6.97 6.97 0 01-6.947 6.994z"/><path class="i" d="M266.2 90.065a7.481 7.481 0 117.429-7.48 7.456 7.456 0 01-7.429 7.48z"/><path class="i" d="M258.227 75.835a7.481 7.481 0 117.429-7.481 7.456 7.456 0 01-7.429 7.481z"/><path class="i" d="M184.295 91.162a6.995 6.995 0 116.945-6.994 6.971 6.971 0 01-6.945 6.994z"/><path class="i" d="M91.512 77.612a6.995 6.995 0 116.947-6.994 6.971 6.971 0 01-6.947 6.994z"/><path class="i" d="M60.35 71.193a6.994 6.994 0 116.945-6.994 6.97 6.97 0 01-6.945 6.994z"/><path class="i" d="M73.805 52.891a6.994 6.994 0 116.947-6.994 6.971 6.971 0 01-6.947 6.994z"/><path class="i" d="M66.801 40.134a6.2 6.2 0 116.161-6.2 6.181 6.181 0 01-6.161 6.2z"/><path class="i" d="M153.248 52.968a6.994 6.994 0 116.945-6.994 6.97 6.97 0 01-6.945 6.994z"/><path class="i" d="M148.838 13.988a6.994 6.994 0 116.945-6.994 6.971 6.971 0 01-6.945 6.994z"/><path class="i" d="M177.287 47.98a6.994 6.994 0 116.947-6.994 6.97 6.97 0 01-6.947 6.994z"/><path class="i" d="M164.662 85.932a7.542 7.542 0 117.489-7.542 7.516 7.516 0 01-7.489 7.542z"/><path class="i" d="M171.297 129.847a8.758 8.758 0 118.7-8.758 8.728 8.728 0 01-8.7 8.758z"/><path class="i" d="M168.05 62.334a8.15 8.15 0 118.095-8.149 8.123 8.123 0 01-8.095 8.149z"/><path class="i" d="M165.185 20.065a8.564 8.564 0 118.505-8.564 8.535 8.535 0 01-8.505 8.564z"/><path class="i" d="M122.879 26.642a8.563 8.563 0 118.505-8.562 8.533 8.533 0 01-8.505 8.562z"/><path class="i" d="M56.16 55.172a8.945 8.945 0 118.883-8.945 8.915 8.915 0 01-8.883 8.945z"/><path class="i" d="M177.771 77.052a6.508 6.508 0 116.463-6.507 6.487 6.487 0 01-6.463 6.507z"/><path class="i" d="M141.809 36.591a7.026 7.026 0 116.979-7.026 7 7 0 01-6.979 7.026z"/><path class="i" d="M176.505 31.167a6.96 6.96 0 116.912-6.959 6.935 6.935 0 01-6.912 6.959z"/><path class="i" d="M224.34 264.862a4.5 4.5 0 114.47-4.5 4.486 4.486 0 01-4.47 4.5z"/><path class="i" d="M249.346 230.559a4.5 4.5 0 114.47-4.5 4.486 4.486 0 01-4.47 4.5z"/><path class="i" d="M241.373 223.383a4.5 4.5 0 114.47-4.5 4.486 4.486 0 01-4.47 4.5z"/><path class="i" d="M235.455 271.065a6.446 6.446 0 116.4-6.446 6.425 6.425 0 01-6.4 6.446z"/><path class="i" d="M212.744 265.591a6.447 6.447 0 116.4-6.446 6.425 6.425 0 01-6.4 6.446z"/><path class="i" d="M91.631 196.891a6.447 6.447 0 116.4-6.446 6.425 6.425 0 01-6.4 6.446z"/><path class="i" d="M217.213 247.103a5.961 5.961 0 115.918-5.961 5.941 5.941 0 01-5.918 5.961z"/><path class="i" d="M181.939 294.907a6.447 6.447 0 116.4-6.447 6.425 6.425 0 01-6.4 6.447z"/><path class="i" d="M222.89 280.796a7.542 7.542 0 117.491-7.541 7.515 7.515 0 01-7.491 7.541z"/><path class="i" d="M197.28 291.013a7.542 7.542 0 117.491-7.541 7.516 7.516 0 01-7.491 7.541z"/><path class="i" d="M198.127 268.145a7.542 7.542 0 117.489-7.541 7.517 7.517 0 01-7.489 7.541z"/><path class="i" d="M216.73 234.208a7.542 7.542 0 117.489-7.542 7.517 7.517 0 01-7.489 7.542z"/><path class="i" d="M253.333 221.564a7.542 7.542 0 117.489-7.542 7.517 7.517 0 01-7.489 7.542z"/><path class="i" d="M257.863 244.669a8.211 8.211 0 118.154-8.21 8.183 8.183 0 01-8.154 8.21z"/><path class="i" d="M238.172 213.044a8.211 8.211 0 118.154-8.211 8.183 8.183 0 01-8.154 8.211z"/><path class="i" d="M254.722 205.381a8.211 8.211 0 118.155-8.211 8.183 8.183 0 01-8.155 8.211z"/><path class="i" d="M201.75 199.664a8.515 8.515 0 118.457-8.515 8.485 8.485 0 01-8.457 8.515z"/><path class="i" d="M271.997 232.384a8.211 8.211 0 118.155-8.21 8.183 8.183 0 01-8.155 8.21z"/><path class="i" d="M250.675 177.525a8.637 8.637 0 118.577-8.636 8.608 8.608 0 01-8.577 8.636z"/><path class="i" d="M193.173 161.712a8.636 8.636 0 118.577-8.636 8.608 8.608 0 01-8.577 8.636z"/><path class="i" d="M245.36 144.44a8.637 8.637 0 118.577-8.637 8.608 8.608 0 01-8.577 8.637z"/><path class="i" d="M142.998 154.802a7.923 7.923 0 117.869-7.924 7.895 7.895 0 01-7.869 7.923z"/><path class="i" d="M84.45 213.756a7.923 7.923 0 117.869-7.923 7.9 7.9 0 01-7.869 7.923z"/><path class="i" d="M99.559 162.884a7.922 7.922 0 117.868-7.922 7.9 7.9 0 01-7.869 7.922z"/><path class="i" d="M95.074 104.881a7.923 7.923 0 117.867-7.923 7.9 7.9 0 01-7.867 7.923z"/><path class="i" d="M79.417 92.044a8.324 8.324 0 118.267-8.323 8.3 8.3 0 01-8.267 8.323z"/><path class="i" d="M76.348 71.125a8.323 8.323 0 118.267-8.323 8.295 8.295 0 01-8.267 8.323z"/><path class="i" d="M66.742 215.418a7.922 7.922 0 117.869-7.922 7.9 7.9 0 01-7.869 7.922z"/><path class="i" d="M42.427 210.428a7.922 7.922 0 117.867-7.922 7.9 7.9 0 01-7.867 7.922z"/><path class="i" d="M45.023 236.813a7.922 7.922 0 117.869-7.923 7.895 7.895 0 01-7.869 7.923z"/><path class="i" d="M27.552 230.634a7.923 7.923 0 117.869-7.923 7.9 7.9 0 01-7.869 7.923z"/><path class="i" d="M16.221 205.199a7.923 7.923 0 117.869-7.923 7.9 7.9 0 01-7.869 7.923z"/><path class="i" d="M22.596 182.14a7.923 7.923 0 117.867-7.923 7.9 7.9 0 01-7.867 7.923z"/><path class="i" d="M246.689 108.435a8.637 8.637 0 118.577-8.637 8.608 8.608 0 01-8.577 8.637z"/></svg>
