<svg xmlns="http://www.w3.org/2000/svg" width="300" height="300.004" viewBox="0 0 300 300.004"><defs><style>.a{fill:#a99231}.a,.b,.c,.d,.e,.f,.g,.h,.i,.j{fill-rule:evenodd}.b{fill:#5c8a69}.c{fill:#65592d}.d{fill:#7c722c}.e{fill:#1c6237}.f{fill:#ad3123}.g{fill:#f58056}.h{fill:#fb9335}.i{fill:#bd4e27}.j{fill:#dd8330}</style></defs><path class="a" d="M65.495 82.936a2.944 2.944 0 11-2.929 2.944 2.937 2.937 0 012.929-2.944z"/><path class="a" d="M99.137 87.918a5.36 5.36 0 11-5.331 5.361 5.347 5.347 0 015.331-5.361z"/><path class="a" d="M141.64 68.896a5.813 5.813 0 11-5.783 5.814 5.8 5.8 0 015.783-5.814z"/><path class="a" d="M113.555 115.429a5.359 5.359 0 11-5.331 5.359 5.347 5.347 0 015.331-5.359z"/><path class="a" d="M180.852 117.547a2.944 2.944 0 11-2.928 2.943 2.936 2.936 0 012.928-2.943z"/><path class="a" d="M113.168 130.233a3.865 3.865 0 11-3.845 3.866 3.855 3.855 0 013.845-3.866z"/><path class="a" d="M181.442 130.583a2.037 2.037 0 11-2.027 2.037 2.032 2.032 0 012.027-2.037z"/><path class="a" d="M162.019 140.344a2.332 2.332 0 11-2.32 2.333 2.326 2.326 0 012.32-2.333z"/><path class="a" d="M92.073 143.828a5.359 5.359 0 11-5.331 5.359 5.346 5.346 0 015.331-5.359z"/><path class="a" d="M147.987 155.66a5.359 5.359 0 11-5.331 5.359 5.345 5.345 0 015.331-5.359z"/><path class="a" d="M156.227 176.662a5.359 5.359 0 11-5.331 5.359 5.345 5.345 0 015.331-5.359z"/><path class="a" d="M169.469 163.352a5.359 5.359 0 11-5.331 5.359 5.347 5.347 0 015.331-5.359z"/><path class="a" d="M132.095 174.888a5.359 5.359 0 11-5.331 5.359 5.346 5.346 0 015.331-5.359z"/><path class="a" d="M225.973 161.872a5.36 5.36 0 11-5.333 5.361 5.346 5.346 0 015.333-5.361z"/><path class="a" d="M147.597 169.018a2.944 2.944 0 11-2.929 2.944 2.937 2.937 0 012.929-2.944z"/><path class="a" d="M187.915 177.617a4.4 4.4 0 11-4.38 4.4 4.391 4.391 0 014.38-4.4z"/><path class="a" d="M92.863 184.422a2.331 2.331 0 11-2.321 2.331 2.326 2.326 0 012.321-2.331z"/><path class="a" d="M84.328 183.238a4.4 4.4 0 11-4.38 4.4 4.39 4.39 0 014.38-4.4z"/><path class="a" d="M250.397 152.997a5.359 5.359 0 11-5.333 5.359 5.346 5.346 0 015.333-5.359z"/><path class="a" d="M245.594 178.451a5.049 5.049 0 11-5.023 5.048 5.035 5.035 0 015.023-5.048z"/><path class="a" d="M235.295 178.451a3.57 3.57 0 11-3.551 3.569 3.56 3.56 0 013.551-3.569z"/><path class="b" d="M61.047 107.616a6.086 6.086 0 11-6.055 6.085 6.07 6.07 0 016.055-6.085z"/><path class="b" d="M112.247 72.166a6.086 6.086 0 11-6.05 6.089 6.071 6.071 0 016.055-6.087z"/><path class="b" d="M143.264 81.349a6.086 6.086 0 11-6.055 6.087 6.071 6.071 0 016.055-6.087z"/><path class="b" d="M81.229 79.645a5.446 5.446 0 11-5.417 5.446 5.432 5.432 0 015.417-5.446z"/><path class="b" d="M78.467 91.387a3.31 3.31 0 11-3.293 3.31 3.3 3.3 0 013.293-3.31z"/><path class="b" d="M72.306 107.616a3.31 3.31 0 11-3.293 3.31 3.3 3.3 0 013.293-3.31z"/><path class="b" d="M140.289 102.919a3.31 3.31 0 11-3.293 3.31 3.3 3.3 0 013.293-3.31z"/><path class="b" d="M104.173 79.855a1.6 1.6 0 11-1.593 1.6 1.6 1.6 0 011.593-1.6z"/><path class="b" d="M227.724 97.323a6.087 6.087 0 11-6.055 6.087 6.071 6.071 0 016.055-6.087z"/><path class="b" d="M199.146 98.776a3.31 3.31 0 11-3.293 3.31 3.3 3.3 0 013.293-3.31z"/><path class="b" d="M211.506 86.945a3.31 3.31 0 11-3.293 3.309 3.3 3.3 0 013.293-3.309z"/><path class="b" d="M235.931 79.095a2.876 2.876 0 11-2.86 2.877 2.868 2.868 0 012.86-2.877z"/><path class="b" d="M187.375 115.482a2.875 2.875 0 11-2.86 2.875 2.867 2.867 0 012.86-2.875z"/><path class="b" d="M207.975 101.412a4.816 4.816 0 11-4.792 4.817 4.8 4.8 0 014.792-4.817z"/><path class="b" d="M215.267 93.295A4.29 4.29 0 11211 97.586a4.279 4.279 0 014.267-4.291z"/><path class="b" d="M209.382 122.582a4.289 4.289 0 11-4.267 4.289 4.278 4.278 0 014.267-4.289z"/><path class="b" d="M218.863 109.131a3.31 3.31 0 11-3.293 3.31 3.3 3.3 0 013.293-3.31z"/><path class="b" d="M202.613 138.851a4.289 4.289 0 11-4.267 4.289 4.278 4.278 0 014.267-4.289z"/><path class="b" d="M217.033 149.205a4.289 4.289 0 11-4.267 4.289 4.277 4.277 0 014.267-4.289z"/><path class="b" d="M102.328 148.178a3.31 3.31 0 11-3.293 3.31 3.3 3.3 0 013.293-3.31z"/><path class="b" d="M210.918 181.874a5.407 5.407 0 11-5.38 5.408 5.394 5.394 0 015.38-5.408z"/><path class="b" d="M211.211 192.98a2.876 2.876 0 11-2.86 2.877 2.868 2.868 0 012.86-2.877z"/><path class="b" d="M199.735 167.697a3.31 3.31 0 11-3.293 3.31 3.3 3.3 0 013.293-3.31z"/><path class="b" d="M216.151 159.558a4.289 4.289 0 11-4.267 4.289 4.279 4.279 0 014.267-4.289z"/><path class="b" d="M97.404 168.895a1.6 1.6 0 11-1.593 1.6 1.6 1.6 0 011.593-1.6z"/><path class="b" d="M87.703 162.468a5.446 5.446 0 11-5.418 5.446 5.432 5.432 0 015.418-5.446z"/><path class="b" d="M84.082 195.508a3.31 3.31 0 11-3.293 3.31 3.3 3.3 0 013.293-3.31z"/><path class="b" d="M73.717 183.685a3.532 3.532 0 11-3.513 3.532 3.523 3.523 0 013.513-3.532z"/><path class="b" d="M64.005 213.264a3.532 3.532 0 11-3.513 3.532 3.524 3.524 0 013.513-3.532z"/><path class="b" d="M87.249 203.504a5.011 5.011 0 11-4.984 5.011 5 5 0 014.984-5.011z"/><path class="b" d="M194.437 206a5.834 5.834 0 11-5.8 5.834 5.818 5.818 0 015.8-5.834z"/><path class="b" d="M203.856 204.817a2.876 2.876 0 11-2.86 2.875 2.869 2.869 0 012.86-2.875z"/><path class="b" d="M214.53 216.215a2.2 2.2 0 11-2.192 2.2 2.2 2.2 0 012.192-2.2z"/><path class="b" d="M179.804 227.466a1.6 1.6 0 11-1.593 1.6 1.6 1.6 0 011.593-1.6z"/><path class="b" d="M185.021 216.646a5.833 5.833 0 11-5.8 5.834 5.819 5.819 0 015.8-5.834z"/><path class="b" d="M209.97 219.904a4.881 4.881 0 11-4.855 4.88 4.869 4.869 0 014.855-4.88z"/><path class="c" d="M121.325 70.862a1.851 1.851 0 11-1.842 1.851 1.846 1.846 0 011.842-1.851z"/><path class="c" d="M105.294 82.891a2.7 2.7 0 11-2.686 2.7 2.691 2.691 0 012.686-2.7z"/><path class="c" d="M124.621 90.753a3.161 3.161 0 11-3.144 3.162 3.154 3.154 0 013.144-3.162z"/><path class="c" d="M70.164 72.404a5.166 5.166 0 11-5.139 5.167 5.152 5.152 0 015.139-5.167z"/><path class="c" d="M129.683 100.314a4.086 4.086 0 11-4.064 4.086 4.076 4.076 0 014.064-4.086z"/><path class="c" d="M114.498 84.894a6.245 6.245 0 11-6.213 6.246 6.228 6.228 0 016.213-6.246z"/><path class="c" d="M155.148 70.092a6.245 6.245 0 11-6.213 6.244 6.228 6.228 0 016.213-6.244z"/><path class="c" d="M118.683 125.51a2.456 2.456 0 11-2.443 2.456 2.449 2.449 0 012.443-2.456z"/><path class="c" d="M102.818 133.311a6.245 6.245 0 11-6.213 6.246 6.228 6.228 0 016.213-6.246z"/><path class="c" d="M170.991 130.899a6.245 6.245 0 11-6.212 6.244 6.229 6.229 0 016.212-6.244z"/><path class="c" d="M86.476 154.481a3.729 3.729 0 11-3.712 3.729 3.72 3.72 0 013.712-3.729z"/><path class="c" d="M79.014 165.098a2.654 2.654 0 11-2.642 2.653 2.646 2.646 0 012.642-2.653z"/><path class="c" d="M87.957 177.875a2.456 2.456 0 11-2.444 2.456 2.449 2.449 0 012.444-2.456z"/><path class="c" d="M90.597 190.906a2.456 2.456 0 11-2.443 2.456 2.449 2.449 0 012.443-2.456z"/><path class="c" d="M77.354 191.641a3.246 3.246 0 11-3.231 3.246 3.237 3.237 0 013.231-3.246z"/><path class="c" d="M138.325 164.11a5.44 5.44 0 11-5.412 5.44 5.426 5.426 0 015.412-5.44z"/><path class="c" d="M176.272 174.573a6.245 6.245 0 11-6.213 6.246 6.228 6.228 0 016.213-6.246z"/><path class="c" d="M188.034 164.197a6.245 6.245 0 11-6.213 6.246 6.229 6.229 0 016.213-6.246z"/><path class="c" d="M158.729 153.733a3.992 3.992 0 11-3.97 3.991 3.982 3.982 0 013.97-3.991z"/><path class="c" d="M157.769 145.311a3.247 3.247 0 11-3.229 3.247 3.239 3.239 0 013.229-3.247z"/><path class="c" d="M166.171 181.023a3.246 3.246 0 11-3.232 3.247 3.238 3.238 0 013.229-3.247z"/><path class="c" d="M150.547 149.307a2.761 2.761 0 11-2.747 2.761 2.754 2.754 0 012.747-2.761z"/><path class="c" d="M72.332 216.559a6.245 6.245 0 11-6.213 6.246 6.229 6.229 0 016.213-6.246z"/><path class="c" d="M240.566 162.168a8.029 8.029 0 11-7.988 8.029 8.008 8.008 0 017.988-8.029z"/><path class="c" d="M219.147 170.463a1.851 1.851 0 11-1.84 1.851 1.847 1.847 0 011.84-1.851z"/><path class="c" d="M178.739 168.742a2.244 2.244 0 11-2.233 2.245 2.238 2.238 0 012.233-2.245z"/><path class="c" d="M230.716 173.369a1.851 1.851 0 11-1.842 1.851 1.846 1.846 0 011.842-1.851z"/><path class="c" d="M252.11 165.837a2.117 2.117 0 11-2.1 2.117 2.112 2.112 0 012.1-2.117z"/><path class="d" d="M80.442 71.171a3.315 3.315 0 11-3.3 3.315 3.306 3.306 0 013.3-3.315z"/><path class="d" d="M154.074 83.507a3.161 3.161 0 11-3.144 3.162 3.154 3.154 0 013.144-3.162z"/><path class="d" d="M87.039 90.599a4.4 4.4 0 11-4.372 4.4 4.383 4.383 0 014.372-4.4z"/><path class="d" d="M123.703 108.737a5.967 5.967 0 11-5.937 5.966 5.951 5.951 0 015.937-5.966z"/><path class="d" d="M122.284 121.052a1.851 1.851 0 11-1.842 1.851 1.846 1.846 0 011.842-1.851z"/><path class="d" d="M104.719 123.379a4.669 4.669 0 11-4.645 4.67 4.657 4.657 0 014.645-4.67z"/><path class="d" d="M94.397 171.832a4.716 4.716 0 11-4.692 4.717 4.7 4.7 0 014.692-4.717z"/><path class="d" d="M143.607 175.016a5.152 5.152 0 11-5.126 5.152 5.139 5.139 0 015.126-5.152z"/><path class="d" d="M156.81 163.675a5.152 5.152 0 11-5.126 5.152 5.139 5.139 0 015.126-5.152z"/><path class="d" d="M165.189 146.171a3.243 3.243 0 11-3.225 3.243 3.233 3.233 0 013.225-3.243z"/><path class="d" d="M83.595 221.055a3.992 3.992 0 11-3.972 3.992 3.982 3.982 0 013.972-3.992z"/><path class="d" d="M175.789 123.362a3.556 3.556 0 11-3.537 3.556 3.546 3.546 0 013.537-3.556z"/><path class="d" d="M223.037 173.625a6.245 6.245 0 11-6.212 6.244 6.229 6.229 0 016.212-6.244z"/><path class="d" d="M250.954 173.976a2.7 2.7 0 11-2.684 2.7 2.689 2.689 0 012.684-2.7z"/><path class="e" d="M65.402 90.105a8.329 8.329 0 11-8.286 8.329 8.308 8.308 0 018.286-8.329z"/><path class="e" d="M128.074 73.448a8.329 8.329 0 11-8.286 8.329 8.307 8.307 0 018.286-8.329z"/><path class="e" d="M69.225 115.732a1.708 1.708 0 11-1.7 1.708 1.7 1.7 0 011.7-1.708z"/><path class="e" d="M98.119 80.069a2.99 2.99 0 11-2.975 2.988 2.981 2.981 0 012.975-2.988z"/><path class="e" d="M91.321 82.844a2.99 2.99 0 11-2.975 2.99 2.982 2.982 0 012.975-2.99z"/><path class="e" d="M71.987 84.98a2.99 2.99 0 11-2.974 2.99 2.983 2.983 0 012.974-2.99z"/><path class="e" d="M143.16 95.229a3.63 3.63 0 11-3.61 3.629 3.619 3.619 0 013.61-3.629z"/><path class="e" d="M151.018 90.533a3.63 3.63 0 11-3.612 3.629 3.62 3.62 0 013.612-3.629z"/><path class="e" d="M57.966 120.002a3.631 3.631 0 11-3.612 3.631 3.621 3.621 0 013.612-3.631z"/><path class="e" d="M67.102 119.789a3.631 3.631 0 11-3.612 3.631 3.621 3.621 0 013.612-3.631z"/><path class="e" d="M100.668 70.458a4.485 4.485 0 11-4.461 4.485 4.473 4.473 0 014.461-4.485z"/><path class="e" d="M90.045 70.458a5.339 5.339 0 11-5.311 5.339 5.326 5.326 0 015.311-5.339z"/><path class="e" d="M133.598 90.746a4.7 4.7 0 11-4.674 4.7 4.685 4.685 0 014.674-4.7z"/><path class="e" d="M134.66 109.539a2.989 2.989 0 11-2.974 2.99 2.982 2.982 0 012.974-2.99z"/><path class="e" d="M223.734 78.412a8.329 8.329 0 11-8.286 8.329 8.307 8.307 0 018.286-8.329z"/><path class="e" d="M195.205 106.126a6.041 6.041 0 11-6.011 6.041 6.025 6.025 0 016.011-6.041z"/><path class="e" d="M220.42 117.1a6.041 6.041 0 11-6.01 6.041 6.026 6.026 0 016.01-6.041z"/><path class="e" d="M185.268 123.712a3.63 3.63 0 11-3.612 3.629 3.62 3.62 0 013.612-3.629z"/><path class="e" d="M192.808 119.008a3.63 3.63 0 11-3.612 3.631 3.621 3.621 0 013.612-3.631z"/><path class="e" d="M210.743 113.26a3.631 3.631 0 11-3.612 3.631 3.621 3.621 0 013.612-3.631z"/><path class="e" d="M226.859 110.386a3.63 3.63 0 11-3.612 3.631 3.621 3.621 0 013.612-3.631z"/><path class="e" d="M204.505 92.095a3.63 3.63 0 11-3.612 3.631 3.62 3.62 0 013.612-3.629z"/><path class="e" d="M216.542 101.697a2.99 2.99 0 11-2.974 2.99 2.982 2.982 0 012.974-2.99z"/><path class="e" d="M232.918 92.031a2.99 2.99 0 11-2.974 2.991 2.983 2.983 0 012.974-2.991z"/><path class="e" d="M230.558 67.193a6.041 6.041 0 11-6.01 6.04 6.026 6.026 0 016.01-6.04z"/><path class="e" d="M215.674 130.411a8.329 8.329 0 11-8.286 8.329 8.308 8.308 0 018.286-8.329z"/><path class="e" d="M204.849 111.418a2.156 2.156 0 11-2.145 2.156 2.151 2.151 0 012.145-2.156z"/><path class="e" d="M204.585 131.276a2.156 2.156 0 11-2.145 2.155 2.15 2.15 0 012.145-2.155z"/><path class="e" d="M208.144 146.955a3.121 3.121 0 11-3.106 3.121 3.113 3.113 0 013.106-3.121z"/><path class="e" d="M204.042 154.466a6.041 6.041 0 11-6.009 6.041 6.026 6.026 0 016.009-6.041z"/><path class="e" d="M210.022 167.269a6.041 6.041 0 11-6.011 6.041 6.025 6.025 0 016.011-6.041z"/><path class="e" d="M199.103 174.587a6.041 6.041 0 11-6.009 6.04 6.026 6.026 0 016.009-6.04z"/><path class="e" d="M98.506 155.25a6.041 6.041 0 11-6.01 6.041 6.026 6.026 0 016.01-6.041z"/><path class="e" d="M113.524 139.651a3.631 3.631 0 11-3.612 3.631 3.621 3.621 0 013.612-3.631z"/><path class="e" d="M197.556 187.176a8.328 8.328 0 11-8.286 8.329 8.306 8.306 0 018.286-8.329z"/><path class="e" d="M78.919 171.338a5.781 5.781 0 11-5.75 5.781 5.767 5.767 0 015.75-5.781z"/><path class="e" d="M71.931 198.104a8.329 8.329 0 11-8.286 8.329 8.308 8.308 0 018.286-8.329z"/><path class="e" d="M68.536 190.428a3.63 3.63 0 11-3.612 3.631 3.621 3.621 0 013.612-3.631z"/><path class="e" d="M81.219 211.98a3.631 3.631 0 11-3.613 3.631 3.622 3.622 0 013.613-3.631z"/><path class="e" d="M89.372 215.321a3.63 3.63 0 11-3.612 3.631 3.619 3.619 0 013.612-3.631z"/><path class="e" d="M208.656 198.624a3.63 3.63 0 11-3.612 3.631 3.62 3.62 0 013.612-3.631z"/><path class="e" d="M205.033 211.373a3.631 3.631 0 11-3.612 3.631 3.621 3.621 0 013.612-3.631z"/><path class="e" d="M198.207 217.422a5.049 5.049 0 11-5.023 5.049 5.036 5.036 0 015.023-5.049z"/><path class="e" d="M221.462 217.119a5.049 5.049 0 11-5.023 5.049 5.035 5.035 0 015.023-5.049z"/><path class="e" d="M171.332 217.726a5.96 5.96 0 11-5.928 5.959 5.944 5.944 0 015.928-5.959z"/><path class="e" d="M91.578 197.165a2.694 2.694 0 11-2.681 2.694 2.687 2.687 0 012.681-2.694z"/><path class="f" d="M88.915 117.856a2.5 2.5 0 11-2.483 2.494 2.488 2.488 0 012.483-2.494z"/><path class="f" d="M148.004 120.591a2.5 2.5 0 11-2.481 2.5 2.49 2.49 0 012.481-2.5z"/><path class="f" d="M64.092 127.031a3.139 3.139 0 11-3.122 3.138 3.132 3.132 0 013.122-3.138z"/><path class="f" d="M110.212 147.313a3.139 3.139 0 11-3.122 3.138 3.132 3.132 0 013.122-3.138z"/><path class="f" d="M154.255 113.509a4.1 4.1 0 11-4.083 4.1 4.094 4.094 0 014.083-4.1z"/><path class="f" d="M119.661 146.674a5.071 5.071 0 11-5.045 5.07 5.058 5.058 0 015.045-5.07z"/><path class="f" d="M136.795 133.631a5.071 5.071 0 11-5.045 5.07 5.056 5.056 0 015.045-5.07z"/><path class="f" d="M79.146 119.466a6.2 6.2 0 11-6.165 6.2 6.181 6.181 0 016.165-6.2z"/><path class="f" d="M136.155 117.05a7.485 7.485 0 11-7.447 7.485 7.467 7.467 0 017.447-7.485z"/><path class="f" d="M110.831 206.5a5.071 5.071 0 11-5.045 5.071 5.059 5.059 0 015.045-5.071z"/><path class="f" d="M42.847 218.533a5.745 5.745 0 11-5.715 5.744 5.73 5.73 0 015.715-5.744z"/><path class="f" d="M49.125 200.437a5.745 5.745 0 11-5.715 5.744 5.729 5.729 0 015.715-5.744z"/><path class="f" d="M101.222 199.065a5.745 5.745 0 11-5.715 5.745 5.73 5.73 0 015.715-5.745z"/><path class="f" d="M64.231 182.887a3.932 3.932 0 11-3.911 3.932 3.922 3.922 0 013.911-3.932z"/><path class="f" d="M141.426 197.607a4.842 4.842 0 11-4.818 4.842 4.829 4.829 0 014.818-4.842z"/><path class="f" d="M97.056 218.171a2.742 2.742 0 11-2.728 2.743 2.735 2.735 0 012.728-2.743z"/><path class="f" d="M121.68 213.114a8.152 8.152 0 11-8.11 8.151 8.131 8.131 0 018.11-8.151z"/><path class="g" d="M191.945 103.983a1.11 1.11 0 11-1.1 1.11 1.107 1.107 0 011.1-1.11z"/><path class="g" d="M157.866 95.85a1.6 1.6 0 11-1.593 1.6 1.6 1.6 0 011.593-1.6z"/><path class="g" d="M144.255 110.515a4.436 4.436 0 11-4.413 4.436 4.425 4.425 0 014.413-4.436z"/><path class="g" d="M155.169 123.33a4.436 4.436 0 11-4.413 4.436 4.426 4.426 0 014.413-4.436z"/><path class="g" d="M152.472 100.409a6.162 6.162 0 11-6.13 6.162 6.145 6.145 0 016.13-6.162z"/><path class="g" d="M147.078 128.137a4.436 4.436 0 11-4.414 4.436 4.424 4.424 0 014.414-4.436z"/><path class="g" d="M149.531 137.256a2.095 2.095 0 11-2.084 2.095 2.088 2.088 0 012.084-2.095z"/><path class="g" d="M124.644 128.629a2.464 2.464 0 11-2.452 2.465 2.458 2.458 0 012.452-2.465z"/><path class="g" d="M123.786 134.052a5.669 5.669 0 11-5.64 5.668 5.654 5.654 0 015.64-5.668z"/><path class="g" d="M130.406 145.389a4.929 4.929 0 11-4.9 4.929 4.915 4.915 0 014.9-4.929z"/><path class="g" d="M109.565 155.495a3.573 3.573 0 11-3.556 3.573 3.564 3.564 0 013.556-3.573z"/><path class="g" d="M81.483 109.073a5.079 5.079 0 11-5.05 5.081 5.066 5.066 0 015.052-5.079z"/><path class="g" d="M74.584 115.685a2.031 2.031 0 11-2.021 2.03 2.024 2.024 0 012.021-2.03z"/><path class="g" d="M70.81 130.627a2.464 2.464 0 11-2.452 2.464 2.457 2.457 0 012.452-2.464z"/><path class="g" d="M58.423 191.307a6.048 6.048 0 11-6.018 6.047 6.032 6.032 0 016.018-6.047z"/><path class="g" d="M69.632 177.224a2.934 2.934 0 11-2.919 2.934 2.926 2.926 0 012.919-2.934z"/><path class="g" d="M111.595 202.159a1.81 1.81 0 11-1.8 1.81 1.8 1.8 0 011.8-1.81z"/><path class="g" d="M132.126 199.444a1.81 1.81 0 11-1.8 1.81 1.8 1.8 0 011.8-1.81z"/><path class="g" d="M150.4 198.984a1.81 1.81 0 11-1.8 1.81 1.8 1.8 0 011.8-1.81z"/><path class="g" d="M52.489 224.611a1.809 1.809 0 11-1.8 1.81 1.805 1.805 0 011.8-1.81z"/><path class="g" d="M46.397 213.953a1.81 1.81 0 11-1.8 1.809 1.8 1.8 0 011.8-1.809z"/><path class="g" d="M102.12 211.685a2.49 2.49 0 11-2.477 2.49 2.483 2.483 0 012.477-2.49z"/><path class="g" d="M139.345 209.416a2.49 2.49 0 11-2.478 2.49 2.483 2.483 0 012.478-2.49z"/><path class="g" d="M106.481 217.386a5.368 5.368 0 11-5.34 5.368 5.354 5.354 0 015.34-5.368z"/><path class="g" d="M130.842 203.779a5.368 5.368 0 11-5.34 5.368 5.354 5.354 0 015.34-5.368z"/><path class="g" d="M54.594 212.85a5.368 5.368 0 11-5.34 5.368 5.354 5.354 0 015.34-5.368z"/><path class="h" d="M152.22 0a5.766 5.766 0 11-5.737 5.765A5.75 5.75 0 01152.22 0z"/><path class="h" d="M93.278 13.794a6.445 6.445 0 11-6.41 6.444 6.428 6.428 0 016.41-6.444z"/><path class="h" d="M177.866 23.291a6.445 6.445 0 11-6.412 6.446 6.429 6.429 0 016.412-6.446z"/><path class="h" d="M135.461 9.044a3.845 3.845 0 11-3.825 3.844 3.833 3.833 0 013.825-3.844z"/><path class="h" d="M125.566 15.377a3.844 3.844 0 11-3.825 3.844 3.833 3.833 0 013.825-3.844z"/><path class="h" d="M128.711 27.135a4.071 4.071 0 11-4.05 4.072 4.06 4.06 0 014.05-4.072z"/><path class="h" d="M98.341 26.91a4.07 4.07 0 11-4.05 4.07 4.06 4.06 0 014.05-4.07z"/><path class="h" d="M113.863 37.538a3.618 3.618 0 11-3.6 3.619 3.61 3.61 0 013.6-3.619z"/><path class="h" d="M194.401 40.704a3.166 3.166 0 11-3.15 3.166 3.157 3.157 0 013.15-3.166z"/><path class="h" d="M162.905 30.301a1.81 1.81 0 11-1.8 1.81 1.805 1.805 0 011.8-1.81z"/><path class="h" d="M141.534 56.76a1.809 1.809 0 11-1.8 1.808 1.8 1.8 0 011.8-1.808z"/><path class="h" d="M80.343 54.046a2.261 2.261 0 11-2.249 2.261 2.255 2.255 0 012.249-2.261z"/><path class="h" d="M98.34 52.237a2.262 2.262 0 11-2.25 2.261 2.255 2.255 0 012.25-2.261z"/><path class="h" d="M156.607 52.463a2.262 2.262 0 11-2.249 2.261 2.256 2.256 0 012.249-2.261z"/><path class="h" d="M162.005 52.012a2.262 2.262 0 11-2.249 2.261 2.256 2.256 0 012.249-2.261z"/><path class="h" d="M141.871 29.171a8.254 8.254 0 11-8.211 8.254 8.233 8.233 0 018.211-8.254z"/><path class="h" d="M189.001 18.994a4.749 4.749 0 11-4.724 4.749 4.737 4.737 0 014.724-4.749z"/><path class="h" d="M203.624 37.086a4.749 4.749 0 11-4.724 4.748 4.736 4.736 0 014.724-4.748z"/><path class="h" d="M228.373 24.423a4.974 4.974 0 11-4.949 4.974 4.961 4.961 0 014.949-4.974z"/><path class="h" d="M198 59.925a4.975 4.975 0 11-4.949 4.976A4.963 4.963 0 01198 59.925z"/><path class="h" d="M219.371 51.784a5.427 5.427 0 11-5.4 5.427 5.413 5.413 0 015.4-5.427z"/><path class="h" d="M173.254 42.513a2.714 2.714 0 11-2.7 2.714 2.706 2.706 0 012.7-2.714z"/><path class="h" d="M240.294 63.996a3.166 3.166 0 11-3.15 3.165 3.157 3.157 0 013.15-3.165z"/><path class="h" d="M165.156 67.387a3.618 3.618 0 11-3.6 3.619 3.608 3.608 0 013.6-3.619z"/><path class="h" d="M206.772 68.971a3.618 3.618 0 11-3.6 3.619 3.609 3.609 0 013.6-3.619z"/><path class="h" d="M264.251 53.594a5.992 5.992 0 11-5.962 5.993 5.977 5.977 0 015.962-5.993z"/><path class="h" d="M270.325 66.257a8.254 8.254 0 11-8.211 8.254 8.233 8.233 0 018.211-8.254z"/><path class="h" d="M201.712 78.694a5.993 5.993 0 11-5.962 5.993 5.977 5.977 0 015.962-5.993z"/><path class="h" d="M177.191 67.84a6.671 6.671 0 11-6.637 6.671 6.653 6.653 0 016.637-6.671z"/><path class="h" d="M116.226 58.568a5.993 5.993 0 11-5.961 5.993 5.978 5.978 0 015.961-5.993z"/><path class="h" d="M105.989 57.211a3.166 3.166 0 11-3.149 3.166 3.158 3.158 0 013.149-3.166z"/><path class="h" d="M67.858 27.361a5.993 5.993 0 11-5.962 5.993 5.978 5.978 0 015.962-5.993z"/><path class="h" d="M76.069 45.904a3.166 3.166 0 11-3.149 3.166 3.157 3.157 0 013.149-3.166z"/><path class="h" d="M63.921 63.771a4.749 4.749 0 11-4.724 4.748 4.736 4.736 0 014.724-4.748z"/><path class="h" d="M40.076 51.558a3.166 3.166 0 11-3.15 3.166 3.158 3.158 0 013.15-3.166z"/><path class="h" d="M48.737 55.177a8.254 8.254 0 11-8.211 8.254 8.233 8.233 0 018.211-8.254z"/><path class="h" d="M47.949 82.991a2.262 2.262 0 11-2.249 2.262 2.256 2.256 0 012.249-2.262z"/><path class="h" d="M40.976 85.027a2.714 2.714 0 11-2.7 2.714 2.707 2.707 0 012.7-2.714z"/><path class="h" d="M102.84 104.021a3.166 3.166 0 11-3.15 3.166 3.158 3.158 0 013.15-3.166z"/><path class="h" d="M101.041 99.951a1.131 1.131 0 11-1.126 1.13 1.129 1.129 0 011.126-1.13z"/><path class="h" d="M118.925 97.916a5.54 5.54 0 11-5.512 5.54 5.526 5.526 0 015.512-5.54z"/><path class="h" d="M47.049 88.644a4.749 4.749 0 11-4.724 4.749 4.737 4.737 0 014.724-4.749z"/><path class="h" d="M22.078 78.241a4.749 4.749 0 11-4.724 4.749 4.737 4.737 0 014.724-4.749z"/><path class="h" d="M31.752 103.343a5.2 5.2 0 11-5.174 5.2 5.187 5.187 0 015.174-5.2z"/><path class="h" d="M90.017 112.841a2.262 2.262 0 11-2.249 2.262 2.257 2.257 0 012.249-2.262z"/><path class="h" d="M92.718 138.167a2.262 2.262 0 11-2.25 2.262 2.256 2.256 0 012.25-2.262z"/><path class="h" d="M56.499 130.027a3.166 3.166 0 11-3.149 3.166 3.158 3.158 0 013.149-3.166z"/><path class="h" d="M40.413 116.46a5.992 5.992 0 11-5.961 5.991 5.977 5.977 0 015.961-5.991z"/><path class="h" d="M20.279 120.756a3.166 3.166 0 11-3.15 3.165 3.157 3.157 0 013.15-3.165z"/><path class="h" d="M9.705 104.929a3.166 3.166 0 11-3.149 3.165 3.157 3.157 0 013.149-3.165z"/><path class="h" d="M144.911 140.206a2.714 2.714 0 11-2.7 2.714 2.706 2.706 0 012.7-2.714z"/><path class="h" d="M15.217 136.586a5.992 5.992 0 11-5.961 5.991 5.977 5.977 0 015.961-5.991z"/><path class="h" d="M7.68 133.871a2.714 2.714 0 11-2.7 2.715 2.708 2.708 0 012.7-2.715z"/><path class="h" d="M63.247 146.309a2.714 2.714 0 11-2.7 2.714 2.706 2.706 0 012.7-2.714z"/><path class="h" d="M76.069 134.55a4.749 4.749 0 11-4.724 4.749 4.736 4.736 0 014.724-4.748z"/><path class="h" d="M22.978 155.807a3.844 3.844 0 11-3.823 3.844 3.835 3.835 0 013.823-3.844z"/><path class="h" d="M50.762 153.093a5.314 5.314 0 11-5.287 5.314 5.3 5.3 0 015.287-5.314z"/><path class="h" d="M110.152 163.269a8.254 8.254 0 11-8.211 8.254 8.233 8.233 0 018.211-8.254z"/><path class="h" d="M33.439 172.544a8.254 8.254 0 11-8.211 8.254 8.233 8.233 0 018.211-8.254z"/><path class="h" d="M58.859 170.28a5.992 5.992 0 11-5.962 5.991 5.977 5.977 0 015.962-5.991z"/><path class="h" d="M53.8 182.49a3.845 3.845 0 11-3.825 3.844 3.833 3.833 0 013.825-3.844z"/><path class="h" d="M122.412 184.304a4.749 4.749 0 11-4.724 4.749 4.736 4.736 0 014.724-4.749z"/><path class="h" d="M7.68 187.917a2.714 2.714 0 11-2.7 2.714 2.708 2.708 0 012.7-2.714z"/><path class="h" d="M9.706 167.792a2.261 2.261 0 11-2.25 2.261 2.254 2.254 0 012.25-2.261z"/><path class="h" d="M124.886 194.927a3.845 3.845 0 11-3.823 3.845 3.835 3.835 0 013.823-3.845z"/><path class="h" d="M135.009 213.923a2.714 2.714 0 11-2.7 2.714 2.706 2.706 0 012.7-2.714z"/><path class="h" d="M36.363 206.234a6.219 6.219 0 11-6.185 6.219 6.2 6.2 0 016.185-6.219z"/><path class="h" d="M18.478 197.19a4.749 4.749 0 11-4.724 4.748 4.736 4.736 0 014.724-4.748z"/><path class="h" d="M61.446 222.29a4.749 4.749 0 11-4.724 4.749 4.737 4.737 0 014.724-4.749z"/><path class="h" d="M92.717 225.23a5.2 5.2 0 11-5.174 5.2 5.187 5.187 0 015.174-5.2z"/><path class="h" d="M84.393 231.562a1.809 1.809 0 11-1.8 1.808 1.8 1.8 0 011.8-1.808z"/><path class="h" d="M60.323 241.512a4.749 4.749 0 11-4.724 4.748 4.736 4.736 0 014.724-4.748z"/><path class="h" d="M66.396 262.769a5.879 5.879 0 11-5.849 5.878 5.863 5.863 0 015.849-5.878z"/><path class="h" d="M56.948 263.447a2.714 2.714 0 11-2.7 2.714 2.707 2.707 0 012.7-2.714z"/><path class="h" d="M74.27 258.244a3.166 3.166 0 11-3.15 3.166 3.158 3.158 0 013.15-3.166z"/><path class="h" d="M83.044 243.999a3.844 3.844 0 11-3.825 3.844 3.833 3.833 0 013.825-3.844z"/><path class="h" d="M151.207 217.541a5.2 5.2 0 11-5.174 5.2 5.189 5.189 0 015.174-5.2z"/><path class="h" d="M91.367 264.803a4.749 4.749 0 11-4.724 4.749 4.736 4.736 0 014.724-4.749z"/><path class="h" d="M133.21 234.501a4.749 4.749 0 11-4.724 4.752 4.737 4.737 0 014.724-4.749z"/><path class="h" d="M114.763 242.416a5.653 5.653 0 11-5.624 5.653 5.639 5.639 0 015.624-5.653z"/><path class="h" d="M119.262 238.346a1.809 1.809 0 11-1.8 1.809 1.8 1.8 0 011.8-1.809z"/><path class="h" d="M93.617 259.829a2.035 2.035 0 11-2.024 2.034 2.029 2.029 0 012.024-2.034z"/><path class="h" d="M158.631 246.485a8.141 8.141 0 11-8.1 8.141 8.121 8.121 0 018.1-8.141z"/><path class="h" d="M132.54 251.236a3.392 3.392 0 11-3.374 3.391 3.383 3.383 0 013.374-3.391z"/><path class="h" d="M110.488 273.623a5.653 5.653 0 11-5.624 5.653 5.639 5.639 0 015.624-5.653z"/><path class="h" d="M142.434 270.909a5.653 5.653 0 11-5.624 5.653 5.639 5.639 0 015.624-5.653z"/><path class="h" d="M155.032 271.362a5.653 5.653 0 11-5.624 5.652 5.638 5.638 0 015.624-5.652z"/><path class="h" d="M188.777 258.244a5.653 5.653 0 11-5.624 5.653 5.639 5.639 0 015.624-5.653z"/><path class="h" d="M176.403 283.347a5.2 5.2 0 11-5.174 5.2 5.187 5.187 0 015.174-5.2z"/><path class="h" d="M197.1 244.903a5.88 5.88 0 11-5.85 5.88 5.865 5.865 0 015.85-5.88z"/><path class="h" d="M177.078 238.572a3.166 3.166 0 11-3.149 3.166 3.157 3.157 0 013.149-3.166z"/><path class="h" d="M186.076 282.894a3.166 3.166 0 11-3.15 3.166 3.159 3.159 0 013.15-3.166z"/><path class="h" d="M119.487 279.955a1.809 1.809 0 11-1.8 1.808 1.8 1.8 0 011.8-1.808z"/><path class="h" d="M167.18 287.642a2.488 2.488 0 11-2.474 2.487 2.482 2.482 0 012.474-2.487z"/><path class="h" d="M116.338 285.382a4.522 4.522 0 11-4.5 4.521 4.51 4.51 0 014.5-4.521z"/><path class="h" d="M176.417 211.299a3.166 3.166 0 11-3.149 3.166 3.157 3.157 0 013.149-3.166z"/><path class="h" d="M163.641 173.227a2.714 2.714 0 11-2.7 2.714 2.706 2.706 0 012.7-2.714z"/><path class="h" d="M171.694 186.371a3.06 3.06 0 11-3.043 3.059 3.052 3.052 0 013.043-3.059z"/><path class="h" d="M172.274 193.601a1.809 1.809 0 11-1.8 1.809 1.8 1.8 0 011.8-1.809z"/><path class="h" d="M216.523 226.985a5.2 5.2 0 11-5.174 5.2 5.186 5.186 0 015.174-5.2z"/><path class="h" d="M212.568 205.496a3.844 3.844 0 11-3.823 3.844 3.834 3.834 0 013.823-3.844z"/><path class="h" d="M219.812 187.016a3.166 3.166 0 11-3.15 3.166 3.158 3.158 0 013.15-3.166z"/><path class="h" d="M247.208 202.417a8.141 8.141 0 11-8.1 8.141 8.121 8.121 0 018.1-8.141z"/><path class="h" d="M229.719 245.872a5.2 5.2 0 11-5.174 5.2 5.187 5.187 0 015.174-5.2z"/><path class="h" d="M223.233 255.54a5.2 5.2 0 11-5.174 5.2 5.187 5.187 0 015.174-5.2z"/><path class="h" d="M270.501 227.801a4.473 4.473 0 11-4.449 4.473 4.462 4.462 0 014.449-4.473z"/><path class="h" d="M271.48 200.957a3.166 3.166 0 11-3.15 3.165 3.157 3.157 0 013.15-3.165z"/><path class="h" d="M243.178 189.596a5.88 5.88 0 11-5.849 5.88 5.864 5.864 0 015.849-5.88z"/><path class="h" d="M237.139 225.568a5.879 5.879 0 11-5.85 5.878 5.862 5.862 0 015.85-5.878z"/><path class="h" d="M261.779 227.341a3.135 3.135 0 11-3.118 3.134 3.127 3.127 0 013.118-3.134z"/><path class="h" d="M227.259 267.457a5.2 5.2 0 11-5.174 5.2 5.188 5.188 0 015.174-5.2z"/><path class="h" d="M116.837 158.251a2.714 2.714 0 11-2.7 2.714 2.708 2.708 0 012.7-2.714z"/><path class="h" d="M162.864 128.51a2.714 2.714 0 11-2.7 2.714 2.707 2.707 0 012.7-2.714z"/><path class="h" d="M168.429 124.186a2.714 2.714 0 11-2.7 2.714 2.707 2.707 0 012.7-2.714z"/><path class="h" d="M202.819 116.817a2.714 2.714 0 11-2.7 2.713 2.707 2.707 0 012.7-2.713z"/><path class="h" d="M193.36 128.041a6.422 6.422 0 11-6.388 6.422 6.407 6.407 0 016.388-6.422z"/><path class="h" d="M141.378 146.17a4.749 4.749 0 11-4.724 4.748 4.736 4.736 0 014.724-4.748z"/><path class="h" d="M190.131 154.761a3.844 3.844 0 11-3.825 3.844 3.835 3.835 0 013.825-3.844z"/><path class="h" d="M270.995 180.441a5.879 5.879 0 11-5.849 5.878 5.864 5.864 0 015.849-5.878z"/><path class="h" d="M294.007 159.596a5.88 5.88 0 11-5.849 5.88 5.865 5.865 0 015.849-5.88z"/><path class="h" d="M267.454 132.397a5.88 5.88 0 11-5.849 5.88 5.864 5.864 0 015.849-5.88z"/><path class="h" d="M266.19 168.204a5.151 5.151 0 11-5.124 5.152 5.139 5.139 0 015.124-5.152z"/><path class="h" d="M262.265 187.97a2.714 2.714 0 11-2.7 2.714 2.706 2.706 0 012.7-2.714z"/><path class="h" d="M240.554 157.257a1.809 1.809 0 11-1.8 1.808 1.8 1.8 0 011.8-1.808z"/><path class="h" d="M226.139 138.306a1.18 1.18 0 11-1.175 1.18 1.178 1.178 0 011.175-1.18z"/><path class="h" d="M242.478 138.772a4.585 4.585 0 11-4.561 4.585 4.573 4.573 0 014.561-4.585z"/><path class="h" d="M260.475 142.491a2.714 2.714 0 11-2.7 2.713 2.707 2.707 0 012.7-2.713z"/><path class="h" d="M179.287 98.54a8.254 8.254 0 11-8.211 8.255 8.234 8.234 0 018.211-8.255z"/><path class="h" d="M174.151 92.106a3.107 3.107 0 11-3.091 3.106 3.1 3.1 0 013.091-3.106z"/><path class="h" d="M232.314 119.051a3.107 3.107 0 11-3.09 3.106 3.1 3.1 0 013.09-3.106z"/><path class="h" d="M244.2 96.173a3.107 3.107 0 11-3.091 3.107 3.1 3.1 0 013.091-3.107z"/><path class="h" d="M242.181 107.103a3.107 3.107 0 11-3.09 3.107 3.1 3.1 0 013.09-3.107z"/><path class="h" d="M281.718 113.004a2.714 2.714 0 11-2.7 2.714 2.707 2.707 0 012.7-2.714z"/><path class="h" d="M240.66 114.221a4.378 4.378 0 11-4.355 4.377 4.368 4.368 0 014.355-4.377z"/><path class="h" d="M275.305 124.643a4.378 4.378 0 11-4.355 4.379 4.368 4.368 0 014.355-4.379z"/><path class="h" d="M254.564 92.167a5.992 5.992 0 11-5.962 5.991 5.977 5.977 0 015.962-5.991z"/><path class="h" d="M291.739 110.978a5.992 5.992 0 11-5.962 5.991 5.977 5.977 0 015.962-5.991z"/><path class="i" d="M143.714 10.225a1.913 1.913 0 11-1.9 1.914 1.909 1.909 0 011.9-1.914z"/><path class="i" d="M103.018 23.201a2.295 2.295 0 11-2.283 2.295 2.289 2.289 0 012.283-2.295z"/><path class="i" d="M175.483 37.605A2.295 2.295 0 11173.2 39.9a2.289 2.289 0 012.283-2.295z"/><path class="i" d="M154.512 36.106a1.913 1.913 0 11-1.9 1.914 1.909 1.909 0 011.9-1.914z"/><path class="i" d="M167.8 44.662a1.914 1.914 0 11-1.9 1.914 1.909 1.909 0 011.9-1.914z"/><path class="i" d="M177.77 49.672a1.914 1.914 0 11-1.9 1.914 1.909 1.909 0 011.9-1.914z"/><path class="i" d="M191.469 48.248a2.295 2.295 0 11-2.281 2.295 2.289 2.289 0 012.281-2.295z"/><path class="i" d="M229.052 54.092a2.711 2.711 0 11-2.7 2.711 2.7 2.7 0 012.7-2.711z"/><path class="i" d="M214.517 42.403a4.8 4.8 0 11-4.774 4.8 4.787 4.787 0 014.774-4.8z"/><path class="i" d="M203.098 26.124a4.8 4.8 0 11-4.774 4.8 4.787 4.787 0 014.774-4.8z"/><path class="i" d="M191.885 30.123a5.183 5.183 0 11-5.156 5.183 5.17 5.17 0 015.156-5.183z"/><path class="i" d="M165.932 17.357a5.634 5.634 0 11-5.6 5.634 5.62 5.62 0 015.6-5.634z"/><path class="i" d="M147.452 14.852a5.634 5.634 0 11-5.6 5.634 5.62 5.62 0 015.6-5.634z"/><path class="i" d="M125.236 4.033a5.183 5.183 0 11-5.155 5.183 5.17 5.17 0 015.155-5.183z"/><path class="i" d="M158.664 40.072a5.462 5.462 0 11-5.433 5.461 5.447 5.447 0 015.433-5.461z"/><path class="i" d="M165.103 4.626a4.8 4.8 0 11-4.774 4.8 4.787 4.787 0 014.774-4.8z"/><path class="i" d="M211.819 15.062a6.051 6.051 0 11-6.021 6.05 6.036 6.036 0 016.021-6.05z"/><path class="i" d="M119.837 22.612a4.557 4.557 0 11-4.533 4.557 4.545 4.545 0 014.533-4.557z"/><path class="i" d="M103.018 36.35a5.634 5.634 0 11-5.6 5.634 5.621 5.621 0 015.6-5.634z"/><path class="i" d="M125.686 36.801a6.261 6.261 0 11-6.229 6.262 6.246 6.246 0 016.229-6.262z"/><path class="i" d="M121.291 49.532a4.14 4.14 0 11-4.119 4.141 4.131 4.131 0 014.119-4.141z"/><path class="i" d="M245.87 39.481a5.843 5.843 0 11-5.814 5.843 5.829 5.829 0 015.814-5.843z"/><path class="i" d="M238.81 29.881a4.8 4.8 0 11-4.774 4.8 4.787 4.787 0 014.774-4.8z"/><path class="i" d="M178.389 6.087a7.93 7.93 0 11-7.889 7.93 7.91 7.91 0 017.889-7.93z"/><path class="i" d="M185.245 52.421a7.93 7.93 0 11-7.889 7.93 7.911 7.911 0 017.889-7.93z"/><path class="i" d="M239.848 51.796a5.842 5.842 0 11-5.812 5.841 5.829 5.829 0 015.812-5.841z"/><path class="i" d="M218.047 65.362a5.843 5.843 0 11-5.812 5.843 5.829 5.829 0 015.812-5.843z"/><path class="i" d="M209.328 58.508a4.139 4.139 0 11-4.119 4.139 4.128 4.128 0 014.119-4.139z"/><path class="i" d="M149.611 59.032a5.843 5.843 0 11-5.812 5.843 5.829 5.829 0 015.812-5.843z"/><path class="i" d="M160.709 59.163a4.14 4.14 0 11-4.117 4.141 4.131 4.131 0 014.117-4.141z"/><path class="i" d="M190.273 70.171a4.139 4.139 0 11-4.117 4.138 4.129 4.129 0 014.117-4.138z"/><path class="i" d="M108.972 98.068a3.759 3.759 0 11-3.74 3.759 3.749 3.749 0 013.74-3.759z"/><path class="i" d="M111.162 107.427a3.759 3.759 0 11-3.74 3.759 3.749 3.749 0 013.74-3.759z"/><path class="i" d="M126.834 66.019a2.679 2.679 0 11-2.665 2.678 2.671 2.671 0 012.665-2.678z"/><path class="i" d="M112.596 52.259a2.952 2.952 0 11-2.937 2.953 2.946 2.946 0 012.937-2.953z"/><path class="i" d="M246.46 61.065a2.679 2.679 0 11-2.667 2.68 2.672 2.672 0 012.667-2.68z"/><path class="i" d="M259.599 48.131a2.68 2.68 0 11-2.666 2.68 2.673 2.673 0 012.666-2.68z"/><path class="i" d="M281.773 77.706a2.273 2.273 0 11-2.262 2.273 2.267 2.267 0 012.262-2.273z"/><path class="i" d="M247.277 104.122a2.273 2.273 0 11-2.261 2.273 2.267 2.267 0 012.261-2.273z"/><path class="i" d="M185.707 78.84a1.913 1.913 0 11-1.9 1.914 1.909 1.909 0 011.9-1.914z"/><path class="i" d="M195.656 90.11a3.291 3.291 0 11-3.275 3.291 3.284 3.284 0 013.275-3.291z"/><path class="i" d="M212.354 76.901a3.292 3.292 0 11-3.275 3.291 3.284 3.284 0 013.275-3.291z"/><path class="i" d="M174.304 82.404a3.292 3.292 0 11-3.275 3.291 3.283 3.283 0 013.275-3.291z"/><path class="i" d="M190.454 96.438a3.292 3.292 0 11-3.275 3.291 3.283 3.283 0 013.275-3.291z"/><path class="i" d="M234.801 107.974a2.763 2.763 0 11-2.747 2.762 2.756 2.756 0 012.747-2.762z"/><path class="i" d="M164.667 84.624a5.842 5.842 0 11-5.812 5.843 5.828 5.828 0 015.812-5.843z"/><path class="i" d="M164.941 105.537a5.843 5.843 0 11-5.812 5.843 5.829 5.829 0 015.812-5.843z"/><path class="i" d="M255.825 76.644a5.843 5.843 0 11-5.814 5.843 5.829 5.829 0 015.814-5.843z"/><path class="i" d="M241.864 84.35a5.842 5.842 0 11-5.814 5.841 5.828 5.828 0 015.814-5.841z"/><path class="i" d="M271.428 110.219a5.843 5.843 0 11-5.813 5.843 5.829 5.829 0 015.813-5.843z"/><path class="i" d="M277.724 95.867a5.331 5.331 0 11-5.3 5.33 5.317 5.317 0 015.3-5.33z"/><path class="i" d="M280.187 83.485a5.331 5.331 0 11-5.3 5.33 5.318 5.318 0 015.3-5.33z"/><path class="i" d="M290.589 99.719a5.332 5.332 0 11-5.3 5.331 5.319 5.319 0 015.3-5.331z"/><path class="i" d="M281.282 140.719a5.332 5.332 0 11-5.3 5.331 5.318 5.318 0 015.3-5.331z"/><path class="i" d="M294.695 141.545a5.331 5.331 0 11-5.3 5.33 5.318 5.318 0 015.3-5.33z"/><path class="i" d="M259.97 124.76a5.029 5.029 0 11-5 5.029 5.016 5.016 0 015-5.029z"/><path class="i" d="M253.946 134.941a5.029 5.029 0 11-5 5.029 5.016 5.016 0 015-5.029z"/><path class="i" d="M229.548 142.921a5.606 5.606 0 11-5.577 5.606 5.593 5.593 0 015.577-5.606z"/><path class="i" d="M236.991 125.86a2.762 2.762 0 11-2.749 2.762 2.756 2.756 0 012.749-2.762z"/><path class="i" d="M188.263 142.37a2.762 2.762 0 11-2.747 2.762 2.755 2.755 0 012.747-2.762z"/><path class="i" d="M200.31 123.129a3.292 3.292 0 11-3.275 3.293 3.285 3.285 0 013.275-3.293z"/><path class="i" d="M278.872 134.666a2.762 2.762 0 11-2.751 2.762 2.755 2.755 0 012.747-2.762z"/><path class="i" d="M255.867 107.455a7.93 7.93 0 11-7.889 7.93 7.911 7.911 0 017.889-7.93z"/><path class="i" d="M89.42 40.132a7.93 7.93 0 11-7.889 7.929 7.909 7.909 0 017.889-7.929z"/><path class="i" d="M95.262 57.38a6.261 6.261 0 11-6.229 6.262 6.245 6.245 0 016.229-6.262z"/><path class="i" d="M56.71 34.329a5.183 5.183 0 11-5.156 5.183 5.17 5.17 0 015.156-5.183z"/><path class="i" d="M59.839 46.048a5.183 5.183 0 11-5.156 5.183 5.17 5.17 0 015.156-5.183z"/><path class="i" d="M78.252 36.726a3.711 3.711 0 11-3.693 3.71 3.7 3.7 0 013.693-3.71z"/><path class="i" d="M27.925 64.451a3.712 3.712 0 11-3.692 3.712 3.7 3.7 0 013.692-3.712z"/><path class="i" d="M82.518 20.15a3.712 3.712 0 11-3.693 3.712 3.7 3.7 0 013.693-3.712z"/><path class="i" d="M75.179 23.485a2.762 2.762 0 11-2.749 2.762 2.756 2.756 0 012.749-2.762z"/><path class="i" d="M61.25 57.498a2.762 2.762 0 11-2.747 2.762 2.756 2.756 0 012.747-2.762z"/><path class="i" d="M37.077 66.644a2.762 2.762 0 11-2.747 2.762 2.755 2.755 0 012.747-2.762z"/><path class="i" d="M86.269 56.448a2.382 2.382 0 11-2.371 2.383 2.377 2.377 0 012.371-2.383z"/><path class="i" d="M73.647 65.828a3.292 3.292 0 11-3.275 3.293 3.284 3.284 0 013.275-3.293z"/><path class="i" d="M56.303 86.407a3.292 3.292 0 11-3.275 3.293 3.285 3.285 0 013.275-3.293z"/><path class="i" d="M78.483 100.411a3.291 3.291 0 11-3.275 3.291 3.283 3.283 0 013.275-3.291z"/><path class="i" d="M32.705 81.574a3.837 3.837 0 11-3.817 3.837 3.828 3.828 0 013.817-3.837z"/><path class="i" d="M14.9 85.397a2.3 2.3 0 11-2.289 2.3 2.295 2.295 0 012.289-2.3z"/><path class="i" d="M56.591 72.814a6.261 6.261 0 11-6.228 6.26 6.246 6.246 0 016.228-6.26z"/><path class="i" d="M92.703 99.109a6.262 6.262 0 11-6.23 6.262 6.247 6.247 0 016.23-6.262z"/><path class="i" d="M34.749 57.01a4.577 4.577 0 11-4.552 4.577 4.566 4.566 0 014.552-4.577z"/><path class="i" d="M18.312 90.978a8.187 8.187 0 11-8.143 8.186 8.166 8.166 0 018.143-8.186z"/><path class="i" d="M51.225 124.982a3.292 3.292 0 11-3.275 3.293 3.283 3.283 0 013.275-3.293z"/><path class="i" d="M29.241 135.873a3.716 3.716 0 11-3.7 3.716 3.707 3.707 0 013.7-3.716z"/><path class="i" d="M37.508 146.382a3.458 3.458 0 11-3.441 3.459 3.45 3.45 0 013.441-3.459z"/><path class="i" d="M6.203 115.904a2.824 2.824 0 11-2.81 2.825 2.817 2.817 0 012.81-2.825z"/><path class="i" d="M41.024 110.246a2.825 2.825 0 11-2.809 2.825 2.818 2.818 0 012.809-2.825z"/><path class="i" d="M50.873 118.732a2.825 2.825 0 11-2.809 2.825 2.818 2.818 0 012.809-2.825z"/><path class="i" d="M54.742 137.294a2.824 2.824 0 11-2.809 2.825 2.817 2.817 0 012.809-2.825z"/><path class="i" d="M81.824 144.782a3.292 3.292 0 11-3.273 3.291 3.283 3.283 0 013.273-3.291z"/><path class="i" d="M15.136 111.427a4.882 4.882 0 11-4.858 4.883 4.87 4.87 0 014.858-4.883z"/><path class="i" d="M29.39 124.685a4.882 4.882 0 11-4.858 4.883 4.871 4.871 0 014.858-4.883z"/><path class="i" d="M49.259 108.76a4.721 4.721 0 11-4.7 4.721 4.709 4.709 0 014.7-4.721z"/><path class="i" d="M43.486 101.681a3.79 3.79 0 11-3.77 3.789 3.779 3.779 0 013.77-3.789z"/><path class="i" d="M64.03 135.276a4.721 4.721 0 11-4.7 4.721 4.709 4.709 0 014.7-4.721z"/><path class="i" d="M92.871 124.332a6.12 6.12 0 11-6.089 6.121 6.106 6.106 0 016.089-6.121z"/><path class="i" d="M9.156 149.787a8.242 8.242 0 11-8.2 8.242 8.222 8.222 0 018.2-8.242z"/><path class="i" d="M73.351 149.257a8.065 8.065 0 11-8.024 8.065 8.045 8.045 0 018.024-8.065z"/><path class="i" d="M41.325 154.088a3.053 3.053 0 11-3.036 3.057 3.045 3.045 0 013.038-3.053z"/><path class="i" d="M30.995 164.72a3.6 3.6 0 11-3.584 3.6 3.595 3.595 0 013.584-3.6z"/><path class="i" d="M51.855 165.67a3.053 3.053 0 11-3.037 3.053 3.045 3.045 0 013.037-3.053z"/><path class="i" d="M60.792 153.29a3.052 3.052 0 11-3.037 3.052 3.045 3.045 0 013.037-3.052z"/><path class="i" d="M19.731 164.779a6.369 6.369 0 11-6.335 6.369 6.353 6.353 0 016.335-6.369z"/><path class="i" d="M19.135 184.188a5.731 5.731 0 11-5.7 5.73 5.716 5.716 0 015.7-5.73z"/><path class="i" d="M9.938 194.823a3.053 3.053 0 11-3.037 3.053 3.045 3.045 0 013.037-3.053z"/><path class="i" d="M26.823 204.005a3.053 3.053 0 11-3.037 3.053 3.045 3.045 0 013.037-3.053z"/><path class="i" d="M39.339 200.281a2.787 2.787 0 11-2.772 2.787 2.779 2.779 0 012.772-2.787z"/><path class="i" d="M44.366 188.499a5.811 5.811 0 11-5.783 5.812 5.8 5.8 0 015.783-5.812z"/><path class="i" d="M41.384 161.425a5.331 5.331 0 11-5.3 5.33 5.317 5.317 0 015.3-5.33z"/><path class="i" d="M70.045 166.334a4.722 4.722 0 11-4.7 4.721 4.71 4.71 0 014.7-4.721z"/><path class="i" d="M103.906 180.328a6.369 6.369 0 11-6.335 6.369 6.354 6.354 0 016.335-6.369z"/><path class="i" d="M127.301 156.058a5.708 5.708 0 11-5.678 5.708 5.693 5.693 0 015.678-5.708z"/><path class="i" d="M134.533 186.953a5.707 5.707 0 11-5.678 5.708 5.693 5.693 0 015.678-5.708z"/><path class="i" d="M120.192 177.241a3.6 3.6 0 11-3.585 3.6 3.593 3.593 0 013.585-3.6z"/><path class="i" d="M21.485 210.071a6.369 6.369 0 11-6.337 6.372 6.353 6.353 0 016.337-6.369z"/><path class="i" d="M31.246 228.345a4.106 4.106 0 11-4.085 4.105 4.1 4.1 0 014.085-4.105z"/><path class="i" d="M70.295 239.416a4.106 4.106 0 11-4.08 4.108 4.1 4.1 0 014.085-4.105z"/><path class="i" d="M63.162 233.761a3.6 3.6 0 11-3.578 3.6 3.587 3.587 0 013.578-3.6z"/><path class="i" d="M59.658 204.573a3.6 3.6 0 11-3.578 3.6 3.587 3.587 0 013.578-3.6z"/><path class="i" d="M102.417 227.708a2.787 2.787 0 11-2.772 2.787 2.781 2.781 0 012.772-2.787z"/><path class="i" d="M142.968 214.392a3.27 3.27 0 11-3.251 3.271 3.262 3.262 0 013.251-3.271z"/><path class="i" d="M103.669 194.483a2.01 2.01 0 11-2 2.011 2.006 2.006 0 012-2.011z"/><path class="i" d="M117.688 200.019a2.01 2.01 0 11-2 2.011 2 2 0 012-2.011z"/><path class="i" d="M106.424 240.782a2.01 2.01 0 11-2 2.009 2 2 0 012-2.009z"/><path class="i" d="M100.417 260.66a2.01 2.01 0 11-2 2.009 2 2 0 012-2.009z"/><path class="i" d="M163.998 272.989a2.01 2.01 0 11-2 2.009 2 2 0 012-2.009z"/><path class="i" d="M42.261 231.681a8.662 8.662 0 11-8.617 8.662 8.641 8.641 0 018.617-8.662z"/><path class="i" d="M83.969 253.635a5.731 5.731 0 11-5.7 5.73 5.717 5.717 0 015.7-5.73z"/><path class="i" d="M122.015 253.384a5.731 5.731 0 11-5.7 5.73 5.716 5.716 0 015.7-5.73z"/><path class="i" d="M120.513 265.713a5.73 5.73 0 11-5.7 5.73 5.716 5.716 0 015.7-5.73z"/><path class="i" d="M138.035 220.925a5.731 5.731 0 11-5.7 5.73 5.716 5.716 0 015.7-5.73z"/><path class="i" d="M112.003 228.724a5.731 5.731 0 11-5.7 5.731 5.717 5.717 0 015.7-5.731z"/><path class="i" d="M79.212 234.915a4.321 4.321 0 11-4.3 4.32 4.309 4.309 0 014.3-4.32z"/><path class="i" d="M89.223 237.047a3.7 3.7 0 11-3.679 3.7 3.69 3.69 0 013.679-3.7z"/><path class="i" d="M52.606 230.476a2.787 2.787 0 11-2.772 2.787 2.78 2.78 0 012.772-2.787z"/><path class="i" d="M61.285 252.884a4.98 4.98 0 11-4.955 4.98 4.967 4.967 0 014.955-4.98z"/><path class="i" d="M102.086 265.465a4.98 4.98 0 11-4.955 4.98 4.967 4.967 0 014.955-4.98z"/><path class="i" d="M96.97 275.529a6.055 6.055 0 11-6.024 6.055 6.039 6.039 0 016.024-6.055z"/><path class="i" d="M80.815 265.99a3.7 3.7 0 11-3.679 3.7 3.69 3.69 0 013.679-3.7z"/><path class="i" d="M150.887 263.429a3.7 3.7 0 11-3.679 3.7 3.69 3.69 0 013.679-3.7z"/><path class="i" d="M131.777 260.1a3.7 3.7 0 11-3.679 3.7 3.689 3.689 0 013.679-3.7z"/><path class="i" d="M124.77 240.526a2.009 2.009 0 11-2 2.009 2 2 0 012-2.009z"/><path class="i" d="M130.476 278.931a8.16 8.16 0 11-8.118 8.16 8.139 8.139 0 018.118-8.16z"/><path class="i" d="M202.842 227.962a8.16 8.16 0 11-8.118 8.16 8.14 8.14 0 018.118-8.16z"/><path class="i" d="M142.581 241.362a6.924 6.924 0 11-6.89 6.923 6.907 6.907 0 016.89-6.923z"/><path class="i" d="M180.037 269.281a6.924 6.924 0 11-6.888 6.925 6.907 6.907 0 016.888-6.925z"/><path class="i" d="M165.077 234.942a5.731 5.731 0 11-5.7 5.73 5.716 5.716 0 015.7-5.73z"/><path class="i" d="M188.011 235.198a5.731 5.731 0 11-5.7 5.731 5.716 5.716 0 015.7-5.731z"/><path class="i" d="M172.468 257.482a5.731 5.731 0 11-5.7 5.73 5.716 5.716 0 015.7-5.73z"/><path class="i" d="M202.025 258.25a5.731 5.731 0 11-5.7 5.73 5.716 5.716 0 015.7-5.73z"/><path class="i" d="M212.217 250.821a5.731 5.731 0 11-5.7 5.731 5.717 5.717 0 015.7-5.731z"/><path class="i" d="M239.485 255.177a5.73 5.73 0 11-5.7 5.73 5.715 5.715 0 015.7-5.73z"/><path class="i" d="M164.823 206.51a5.731 5.731 0 11-5.7 5.73 5.717 5.717 0 015.7-5.73z"/><path class="i" d="M160.296 217.21a3.269 3.269 0 11-3.253 3.269 3.262 3.262 0 013.253-3.269z"/><path class="i" d="M210.746 278.315a3.382 3.382 0 11-3.363 3.381 3.373 3.373 0 013.363-3.381z"/><path class="i" d="M168.96 277.29a3.381 3.381 0 11-3.365 3.381 3.372 3.372 0 013.365-3.381z"/><path class="i" d="M160.55 264.74a3.637 3.637 0 11-3.619 3.637 3.628 3.628 0 013.619-3.637z"/><path class="i" d="M153.161 229.826a4.228 4.228 0 11-4.205 4.229 4.218 4.218 0 014.205-4.229z"/><path class="i" d="M174.82 230.417a3.382 3.382 0 11-3.365 3.381 3.373 3.373 0 013.365-3.381z"/><path class="i" d="M167.832 230.021a2.01 2.01 0 11-2 2.011 2.006 2.006 0 012-2.011z"/><path class="i" d="M157.89 288.521a4.981 4.981 0 11-4.955 4.982 4.968 4.968 0 014.955-4.982z"/><path class="i" d="M151.004 142.301a2.762 2.762 0 11-2.747 2.762 2.757 2.757 0 012.747-2.762z"/><path class="i" d="M163.159 119.076a3.339 3.339 0 11-3.322 3.338 3.329 3.329 0 013.322-3.338z"/><path class="i" d="M239.374 149.873a3.339 3.339 0 11-3.322 3.34 3.332 3.332 0 013.322-3.34z"/><path class="i" d="M292.546 179.398a3.339 3.339 0 11-3.321 3.338 3.331 3.331 0 013.321-3.338z"/><path class="i" d="M287.482 152.164a4.1 4.1 0 11-4.08 4.1 4.092 4.092 0 014.08-4.1z"/><path class="i" d="M168.476 155.473a3.593 3.593 0 11-3.575 3.593 3.584 3.584 0 013.575-3.593z"/><path class="i" d="M179.398 144.912a7.376 7.376 0 11-7.336 7.376 7.358 7.358 0 017.336-7.376z"/><path class="i" d="M282.201 167.268a7.93 7.93 0 11-7.889 7.93 7.911 7.911 0 017.889-7.93z"/><path class="i" d="M263.062 150.212a5.029 5.029 0 11-5 5.029 5.016 5.016 0 015-5.029z"/><path class="i" d="M266.719 161.391a2.762 2.762 0 11-2.747 2.762 2.755 2.755 0 012.747-2.762z"/><path class="i" d="M224.688 155.282a2.762 2.762 0 11-2.747 2.762 2.755 2.755 0 012.747-2.762z"/><path class="i" d="M258.663 177.281a5.606 5.606 0 11-5.577 5.606 5.592 5.592 0 015.577-5.606z"/><path class="i" d="M257.097 170.553a2.762 2.762 0 11-2.747 2.762 2.756 2.756 0 012.747-2.762z"/><path class="i" d="M252.286 187.606a2.763 2.763 0 11-2.747 2.762 2.756 2.756 0 012.747-2.762z"/><path class="i" d="M296.344 154.009a2.762 2.762 0 11-2.747 2.762 2.757 2.757 0 012.747-2.762z"/><path class="i" d="M220.023 195.567a5.73 5.73 0 11-5.7 5.73 5.716 5.716 0 015.7-5.73z"/><path class="i" d="M232.935 198.874a5.731 5.731 0 11-5.7 5.731 5.716 5.716 0 015.7-5.731z"/><path class="i" d="M264.079 206.256a5.731 5.731 0 11-5.7 5.73 5.716 5.716 0 015.7-5.73z"/><path class="i" d="M250.658 226.618a5.731 5.731 0 11-5.7 5.731 5.717 5.717 0 015.7-5.731z"/><path class="i" d="M261.041 235.781a5.73 5.73 0 11-5.7 5.73 5.716 5.716 0 015.7-5.73z"/><path class="i" d="M161.422 189.666a7.93 7.93 0 11-7.889 7.929 7.91 7.91 0 017.889-7.929z"/><path class="i" d="M184.098 207.539a3.268 3.268 0 11-3.253 3.268 3.26 3.26 0 013.253-3.268z"/><path class="i" d="M186.376 200.157a3.269 3.269 0 11-3.253 3.269 3.261 3.261 0 013.253-3.269z"/><path class="i" d="M239.043 218.483a3.269 3.269 0 11-3.253 3.269 3.261 3.261 0 013.253-3.269z"/><path class="i" d="M276.264 222.046a3.269 3.269 0 11-3.253 3.269 3.261 3.261 0 013.253-3.269z"/><path class="i" d="M267.148 193.794a3.269 3.269 0 11-3.251 3.269 3.261 3.261 0 013.251-3.269z"/><path class="i" d="M284.56 196.681a2.01 2.01 0 11-2 2.011 2.006 2.006 0 012-2.011z"/><path class="i" d="M283.055 201.574a4.228 4.228 0 11-4.205 4.229 4.219 4.219 0 014.205-4.229z"/><path class="i" d="M276.218 193.429a4.228 4.228 0 11-4.205 4.229 4.219 4.219 0 014.205-4.229z"/><path class="i" d="M268.235 219.247a3.6 3.6 0 11-3.579 3.6 3.587 3.587 0 013.579-3.6z"/><path class="i" d="M222.151 208.048a3.6 3.6 0 11-3.578 3.6 3.588 3.588 0 013.578-3.6z"/><path class="i" d="M230.94 222.433a2.883 2.883 0 11-2.868 2.883 2.875 2.875 0 012.868-2.883z"/><path class="i" d="M227.857 235.242a4.921 4.921 0 11-4.9 4.921 4.91 4.91 0 014.9-4.921z"/><path class="i" d="M250.274 255.106a3.381 3.381 0 11-3.363 3.381 3.373 3.373 0 013.363-3.381z"/><path class="i" d="M220.5 251.404a2.01 2.01 0 11-2 2.011 2 2 0 012-2.011z"/><path class="j" d="M142.103 24.984a1.748 1.748 0 11-1.739 1.746 1.743 1.743 0 011.739-1.746z"/><path class="j" d="M156.166 21.144a1.748 1.748 0 11-1.739 1.748 1.744 1.744 0 011.739-1.748z"/><path class="j" d="M159.378 34.076a1.748 1.748 0 11-1.737 1.748 1.743 1.743 0 011.737-1.748z"/><path class="j" d="M168.017 30.235a1.748 1.748 0 11-1.739 1.746 1.742 1.742 0 011.739-1.746z"/><path class="j" d="M133.866 3.316a2.212 2.212 0 11-2.2 2.212 2.206 2.206 0 012.2-2.212z"/><path class="j" d="M117.594 31.993a2.211 2.211 0 11-2.2 2.211 2.2 2.2 0 012.2-2.211z"/><path class="j" d="M94.691 35.627a2.212 2.212 0 11-2.2 2.212 2.206 2.206 0 012.2-2.212z"/><path class="j" d="M78.619 29.569a2.615 2.615 0 11-2.6 2.615 2.609 2.609 0 012.6-2.615z"/><path class="j" d="M190.317 7.961a2.615 2.615 0 11-2.6 2.615 2.609 2.609 0 012.6-2.615z"/><path class="j" d="M114.178 46.532a2.009 2.009 0 11-2 2.009 2 2 0 012-2.009z"/><path class="j" d="M104.334 48.611a3.162 3.162 0 11-3.144 3.162 3.154 3.154 0 013.144-3.162z"/><path class="j" d="M68.776 41.543a3.767 3.767 0 11-3.747 3.767 3.758 3.758 0 013.747-3.767z"/><path class="j" d="M141.098 1.761a3.767 3.767 0 11-3.747 3.767 3.759 3.759 0 013.747-3.767z"/><path class="j" d="M157.371 12.383a3.242 3.242 0 11-3.225 3.243 3.235 3.235 0 013.225-3.243z"/><path class="j" d="M167.275 35a4.11 4.11 0 11-4.089 4.11 4.1 4.1 0 014.089-4.11z"/><path class="j" d="M154.015 26.316a4.111 4.111 0 11-4.088 4.111 4.1 4.1 0 014.088-4.111z"/><path class="j" d="M169.888 49.742a4.11 4.11 0 11-4.089 4.11 4.1 4.1 0 014.089-4.11z"/><path class="j" d="M126.634 57.214a3.242 3.242 0 11-3.225 3.241 3.234 3.234 0 013.225-3.241z"/><path class="j" d="M135.329 17.979a4.977 4.977 0 11-4.952 4.977 4.964 4.964 0 014.952-4.977z"/><path class="j" d="M109.016 25.849a4.977 4.977 0 11-4.952 4.977 4.965 4.965 0 014.952-4.977z"/><path class="j" d="M87.721 28.277a4.977 4.977 0 11-4.952 4.977 4.965 4.965 0 014.952-4.977z"/><path class="j" d="M110.622 7.328a8.554 8.554 0 11-8.509 8.554 8.532 8.532 0 018.509-8.554z"/><path class="j" d="M134.529 46.25a5.785 5.785 0 11-5.755 5.784 5.77 5.77 0 015.755-5.784z"/><path class="j" d="M147.788 46.654a5.785 5.785 0 11-5.756 5.784 5.77 5.77 0 015.756-5.784z"/><path class="j" d="M201.427 47.865a5.785 5.785 0 11-5.755 5.786 5.77 5.77 0 015.755-5.786z"/><path class="j" d="M198.615 10.103a5.785 5.785 0 11-5.756 5.784 5.77 5.77 0 015.756-5.784z"/><path class="j" d="M183.347 38.173a5.785 5.785 0 11-5.756 5.784 5.77 5.77 0 015.756-5.784z"/><path class="j" d="M47.137 43.625a4.977 4.977 0 11-4.952 4.977 4.964 4.964 0 014.952-4.977z"/><path class="j" d="M82.296 61.396a4.977 4.977 0 11-4.951 4.977 4.965 4.965 0 014.951-4.977z"/><path class="j" d="M105.539 64.767a3.161 3.161 0 11-3.144 3.16 3.153 3.153 0 013.144-3.16z"/><path class="j" d="M132.661 69.355a2.009 2.009 0 11-2 2.009 2 2 0 012-2.009z"/><path class="j" d="M135.734 59.175a4.977 4.977 0 11-4.951 4.977 4.965 4.965 0 014.951-4.977z"/><path class="j" d="M70.845 52.51a5.785 5.785 0 11-5.755 5.784 5.77 5.77 0 015.755-5.784z"/><path class="j" d="M41.917 72.501a5.786 5.786 0 11-5.755 5.786 5.771 5.771 0 015.755-5.786z"/><path class="j" d="M31.208 72.443a3.767 3.767 0 11-3.747 3.767 3.759 3.759 0 013.747-3.767z"/><path class="j" d="M216.092 28.134a6.332 6.332 0 11-6.3 6.331 6.316 6.316 0 016.3-6.331z"/><path class="j" d="M228.748 36.212a8.554 8.554 0 11-8.508 8.554 8.532 8.532 0 018.508-8.554z"/><path class="j" d="M254.663 62.867a6.333 6.333 0 11-6.3 6.332 6.315 6.315 0 016.3-6.332z"/><path class="j" d="M189.916 14.483a1.748 1.748 0 11-1.739 1.748 1.743 1.743 0 011.739-1.748z"/><path class="j" d="M196.947 23.772a1.748 1.748 0 11-1.739 1.748 1.744 1.744 0 011.739-1.748z"/><path class="j" d="M203.175 21.144a1.748 1.748 0 11-1.739 1.748 1.744 1.744 0 011.739-1.748z"/><path class="j" d="M221.255 21.551a2.758 2.758 0 11-2.744 2.758 2.751 2.751 0 012.744-2.758z"/><path class="j" d="M252.252 51.963a4.716 4.716 0 11-4.692 4.716 4.7 4.7 0 014.692-4.716z"/><path class="j" d="M254.403 46.188a1.748 1.748 0 11-1.739 1.748 1.742 1.742 0 011.739-1.748z"/><path class="j" d="M234.716 63.554a1.748 1.748 0 11-1.739 1.749 1.745 1.745 0 011.739-1.749z"/><path class="j" d="M210.607 52.65a1.949 1.949 0 11-1.94 1.949 1.944 1.944 0 011.94-1.949z"/><path class="j" d="M171.092 59.435a4.111 4.111 0 11-4.089 4.11 4.1 4.1 0 014.089-4.11z"/><path class="j" d="M166.471 76.398a3.5 3.5 0 11-3.487 3.5 3.5 3.5 0 013.487-3.5z"/><path class="j" d="M191.58 79.629a3.5 3.5 0 11-3.487 3.5 3.5 3.5 0 013.487-3.5z"/><path class="j" d="M199.021 71.35a3.3 3.3 0 11-3.285 3.3 3.294 3.294 0 013.285-3.3z"/><path class="j" d="M243.615 71.089a5.785 5.785 0 11-5.755 5.784 5.771 5.771 0 015.755-5.784z"/><path class="j" d="M266.718 86.032a5.785 5.785 0 11-5.756 5.786 5.77 5.77 0 015.756-5.786z"/><path class="j" d="M228.145 60.041a3.3 3.3 0 11-3.285 3.3 3.295 3.295 0 013.285-3.3z"/><path class="j" d="M265.712 99.379a4.938 4.938 0 11-4.912 4.938 4.926 4.926 0 014.912-4.937z"/><path class="j" d="M258.017 88.998a1.748 1.748 0 11-1.737 1.749 1.744 1.744 0 011.737-1.749z"/><path class="j" d="M251.188 88.797a1.748 1.748 0 11-1.739 1.748 1.744 1.744 0 011.739-1.748z"/><path class="j" d="M286.747 94.19a2.211 2.211 0 11-2.2 2.211 2.206 2.206 0 012.2-2.211z"/><path class="j" d="M280.523 107.722a2.211 2.211 0 11-2.2 2.211 2.2 2.2 0 012.2-2.211z"/><path class="j" d="M280.72 120.703a2.556 2.556 0 11-2.543 2.556 2.549 2.549 0 012.543-2.556z"/><path class="j" d="M265.652 121.049a2.211 2.211 0 11-2.2 2.211 2.2 2.2 0 012.2-2.211z"/><path class="j" d="M268.063 126.559a1.748 1.748 0 11-1.739 1.749 1.745 1.745 0 011.739-1.749z"/><path class="j" d="M233.309 115.979a1.424 1.424 0 11-1.417 1.424 1.421 1.421 0 011.417-1.424z"/><path class="j" d="M237.991 100.428a3.3 3.3 0 11-3.287 3.3 3.3 3.3 0 013.287-3.3z"/><path class="j" d="M183.749 84.071a6.333 6.333 0 11-6.3 6.332 6.316 6.316 0 016.3-6.332z"/><path class="j" d="M168.279 97.805a3.3 3.3 0 11-3.285 3.3 3.293 3.293 0 013.285-3.3z"/><path class="j" d="M161.449 98.207a2.7 2.7 0 11-2.683 2.7 2.69 2.69 0 012.683-2.7z"/><path class="j" d="M172.073 116.443a3.831 3.831 0 11-3.81 3.831 3.82 3.82 0 013.81-3.831z"/><path class="j" d="M247.024 122.714a6.156 6.156 0 11-6.125 6.156 6.141 6.141 0 016.125-6.156z"/><path class="j" d="M291.11 124.793a8.252 8.252 0 11-8.21 8.252 8.231 8.231 0 018.21-8.252z"/><path class="j" d="M238.191 133.036a2.211 2.211 0 11-2.2 2.209 2.2 2.2 0 012.2-2.209z"/><path class="j" d="M234.576 138.12a2.211 2.211 0 11-2.2 2.211 2.206 2.206 0 012.2-2.211z"/><path class="j" d="M247.405 148.654a2.211 2.211 0 11-2.2 2.211 2.207 2.207 0 012.2-2.211z"/><path class="j" d="M244.329 135.594a1.424 1.424 0 11-1.417 1.424 1.421 1.421 0 011.417-1.424z"/><path class="j" d="M229.217 128.459a5.1 5.1 0 11-5.073 5.1 5.087 5.087 0 015.073-5.1z"/><path class="j" d="M253.798 146.728a2.866 2.866 0 11-2.85 2.865 2.858 2.858 0 012.85-2.865z"/><path class="j" d="M270.782 146.336a3.258 3.258 0 11-3.241 3.257 3.25 3.25 0 013.241-3.257z"/><path class="j" d="M275.832 152.995a5.448 5.448 0 11-5.42 5.448 5.435 5.435 0 015.42-5.448z"/><path class="j" d="M284.806 161.55a2.211 2.211 0 11-2.2 2.211 2.2 2.2 0 012.2-2.211z"/><path class="j" d="M273.131 164.709a2.866 2.866 0 11-2.85 2.865 2.858 2.858 0 012.85-2.865z"/><path class="j" d="M294.993 173.79a2.865 2.865 0 11-2.85 2.865 2.858 2.858 0 012.85-2.865z"/><path class="j" d="M182.25 135.799a3.8 3.8 0 11-3.782 3.8 3.794 3.794 0 013.782-3.8z"/><path class="j" d="M194.718 146.336a4.166 4.166 0 11-4.145 4.166 4.156 4.156 0 014.145-4.166z"/><path class="j" d="M201.509 150.668a1.424 1.424 0 11-1.417 1.424 1.42 1.42 0 011.417-1.424z"/><path class="j" d="M195.728 163.108a2.061 2.061 0 11-2.05 2.061 2.056 2.056 0 012.05-2.061z"/><path class="j" d="M232.47 155.735a3.63 3.63 0 11-3.61 3.629 3.621 3.621 0 013.61-3.629z"/><path class="j" d="M178.637 161.802a2.866 2.866 0 11-2.85 2.865 2.858 2.858 0 012.85-2.865z"/><path class="j" d="M162.664 162.11a1.424 1.424 0 11-1.417 1.424 1.421 1.421 0 011.417-1.424z"/><path class="j" d="M99.081 111.69a6.406 6.406 0 11-6.374 6.406 6.391 6.391 0 016.374-6.406z"/><path class="j" d="M86.251 138.388a3.318 3.318 0 11-3.3 3.318 3.31 3.31 0 013.3-3.318z"/><path class="j" d="M83.216 133.389a2.2 2.2 0 11-2.193 2.2 2.2 2.2 0 012.193-2.2z"/><path class="j" d="M69.484 144.47a2.2 2.2 0 11-2.193 2.2 2.2 2.2 0 012.193-2.2z"/><path class="j" d="M137.599 157.554a2.919 2.919 0 11-2.9 2.919 2.912 2.912 0 012.9-2.919z"/><path class="j" d="M156.594 133.259a4.166 4.166 0 11-4.145 4.166 4.155 4.155 0 014.145-4.166z"/><path class="j" d="M35.364 90.265a5.822 5.822 0 11-5.792 5.821 5.806 5.806 0 015.792-5.821z"/><path class="j" d="M22.91 73.519a2.167 2.167 0 11-2.155 2.167 2.161 2.161 0 012.155-2.167z"/><path class="j" d="M26.282 88.637a2.167 2.167 0 11-2.156 2.167 2.162 2.162 0 012.156-2.167z"/><path class="j" d="M22.651 109.749a2.167 2.167 0 11-2.156 2.167 2.162 2.162 0 012.156-2.167z"/><path class="j" d="M33.542 143.112a1.646 1.646 0 11-1.637 1.646 1.641 1.641 0 011.637-1.646z"/><path class="j" d="M23.43 141.808a1.125 1.125 0 11-1.119 1.126 1.123 1.123 0 011.119-1.126z"/><path class="j" d="M18.502 150.15a1.646 1.646 0 11-1.637 1.646 1.642 1.642 0 011.637-1.646z"/><path class="j" d="M52.472 99.313a4.523 4.523 0 11-4.5 4.523 4.512 4.512 0 014.5-4.523z"/><path class="j" d="M28.611 115.484a3.731 3.731 0 11-3.712 3.731 3.722 3.722 0 013.712-3.731z"/><path class="j" d="M42.176 129.882a8.1 8.1 0 11-8.055 8.095 8.076 8.076 0 018.055-8.095z"/><path class="j" d="M9.696 122.326a5.821 5.821 0 11-5.792 5.821 5.806 5.806 0 015.792-5.821z"/><path class="j" d="M19.021 129.82a3.731 3.731 0 11-3.712 3.731 3.722 3.722 0 013.712-3.731z"/><path class="j" d="M4.76 141.288a3.731 3.731 0 11-3.711 3.731 3.721 3.721 0 013.711-3.731z"/><path class="j" d="M53.768 144.059a4.088 4.088 0 11-4.067 4.088 4.078 4.078 0 014.067-4.088z"/><path class="j" d="M45.212 147.272a2.96 2.96 0 11-2.944 2.96 2.953 2.953 0 012.944-2.96z"/><path class="j" d="M32.506 156.145a3.731 3.731 0 11-3.713 3.732 3.723 3.723 0 013.713-3.732z"/><path class="j" d="M26.806 144.742a5.821 5.821 0 11-5.792 5.821 5.806 5.806 0 015.792-5.821z"/><path class="j" d="M2.949 166.04a2.959 2.959 0 11-2.944 2.959 2.952 2.952 0 012.944-2.959z"/><path class="j" d="M47.026 173.859a3.742 3.742 0 11-3.722 3.742 3.732 3.732 0 013.722-3.742z"/><path class="j" d="M45.21 183.243a2.177 2.177 0 11-2.167 2.177 2.172 2.172 0 012.167-2.177z"/><path class="j" d="M19.54 178.811a2.178 2.178 0 11-2.167 2.178 2.173 2.173 0 012.167-2.178z"/><path class="j" d="M60.768 161.083a4.524 4.524 0 11-4.5 4.524 4.512 4.512 0 014.5-4.524z"/><path class="j" d="M123.779 169.699a3.992 3.992 0 11-3.972 3.992 3.982 3.982 0 013.972-3.992z"/><path class="j" d="M120.149 165.786a1.646 1.646 0 11-1.638 1.646 1.643 1.643 0 011.638-1.646z"/><path class="j" d="M114.185 183.503a2.439 2.439 0 11-2.425 2.439 2.433 2.433 0 012.425-2.439z"/><path class="j" d="M97.848 192.887a2.438 2.438 0 11-2.425 2.439 2.434 2.434 0 012.425-2.439z"/><path class="j" d="M112.111 192.105a4.523 4.523 0 11-4.5 4.523 4.512 4.512 0 014.5-4.523z"/><path class="j" d="M147.122 186.968a5.3 5.3 0 11-5.273 5.3 5.288 5.288 0 015.273-5.3z"/><path class="j" d="M8.395 174.978a5.822 5.822 0 11-5.792 5.822 5.808 5.808 0 015.792-5.822z"/><path class="j" d="M30.176 191.657a5.821 5.821 0 11-5.79 5.821 5.806 5.806 0 015.79-5.821z"/><path class="j" d="M31.208 219.994a3.742 3.742 0 11-3.722 3.742 3.733 3.733 0 013.722-3.742z"/><path class="j" d="M23.766 224.804a2.919 2.919 0 11-2.9 2.919 2.913 2.913 0 012.9-2.919z"/><path class="j" d="M13.136 207.079a2.919 2.919 0 11-2.9 2.919 2.913 2.913 0 012.9-2.919z"/><path class="j" d="M54.624 237.056a2.919 2.919 0 11-2.9 2.919 2.911 2.911 0 012.9-2.919z"/><path class="j" d="M71.4 231.198a3.742 3.742 0 11-3.723 3.742 3.733 3.733 0 013.723-3.742z"/><path class="j" d="M78.661 229.118a2.177 2.177 0 11-2.167 2.177 2.172 2.172 0 012.167-2.177z"/><path class="j" d="M120.409 205.398a3.742 3.742 0 11-3.722 3.742 3.733 3.733 0 013.722-3.742z"/><path class="j" d="M95.334 210.47a2.919 2.919 0 11-2.9 2.919 2.911 2.911 0 012.9-2.919z"/><path class="j" d="M181.869 187.489a5.821 5.821 0 11-5.792 5.821 5.806 5.806 0 015.792-5.821z"/><path class="j" d="M174.867 199.478a5.822 5.822 0 11-5.792 5.822 5.808 5.808 0 015.792-5.822z"/><path class="j" d="M152.826 205.212a5.822 5.822 0 11-5.79 5.822 5.808 5.808 0 015.79-5.822z"/><path class="j" d="M109.783 255.78a5.822 5.822 0 11-5.792 5.821 5.807 5.807 0 015.792-5.821z"/><path class="j" d="M49.367 247.699a5.822 5.822 0 11-5.792 5.822 5.809 5.809 0 015.792-5.822z"/><path class="j" d="M141.936 257.539a5.105 5.105 0 11-5.079 5.105 5.092 5.092 0 015.079-5.105z"/><path class="j" d="M100.442 234.852a3.741 3.741 0 11-3.722 3.741 3.734 3.734 0 013.722-3.741z"/><path class="j" d="M123.19 232.364a3.291 3.291 0 11-3.275 3.291 3.284 3.284 0 013.275-3.291z"/><path class="j" d="M129.484 230.682a2.178 2.178 0 11-2.167 2.177 2.172 2.172 0 012.167-2.177z"/><path class="j" d="M126.372 246.32a3.742 3.742 0 11-3.722 3.741 3.732 3.732 0 013.722-3.741z"/><path class="j" d="M144.005 233.548a3.742 3.742 0 11-3.722 3.741 3.732 3.732 0 013.722-3.741z"/><path class="j" d="M153.599 239.544a3.741 3.741 0 11-3.722 3.741 3.732 3.732 0 013.722-3.741z"/><path class="j" d="M161.119 226.25a3.742 3.742 0 11-3.722 3.742 3.733 3.733 0 013.722-3.742z"/><path class="j" d="M98.374 243.789a7.907 7.907 0 11-7.866 7.907 7.887 7.887 0 017.866-7.907z"/><path class="j" d="M71.881 250.231a4.04 4.04 0 11-4.02 4.041 4.03 4.03 0 014.02-4.041z"/><path class="j" d="M74.215 274.471a4.04 4.04 0 11-4.02 4.039 4.031 4.031 0 014.02-4.039z"/><path class="j" d="M84.07 274.983a4.572 4.572 0 11-4.548 4.572 4.56 4.56 0 014.548-4.572z"/><path class="j" d="M52.214 259.093a2.177 2.177 0 11-2.167 2.177 2.172 2.172 0 012.167-2.177z"/><path class="j" d="M75.032 266.918a1.385 1.385 0 11-1.379 1.386 1.382 1.382 0 011.379-1.386z"/><path class="j" d="M110.815 268.475a2.178 2.178 0 11-2.167 2.178 2.172 2.172 0 012.167-2.178z"/><path class="j" d="M105.964 286.839a2.919 2.919 0 11-2.9 2.919 2.912 2.912 0 012.9-2.919z"/><path class="j" d="M131.257 268.987a4.572 4.572 0 11-4.548 4.571 4.56 4.56 0 014.548-4.571z"/><path class="j" d="M137.782 267.695a2.177 2.177 0 11-2.167 2.177 2.172 2.172 0 012.167-2.177z"/><path class="j" d="M173.047 246.335a5.105 5.105 0 11-5.079 5.105 5.092 5.092 0 015.079-5.105z"/><path class="j" d="M184.196 248.85a4.339 4.339 0 11-4.317 4.339 4.329 4.329 0 014.317-4.339z"/><path class="j" d="M190.42 227.554a3.742 3.742 0 11-3.722 3.741 3.732 3.732 0 013.722-3.741z"/><path class="j" d="M182.718 230.278a2.919 2.919 0 11-2.9 2.919 2.913 2.913 0 012.9-2.919z"/><path class="j" d="M145.821 284.126a1.646 1.646 0 11-1.637 1.645 1.641 1.641 0 011.637-1.645z"/><path class="j" d="M152.561 284.906a2.428 2.428 0 11-2.415 2.43 2.423 2.423 0 012.415-2.43z"/><path class="j" d="M169.936 271.093a2.428 2.428 0 11-2.417 2.427 2.421 2.421 0 012.417-2.427z"/><path class="j" d="M180.826 265.097a1.646 1.646 0 11-1.637 1.646 1.642 1.642 0 011.637-1.646z"/><path class="j" d="M181.345 258.059a1.646 1.646 0 11-1.637 1.646 1.643 1.643 0 011.637-1.646z"/><path class="j" d="M243.577 224.696a1.646 1.646 0 11-1.639 1.646 1.642 1.642 0 011.639-1.646z"/><path class="j" d="M218.762 277.457a2.919 2.919 0 11-2.9 2.919 2.911 2.911 0 012.9-2.919z"/><path class="j" d="M237.431 268.333a2.919 2.919 0 11-2.9 2.919 2.913 2.913 0 012.9-2.919z"/><path class="j" d="M230.872 262.751a1.646 1.646 0 11-1.639 1.646 1.643 1.643 0 011.639-1.646z"/><path class="j" d="M257.061 248.667a3.742 3.742 0 11-3.722 3.741 3.732 3.732 0 013.722-3.741z"/><path class="j" d="M247.983 221.558a2.178 2.178 0 11-2.165 2.178 2.173 2.173 0 012.165-2.178z"/><path class="j" d="M225.504 228.714a2.919 2.919 0 11-2.9 2.919 2.912 2.912 0 012.9-2.919z"/><path class="j" d="M161.195 282.929a2.919 2.919 0 11-2.9 2.919 2.913 2.913 0 012.9-2.919z"/><path class="j" d="M145.306 288.36a5.822 5.822 0 11-5.79 5.822 5.808 5.808 0 015.79-5.822z"/><path class="j" d="M216.616 239.359a5.821 5.821 0 11-5.792 5.821 5.806 5.806 0 015.792-5.821z"/><path class="j" d="M231.136 212.25a4.519 4.519 0 11-4.495 4.519 4.507 4.507 0 014.495-4.519z"/><path class="j" d="M257.325 218.246a4.518 4.518 0 11-4.5 4.517 4.506 4.506 0 014.5-4.517z"/><path class="j" d="M244.101 238.839a7.907 7.907 0 11-7.866 7.907 7.887 7.887 0 017.866-7.907z"/><path class="j" d="M197.165 271.94a7.907 7.907 0 11-7.866 7.907 7.887 7.887 0 017.866-7.907z"/><path class="j" d="M213.504 264.621a6.363 6.363 0 11-6.331 6.363 6.348 6.348 0 016.331-6.363z"/><path class="j" d="M207.094 245.136a2.919 2.919 0 11-2.9 2.918 2.911 2.911 0 012.9-2.918z"/><path class="j" d="M276.514 209.384a5.821 5.821 0 11-5.792 5.821 5.806 5.806 0 015.792-5.821z"/><path class="j" d="M285.589 184.622a5.822 5.822 0 11-5.792 5.821 5.806 5.806 0 015.792-5.821z"/><path class="j" d="M256.546 193.484a5.822 5.822 0 11-5.79 5.821 5.806 5.806 0 015.79-5.821z"/><path class="j" d="M230.877 186.707a5.821 5.821 0 11-5.792 5.821 5.806 5.806 0 015.792-5.821z"/><path class="j" d="M238.65 186.902a1.646 1.646 0 11-1.637 1.646 1.643 1.643 0 011.637-1.646z"/><path class="j" d="M264.84 201.489a2.177 2.177 0 11-2.167 2.177 2.172 2.172 0 012.167-2.177z"/><path class="j" d="M258.964 161.816a3.258 3.258 0 11-3.241 3.259 3.25 3.25 0 013.241-3.259z"/></svg>
